<svg width="33" height="45" viewBox="0 0 33 45" fill="none" xmlns="http://www.w3.org/2000/svg">
<path d="M9.72488 45C9.50296 44.7111 9.19402 44.454 9.07219 44.1264C8.42385 42.3739 7.81554 40.6056 7.21159 38.8364C7.11064 38.5414 6.99664 38.463 6.68596 38.5308C4.90629 38.92 3.11879 39.2767 1.33825 39.6642C0.902255 39.7593 0.529786 39.7337 0.251306 39.3507C-0.0332672 38.9597 0.0937897 38.588 0.308742 38.2067C1.9483 35.2962 3.57567 32.3777 5.22132 29.4699C5.38754 29.1757 5.37361 29.0154 5.12559 28.7741C-2.89727 20.9664 -1.27077 7.71267 8.38817 2.14788C9.58738 1.45746 10.8571 0.936116 12.1912 0.577694C12.8404 0.403327 13.3234 0.614681 13.453 1.13602C13.5862 1.67233 13.2947 2.08095 12.6472 2.27293C7.57013 3.77707 4.10566 7.04866 2.45479 12.1256C-0.336986 20.7118 5.0873 29.7851 13.8882 31.3958C21.7796 32.8401 29.3517 27.6452 30.9782 19.6709C32.542 12.0014 27.8697 4.32043 20.3977 2.2835C20.0496 2.18839 19.6814 2.07655 19.6014 1.69699C19.5448 1.42663 19.5918 1.0823 19.7189 0.837484C19.899 0.49051 20.2793 0.431507 20.6378 0.533662C21.234 0.704507 21.8397 0.867426 22.4114 1.10696C28.317 3.58773 31.8954 8.00856 32.8118 14.4161C33.609 19.9844 31.8563 24.7813 27.9062 28.7416C27.6443 29.004 27.6121 29.1801 27.7974 29.5068C29.4387 32.4006 31.067 35.3015 32.6752 38.2138C32.8214 38.4788 32.8893 38.8602 32.8292 39.1534C32.7352 39.6149 32.2792 39.791 31.7466 39.6792C29.9348 39.2996 28.122 38.9262 26.3136 38.5299C26.003 38.4621 25.8881 38.5387 25.7871 38.8346C25.1884 40.5897 24.5636 42.3361 23.9596 44.0903C23.8265 44.4769 23.6472 44.8071 23.2747 44.9982C23.1007 44.9982 22.9275 44.9982 22.7534 44.9982C22.5289 44.7411 22.2539 44.5139 22.0886 44.2224C20.3045 41.0776 18.5388 37.9223 16.767 34.7704C16.6913 34.6357 16.6068 34.5054 16.4998 34.3284C16.3928 34.5054 16.3092 34.6357 16.2326 34.7704C14.4608 37.9223 12.6942 41.0767 10.9102 44.2224C10.7448 44.5139 10.4689 44.7411 10.2453 44.9982C10.0721 45 9.89893 45 9.72488 45ZM10.1652 42.0102C11.8161 39.0724 13.4174 36.2235 15.0413 33.3341C11.9849 33.0259 9.2619 31.9885 6.79387 30.2078C5.41626 32.6657 4.06127 35.0831 2.67322 37.5603C2.87686 37.5339 2.99173 37.5269 3.10312 37.504C4.50336 37.2107 5.9036 36.9139 7.30383 36.6189C7.94347 36.4842 8.282 36.6744 8.50652 37.3032C8.7763 38.0596 9.03564 38.8188 9.30194 39.5761C9.57781 40.3564 9.85542 41.1349 10.1652 42.0102ZM30.3412 37.5832C28.9366 35.0778 27.5772 32.6543 26.278 30.3373C24.923 31.0163 23.6472 31.7851 22.2791 32.3046C20.9172 32.8216 19.4621 33.0884 18.0332 33.4689C19.5892 36.235 21.1879 39.0794 22.8309 42.0005C22.9205 41.761 22.9727 41.628 23.0206 41.4924C23.514 40.0878 24.0031 38.6814 24.5009 37.2785C24.7141 36.677 25.0666 36.4859 25.6784 36.6136C26.2727 36.7378 26.8671 36.8629 27.4615 36.9861C28.3909 37.1799 29.3212 37.3719 30.3412 37.5832Z" fill="white"/>
<path d="M3.4712 16.7094C3.46424 9.44143 9.31582 3.51382 16.498 3.51294C23.682 3.51206 29.5335 9.43703 29.5283 16.7059C29.5222 23.9571 23.6898 29.8662 16.5233 29.8812C9.34367 29.8953 3.47816 23.9765 3.4712 16.7094ZM5.20822 16.6759C5.19778 22.976 10.2661 28.1181 16.4902 28.1234C22.6986 28.1287 27.7695 23.021 27.7913 16.7384C27.8139 10.4374 22.756 5.28568 16.5302 5.26982C10.3036 5.25397 5.21867 10.3767 5.20822 16.6759Z" fill="white"/>
<path d="M16.4979 1.50497e-06C16.96 -0.000879139 17.3516 0.384843 17.3647 0.851584C17.3777 1.33506 16.9792 1.74984 16.5014 1.75072C16.0228 1.7516 15.6242 1.33858 15.6355 0.854226C15.6459 0.386604 16.0358 0.000882149 16.4979 1.50497e-06Z" fill="white"/>
<path d="M11.0371 23.285C11.2172 22.1798 11.3225 21.0332 11.6062 19.9342C11.8734 18.8986 11.6976 18.1623 10.8447 17.4772C10.0224 16.8158 9.3305 15.9898 8.57164 15.2457C8.27749 14.9568 8.11388 14.638 8.25051 14.2259C8.38801 13.8137 8.70827 13.6675 9.11468 13.6094C10.4888 13.413 11.8595 13.192 13.2327 12.9903C13.4973 12.9516 13.6626 12.845 13.7853 12.5879C14.3902 11.3242 15.0211 10.0736 15.6355 8.8152C15.813 8.45061 16.0436 8.17585 16.4805 8.16793C16.9374 8.15912 17.1802 8.44005 17.3656 8.82048C17.973 10.0666 18.6004 11.303 19.1966 12.5535C19.3332 12.8406 19.5151 12.9569 19.8144 12.9991C21.1886 13.1946 22.5601 13.4113 23.9334 13.6138C24.3224 13.6711 24.6235 13.8375 24.7497 14.232C24.8758 14.6248 24.7357 14.941 24.4538 15.2201C23.4408 16.2249 22.4374 17.2394 21.4201 18.239C21.233 18.423 21.1825 18.5912 21.2295 18.8554C21.481 20.2812 21.7072 21.7113 21.944 23.1389C22.0049 23.5034 21.9074 23.8134 21.6202 24.038C21.2991 24.2899 20.9553 24.2678 20.6029 24.0811C19.3602 23.4242 18.1105 22.7813 16.8747 22.1111C16.5971 21.9606 16.3891 21.9729 16.1176 22.12C14.881 22.7875 13.6348 23.4383 12.3851 24.0803C11.7054 24.4308 11.0188 24.0257 11.0371 23.285ZM19.9485 21.751C19.7866 20.762 19.6804 19.847 19.4777 18.954C19.3062 18.2011 19.4576 17.6498 20.0424 17.1258C20.7317 16.5103 21.333 15.7943 21.9953 15.0986C21.0737 14.9577 20.1512 14.7798 19.2209 14.6864C18.5291 14.6169 18.0861 14.3342 17.8033 13.6711C17.4282 12.7922 16.967 11.9503 16.5005 11.0071C16.0349 11.9485 15.5737 12.7895 15.1986 13.6684C14.9158 14.3298 14.4754 14.6169 13.7827 14.6864C12.8515 14.7807 11.9291 14.9594 10.9352 15.1118C11.0902 15.2765 11.1946 15.3936 11.3051 15.5037C11.9439 16.1413 12.5809 16.7815 13.2266 17.412C13.5434 17.7211 13.667 18.0602 13.5826 18.5164C13.3885 19.5626 13.2371 20.6176 13.0543 21.7527C13.9977 21.2596 14.8818 20.8333 15.7295 20.3411C16.2673 20.0284 16.7294 20.0249 17.2681 20.3349C18.1166 20.8245 18.9999 21.2543 19.9485 21.751Z" fill="white"/>
</svg>
