<svg width="32" height="32" viewBox="0 0 32 32" fill="none" xmlns="http://www.w3.org/2000/svg">
<path d="M5.06224 0C5.24973 0 5.43722 0 5.62471 0C6.32217 0.26334 6.69965 0.745853 6.67299 1.51504C6.66215 1.82671 6.67132 2.14006 6.67132 2.45256C6.67132 2.95924 6.67132 3.46592 6.67132 4.00094C6.83048 4.00094 6.95297 4.00094 7.07547 4.00094C12.6577 4.00094 18.2399 3.99927 23.8213 4.0051C24.1629 4.0051 24.5121 4.0251 24.8437 4.09761C26.7103 4.50678 27.9952 6.11433 27.996 8.03688C28.0002 13.6612 27.9977 19.2855 27.9977 24.909C27.9977 25.0407 27.9977 25.1732 27.9977 25.329C28.1485 25.329 28.261 25.329 28.3735 25.329C29.1235 25.329 29.8734 25.3173 30.6226 25.3323C31.5867 25.3515 32.2158 26.2065 31.9275 27.0865C31.7483 27.6332 31.25 27.9949 30.6426 27.9991C29.7726 28.0049 28.901 28.0007 27.9985 28.0007C27.9985 28.8716 28.0002 29.7124 27.9977 30.5525C27.9952 31.3917 27.4527 31.9883 26.6869 32C25.9053 32.0117 25.3345 31.4133 25.3279 30.565C25.322 29.8258 25.3262 29.0858 25.3262 28.3466C25.3262 28.2374 25.3262 28.1282 25.3262 28.0007C25.1537 28.0007 25.0304 28.0007 24.9062 28.0007C19.3448 28.0007 13.7835 27.9691 8.22291 28.0157C5.82136 28.0357 3.96063 26.1523 3.98313 23.7615C4.03396 18.2005 3.99979 12.6387 3.99979 7.07685C3.99979 6.94685 3.99979 6.81601 3.99979 6.67184C3.2015 6.67184 2.45071 6.64601 1.70241 6.67851C0.878288 6.71601 0.289985 6.42517 0 5.62515C0 5.43764 0 5.25014 0 5.06263C0.269153 4.27094 0.829124 3.94677 1.65241 3.9951C2.15072 4.02344 2.65153 4.0001 3.15067 4.0001C3.42732 4.0001 3.70397 4.0001 3.99979 4.0001C3.99979 3.19008 4.02646 2.42006 3.99229 1.65254C3.95646 0.829188 4.27061 0.270007 5.06224 0ZM12.6602 20.5822C12.7618 20.4855 12.8452 20.4089 12.926 20.3289C14.9142 18.3405 16.9016 16.3513 18.8915 14.3645C19.9498 13.3078 21.3831 13.307 22.4422 14.3604C23.313 15.2271 24.1804 16.0979 25.0495 16.9663C25.1245 17.0404 25.2029 17.1104 25.3279 17.2279C25.3279 17.0638 25.3279 16.9813 25.3279 16.8979C25.3279 13.982 25.3295 11.0653 25.327 8.14938C25.3262 7.18685 24.8062 6.67267 23.8354 6.67184C18.2324 6.67101 12.6302 6.67101 7.02713 6.67101C6.91714 6.67101 6.80715 6.67101 6.70382 6.67101C6.70382 11.0886 6.70382 15.4612 6.70382 19.9197C7.01297 19.5972 7.26046 19.3305 7.51711 19.073C8.63455 17.9546 10.0361 17.9555 11.1553 19.0722C11.6536 19.5713 12.151 20.0722 12.6602 20.5822Z" fill="white"/>
</svg>
