<svg width="38" height="41" viewBox="0 0 38 41" fill="none" xmlns="http://www.w3.org/2000/svg">
<path d="M12.1288 21.6627C10.9886 21.6627 9.96594 21.669 8.94455 21.6614C4.658 21.6276 1.10336 18.7811 0.261468 14.6184C-0.0747821 12.9553 -0.0950077 11.2383 0.256411 9.57647C0.941551 6.3367 3.77439 4.14763 7.16849 4.13009C9.64865 4.11757 12.1301 4.12258 14.6102 4.13385C14.9313 4.1351 15.1234 4.04995 15.2853 3.75941C15.8579 2.73375 16.4583 1.72187 17.0563 0.709984C17.6188 -0.243038 18.5656 -0.236777 19.1306 0.72376C19.7513 1.77697 20.3732 2.83018 20.9699 3.89716C21.1582 4.23153 21.3226 4.30166 21.6639 4.08251C22.6979 3.42002 23.7471 2.78259 24.7963 2.14265C25.7355 1.57033 26.5901 2.02117 26.6318 3.11696C26.6773 4.30542 26.7165 5.49513 26.7405 6.68359C26.7493 7.13193 26.9579 7.33606 27.3978 7.3611C28.5646 7.42497 29.7313 7.50512 30.8981 7.56398C31.3848 7.58903 31.8083 7.71176 32.0434 8.17261C32.2785 8.63097 32.147 9.04173 31.8715 9.44623C31.1029 10.5733 30.3495 11.7092 29.5632 12.8801C30.577 13.4612 31.5706 14.0298 32.5642 14.5996C32.769 14.7173 32.9788 14.8275 33.1773 14.954C33.961 15.4499 33.9648 16.3829 33.1634 16.8625C32.1774 17.4524 31.1712 18.0097 30.1738 18.582C30.079 18.6358 29.9905 18.6997 29.8502 18.7899C30.8627 19.3697 31.8399 19.9295 32.8157 20.4905C32.9662 20.5769 33.1229 20.6546 33.2632 20.7535C33.9661 21.2482 33.9218 22.1549 33.1545 22.612C32.2077 23.1768 31.2457 23.7153 30.2901 24.265C30.1573 24.3414 30.0271 24.4216 29.8476 24.5293C30.8488 24.9739 31.7994 25.3921 32.7462 25.8167C33.8156 26.2963 33.9168 27.2281 32.9712 27.9118C32.2064 28.4654 31.4366 29.0139 30.6706 29.5661C30.6491 29.5824 30.6402 29.6175 30.5985 29.6951C31.3823 29.8329 32.1458 29.9757 32.9118 30.1009C34.1203 30.2988 34.4641 31.0915 33.7575 32.0758C33.3176 32.6882 32.8752 33.2968 32.4352 33.9092C32.4188 33.9318 32.4201 33.9668 32.3961 34.072C32.9093 34.0119 33.3972 33.9343 33.8864 33.9042C34.1936 33.8842 34.5286 33.8692 34.8118 33.9656C35.3288 34.1434 35.5626 34.6907 35.4046 35.2379C35.215 35.8954 35.0001 36.5454 34.7612 37.3131C35.3237 37.0952 35.7965 36.9123 36.2693 36.7282C37.3298 36.3137 38.0188 36.7883 37.996 37.9217C37.9796 38.7357 37.953 39.5497 37.9404 40.3625C37.9341 40.7908 37.7217 40.9937 37.2982 40.9974C37.1883 40.9987 37.077 40.9974 36.967 40.9974C26.6811 40.9974 16.3939 40.9974 6.10791 40.9974C5.21672 40.9974 5.04481 40.797 5.18639 39.9254C5.4569 38.2611 6.59965 37.1189 8.32893 36.7871C8.57669 36.7395 8.82446 36.6957 9.10003 36.6443C9.06843 36.5579 9.05452 36.4828 9.01786 36.4201C6.95739 32.8034 7.10655 29.2631 9.39077 25.7966C10.282 24.4529 11.1731 23.1079 12.1288 21.6627ZM20.5034 39.8315C25.4903 39.8315 30.3798 39.8315 35.3313 39.8315C35.2251 39.7451 35.1783 39.7038 35.129 39.6649C30.6744 36.201 28.442 31.6676 28.4458 26.0534C28.4483 21.9996 28.4559 17.9458 28.4432 13.892C28.4281 9.09057 24.7066 5.32231 19.8575 5.26596C15.5924 5.21712 11.3261 5.22213 7.06104 5.26846C4.61502 5.29601 2.7707 6.45692 1.76953 8.66478C0.846744 10.6986 1.11094 12.8526 1.50281 14.9803C1.58245 15.4123 1.78723 15.5388 2.23725 15.5351C5.20661 15.5113 8.17724 15.525 11.1479 15.5213C11.5309 15.5213 11.8052 15.6465 11.8494 16.051C11.8861 16.3916 11.6004 16.6258 11.1542 16.6484C11.0278 16.6546 10.9014 16.6496 10.775 16.6496C8.12035 16.6496 5.46702 16.6496 2.81241 16.6496C2.64555 16.6496 2.47869 16.6496 2.30804 16.6496C2.30804 16.7373 2.29919 16.7711 2.3093 16.7962C2.33332 16.8538 2.3624 16.9101 2.39653 16.9615C3.8515 19.1418 5.88796 20.3728 8.52613 20.5143C9.97605 20.592 11.4323 20.5181 12.886 20.5506C13.1502 20.5569 13.5332 20.6784 13.6369 20.8675C13.738 21.0528 13.623 21.436 13.4801 21.6564C12.4018 23.3308 11.2945 24.9876 10.1935 26.647C9.15439 28.2111 8.6538 29.9256 8.7385 31.7978C8.78401 32.8059 8.99258 33.7815 9.47167 34.6969C8.94707 32.8723 8.79159 31.0802 9.92296 29.4096C11.0467 27.7515 12.6711 27.0465 14.6886 27.0815C14.6886 26.2562 14.6709 25.476 14.6924 24.6971C14.7341 23.1855 15.7631 21.9257 17.2522 21.6076C17.7237 21.5074 18.2255 21.5262 18.7135 21.5174C19.7248 21.5012 20.736 21.4986 21.746 21.5024C22.1038 21.5037 22.3718 21.6677 22.3781 22.0547C22.3832 22.4379 22.1379 22.6082 21.7675 22.6207C21.5944 22.6257 21.4199 22.6308 21.2467 22.6308C20.1722 22.6358 19.0978 22.627 18.0245 22.647C16.7137 22.6733 15.8402 23.5537 15.8238 24.8499C15.8136 25.6476 15.8136 26.4466 15.8326 27.2443C15.8516 28.017 16.4558 28.5968 17.1915 28.5818C17.9158 28.5668 18.4822 28.002 18.5087 27.2493C18.5239 26.8273 18.5074 26.404 18.5138 25.982C18.5201 25.5775 18.7097 25.322 19.1407 25.317C20.0256 25.3082 20.9105 25.307 21.7953 25.3145C22.1695 25.3183 22.3996 25.5186 22.3832 25.8981C22.3667 26.2825 22.1038 26.4341 21.741 26.4353C21.0521 26.4378 20.3631 26.4366 19.6805 26.4366C19.6805 26.6908 19.6805 26.8711 19.6805 27.0953C20.3694 27.0953 21.0293 27.0903 21.6892 27.0966C22.1531 27.1016 22.411 27.312 22.3857 27.6739C22.3579 28.0871 22.0848 28.2237 21.7031 28.2224C21.0559 28.2199 20.4074 28.2061 19.7602 28.2337C19.6097 28.2399 19.4113 28.3551 19.3278 28.4804C18.2369 30.1247 16.1031 30.1197 15.0046 28.4679C14.9275 28.3514 14.7493 28.2387 14.6115 28.2312C11.7597 28.0834 9.75989 30.3902 10.3287 33.1691C10.5639 34.3175 10.828 35.4609 11.0745 36.6067C11.2022 37.2003 11.0569 37.417 10.4678 37.5347C9.69415 37.6888 8.91042 37.8027 8.15069 38.0031C7.20894 38.251 6.63504 38.8947 6.34556 39.8716C6.53265 39.8716 6.67044 39.8716 6.80696 39.8716C10.2352 39.8716 13.6634 39.8741 17.0916 39.8703C19.5073 39.8678 21.2341 38.1584 21.2531 35.7602C21.2556 35.3694 21.2379 34.9762 21.2632 34.5867C21.2859 34.2474 21.4844 34.0307 21.8484 34.0445C22.1847 34.057 22.3629 34.2561 22.3857 34.5842C22.526 36.5667 22.2315 38.4051 20.5034 39.8315ZM29.6087 17.6039C30.6137 17.0278 31.5655 16.4818 32.573 15.9045C31.5428 15.3172 30.5947 14.7774 29.6087 14.2151C29.6087 15.366 29.6087 16.448 29.6087 17.6039ZM32.5743 21.6477C31.5314 21.0553 30.5859 20.5181 29.6113 19.9645C29.6113 21.1179 29.6113 22.1987 29.6113 23.3458C30.6048 22.7773 31.5479 22.2363 32.5743 21.6477ZM19.7867 4.10881C19.2002 3.10319 18.6617 2.17897 18.0865 1.19213C17.505 2.19149 16.9627 3.12322 16.3888 4.10881C17.5518 4.10881 18.6187 4.10881 19.7867 4.10881ZM29.5392 25.6338C29.6024 26.7359 29.6606 27.739 29.7238 28.8523C30.6782 28.166 31.52 27.5612 32.4251 26.91C31.4341 26.4704 30.5378 26.0734 29.5392 25.6338ZM30.9942 8.70986C29.9576 8.64349 29.0209 8.58338 28.0817 8.52326C28.4913 9.4287 28.8882 10.3116 29.3028 11.2283C29.854 10.4093 30.3937 9.60528 30.9942 8.70986ZM22.9887 4.58219C23.8697 5.03428 24.7141 5.46633 25.5017 5.87083C25.5017 4.97667 25.5017 4.05496 25.5017 3.04057C24.6016 3.59285 23.8027 4.08251 22.9887 4.58219ZM32.9105 31.2455C32.0156 31.094 31.1522 30.9475 30.1637 30.7797C30.5656 31.759 30.9158 32.6143 31.2976 33.5435C31.8487 32.7821 32.3341 32.1134 32.817 31.4421C32.8524 31.3946 32.8688 31.3357 32.9105 31.2455ZM33.6981 36.8948C33.913 36.211 34.095 35.6312 34.2973 34.9887C33.6311 35.0726 33.0395 35.1465 32.3493 35.2329C32.8233 35.819 33.2316 36.3212 33.6981 36.8948ZM36.8229 37.7276C36.3476 37.9154 35.9191 38.0857 35.4223 38.2824C35.9153 38.6217 36.3325 38.9085 36.8229 39.2454C36.8229 38.6969 36.8229 38.2498 36.8229 37.7276Z" fill="white"/>
</svg>
