<svg width="36" height="40" viewBox="0 0 36 40" fill="none" xmlns="http://www.w3.org/2000/svg">
<path d="M17.646 25.4612V11.9531V11.4068V9.6896H18.9124V6.49011H11.3013V8.75361H9.68506V11.9531H11.0717V31.6982H17.646V30.9388H26.1289V25.4612H17.646Z" fill="white"/>
<path d="M20.4675 40.0001C19.3392 40.0001 18.2109 40.0001 17.0826 40.0001C16.6108 39.7925 16.4243 39.4119 16.4727 38.8856C12.4869 38.8856 8.53331 38.8856 4.5331 38.8856C4.6228 39.3991 4.40395 39.7488 4.00214 40.0001C2.87383 40.0001 1.74552 40.0001 0.617214 40.0001C0.244101 39.818 0.00373071 39.5466 0.00731833 39.0968C0.0126998 38.159 0.0019369 37.2212 0.0126998 36.2852C0.019875 35.7207 0.348143 35.4075 0.914987 35.3966C1.16612 35.3911 1.41905 35.3966 1.68094 35.3966C1.68094 31.0153 1.68094 26.6849 1.68094 22.3018C1.40111 22.3018 1.13563 22.3109 0.870142 22.3C0.324823 22.2763 0.0180812 21.9667 0.0126998 21.4095C0.00373071 20.4717 0.00373071 19.5357 0.0126998 18.5979C0.0180812 18.0407 0.324823 17.7329 0.871936 17.7092C1.13742 17.6983 1.4029 17.7074 1.66839 17.7074C1.66839 13.3152 1.66839 8.97393 1.66839 4.61264C1.37241 4.61264 1.10513 4.62357 0.837853 4.61082C0.362493 4.58897 0.0270503 4.2794 0.0180812 3.80048C0.000143084 2.81168 0.000143084 1.82105 0.0162874 0.832254C0.0234626 0.347869 0.35173 0.0200895 0.823503 0.0128055C1.79754 5.8505e-05 2.77338 5.8505e-05 3.74742 0.0128055C4.20304 0.0200895 4.5044 0.340585 4.54387 0.801297C4.55284 0.903272 4.55822 1.00343 4.56719 1.11633C8.53869 1.11633 12.494 1.11633 16.4458 1.11633C16.5355 0.342406 16.7526 0.0237314 17.262 0.0146265C18.2486 -0.00540448 19.237 -0.00176249 20.2236 0.0128055C20.6756 0.0200895 20.9716 0.344227 21.0111 0.810402C21.02 0.910556 21.029 1.01071 21.038 1.11269C24.4498 1.11269 27.8383 1.11269 31.225 1.11269C31.3129 0.307807 31.5479 0.0146265 32.1255 0.00916348C33.0619 5.8505e-05 33.9983 5.8505e-05 34.9346 0.00916348C35.4602 0.0146265 35.7831 0.333301 35.7885 0.857748C35.7992 1.82105 35.7974 2.78436 35.7885 3.74767C35.7831 4.27211 35.4638 4.59079 34.9454 4.61082C34.6799 4.61993 34.4144 4.61264 34.1418 4.61264C34.1274 4.70369 34.1131 4.75286 34.1131 4.80202C34.1113 7.56265 34.1077 10.3215 34.1184 13.0821C34.1184 13.2114 34.2153 13.3753 34.3158 13.4627C34.723 13.8196 35.1517 14.151 35.5696 14.497C35.9804 14.8375 36.0916 15.1526 35.9481 15.5423C35.8064 15.9265 35.5194 16.094 34.9902 16.0958C34.7122 16.0977 34.4324 16.0958 34.14 16.0958C34.14 16.6458 34.14 17.1557 34.14 17.7056C34.4234 17.7056 34.6781 17.6965 34.931 17.7074C35.4907 17.7311 35.7867 18.0279 35.7903 18.587C35.7975 19.5248 35.7975 20.4608 35.7903 21.3986C35.7867 21.9831 35.4925 22.2781 34.9113 22.3C34.6584 22.3091 34.4054 22.3018 34.1382 22.3018C34.1382 26.6922 34.1382 31.0316 34.1382 35.3948C34.4072 35.3948 34.6512 35.3911 34.8934 35.3948C35.4817 35.4075 35.7885 35.7171 35.7921 36.3216C35.7974 37.1684 35.7687 38.0152 35.8028 38.8601C35.8226 39.3663 35.6791 39.7433 35.2485 40.0001C34.1202 40.0001 32.9919 40.0001 31.8636 40.0001C31.3936 39.7906 31.2125 39.4064 31.2555 38.8838C27.8329 38.8838 24.4426 38.8838 21.0057 38.8838C21.0882 39.3991 20.8658 39.7469 20.4675 40.0001ZM32.9327 4.61082C32.6816 4.61082 32.4645 4.61264 32.2493 4.61082C31.5497 4.60718 31.2537 4.30307 31.2501 3.58196C31.2483 3.17041 31.2501 2.75705 31.2501 2.34914C27.8096 2.34914 24.4211 2.34914 21.0416 2.34914C21.0254 2.40741 21.0146 2.43291 21.0146 2.45658C21.0129 2.84627 21.0111 3.23779 21.0093 3.62748C21.0039 4.30125 20.7097 4.60536 20.046 4.609C19.1868 4.61264 18.3275 4.61264 17.4683 4.609C16.7687 4.60718 16.4745 4.30307 16.4727 3.57832C16.4709 3.16677 16.4727 2.7534 16.4727 2.33457C12.4761 2.33457 8.53151 2.33457 4.59768 2.33457C4.57436 2.37828 4.55284 2.40013 4.55284 2.4238C4.54746 2.84081 4.54746 3.256 4.54207 3.67301C4.5349 4.29397 4.22995 4.59989 3.61288 4.609C3.36354 4.61264 3.11241 4.609 2.86486 4.609C2.86486 8.99942 2.86486 13.3279 2.86486 17.702C3.13752 17.702 3.39045 17.6947 3.64517 17.7038C4.2461 17.722 4.53849 18.0206 4.54028 18.6288C4.54566 19.5393 4.54566 20.4517 4.54028 21.3622C4.53669 21.9904 4.2443 22.2836 3.61647 22.2982C3.36533 22.3036 3.11599 22.3 2.86307 22.3C2.86307 26.6922 2.86307 31.0225 2.86307 35.3929C3.09447 35.3929 3.30973 35.3929 3.52319 35.3929C4.26224 35.3966 4.53849 35.6788 4.54028 36.4364C4.54207 36.8461 4.54028 37.2558 4.54028 37.6637C8.54766 37.6637 12.4905 37.6637 16.4153 37.6637C16.4422 37.6273 16.4566 37.6164 16.4566 37.6073C16.462 37.1775 16.4637 36.7496 16.4709 36.3198C16.4835 35.7262 16.7956 35.4002 17.3768 35.3948C18.2863 35.3875 19.1975 35.3875 20.1088 35.3948C20.6953 35.4002 20.9985 35.7207 21.0057 36.3235C21.0111 36.7623 21.0075 37.203 21.0075 37.6637C24.4354 37.6637 27.824 37.6637 31.2483 37.6637C31.2483 37.1975 31.2412 36.7587 31.2501 36.318C31.2609 35.7244 31.5766 35.4057 32.1578 35.3929C32.4107 35.3875 32.6637 35.3929 32.9166 35.3929C32.9166 31.008 32.9166 26.6704 32.9166 22.3C32.6439 22.3 32.4018 22.3054 32.1614 22.2982C31.5623 22.2799 31.2573 21.9795 31.2501 21.3804C31.2412 20.4571 31.2412 19.5321 31.2501 18.607C31.2555 18.0297 31.5641 17.7238 32.1345 17.7038C32.3964 17.6947 32.6601 17.702 32.9238 17.702C32.9238 17.132 32.9238 16.6312 32.9238 16.094C32.0574 16.094 31.2143 16.1031 30.3712 16.0886C30.1362 16.0849 30.007 16.1596 29.8904 16.3672C29.1173 17.7457 28.3316 19.1169 27.5459 20.4881C27.3163 20.8887 26.9952 21.0635 26.6382 20.998C26.2454 20.9269 26.005 20.6483 25.9333 20.1803C25.2714 15.7845 24.6112 11.3886 23.9511 6.99268C23.8937 6.61027 24.0013 6.29342 24.3332 6.08583C24.6668 5.87459 24.9933 5.9183 25.2983 6.15685C25.5512 6.35533 25.8005 6.56111 26.0499 6.76506C27.0311 7.56083 28.0141 8.35661 28.9917 9.15602C29.3487 9.44921 29.4115 9.77699 29.1855 10.0629C28.9612 10.3451 28.6204 10.3524 28.2706 10.0665C27.3576 9.32902 26.4499 8.58605 25.5386 7.84673C25.4561 7.77935 25.3646 7.7229 25.2175 7.6191C25.8005 11.4905 26.3692 15.2819 26.954 19.166C27.0813 18.9566 27.1567 18.8383 27.2266 18.7163C27.8365 17.6473 28.4554 16.5839 29.0509 15.5058C29.2769 15.0979 29.5801 14.9122 30.0429 14.9177C31.2986 14.9322 32.556 14.9213 33.8135 14.9195C33.9193 14.9195 34.0234 14.9049 34.1938 14.8922C34.0359 14.7592 33.9391 14.6755 33.8404 14.5953C32.7498 13.7085 31.6573 12.8235 30.5703 11.933C30.2366 11.6599 30.1774 11.3339 30.3927 11.0535C30.6044 10.7785 30.947 10.7621 31.277 11.0134C31.3793 11.0917 31.4797 11.1737 31.5802 11.2538C32.0143 11.6053 32.4502 11.9585 32.9345 12.3519C32.9327 9.7351 32.9327 7.20028 32.9327 4.61082ZM3.35995 3.42899C3.35995 2.66235 3.35995 1.93031 3.35995 1.20009C2.61911 1.20009 1.90696 1.20009 1.18944 1.20009C1.18944 1.95399 1.18944 2.68603 1.18944 3.42899C1.92132 3.42899 2.6227 3.42899 3.35995 3.42899ZM19.8343 3.41989C19.8343 2.65871 19.8343 1.93578 19.8343 1.20556C19.0935 1.20556 18.3724 1.20556 17.6477 1.20556C17.6477 1.95581 17.6477 2.67874 17.6477 3.41989C18.3813 3.41989 19.0935 3.41989 19.8343 3.41989ZM34.6117 1.19827C33.8673 1.19827 33.1552 1.19827 32.4305 1.19827C32.4305 1.95035 32.4305 2.68239 32.4305 3.41989C33.1695 3.41989 33.8817 3.41989 34.6117 3.41989C34.6117 2.67692 34.6117 1.95399 34.6117 1.19827ZM1.17868 36.5784C1.17868 37.3414 1.17868 38.0643 1.17868 38.8018C1.91952 38.8018 2.64063 38.8018 3.35457 38.8018C3.35457 38.0443 3.35457 37.3123 3.35457 36.5784C2.6209 36.5784 1.91773 36.5784 1.17868 36.5784ZM17.6459 36.5802C17.6459 37.345 17.6459 38.068 17.6459 38.8018C18.3885 38.8018 19.1096 38.8018 19.8218 38.8018C19.8218 38.0425 19.8218 37.3104 19.8218 36.5802C19.0863 36.5802 18.3831 36.5802 17.6459 36.5802ZM34.601 38.8182C34.601 38.0479 34.601 37.3159 34.601 36.593C33.8583 36.593 33.148 36.593 32.4358 36.593C32.4358 37.3505 32.4358 38.0825 32.4358 38.8182C33.1695 38.8182 33.8727 38.8182 34.601 38.8182ZM3.36533 21.1163C3.36533 20.3552 3.36533 19.634 3.36533 18.9111C2.62449 18.9111 1.90517 18.9111 1.19123 18.9111C1.19123 19.665 1.19123 20.3843 1.19123 21.1163C1.9267 21.1163 2.62808 21.1163 3.36533 21.1163ZM34.6171 18.902C33.8673 18.902 33.157 18.902 32.4287 18.902C32.4287 19.6468 32.4287 20.3679 32.4287 21.0981C33.1713 21.0981 33.8888 21.0981 34.6171 21.0981C34.6171 20.3552 34.6171 19.645 34.6171 18.902Z" fill="black"/>
<path d="M27.3215 28.8993C27.6139 28.8993 27.865 28.8993 28.1664 28.8993C28.1664 28.5132 28.161 28.1399 28.1682 27.7684C28.1753 27.3423 28.3924 27.0855 28.7404 27.0819C29.092 27.0783 29.3144 27.3314 29.3198 27.7557C29.3252 28.3147 29.327 28.8756 29.3198 29.4346C29.3144 29.868 29.1045 30.0756 28.6776 30.0829C28.2435 30.0902 27.8076 30.0847 27.3053 30.0847C27.3053 30.5127 27.3071 30.9224 27.3053 31.3321C27.3017 31.944 27.1242 32.1352 26.5322 32.1352C21.4037 32.137 16.2752 32.137 11.1467 32.1352C10.5493 32.1352 10.3807 31.9549 10.3807 31.3357C10.3807 25.2573 10.3807 19.1788 10.3807 13.1003C10.3807 12.9346 10.3807 12.767 10.3807 12.5467C9.97532 12.5467 9.60759 12.5503 9.23986 12.5449C8.7053 12.5376 8.51336 12.3537 8.50978 11.8183C8.5026 10.7385 8.5026 9.65678 8.50978 8.57693C8.51336 8.05795 8.69992 7.87585 9.21295 7.86856C9.6345 7.86128 10.056 7.86674 10.5368 7.86674C10.5368 7.41149 10.535 6.98902 10.5368 6.56473C10.5404 6.0075 10.7251 5.81084 11.2758 5.81084C13.9307 5.80719 16.5837 5.80719 19.2386 5.81084C19.7857 5.81084 19.9902 6.01479 19.992 6.56109C19.9973 7.62819 19.9973 8.6953 19.992 9.7624C19.9884 10.2887 19.7875 10.4817 19.2601 10.489C18.9013 10.4926 18.5444 10.489 18.1515 10.489C18.1515 15.0852 18.1515 19.6577 18.1515 24.2575C20.3256 24.2575 22.4943 24.2575 24.7079 24.2575C24.7079 23.8606 24.7025 23.4727 24.7097 23.0866C24.7169 22.6077 24.9178 22.3928 25.3913 22.3892C26.482 22.3801 27.5708 22.3801 28.6615 22.3892C29.1171 22.3928 29.3162 22.6041 29.3216 23.0611C29.3288 23.6602 29.3288 24.2594 29.3216 24.8566C29.3162 25.2518 29.0848 25.4958 28.7458 25.494C28.4085 25.4922 28.1807 25.2463 28.1717 24.8494C28.1628 24.436 28.1699 24.0208 28.1699 23.5819C27.3986 23.5819 26.6614 23.5819 25.8936 23.5819C25.8936 23.8496 25.8936 24.1155 25.8936 24.4396C26.1268 24.4396 26.3654 24.4378 26.604 24.4396C27.099 24.4469 27.3035 24.6454 27.3053 25.1535C27.3107 26.3244 27.3071 27.4971 27.3089 28.668C27.3035 28.7372 27.3125 28.8009 27.3215 28.8993ZM11.5306 30.9388C16.4259 30.9388 21.2674 30.9388 26.1268 30.9388C26.1268 29.1615 26.1268 27.4115 26.1268 25.647C25.359 25.647 24.6128 25.647 23.8433 25.647C23.8433 25.9984 23.8433 26.3225 23.8433 26.6467C23.8415 27.3314 23.6729 27.5044 23.0074 27.5044C20.5965 27.5044 18.1856 27.5044 15.7747 27.5044C15.102 27.5044 14.9316 27.3332 14.9316 26.6558C14.9316 24.3905 14.9298 22.1251 14.9334 19.8616C14.9334 19.7196 14.9334 19.5703 14.9747 19.4392C15.0626 19.1569 15.2724 19.0185 15.563 19.044C15.8554 19.0695 16.0294 19.2443 16.0761 19.5357C16.094 19.6504 16.085 19.7688 16.085 19.8871C16.085 21.8921 16.085 23.897 16.085 25.9019C16.085 26.0385 16.085 26.1769 16.085 26.3098C18.3147 26.3098 20.4871 26.3098 22.6576 26.3098C22.6576 26.0166 22.6576 25.7526 22.6576 25.4649C21.0521 25.4649 19.4753 25.4649 17.8986 25.4649C17.0968 25.4649 16.9568 25.3246 16.9568 24.5125C16.9568 20.6993 16.9568 16.8843 16.9568 13.0711C16.9568 12.9073 16.9568 12.7452 16.9568 12.5849C16.6322 12.5849 16.3721 12.5849 16.085 12.5849C16.085 12.7579 16.085 12.9 16.085 13.042C16.085 14.2785 16.0868 15.5149 16.0832 16.7514C16.0815 17.2066 15.8626 17.4652 15.4985 17.4579C15.1523 17.4506 14.9334 17.1939 14.9316 16.7641C14.928 15.2017 14.9262 13.6393 14.9316 12.0787C14.9334 11.6016 15.1415 11.3977 15.6169 11.3904C15.9971 11.3831 16.3792 11.3885 16.7721 11.3885C16.7721 10.5873 16.7721 9.83888 16.7721 9.07042C14.3989 9.07042 12.0472 9.07042 9.68114 9.07042C9.68114 9.84434 9.68114 10.591 9.68114 11.3794C10.0004 11.3794 10.2928 11.3794 10.5852 11.3794C11.3906 11.3813 11.527 11.5178 11.527 12.3282C11.527 18.3557 11.527 24.3814 11.527 30.4089C11.5306 30.5746 11.5306 30.7403 11.5306 30.9388ZM11.701 7.86856C11.8947 7.86856 12.0472 7.86856 12.1979 7.86856C13.8751 7.86856 15.5523 7.86674 17.2295 7.87038C17.7623 7.87221 17.9416 8.05977 17.9524 8.59514C17.956 8.82459 17.9524 9.05585 17.9524 9.29622C18.2681 9.29622 18.53 9.29622 18.8134 9.29622C18.8134 8.52594 18.8134 7.77933 18.8134 7.01087C16.433 7.01087 14.0724 7.01087 11.701 7.01087C11.701 7.29859 11.701 7.55535 11.701 7.86856Z" fill="black"/>
</svg>
