<svg width="40" height="41" viewBox="0 0 40 41" fill="none" xmlns="http://www.w3.org/2000/svg">
<path d="M9.33362 40.0407C9.10423 39.8321 8.85397 39.6444 8.635 39.4255C5.90309 36.6831 3.17117 33.9304 0.439253 31.1776C-0.144668 30.5832 -0.144668 30.2391 0.428826 29.6656C1.55496 28.5291 2.69152 27.403 3.81765 26.2664C4.37029 25.7033 5.00635 25.4114 5.80924 25.4426C5.92394 25.4426 6.11163 25.3592 6.17419 25.255C8.77056 20.7087 14.4325 19.593 18.5095 21.1571C18.7076 21.2301 18.937 21.2614 19.156 21.2718C21.8254 21.2822 24.4843 21.2926 27.1536 21.2718C28.2381 21.2614 29.1765 21.5637 30.0315 22.5543C30.1045 22.3979 30.1462 22.2415 30.2401 22.1477C31.7207 20.6149 33.2014 19.0821 34.7029 17.5597C36.1731 16.0582 38.6965 16.4232 39.6871 18.2688C40.2293 19.2906 40.0521 20.8755 39.27 21.814C37.8311 23.5449 36.3817 25.2654 34.9427 26.9963C34.2024 27.8826 33.4517 28.7585 32.7218 29.6656C31.3141 31.3966 29.4685 32.2203 27.2683 32.2307C23.9004 32.2516 20.5324 32.262 17.1644 32.2203C16.007 32.2099 15.2875 32.8564 14.5785 33.5967C14.5264 33.6488 14.5264 33.7844 14.5472 33.8782C14.7245 34.7958 14.4846 35.5674 13.8069 36.2243C12.6182 37.3713 11.4503 38.5392 10.2721 39.6966C10.1365 39.8321 9.96968 39.9364 9.8237 40.0615C9.64644 40.0407 9.49003 40.0407 9.33362 40.0407ZM13.5149 32.3767C13.6296 32.2724 13.7443 32.1786 13.8382 32.0743C14.7975 31.0316 15.9757 30.6145 17.3938 30.6354C20.6262 30.6771 23.8691 30.6562 27.1119 30.6458C28.9054 30.6458 30.4069 30.0202 31.5435 28.5812C32.2212 27.7262 32.9407 26.9025 33.6393 26.0683C35.12 24.3061 36.6007 22.5439 38.0709 20.7713C38.6548 20.0727 38.5922 19.1446 37.9562 18.5607C37.3306 17.9977 36.3921 18.0185 35.7769 18.6441C34.1086 20.3542 32.4402 22.0747 30.7719 23.7952C30.6885 23.8786 30.6259 24.0141 30.6155 24.1288C30.5633 26.2872 29.3225 27.5177 27.1536 27.5177C25.2559 27.5177 23.3582 27.5177 21.4604 27.5177C21.304 27.5177 21.1476 27.5177 20.9912 27.4968C20.5845 27.4238 20.3134 27.1006 20.3343 26.7043C20.3447 26.3081 20.6367 26.0161 21.0538 25.964C21.1997 25.9536 21.3353 25.9536 21.4813 25.9536C23.3894 25.9536 25.308 25.9536 27.2162 25.9536C27.383 25.9536 27.5603 25.9536 27.7167 25.9223C28.457 25.818 28.9993 25.2133 29.0514 24.4625C29.0931 23.7743 28.6239 23.0861 27.9461 22.8984C27.6959 22.8359 27.4352 22.8254 27.1745 22.8254C24.4217 22.8254 21.6585 22.8254 18.9058 22.815C18.6555 22.815 18.374 22.7837 18.1446 22.6899C16.4137 21.9808 14.6306 21.8766 12.8267 22.2519C10.5432 22.7212 8.78098 23.9411 7.57143 25.9536C7.42545 26.1934 7.44631 26.3185 7.64442 26.5062C8.19706 27.0276 8.71842 27.5698 9.25021 28.1016C10.6683 29.5301 12.076 30.9378 13.5149 32.3767ZM9.75071 38.1534C10.7413 37.1211 11.7944 36.0366 12.8267 34.9418C13.15 34.5977 13.0978 34.1598 12.7016 33.7635C10.564 31.6155 8.41603 29.478 6.26804 27.33C5.80924 26.8712 5.41301 26.8816 4.95422 27.3404C4.26602 28.0286 3.57783 28.7272 2.88964 29.4154C2.55597 29.7386 2.21187 30.0515 1.83649 30.406C4.46414 32.9919 7.03965 35.5049 9.75071 38.1534Z" fill="#FFB533"/>
<path d="M23.2951 17.1944C18.5403 17.1944 14.6927 13.3363 14.7031 8.58156C14.724 3.8372 18.5716 0 23.3056 0C28.0603 0 31.908 3.86848 31.8975 8.62326C31.8871 13.3676 28.0395 17.1944 23.2951 17.1944ZM23.3056 15.6303C27.1845 15.6303 30.3335 12.5022 30.3335 8.62326C30.3439 4.72351 27.1949 1.56407 23.3056 1.56407C19.4371 1.56407 16.2776 4.71308 16.2776 8.58156C16.2672 12.4813 19.4058 15.6303 23.3056 15.6303Z" fill="#FFB533"/>
<path d="M22.3691 4.79682C22.3691 4.52572 22.3586 4.23376 22.3691 3.95222C22.3795 3.483 22.7027 3.1389 23.1407 3.1389C23.5682 3.12848 23.954 3.47257 23.9227 3.93137C23.8706 4.53614 23.9749 4.97408 24.6213 5.18263C24.7986 5.23476 24.9342 5.4016 25.0801 5.53715C25.4034 5.86039 25.4242 6.29833 25.1323 6.62158C24.8612 6.92396 24.4232 6.96567 24.0791 6.71542C23.9227 6.60072 23.7767 6.4756 23.5995 6.38175C23.2762 6.20449 22.9426 6.20449 22.661 6.46517C22.4108 6.68414 22.3274 6.95525 22.4316 7.27849C22.5568 7.64344 22.8174 7.79985 23.1928 7.83113C24.3919 7.91454 25.2261 8.62359 25.4659 9.71844C25.6849 10.7507 25.1844 11.7309 24.1625 12.3044C24.0687 12.3565 23.9749 12.5025 23.9644 12.6172C23.9331 12.8466 23.9644 13.0864 23.954 13.3158C23.9227 13.7642 23.6099 14.0666 23.172 14.0666C22.7444 14.0666 22.3691 13.7538 22.4108 13.3054C22.4838 12.6589 22.2961 12.2522 21.6704 11.9916C21.3889 11.8769 21.1699 11.5849 20.9614 11.3347C20.6799 11.001 20.732 10.563 21.0448 10.2815C21.3576 9.99998 21.7747 10.0104 22.1084 10.2919C22.2857 10.4483 22.4421 10.6256 22.6297 10.7507C22.953 10.9697 23.3075 11.0218 23.6516 10.7716C23.9227 10.563 24.0374 10.2711 23.9331 9.93741C23.808 9.53075 23.5056 9.38477 23.099 9.36392C21.3576 9.24922 20.3253 7.49746 21.0865 5.98552C21.2951 5.49544 21.5662 5.24519 22.3691 4.79682Z" fill="#FFB533"/>
</svg>
