<svg width="40" height="37" viewBox="0 0 40 37" fill="none" xmlns="http://www.w3.org/2000/svg">
<path d="M0.0115682 10.4479C0.0578411 10.2397 0.115682 10.0314 0.161955 9.81164C0.786639 7.15095 3.06558 5.26533 5.79568 5.21905C7.80855 5.18435 9.83298 5.20749 11.8459 5.20749C11.9962 5.20749 12.1582 5.20749 12.3664 5.20749C12.3664 4.59437 12.3202 4.01596 12.378 3.43755C12.4358 2.89384 12.4937 2.30386 12.7135 1.818C13.2803 0.591769 14.333 0.024926 15.6634 0.0133578C18.567 0.00178961 21.4706 -0.00977861 24.3627 0.0133578C26.3755 0.0364943 27.6596 1.37841 27.6596 3.39128C27.6596 3.98126 27.6596 4.55967 27.6596 5.20749C27.8331 5.20749 27.9835 5.20749 28.1339 5.20749C30.0889 5.20749 32.0324 5.19592 33.9874 5.20749C36.9142 5.23062 39.2625 7.12781 39.8641 9.95046C39.9566 10.3785 39.9913 10.8296 39.9913 11.2692C40.0029 17.5508 40.0029 23.8439 39.9913 30.1254C39.9913 33.1794 37.9785 35.5856 35.0054 36.1062C34.6121 36.1756 34.2072 36.1987 33.8023 36.1987C24.6056 36.1987 15.4089 36.1987 6.20056 36.1987C3.38949 36.1987 1.17996 34.6602 0.312342 32.1152C0.185091 31.7218 0.104114 31.317 0 30.9121C0.0115682 24.0868 0.0115682 17.2731 0.0115682 10.4479ZM20.013 6.68822C15.3626 6.68822 10.7237 6.68822 6.07331 6.68822C4.14142 6.68822 2.75324 7.5674 1.89719 9.30264C1.58485 9.92732 1.4923 10.6098 1.4923 11.3155C1.4923 17.5739 1.4923 23.8323 1.4923 30.0907C1.4923 30.9468 1.64269 31.7565 2.08228 32.4853C3.00774 34.0008 4.39592 34.718 6.15429 34.718C9.6826 34.718 13.2109 34.718 16.7392 34.718C22.4539 34.718 28.1686 34.718 33.8833 34.718C35.8499 34.718 37.2959 33.862 38.1635 32.0689C38.499 31.3748 38.5337 30.6344 38.5337 29.8594C38.5106 23.6935 38.5337 17.5276 38.5106 11.3502C38.5106 10.8065 38.4412 10.2512 38.2908 9.74223C37.7124 7.86818 36.0234 6.68822 33.9527 6.68822C29.3023 6.68822 24.6519 6.68822 20.013 6.68822ZM26.1557 5.20749C26.1557 4.60594 26.1557 4.06223 26.1557 3.51853C26.1557 2.14191 25.5079 1.49409 24.1197 1.49409C21.3434 1.49409 18.5786 1.49409 15.8022 1.49409C15.6055 1.49409 15.4089 1.50566 15.2238 1.54036C14.5297 1.65604 14.0091 2.04936 13.905 2.74346C13.7777 3.54166 13.7893 4.36301 13.7315 5.21905C13.9513 5.21905 14.0785 5.21905 14.2058 5.21905C14.5412 5.21905 14.8767 5.21905 15.2585 5.21905C15.2585 5.0224 15.2585 4.87201 15.2585 4.72162C15.2816 3.63421 15.9294 2.72032 16.9937 2.66248C18.9719 2.55837 20.9732 2.56993 22.9513 2.66248C23.9809 2.70875 24.6403 3.62264 24.6634 4.66378C24.6634 4.8373 24.6634 5.01083 24.6634 5.21905C24.8254 5.21905 24.9295 5.21905 25.0336 5.21905C25.3922 5.20749 25.7393 5.20749 26.1557 5.20749ZM23.2521 5.18435C23.3909 4.31673 23.1827 4.05066 22.3498 4.05066C20.7881 4.05066 19.2264 4.05066 17.6647 4.05066C16.8433 4.05066 16.6004 4.36301 16.7971 5.18435C18.9487 5.18435 21.1004 5.18435 23.2521 5.18435Z" fill="#FFB533"/>
<path d="M21.4756 17.8262C22.401 18.7979 23.3265 19.7234 24.1825 20.7182C24.5874 21.1925 24.9576 21.3198 25.536 21.0769C26.1029 20.8339 26.7275 20.7067 27.3175 20.51C27.7455 20.3596 28.0926 20.4406 28.4165 20.7761C28.833 21.2272 29.2841 21.6437 29.7121 22.0833C30.1633 22.5576 30.1055 23.0435 29.527 23.3558C28.2892 24.0499 27.0514 24.7208 25.8137 25.4265C25.6517 25.5191 25.4897 25.681 25.3972 25.8545C24.7031 27.1039 24.0321 28.3648 23.338 29.6142C23.0373 30.1463 22.5167 30.1926 22.0771 29.7646C21.6144 29.3134 21.1632 28.8391 20.6889 28.388C20.4113 28.1219 20.3419 27.8327 20.4576 27.4741C20.7005 26.6874 20.9319 25.9124 21.1517 25.1142C21.1864 24.9869 21.1748 24.7787 21.1054 24.6977C20.018 23.645 18.9074 22.6039 17.7737 21.528C17.6928 21.6784 17.6118 21.7941 17.5424 21.9213C16.3161 24.1424 15.0899 26.352 13.8637 28.5731C13.4472 29.3366 12.9845 29.3944 12.3714 28.7813C11.8392 28.2492 11.3187 27.6939 10.7634 27.1849C10.4048 26.8494 10.3238 26.5024 10.4742 26.0281C11.3302 23.217 12.1632 20.4059 13.0308 17.6064C13.1349 17.2825 13.0655 17.0974 12.8225 16.8776C11.8508 15.9868 10.9022 15.0845 9.95362 14.1706C9.14385 13.384 8.81994 12.4238 9.09758 11.3249C9.38678 10.168 10.1156 9.39296 11.2724 9.10376C12.3714 8.82612 13.3547 9.10375 14.1413 9.9598C15.0668 10.9662 16.0154 11.9495 16.9408 12.9444C17.1143 13.1295 17.2532 13.1064 17.4498 13.0485C20.2262 12.1925 23.0141 11.3596 25.7905 10.4804C26.3921 10.2953 26.8201 10.3531 27.2365 10.8506C27.7108 11.4174 28.2545 11.938 28.752 12.4701C29.2841 13.0485 29.2263 13.4881 28.5437 13.8699C26.3111 15.1077 24.09 16.3339 21.8573 17.5717C21.7416 17.6642 21.626 17.7336 21.4756 17.8262ZM28.081 22.546C27.6877 21.956 27.6414 21.9445 27.0399 22.118C26.3574 22.3262 25.6633 22.5113 24.9923 22.7543C24.5296 22.9162 24.2172 22.8121 23.8933 22.465C22.6093 21.0769 21.3136 19.7118 20.018 18.3352C19.3933 17.6758 19.4627 17.2478 20.2493 16.8082C22.4589 15.5704 24.68 14.3326 26.8895 13.1064C27.0052 13.0369 27.1209 12.9675 27.2944 12.8634C27.0283 12.6089 26.7738 12.4123 26.5772 12.1809C26.3805 11.9495 26.1954 11.9148 25.9062 12.0074C23.0604 12.875 20.2031 13.7195 17.3689 14.5871C16.9293 14.7259 16.6169 14.6449 16.293 14.2979C15.2519 13.1758 14.1992 12.0537 13.1117 10.9662C12.8804 10.7349 12.5333 10.5498 12.221 10.4804C11.55 10.3531 10.9369 10.7349 10.6593 11.3364C10.3816 11.938 10.4973 12.5279 11.0295 13.0369C12.1169 14.0781 13.2159 15.1308 14.3264 16.1488C14.7197 16.519 14.8123 16.8776 14.6503 17.3982C13.7711 20.1977 12.9267 23.0088 12.0706 25.8198C12.0243 25.9586 11.9896 26.1784 12.0706 26.2826C12.3251 26.6065 12.6143 26.8957 12.9267 27.2311C13.0539 27.0114 13.1349 26.861 13.2274 26.7106C14.4537 24.5358 15.6683 22.3609 16.8946 20.1861C17.311 19.4457 17.7159 19.3879 18.3406 19.9779C19.7288 21.2735 21.1054 22.5923 22.4936 23.8764C22.8406 24.2003 22.9332 24.5473 22.7828 24.9985C22.5514 25.681 22.3548 26.3635 22.1465 27.0461C21.973 27.6245 22.0193 27.7286 22.5861 28.0641C23.1067 27.1155 23.662 26.19 24.1363 25.2183C24.3908 24.6977 24.7378 24.3622 25.2584 24.1077C26.207 23.6219 27.1324 23.0666 28.081 22.546Z" fill="#FFB533"/>
</svg>
