<svg width="45" height="41" viewBox="0 0 45 41" fill="none" xmlns="http://www.w3.org/2000/svg">
<path d="M0 7.60634C0.210918 7.22844 0.55366 7.04389 0.95792 6.91207C7.94458 4.6447 14.9225 2.37733 21.8915 0.101168C22.3222 -0.0394442 22.7001 -0.030656 23.1219 0.109956C30.1086 2.38611 37.0864 4.65348 44.0643 6.92086C44.161 6.95601 44.2577 6.98237 44.3543 7.01753C44.741 7.16693 44.9871 7.44815 44.9871 7.87878C44.9783 8.29182 44.741 8.55547 44.3719 8.70487C44.1522 8.79275 43.9325 8.87185 43.704 8.91579C43.3437 8.9861 43.2294 9.16186 43.2294 9.53976C43.247 13.8021 43.2382 18.0644 43.2382 22.3267C43.2382 23.7064 43.2382 25.0774 43.2382 26.4659C43.8973 26.7384 44.4071 27.1602 44.7234 27.793C45.3386 29.0321 44.8992 30.5085 43.6864 31.2204C43.4491 31.361 43.4052 31.484 43.4579 31.7389C43.9589 34.1996 44.451 36.6691 44.9431 39.1386C45.0925 39.912 44.7322 40.369 43.9589 40.3778C42.8867 40.3865 41.8233 40.3865 40.7511 40.3778C39.9954 40.369 39.635 39.9032 39.7844 39.165C40.2766 36.6955 40.7599 34.226 41.2697 31.7653C41.3224 31.4928 41.2872 31.361 41.0324 31.2116C40.1623 30.6843 39.7053 29.8934 39.7405 28.8739C39.7757 27.8545 40.2678 27.0899 41.173 26.6241C41.3927 26.5099 41.4894 26.3956 41.4894 26.1408C41.4806 20.7536 41.4806 15.3664 41.4806 9.97038C41.4806 9.8825 41.4718 9.79462 41.463 9.66279C40.9972 9.81219 40.549 9.94402 40.1096 10.0934C38.8002 10.5153 37.4995 10.9722 36.19 11.3589C35.7682 11.482 35.6715 11.6841 35.6715 12.0884C35.6891 15.7091 35.6276 19.3211 35.7067 22.9418C35.7418 24.5325 35.0124 25.4641 33.7118 26.132C32.2617 26.879 30.7062 27.2657 29.1155 27.5381C26.1714 28.0302 23.2098 28.1797 20.2306 28.0039C17.4359 27.8369 14.65 27.5557 12.0311 26.4747C11.4072 26.2199 10.8183 25.8332 10.2647 25.4377C9.5792 24.9456 9.30676 24.2249 9.30676 23.3725C9.31555 19.5759 9.30676 15.7882 9.32434 11.9917C9.32434 11.6401 9.22767 11.4907 8.88493 11.3765C6.23966 10.5416 3.60319 9.67158 0.95792 8.82791C0.55366 8.69608 0.210918 8.51153 0 8.13363C0 7.95787 0 7.7821 0 7.60634ZM33.9227 12.1147C33.6766 12.1938 33.5008 12.2465 33.3163 12.2993C29.8977 13.4066 26.479 14.5315 23.0516 15.6212C22.7176 15.7267 22.287 15.7355 21.9531 15.63C19.0529 14.716 16.1704 13.7581 13.2791 12.8266C12.5584 12.5893 11.8378 12.3608 11.0908 12.1235C11.082 12.2553 11.0732 12.3432 11.0732 12.4311C11.0732 16.1046 11.0732 19.7869 11.0644 23.4604C11.0644 23.8383 11.2226 24.0931 11.5126 24.2513C12.0135 24.5237 12.5145 24.805 13.0506 24.9895C15.274 25.7892 17.5941 26.0793 19.9318 26.2374C23.1922 26.4484 26.4263 26.255 29.634 25.6223C30.8556 25.385 32.0596 25.0862 33.1845 24.5149C33.703 24.2513 33.9403 23.8734 33.9315 23.2582C33.9051 19.989 33.9227 16.7286 33.9227 13.4593C33.9227 13.0287 33.9227 12.6069 33.9227 12.1147ZM41.2257 7.87878C41.006 7.79089 40.9181 7.74695 40.8215 7.72059C34.8191 5.76959 28.8167 3.8186 22.8055 1.8764C22.577 1.80609 22.287 1.83245 22.0497 1.91155C16.1177 3.82739 10.1856 5.76081 4.25352 7.69422C4.13048 7.73816 4.00745 7.79089 3.79653 7.86999C4.01623 7.94908 4.13927 7.99302 4.2623 8.03696C10.1856 9.96159 16.1001 11.895 22.0234 13.8021C22.3134 13.8987 22.6913 13.8899 22.9901 13.8021C27.7621 12.2729 32.5253 10.7174 37.2974 9.16186C38.5629 8.74881 39.8372 8.33576 41.2257 7.87878ZM43.0449 38.6025C42.834 37.5479 42.623 36.5197 42.4209 35.4827C42.3858 35.4827 42.3506 35.4827 42.3155 35.4827C42.1045 36.5109 41.9024 37.5479 41.6915 38.6025C42.1397 38.6025 42.5703 38.6025 43.0449 38.6025ZM42.3418 29.8318C42.7988 29.8406 43.2206 29.4452 43.2294 28.9794C43.2382 28.5224 42.8428 28.1006 42.377 28.0918C41.92 28.083 41.4981 28.4784 41.4894 28.9442C41.4718 29.3924 41.876 29.8143 42.3418 29.8318Z" fill="#FFB533"/>
<path d="M26.1435 24.4707C25.5898 24.4092 25.1856 24.0928 25.1416 23.6007C25.0889 23.0998 25.4668 22.7219 26.0556 22.6252C27.1365 22.4582 28.2263 22.3176 29.2897 22.0891C30.0103 21.9309 30.7134 21.6585 31.3988 21.3861C31.9349 21.1751 32.3743 21.2542 32.6204 21.6761C32.8841 22.1243 32.7786 22.634 32.2513 22.8976C31.6889 23.1877 31.0825 23.4601 30.4673 23.6007C29.0436 23.9434 27.5935 24.1895 26.1435 24.4707Z" fill="#FFB533"/>
</svg>
