<svg width="12" height="22" viewBox="0 0 12 22" fill="none" xmlns="http://www.w3.org/2000/svg">
<path d="M1.53343 10.2844C1.53343 12.2076 1.52704 14.1308 1.53343 16.0603C1.53982 18.073 2.83046 19.7789 4.71531 20.2964C7.52021 21.0632 10.2165 18.9866 10.2229 16.0476C10.2293 13.0638 10.2229 10.0736 10.2293 7.08976C10.2293 6.95559 10.2293 6.81502 10.2612 6.68724C10.3507 6.35499 10.6701 6.14415 11.0279 6.15693C11.3666 6.1697 11.6541 6.39972 11.7308 6.73835C11.7563 6.84058 11.7627 6.94281 11.7627 7.04504C11.7627 10.048 11.7691 13.051 11.7627 16.054C11.7563 18.8908 9.89703 21.2165 7.14963 21.8554C3.89109 22.6094 0.562259 20.3284 0.0830609 17.0123C0.0319465 16.6801 0.0063893 16.3479 0.0063893 16.0092C0 12.1565 0 8.29734 0 4.4382C0 2.28501 1.39926 0.54712 3.47578 0.0934793C5.96122 -0.443222 8.45944 1.3969 8.66389 3.92706C8.68306 4.15708 8.69584 4.38709 8.69584 4.62349C8.69584 8.16956 8.70223 11.7156 8.69584 15.2617C8.69584 16.6609 7.78217 17.8174 6.47236 18.0921C4.72808 18.4563 3.08603 17.1657 3.07325 15.3703C3.0477 12.0543 3.06686 8.74459 3.06686 5.42855C3.06686 4.93657 3.39911 4.61071 3.85275 4.6171C4.29361 4.62349 4.6003 4.94935 4.6003 5.43493C4.6003 8.69348 4.6003 11.952 4.6003 15.2106C4.6003 15.7089 4.75364 16.1178 5.17533 16.4054C5.94205 16.9229 6.98351 16.4693 7.13685 15.5556C7.15602 15.4534 7.16241 15.3511 7.16241 15.2489C7.16241 11.6326 7.1688 8.01621 7.16241 4.39348C7.16241 3.02617 6.24235 1.88248 4.94532 1.60774C3.18187 1.23078 1.54621 2.55975 1.53982 4.39348C1.52704 6.35499 1.53343 8.3229 1.53343 10.2844Z" fill="#FFB533"/>
</svg>
