<svg width="40" height="40" viewBox="0 0 40 40" fill="none" xmlns="http://www.w3.org/2000/svg">
<path d="M16.8122 7.94059C18.9549 6.94918 21.0656 6.95984 23.2297 7.94059C23.0911 5.59532 23.784 3.59118 25.4577 1.98147C26.5344 0.936763 27.8349 0.286484 29.3274 0.0839376C32.5894 -0.353135 35.5637 1.25657 36.9069 4.14552C37.6957 5.82985 37.813 7.5888 37.248 9.35841C36.6937 11.128 35.5637 12.4712 33.9433 13.4626C35.1586 13.9743 36.2139 14.6459 37.1094 15.5414C38.9856 17.4176 39.9664 19.6883 39.9877 22.3427C40.009 25.221 39.9984 28.0992 39.9877 30.9775C39.9877 31.6918 39.7105 31.9796 38.9963 31.9796C36.0221 31.9796 33.0585 31.9796 30.0843 31.9796C29.935 31.9796 29.7964 31.9796 29.5939 31.9796C29.5939 32.1502 29.5939 32.2887 29.5939 32.4273C29.5939 34.3355 29.5939 36.2331 29.5939 38.1413C29.5939 38.9088 29.3274 39.1753 28.5598 39.1753C22.8566 39.1753 17.1533 39.1753 11.45 39.1753C10.6825 39.1753 10.4053 38.9088 10.4053 38.1519C10.4053 36.265 10.4053 34.3675 10.4053 32.4806C10.4053 32.3314 10.4053 32.1928 10.4053 31.9903C10.2454 31.9903 10.1068 31.9903 9.95759 31.9903C7.00468 31.9903 4.04111 31.9903 1.0882 31.9903C0.267361 31.9903 0.0115131 31.7344 0.0115131 30.9136C0.0115131 28.1419 -0.0204678 25.3702 0.0221735 22.5985C0.075475 18.3984 2.03697 15.3921 5.82138 13.5799C5.88535 13.5479 5.93865 13.5159 6.04525 13.4626C4.10507 12.258 2.8898 10.563 2.51669 8.32436C2.25018 6.70399 2.52735 5.15825 3.31621 3.72976C4.87262 0.894121 8.15599 -0.545021 11.2688 0.190541C14.1044 0.85148 17.0574 3.56986 16.8122 7.94059ZM28.0055 37.5656C28.0055 37.4483 28.0055 37.3631 28.0055 37.2884C28.0055 34.6873 28.0162 32.0969 27.9948 29.4957C27.9948 28.9947 27.9309 28.483 27.8349 27.9926C27.0461 23.7925 22.7606 20.8929 18.5924 21.7244C14.6588 22.5026 12.015 25.7007 12.0044 29.709C12.0044 32.2035 12.0044 34.6873 12.0044 37.1818C12.0044 37.3097 12.015 37.4377 12.0257 37.5763C17.3665 37.5656 22.654 37.5656 28.0055 37.5656ZM1.62122 30.3486C4.57413 30.3486 7.48439 30.3486 10.4266 30.3486C10.32 28.2485 10.7464 26.2976 11.8551 24.528C12.9531 22.7584 14.4882 21.4898 16.4497 20.6583C16.3005 20.5624 16.1939 20.4878 16.0873 20.4132C14.2857 19.1872 13.1983 17.5029 12.8785 15.3388C12.8572 15.2003 12.6973 14.9871 12.5694 14.9551C11.7059 14.7419 10.8424 14.4434 9.96825 14.4007C5.33101 14.2195 1.64254 17.8014 1.63188 22.4386C1.62122 24.8265 1.63188 27.2038 1.63188 29.5917C1.62122 29.8475 1.62122 30.0821 1.62122 30.3486ZM29.6259 30.3486C32.5681 30.3486 35.4784 30.3486 38.3886 30.3486C38.3886 30.2526 38.3993 30.1887 38.3993 30.1247C38.3993 27.4916 38.3993 24.8478 38.3993 22.2147C38.3993 21.266 38.1968 20.3385 37.845 19.4537C36.2353 15.3815 31.5874 13.3347 27.5364 14.9231C27.3339 14.9977 27.1633 15.0723 27.1314 15.3388C26.9501 16.8633 26.3105 18.1958 25.2445 19.3045C24.7541 19.8055 24.1891 20.2213 23.6667 20.669C27.6963 22.5985 29.6898 25.8179 29.6259 30.3486ZM19.9996 19.9867C23.0804 19.9867 25.5963 17.4816 25.5963 14.4007C25.6069 11.3199 23.1018 8.80407 20.0209 8.79341C16.9188 8.78275 14.4029 11.2986 14.4029 14.3901C14.4136 17.4709 16.9294 19.9867 19.9996 19.9867ZM30.0949 12.791C33.8154 12.7804 36.3952 9.78482 35.9368 6.38418C35.5104 3.26071 32.4828 1.09667 29.3594 1.69364C26.2785 2.2693 24.2531 5.35013 24.9353 8.38832C25.0739 8.97464 25.2765 9.51831 25.6815 9.99803C26.0333 10.4031 26.2572 10.9361 26.641 11.3092C27.6857 12.322 28.9756 12.7804 30.0949 12.791ZM15.2131 7.39691C15.2238 3.80439 12.2069 1.19261 8.83825 1.66166C6.49298 1.99213 4.64875 3.7191 4.13705 6.06437C3.64668 8.30304 4.67007 10.6803 6.65289 11.9275C8.62505 13.1748 11.1515 13.0362 13.0278 11.6397C13.5928 11.224 13.8166 10.5737 14.2644 10.094C15.0106 9.26247 15.1598 8.2604 15.2131 7.39691Z" fill="#FFB533"/>
</svg>
