<svg width="40" height="41" viewBox="0 0 40 41" fill="none" xmlns="http://www.w3.org/2000/svg">
<path d="M18.6682 33.4599C19.2624 33.7065 19.3409 33.8298 19.3409 34.4352C19.3409 36.072 19.3409 37.7087 19.3409 39.3567C19.3409 40.0181 19.1167 40.2423 18.4552 40.2423C15.462 40.2423 12.4575 40.2423 9.4643 40.2423C8.80287 40.2423 8.57866 40.0181 8.57866 39.3679C8.57866 37.7311 8.57866 36.0944 8.57866 34.4464C8.57866 33.8298 8.65713 33.7065 9.24009 33.4711C9.24009 32.9442 9.26251 32.4173 9.22888 31.8792C9.19524 31.2738 8.88135 30.803 8.43292 30.4106C7.0428 29.1886 5.6751 27.9443 4.28498 26.7335C3.57871 26.1281 3.1415 25.3994 2.90607 24.4914C2.00922 21.0385 1.07874 17.5968 0.137043 14.1552C-0.210487 12.8659 0.0922005 11.8121 1.16842 10.9938C1.26932 10.9153 1.32537 10.7471 1.32537 10.6126C1.359 9.22248 2.26707 8.10141 3.54508 7.88841C4.87915 7.6642 6.15716 8.48257 6.6168 9.81664C7.5697 12.5969 8.53382 15.3659 9.49793 18.1349C9.55398 18.2919 9.68851 18.4488 9.82304 18.5273C11.6952 19.6372 13.5898 20.7358 15.462 21.8457C17.592 23.1013 18.6458 24.951 18.6458 27.4286C18.6682 29.4353 18.6682 31.4532 18.6682 33.4599ZM17.323 33.5047C17.323 33.3814 17.323 33.2805 17.323 33.1908C17.323 31.1841 17.3454 29.1774 17.3118 27.1819C17.2893 25.4555 16.527 24.1214 15.0808 23.1797C14.6324 22.8883 14.1616 22.6304 13.7131 22.3614C12.1885 21.4645 10.675 20.5789 9.1504 19.6932C8.34324 19.2224 7.43517 19.5251 7.13248 20.3322C6.88585 20.9937 7.13249 21.6214 7.79391 22.0026C9.02708 22.7201 10.2715 23.4264 11.4934 24.1551C11.8746 24.3793 11.9755 24.7492 11.7849 25.0855C11.5943 25.4219 11.2132 25.534 10.8432 25.321C9.52035 24.5586 8.18629 23.8187 6.88585 23.0228C5.85447 22.3838 5.40605 21.0945 5.84326 19.9735C6.04505 19.4802 6.01142 19.0766 5.83205 18.617C5.78721 18.5049 5.75358 18.3816 5.71994 18.2583C5.1482 16.487 4.57646 14.7157 4.00471 12.9444C3.79171 12.283 3.24239 11.8906 2.59217 11.9018C2.03164 11.913 1.50474 12.3166 1.40385 12.8996C1.34779 13.191 1.38142 13.5162 1.4599 13.8076C2.39038 17.3053 3.34329 20.8031 4.27377 24.3008C4.4083 24.8165 4.66614 25.2425 5.06973 25.6012C6.48227 26.8456 7.87239 28.1012 9.28493 29.3344C10.193 30.1191 10.6414 31.0944 10.6078 32.294C10.5966 32.6976 10.6078 33.0899 10.6078 33.5047C12.8611 33.5047 15.0584 33.5047 17.323 33.5047ZM9.93515 38.8522C12.6145 38.8522 15.2826 38.8522 17.9732 38.8522C17.9732 37.5181 17.9732 36.1953 17.9732 34.8836C15.2826 34.8836 12.6145 34.8836 9.93515 34.8836C9.93515 36.2177 9.93515 37.5181 9.93515 38.8522ZM8.07418 18.1013C7.61454 16.7672 7.16612 15.478 6.71769 14.1776C6.25805 12.8547 5.80963 11.5431 5.34999 10.2202C5.10336 9.51395 4.41951 9.08795 3.74687 9.21126C3.15271 9.32337 2.71549 9.87269 2.7267 10.5229C4.20651 10.6686 5.05852 11.5207 5.41726 12.9332C5.49573 13.2583 5.61905 13.5722 5.71994 13.8861C6.202 15.3771 6.68406 16.8569 7.16612 18.3592C7.48001 18.2695 7.76028 18.191 8.07418 18.1013Z" fill="#FFB533"/>
<path d="M30.7771 33.4607C31.3712 33.7073 31.4497 33.8306 31.4497 34.436C31.4497 36.0727 31.4497 37.7095 31.4497 39.3575C31.4497 40.0189 31.2255 40.2431 30.5641 40.2431C27.5708 40.2431 24.5664 40.2431 21.5731 40.2431C20.9117 40.2431 20.6875 40.0189 20.6875 39.3687C20.6875 37.7319 20.6875 36.0952 20.6875 34.4472C20.6875 33.8306 20.766 33.7073 21.3601 33.4719C21.3601 31.5324 21.3826 29.593 21.3489 27.6423C21.3041 24.9854 22.4364 23.0348 24.7458 21.7231C26.5619 20.7029 28.3444 19.6267 30.1381 18.5617C30.295 18.4608 30.452 18.2814 30.508 18.1021C31.4834 15.333 32.4475 12.564 33.4004 9.78378C33.86 8.46092 35.1156 7.67617 36.4497 7.88918C37.7277 8.10218 38.6357 9.22324 38.6694 10.6134C38.6694 10.7591 38.7478 10.9385 38.86 11.0282C39.8801 11.8241 40.2052 12.8443 39.8801 14.0775C39.0393 17.2164 38.1985 20.3442 37.3689 23.4832C36.7075 25.9719 36.8308 25.7477 34.9026 27.463C33.8152 28.4271 32.7277 29.4024 31.6291 30.3553C31.0237 30.8822 30.721 31.51 30.7547 32.306C30.7995 32.6871 30.7771 33.0795 30.7771 33.4607ZM29.4318 33.4943C29.4318 33.0571 29.443 32.6535 29.4318 32.2499C29.4094 31.084 29.8466 30.1423 30.7322 29.3688C32.156 28.1244 33.5797 26.88 34.9699 25.5908C35.3062 25.2769 35.6089 24.8285 35.7322 24.38C36.7187 20.8375 37.6604 17.2837 38.6021 13.7187C38.8263 12.8667 38.4676 12.1492 37.7277 11.9362C37.0214 11.7344 36.2815 12.1829 36.0237 12.99C35.3734 14.9967 34.712 17.0034 34.0842 19.0213C34.017 19.2231 34.0394 19.4922 34.1179 19.6828C34.4093 20.4451 34.4766 21.2074 34.0842 21.9137C33.8488 22.3397 33.5125 22.7769 33.1089 23.0348C31.8421 23.8307 30.5304 24.5482 29.23 25.2993C28.9497 25.4675 28.6358 25.5011 28.4228 25.2545C28.2771 25.0751 28.1874 24.7724 28.2211 24.5482C28.2435 24.3688 28.4789 24.2007 28.6583 24.0886C29.8242 23.3935 31.0013 22.7209 32.1784 22.0482C32.582 21.8128 32.8959 21.5101 32.9632 21.0281C33.0304 20.4899 32.8735 20.0191 32.4138 19.7052C31.9206 19.3689 31.4161 19.3801 30.9116 19.6716C28.9946 20.7926 27.0664 21.9137 25.1493 23.046C23.5238 23.9989 22.7166 25.4338 22.7054 27.306C22.6942 29.2342 22.7054 31.1737 22.7054 33.1019C22.7054 33.2252 22.7054 33.3486 22.7054 33.4831C24.9588 33.4943 27.1673 33.4943 29.4318 33.4943ZM22.0664 34.8732C22.0664 36.2185 22.0664 37.5301 22.0664 38.8642C24.757 38.8642 27.4251 38.8642 30.082 38.8642C30.082 37.5189 30.082 36.1961 30.082 34.8732C27.3915 34.8732 24.7345 34.8732 22.0664 34.8732ZM37.3241 10.5237C37.3017 9.83983 36.8645 9.31293 36.2703 9.21203C35.5977 9.09993 34.9474 9.50351 34.712 10.1986C33.8264 12.7322 32.9519 15.2658 32.0663 17.7994C32.0327 17.9003 32.0103 18.0012 31.9766 18.1021C32.2905 18.1918 32.5708 18.2702 32.8623 18.3599C33.4676 16.4765 34.0954 14.6268 34.6672 12.7546C35.0708 11.4317 35.9116 10.6694 37.3241 10.5237Z" fill="#FFB533"/>
<path d="M20.0242 1.96965C21.1004 0.938274 22.3448 0.332899 23.7797 0.0862647C27.4568 -0.541531 31.1675 2.3396 31.459 6.05033C31.6384 8.2364 30.9433 10.0974 29.385 11.6444C26.4927 14.5368 23.6003 17.4291 20.708 20.3215C20.1363 20.8932 19.8784 20.8932 19.3067 20.3215C16.3471 17.3619 13.365 14.4247 10.4278 11.4314C7.26644 8.16914 8.1745 2.79924 12.2215 0.736482C14.643 -0.496689 17.6363 -0.126738 19.6766 1.66697C19.7775 1.76786 19.8896 1.85755 20.0242 1.96965ZM19.9457 19.1107C20.069 19.021 20.1026 19.0098 20.1363 18.9762C22.9838 16.1287 25.8649 13.2924 28.6788 10.4113C30.7079 8.3373 30.6182 4.98532 28.5779 2.93377C26.5375 0.893431 23.2304 0.826167 21.1116 2.81045C20.9098 3.00103 20.7192 3.21403 20.5062 3.3934C20.1923 3.67367 19.8448 3.67367 19.5309 3.3934C19.3179 3.20282 19.1385 3.00103 18.9255 2.81045C17.1654 1.16249 14.5197 0.893431 12.4682 2.13781C9.43009 3.99878 8.98167 8.05703 11.5377 10.6243C14.1946 13.2924 16.8628 15.9493 19.5309 18.6175C19.6766 18.7744 19.7999 18.9426 19.9457 19.1107Z" fill="#FFB533"/>
<path d="M17.9963 11.3079C17.3349 11.3079 16.7295 11.3079 16.1354 11.3079C15.5524 11.3079 15.317 11.0725 15.3058 10.5008C15.3058 9.69362 15.2946 8.87524 15.3058 8.06807C15.3058 7.51875 15.5524 7.28333 16.1129 7.28333C16.7295 7.28333 17.3349 7.28333 17.9963 7.28333C17.9963 6.64432 17.9963 6.05016 17.9963 5.45599C17.9963 4.8282 18.2205 4.59277 18.8595 4.59277C19.6443 4.59277 20.429 4.59277 21.2138 4.59277C21.7967 4.59277 22.0321 4.8282 22.0321 5.41115C22.0321 6.01653 22.0321 6.61069 22.0321 7.28333C22.6151 7.28333 23.1756 7.28333 23.7474 7.28333C24.5209 7.28333 24.7227 7.47391 24.7227 8.23623C24.7227 8.97614 24.7227 9.71604 24.7227 10.4672C24.7227 11.0949 24.4873 11.3192 23.8483 11.3192C23.2653 11.3192 22.6712 11.3192 22.0321 11.3192C22.0321 11.9357 22.0321 12.5299 22.0321 13.1241C22.0321 13.7855 21.8079 13.9985 21.1465 14.0097C20.3618 14.0097 19.577 14.0097 18.7923 14.0097C18.243 14.0097 17.9963 13.7631 17.9963 13.2138C17.9963 12.5972 17.9963 11.9806 17.9963 11.3079ZM20.6869 5.94926C20.2048 5.94926 19.79 5.94926 19.3416 5.94926C19.3416 6.53221 19.3416 7.08154 19.3416 7.64207C19.3416 8.43802 19.151 8.61739 18.3438 8.61739C17.7945 8.61739 17.234 8.61739 16.6847 8.61739C16.6847 9.08824 16.6847 9.51425 16.6847 9.92904C16.7407 9.94025 16.7631 9.95146 16.7968 9.95146C17.3125 9.95146 17.8282 9.95146 18.3551 9.95146C19.1734 9.95146 19.3528 10.1308 19.3528 10.9716C19.3528 11.521 19.3528 12.0815 19.3528 12.6196C19.8349 12.6196 20.2497 12.6196 20.6981 12.6196C20.6981 12.0366 20.6981 11.4873 20.6981 10.9268C20.6981 10.1308 20.8887 9.95146 21.6958 9.95146C22.2452 9.95146 22.8057 9.95146 23.3662 9.95146C23.3662 9.48061 23.3662 9.05461 23.3662 8.63982C23.3102 8.6286 23.2877 8.61739 23.2541 8.61739C22.7048 8.61739 22.1667 8.61739 21.6174 8.61739C20.9111 8.61739 20.7093 8.40439 20.6981 7.68691C20.6869 7.11517 20.6869 6.54343 20.6869 5.94926Z" fill="#FFB533"/>
</svg>
