<svg width="40" height="40" viewBox="0 0 40 40" fill="none" xmlns="http://www.w3.org/2000/svg">
<path d="M6.72142 32.1947C6.68729 31.6941 6.65316 31.2048 6.6304 30.7042C6.61902 30.3401 6.41422 30.1239 6.08427 30.0329C5.45849 29.8623 4.82133 29.7257 4.18418 29.5551C3.83147 29.464 3.46738 29.3616 3.13742 29.2137C2.01102 28.7245 1.56729 27.7915 1.92 26.6082C2.05653 26.1303 2.27271 25.6866 2.46613 25.2315C2.62542 24.856 2.83022 24.4919 2.98951 24.1165C3.27396 23.4338 3.23982 23.2745 2.68231 22.7853C2.30684 22.4553 1.89724 22.1709 1.52178 21.8409C1.2032 21.5679 0.873244 21.2834 0.600178 20.9648C-0.196267 20.0546 -0.207644 18.951 0.611556 18.0749C1.16907 17.4946 1.8176 16.994 2.432 16.4706C3.29671 15.7424 3.31947 15.6628 2.86436 14.6388C2.56853 13.9675 2.21582 13.3076 1.97689 12.6135C1.49902 11.2141 1.98827 10.2015 3.38773 9.72359C4.13867 9.4619 4.92373 9.31399 5.68604 9.12057C6.50524 8.90439 6.64178 8.7451 6.68729 7.89177C6.72142 7.02706 6.69867 6.15097 6.80107 5.29764C6.92622 4.1371 7.72267 3.43168 8.89458 3.51133C9.81618 3.56822 10.7378 3.79577 11.6594 3.96644C12.4444 4.11435 12.6379 4.0347 13.002 3.35204C13.1954 2.98795 13.3547 2.61248 13.5481 2.24839C13.7643 1.83879 13.9691 1.40644 14.2421 1.03097C14.9817 -0.0385401 16.0057 -0.277474 17.1321 0.37106C17.6441 0.666882 18.1106 1.05373 18.5884 1.40644C18.8615 1.61124 19.1346 1.81604 19.4076 2.02084C19.8172 2.33942 20.2155 2.32804 20.6137 2.00946C21.1029 1.62262 21.6036 1.23577 22.1042 0.860304C22.3659 0.666882 22.6389 0.47346 22.9234 0.325549C24.0043 -0.266096 25.0055 -0.049918 25.7223 0.962704C25.9726 1.30404 26.166 1.69088 26.3708 2.06635C26.5756 2.45319 26.7577 2.86279 26.9511 3.24964C27.3721 4.05746 27.5086 4.12573 28.3961 3.95506C29.1925 3.80715 29.9776 3.60235 30.774 3.5227C32.5831 3.34066 33.1975 4.48982 33.2772 5.8779C33.3227 6.68573 33.334 7.49355 33.3454 8.30137C33.3568 8.73373 33.6071 8.9499 33.9826 9.04093C34.5856 9.20021 35.2 9.32537 35.803 9.48466C36.2126 9.59844 36.6222 9.72359 37.0091 9.90564C38.0103 10.3949 38.4199 11.2823 38.09 12.3519C37.8624 13.08 37.5211 13.7741 37.2025 14.4681C36.6564 15.6855 36.6677 15.7652 37.7031 16.5958C38.1696 16.9712 38.6475 17.3353 39.0798 17.7449C40.3086 18.9282 40.3086 20.1343 39.0684 21.3175C38.5906 21.7613 38.0672 22.1595 37.5666 22.5691C36.7132 23.2859 36.6905 23.3883 37.1456 24.4009C37.4414 25.0722 37.7941 25.7321 38.0331 26.4262C38.5109 27.8143 38.0217 28.8383 36.6222 29.3161C35.8827 29.5664 35.1204 29.7143 34.358 29.9078C33.4706 30.1353 33.3568 30.2719 33.3227 31.1935C33.2999 31.8306 33.3227 32.4678 33.2999 33.1163C33.243 34.9823 32.1508 35.8583 30.3076 35.5056C29.6249 35.3805 28.9536 35.2098 28.2709 35.0733C27.5655 34.9254 27.3835 35.005 27.0421 35.6649C26.7236 36.2679 26.4505 36.8937 26.1205 37.4854C25.1648 39.2375 23.9246 39.5106 22.309 38.3501C21.7515 37.9519 21.2395 37.5081 20.6933 37.0985C20.1131 36.6775 19.9083 36.6775 19.3166 37.1099C18.8729 37.4399 18.4519 37.8039 17.9968 38.1225C17.6441 38.3842 17.28 38.6345 16.8818 38.8279C15.9716 39.2603 15.1068 39.0783 14.4583 38.3046C14.1284 37.9063 13.878 37.4285 13.6164 36.9734C13.366 36.5183 13.1612 36.029 12.9109 35.5625C12.6037 35.005 12.4103 34.9254 11.7959 35.0505C11.1019 35.1871 10.4192 35.3805 9.71378 35.4829C9.24729 35.5511 8.73529 35.5739 8.28018 35.4829C7.32444 35.2895 6.76693 34.4703 6.71004 33.2642C6.68729 32.9115 6.71004 32.5588 6.71004 32.1947C6.71004 32.1947 6.71004 32.1947 6.72142 32.1947ZM8.4736 32.1606C8.4736 32.5474 8.46222 32.9343 8.4736 33.3097C8.49636 33.6852 8.6784 33.8786 9.088 33.799C9.77067 33.6624 10.4533 33.5373 11.1246 33.3894C12.9109 33.0025 13.8098 33.4349 14.629 35.0619C14.8679 35.5398 15.0955 36.029 15.3458 36.5069C15.835 37.4512 15.926 37.4626 16.7794 36.8255C17.3596 36.3931 17.9172 35.9266 18.5088 35.517C19.4759 34.8457 20.4772 34.8571 21.4556 35.517C21.8994 35.8128 22.3204 36.1656 22.7527 36.4841C23.0713 36.7231 23.3899 36.9506 23.7198 37.1782C23.9474 37.3375 24.1522 37.292 24.3001 37.053C24.4821 36.7458 24.6642 36.4386 24.8235 36.1314C25.0965 35.608 25.3355 35.0505 25.6427 34.5385C26.3026 33.4576 27.1332 33.0935 28.3847 33.3211C29.1925 33.469 30.0004 33.6511 30.8082 33.7876C31.3657 33.8786 31.4908 33.7648 31.5136 33.1846C31.5364 32.5588 31.525 31.933 31.5364 31.3072C31.5705 29.3616 32.2304 28.5538 34.1305 28.1442C34.6539 28.0304 35.1886 27.9167 35.7006 27.7687C36.4971 27.5526 36.5653 27.416 36.2354 26.6651C35.9737 26.0621 35.6779 25.4818 35.4162 24.8902C34.7563 23.3542 34.9724 22.4326 36.2581 21.3517C36.7474 20.9421 37.2594 20.5552 37.7486 20.1343C38.3516 19.6109 38.3516 19.4061 37.76 18.8827C37.2025 18.4048 36.5995 17.9611 36.0533 17.4719C35.018 16.5275 34.8245 15.6628 35.3365 14.3657C35.5982 13.7058 35.9282 13.08 36.2126 12.4315C36.5881 11.5895 36.5198 11.453 35.6437 11.2141C34.8814 11.0093 34.0964 10.85 33.3454 10.6224C32.219 10.2811 31.6615 9.47328 31.616 8.31275C31.5819 7.47079 31.5705 6.64022 31.5364 5.79826C31.5136 5.25213 31.3543 5.11559 30.8082 5.20661C29.9548 5.35453 29.1129 5.54795 28.2596 5.69586C27.2697 5.86653 26.4277 5.58208 25.8361 4.72875C25.6313 4.42155 25.4492 4.10297 25.2786 3.77302C25.0396 3.3179 24.8348 2.85142 24.5959 2.3963C24.1636 1.5771 24.0156 1.54297 23.2875 2.0891C22.7186 2.51008 22.1838 2.97657 21.5922 3.38617C20.4316 4.18261 19.5214 4.18261 18.3609 3.38617C17.8148 3.0107 17.3028 2.56697 16.768 2.16875C15.926 1.53159 15.8009 1.56573 15.323 2.48733C14.9476 3.20413 14.6176 3.94368 14.1966 4.63773C13.6164 5.58208 12.7289 5.88928 11.6594 5.69586C10.8402 5.54795 10.021 5.3659 9.20178 5.21799C8.61013 5.11559 8.45084 5.24075 8.43947 5.84377C8.42809 6.40128 8.42809 6.94741 8.42809 7.50493C8.40533 9.6667 7.83644 10.3835 5.73156 10.8841C5.18542 11.0093 4.62791 11.1344 4.08178 11.2937C3.49013 11.4758 3.42187 11.6123 3.6608 12.1926C3.92249 12.807 4.22969 13.3986 4.49138 14.013C5.21956 15.6514 4.992 16.5958 3.62667 17.7335C3.19431 18.0976 2.7392 18.439 2.30684 18.8144C1.59004 19.4288 1.59004 19.6109 2.31822 20.2253C2.85298 20.6804 3.41049 21.09 3.92249 21.5565C4.95787 22.5008 5.15129 23.3542 4.62791 24.6626C4.36622 25.3111 4.04764 25.9255 3.7632 26.5627C3.37636 27.4274 3.44462 27.5639 4.38898 27.8143C5.13991 28.0077 5.90222 28.1783 6.65316 28.4059C7.74542 28.7359 8.29155 29.5209 8.3712 30.6473C8.41671 31.1479 8.43947 31.6599 8.4736 32.1606Z" fill="#FFB533"/>
<path d="M27.1089 23.5135C27.0976 25.2657 25.7095 26.631 23.9573 26.6197C22.2165 26.6083 20.8056 25.1861 20.8284 23.468C20.8512 21.75 22.3075 20.3164 24.0028 20.3391C25.7322 20.3619 27.1203 21.7727 27.1089 23.5135ZM23.9573 24.9016C24.7196 24.913 25.3681 24.2758 25.3795 23.5022C25.3909 22.7626 24.7651 22.1141 24.0142 22.0913C23.2632 22.0686 22.592 22.7171 22.5692 23.468C22.5464 24.219 23.195 24.8902 23.9573 24.9016Z" fill="#FFB533"/>
<path d="M15.9929 12.4083C17.745 12.3969 19.1559 13.7964 19.1673 15.5258C19.1786 17.2211 17.7109 18.6888 16.0042 18.6888C14.2862 18.6888 12.8981 17.2893 12.8867 15.5599C12.8867 13.785 14.2293 12.4196 15.9929 12.4083ZM17.4265 15.5258C17.4265 14.7748 16.7665 14.1149 16.0156 14.1149C15.2647 14.1149 14.6048 14.7748 14.6048 15.5258C14.6048 16.2767 15.2647 16.9366 16.0156 16.9366C16.7665 16.948 17.4265 16.2767 17.4265 15.5258Z" fill="#FFB533"/>
<path d="M15.4476 24.7429C15.2769 24.7429 15.0949 24.6746 14.9697 24.5381C14.708 24.2764 14.708 23.844 14.9697 23.5709L24.0719 14.4687C24.3336 14.207 24.766 14.207 25.039 14.4687C25.3007 14.7304 25.3007 15.1628 25.039 15.4358L15.9368 24.5381C15.8003 24.6746 15.6182 24.7429 15.4476 24.7429Z" fill="#FFB533"/>
</svg>
