<svg width="15" height="13" viewBox="0 0 15 13" fill="none" xmlns="http://www.w3.org/2000/svg">
<path d="M6.17394 11.7625L6.8933 12.4034C7.1979 12.6748 7.69043 12.6748 7.99179 12.4034L14.2911 6.79423C14.5957 6.52287 14.5957 6.08407 14.2911 5.81559L7.99179 0.203524C7.68719 -0.0678407 7.19466 -0.0678407 6.8933 0.203525L6.17394 0.844408C5.8661 1.11866 5.87258 1.56612 6.1869 1.8346L10.0916 5.14872L0.778707 5.14872C0.347737 5.14872 0.00101614 5.45762 0.00101617 5.84157L0.00101625 6.76537C0.00101629 7.14932 0.347737 7.45821 0.778707 7.45821L10.0916 7.45821L6.1869 10.7723C5.86934 11.0408 5.86286 11.4883 6.17394 11.7625Z" fill="#FFB533"/>
</svg>
