<svg width="25" height="25" viewBox="0 0 25 25" fill="none" xmlns="http://www.w3.org/2000/svg">
<circle cx="12.5" cy="12.5" r="12" stroke="#7A5C8D"/>
<path d="M11.7585 13.5497C12.0158 13.8937 12.344 14.1783 12.7209 14.3842C13.0979 14.5901 13.5147 14.7126 13.9431 14.7432C14.3715 14.7739 14.8015 14.7121 15.2039 14.562C15.6063 14.4119 15.9717 14.177 16.2754 13.8732L18.0725 12.0761C18.6181 11.5112 18.92 10.7546 18.9132 9.96922C18.9064 9.18388 18.5914 8.43263 18.036 7.87729C17.4807 7.32194 16.7295 7.00694 15.9441 7.00011C15.1588 6.99329 14.4022 7.29519 13.8372 7.8408L12.8069 8.86518" stroke="#7A5C8D" stroke-linecap="round" stroke-linejoin="round"/>
<path d="M14.1548 12.3516C13.8975 12.0077 13.5693 11.7231 13.1924 11.5172C12.8155 11.3113 12.3987 11.1888 11.9703 11.1581C11.5419 11.1275 11.1119 11.1893 10.7094 11.3394C10.307 11.4895 9.9416 11.7244 9.63795 12.0282L7.8408 13.8253C7.29519 14.3902 6.99329 15.1468 7.00011 15.9322C7.00694 16.7175 7.32194 17.4688 7.87729 18.0241C8.43263 18.5794 9.18388 18.8944 9.96922 18.9013C10.7546 18.9081 11.5112 18.6062 12.0761 18.0606L13.1005 17.0362" stroke="#7A5C8D" stroke-linecap="round" stroke-linejoin="round"/>
</svg>
