<svg width="26" height="25" viewBox="0 0 26 25" fill="none" xmlns="http://www.w3.org/2000/svg">
<circle cx="13.136" cy="12.5" r="12" stroke="#7A5C8D"/>
<path d="M20.5076 5.68897C19.8405 6.15952 19.1019 6.51942 18.3202 6.7548C17.9007 6.2724 17.3431 5.93048 16.7229 5.7753C16.1027 5.62011 15.4498 5.65915 14.8525 5.88712C14.2552 6.1151 13.7423 6.52101 13.3832 7.04997C13.0241 7.57893 12.8362 8.20541 12.8447 8.84467V9.5413C11.6205 9.57304 10.4075 9.30153 9.31357 8.75094C8.21968 8.20035 7.27894 7.38778 6.57513 6.38559C6.57513 6.38559 3.78864 12.6552 10.0583 15.4417C8.62358 16.4156 6.9145 16.9039 5.18188 16.835C11.4515 20.3181 19.1144 16.835 19.1144 8.82377C19.1137 8.62973 19.0951 8.43617 19.0586 8.24558C19.7696 7.54442 20.2713 6.65916 20.5076 5.68897V5.68897Z" stroke="#7A5C8D" stroke-linecap="round" stroke-linejoin="round"/>
</svg>
