<svg width="292" height="32" viewBox="0 0 292 32" fill="none" xmlns="http://www.w3.org/2000/svg">
<path d="M18.6022 6.25526C17.8771 5.84526 15.7942 6.10026 13.2902 6.88526C8.91262 9.92526 5.21769 14.4028 4.96106 21.5953C4.91372 21.7678 4.4802 21.5728 4.39549 21.5178C3.21201 19.2153 2.74111 16.7928 3.73274 13.2953C3.91462 12.9828 3.31167 12.6003 3.20703 12.7103C2.98778 12.9303 2.08584 13.9078 1.48788 14.9653C-1.4895 20.2053 0.456385 26.9203 5.65869 29.8578C10.8635 32.8003 17.4311 30.9028 20.3288 25.6178C23.6799 19.5178 20.5655 7.36776 18.6022 6.25276" fill="#80B341"/>
<path d="M37.2264 9.18262C31.0574 9.18262 26.5776 13.8401 26.5776 20.2576C26.5776 26.7276 31.0424 31.2451 37.4407 31.2451C40.6697 31.2451 43.2285 30.2201 45.2616 28.1076C45.8695 27.4426 45.9343 26.8001 45.9343 26.5551C45.9343 25.5076 45.1694 24.7501 44.113 24.7501C43.5823 24.7501 43.1363 24.9551 42.6255 25.4326C41.4745 26.5226 39.9571 27.6376 37.4407 27.6376C33.9401 27.6376 31.0923 24.9676 30.9129 21.5401H44.8455C46.3603 21.5401 47.0953 20.8201 47.0953 19.3426C47.0953 18.9076 47.0953 18.5926 47.0106 17.9726C46.2582 12.4701 42.6031 9.18512 37.2264 9.18512V9.18262ZM37.2264 12.6176C40.57 12.6176 42.7177 14.7826 42.8498 18.2776H30.9204C31.2318 15.0426 33.9227 12.6176 37.2264 12.6176Z" fill="#131412"/>
<path d="M60.4001 9.18262C57.5971 9.18262 54.824 10.8176 53.7402 13.0926V11.6876C53.7402 9.51012 52.0784 9.40012 51.747 9.40012C50.7628 9.40012 49.7114 10.0001 49.7114 11.6876V28.6526C49.7114 30.9126 51.4754 31.0251 51.8342 31.0251C52.1855 31.0251 53.957 30.9101 53.957 28.6526V19.5576C53.957 15.6001 56.1645 12.8376 59.3262 12.8376C62.3833 12.8376 63.8733 14.8776 63.8733 19.0776V28.6551C63.8733 30.9151 65.6447 31.0276 65.9985 31.0276C66.3523 31.0276 68.1188 30.9126 68.1188 28.6551V17.7226C68.1188 13.5951 66.0907 9.18262 60.4026 9.18262" fill="#131412"/>
<path d="M87.3184 9.39996C86.3367 9.39996 85.6266 9.98246 85.2006 11.125L79.3978 25.955L73.6374 11.125C73.1865 9.96496 72.4814 9.39996 71.4773 9.39996C70.3087 9.39996 69.3545 10.3275 69.3545 11.4675C69.3545 11.75 69.3869 12.115 69.6211 12.6875L76.2934 28.69C77.0882 30.62 78.3962 31.025 79.3505 31.025C80.3097 31.025 81.6153 30.62 82.4126 28.69L89.1272 12.5975C89.359 12.0325 89.3938 11.62 89.3938 11.4225C89.3938 10.27 88.4994 9.39746 87.3134 9.39746" fill="#131412"/>
<path d="M99.6591 9.18262C96.9458 9.18262 94.4169 9.95012 92.5383 11.3426C91.9055 11.7876 91.5965 12.3451 91.5965 13.0426C91.5965 14.0051 92.3191 14.7601 93.2434 14.7601C93.6421 14.7601 94.093 14.5976 94.5042 14.3051C96.1162 13.2126 97.631 12.7051 99.268 12.7051C102.407 12.7051 104.209 14.3251 104.209 17.1526V17.6201C97.1651 17.6276 90.002 18.4926 90.002 24.7151C90.002 29.1951 93.7716 31.2001 97.5039 31.2001C100.479 31.2001 102.856 30.0026 104.381 27.7376V28.8276C104.381 30.4501 105.454 31.0251 106.374 31.0251C106.566 31.0251 108.28 30.9626 108.28 28.8276V17.4151C108.28 12.2601 105.056 9.18262 99.6591 9.18262ZM103.314 20.7951H104.209V21.7876C104.209 25.4201 101.929 27.7651 98.4084 27.7651C97.4491 27.7651 94.3322 27.5401 94.3322 24.6276C94.3322 21.1901 99.4573 20.7926 103.314 20.7926V20.7951Z" fill="#131412"/>
<path d="M119.33 13.3176C121.186 13.3176 121.281 11.8501 121.281 11.5576C121.281 10.6851 120.767 9.75258 119.33 9.75258H115.51V5.83008C115.51 4.07758 114.392 3.45508 113.435 3.45508C113.081 3.45508 111.31 3.57008 111.31 5.83008V24.4576C111.31 28.7551 113.4 31.0276 117.349 31.0276C118.371 31.0276 119.37 30.8451 120.02 30.5351C120.767 30.1576 121.196 29.5351 121.196 28.8276C121.196 27.8326 120.486 27.1101 119.504 27.1101C119.315 27.1101 119.043 27.1576 118.747 27.2451C118.383 27.3376 118.139 27.3726 117.867 27.3726C116.26 27.3726 115.513 26.3076 115.513 24.0176V13.3176H119.332" fill="#131412"/>
<path d="M133.364 9.18262C126.946 9.18262 122.29 13.8026 122.29 20.1701C122.29 23.2701 123.418 26.0951 125.464 28.1251C127.499 30.1401 130.302 31.2476 133.367 31.2476C139.703 31.2476 144.487 26.4851 144.487 20.1701C144.487 13.8051 139.807 9.18262 133.367 9.18262H133.364ZM133.364 27.5926C128.959 27.5926 126.662 23.8601 126.662 20.1701C126.662 15.1026 130.133 12.7951 133.364 12.7951C136.593 12.7951 140.064 15.1026 140.064 20.1701C140.064 25.2701 136.588 27.5926 133.364 27.5926Z" fill="#131412"/>
<path d="M157.357 8.7027C155.703 8.7027 154.156 9.1827 152.758 10.1302C151.37 11.0702 150.267 12.3927 149.477 14.0602C148.697 15.7102 148.301 17.5477 148.301 19.5202V20.3677C148.301 22.3452 148.712 24.1727 149.522 25.8002C150.336 27.4427 151.482 28.7527 152.923 29.6977C154.373 30.6477 155.992 31.1302 157.726 31.1302C160.876 31.1302 163.292 29.9277 164.909 27.5552C165.104 27.2652 165.034 26.8677 164.752 26.6652L164.047 26.1552C163.771 25.9577 163.389 26.0127 163.183 26.2827C162.52 27.1477 161.75 27.7927 160.898 28.2027C160.043 28.6152 158.977 28.8227 157.729 28.8227C156.451 28.8227 155.252 28.4527 154.156 27.7252C153.05 26.9902 152.17 25.9577 151.535 24.6577C150.894 23.3427 150.573 21.8927 150.573 20.3452V19.8802H164.982C165.33 19.8802 165.614 19.5927 165.614 19.2352V18.1602C165.614 15.3727 164.842 13.0802 163.32 11.3452C161.78 9.5902 159.772 8.7002 157.36 8.7002L157.357 8.7027ZM150.718 17.5777C151.017 15.7577 151.734 14.2277 152.848 13.0177C154.094 11.6652 155.566 11.0077 157.357 11.0077C158.474 11.0077 159.498 11.3052 160.397 11.8952C161.302 12.4877 162.024 13.3327 162.547 14.4077C163.021 15.3852 163.285 16.4502 163.335 17.5802H150.718V17.5777Z" fill="#80B341"/>
<path d="M169.893 0.775391H168.889C168.542 0.775391 168.256 1.06289 168.256 1.41789V30.3579C168.256 30.7129 168.542 31.0004 168.889 31.0004H169.893C170.239 31.0004 170.523 30.7129 170.523 30.3579V1.41789C170.523 1.06289 170.239 0.775391 169.893 0.775391Z" fill="#80B341"/>
<path d="M182.196 8.7027C180.541 8.7027 178.994 9.1827 177.596 10.1302C176.209 11.0702 175.105 12.3927 174.318 14.0602C173.538 15.7102 173.144 17.5477 173.144 19.5202V20.3677C173.144 22.3452 173.55 24.1727 174.36 25.8002C175.175 27.4427 176.321 28.7527 177.763 29.6977C179.216 30.6477 180.83 31.1302 182.567 31.1302C185.716 31.1302 188.133 29.9277 189.748 27.5552C189.944 27.2652 189.877 26.8677 189.593 26.6652L188.89 26.1552C188.614 25.9577 188.233 26.0127 188.026 26.2827C187.361 27.1452 186.591 27.7927 185.741 28.2027C184.884 28.6152 183.818 28.8227 182.57 28.8227C181.291 28.8227 180.088 28.4527 178.994 27.7252C177.888 26.9902 177.008 25.9577 176.376 24.6577C175.735 23.3452 175.411 21.8927 175.411 20.3452V19.8802H189.825C190.171 19.8802 190.455 19.5927 190.455 19.2352V18.1602C190.455 15.3727 189.685 13.0802 188.163 11.3452C186.621 9.5902 184.613 8.7002 182.198 8.7002L182.196 8.7027ZM175.556 17.5777C175.857 15.7577 176.572 14.2277 177.686 13.0177C178.932 11.6652 180.407 11.0077 182.196 11.0077C183.332 11.0077 184.326 11.2977 185.238 11.8952C186.142 12.4877 186.865 13.3327 187.388 14.4077C187.861 15.3852 188.128 16.4527 188.178 17.5802H175.558L175.556 17.5777Z" fill="#80B341"/>
<path d="M215.617 8.8902C213.843 8.8902 212.219 9.36519 210.786 10.3002C209.814 10.9377 209.017 11.7277 208.407 12.6627C207.971 11.5702 207.33 10.7252 206.491 10.1327C205.317 9.3077 203.807 8.8877 202.006 8.8877C200.344 8.8877 198.812 9.3827 197.446 10.3627C196.719 10.8827 196.078 11.5227 195.53 12.2752V9.9077C195.53 9.5527 195.246 9.2652 194.897 9.2652H193.878C193.53 9.2652 193.246 9.5527 193.246 9.9077V30.2927C193.246 30.6477 193.53 30.9377 193.878 30.9377H194.897C195.246 30.9377 195.53 30.6502 195.53 30.2927V17.4827C195.787 16.1752 196.303 14.9627 197.063 13.8802C198.346 12.0702 199.943 11.1927 201.946 11.1927C203.653 11.1927 204.893 11.6227 205.638 12.4727C206.401 13.3452 206.792 14.7377 206.802 16.6102V30.2952C206.802 30.6502 207.086 30.9402 207.437 30.9402H208.436C208.788 30.9402 209.069 30.6527 209.069 30.2952L209.067 16.7902C209.134 15.8777 209.538 14.9027 210.278 13.8927C211.591 12.1127 213.32 11.2302 215.565 11.1952C217.289 11.1652 218.472 11.6102 219.237 12.5377C220.02 13.4852 220.416 15.0152 220.416 17.0852V30.2977C220.416 30.6527 220.7 30.9427 221.049 30.9427H222.05C222.399 30.9427 222.683 30.6552 222.683 30.2977V16.9952C222.671 14.3627 222.08 12.3402 220.924 10.9827C219.745 9.5952 217.959 8.8952 215.615 8.8952" fill="#80B341"/>
<path d="M234.49 8.70324C232.838 8.70324 231.289 9.18324 229.891 10.1307C228.503 11.0707 227.399 12.3932 226.612 14.0607C225.832 15.7107 225.436 17.5482 225.436 19.5207V20.3682C225.436 22.3457 225.847 24.1732 226.654 25.8007C227.469 27.4432 228.615 28.7532 230.058 29.6982C231.51 30.6482 233.125 31.1282 234.861 31.1282C238.011 31.1282 240.428 29.9257 242.042 27.5532C242.239 27.2632 242.169 26.8657 241.888 26.6632L241.182 26.1532C240.906 25.9557 240.525 26.0107 240.318 26.2807C239.655 27.1457 238.885 27.7907 238.033 28.2007C237.179 28.6132 236.112 28.8207 234.864 28.8207C233.586 28.8207 232.382 28.4507 231.289 27.7232C230.185 26.9882 229.308 25.9557 228.67 24.6557C228.03 23.3407 227.706 21.8882 227.706 20.3432V19.8782H242.117C242.466 19.8782 242.75 19.5907 242.75 19.2332V18.1582C242.75 15.3707 241.977 13.0782 240.455 11.3432C238.915 9.58824 236.907 8.69824 234.493 8.69824L234.49 8.70324ZM227.85 17.5782C228.152 15.7582 228.867 14.2282 229.981 13.0182C231.226 11.6657 232.701 11.0082 234.49 11.0082C235.626 11.0082 236.62 11.2982 237.532 11.8957C238.437 12.4882 239.159 13.3332 239.683 14.4082C240.156 15.3882 240.42 16.4532 240.47 17.5807H227.85V17.5782Z" fill="#80B341"/>
<path d="M254.338 8.85547C252.666 8.85547 251.119 9.35797 249.741 10.3505C249.018 10.8705 248.388 11.493 247.847 12.2155V9.87547C247.847 9.52047 247.563 9.23297 247.215 9.23297H246.213C245.864 9.23297 245.58 9.52047 245.58 9.87547V30.2605C245.58 30.6155 245.864 30.9055 246.213 30.9055H247.215C247.563 30.9055 247.847 30.618 247.847 30.2605V17.2905C248.266 15.483 249.068 13.9905 250.224 12.8505C251.38 11.713 252.706 11.1605 254.283 11.1605C255.957 11.1605 257.181 11.6105 257.916 12.503C258.678 13.428 259.072 14.9205 259.084 16.9355V30.2605C259.084 30.6155 259.368 30.9055 259.717 30.9055H260.719C261.067 30.9055 261.351 30.618 261.351 30.2605V16.958C261.339 14.313 260.753 12.288 259.612 10.938C258.446 9.55797 256.672 8.85797 254.338 8.85797" fill="#80B341"/>
<path d="M273.862 28.6606C271.841 28.9531 270.702 28.8731 270.162 28.0681C269.773 27.4856 269.576 26.5306 269.576 25.2231V11.3831H273.505C273.854 11.3831 274.138 11.0956 274.138 10.7406V9.72312C274.138 9.36812 273.854 9.08063 273.505 9.08063H269.576V4.22313C269.576 3.86813 269.292 3.57812 268.943 3.57812H267.927C267.575 3.57812 267.291 3.86563 267.291 4.22313V9.08063H264.214C263.866 9.08063 263.582 9.36812 263.582 9.72312V10.7406C263.582 11.0956 263.866 11.3831 264.214 11.3831H267.291V25.3606C267.306 27.2981 267.665 28.6981 268.39 29.6456C269.143 30.6306 270.366 31.1281 272.025 31.1281C273.099 31.1281 273.857 31.0406 274.337 30.8631C274.626 30.7556 274.798 30.4531 274.744 30.1481L274.577 29.1881C274.517 28.8456 274.198 28.6156 273.864 28.6631" fill="#80B341"/>
<path d="M291.148 22.1531C290.657 21.3356 289.869 20.6281 288.811 20.0456C287.802 19.4931 286.426 19.0106 284.722 18.6106C283.117 18.2331 281.889 17.8406 281.067 17.4431C280.3 17.0706 279.746 16.6606 279.428 16.2256C279.129 15.8206 278.979 15.2231 278.979 14.4531C278.979 13.4906 279.4 12.7056 280.265 12.0481C281.174 11.3581 282.45 11.0081 284.059 11.0081C285.734 11.0081 287.099 11.4231 288.118 12.2456C289.105 13.0406 289.585 13.9981 289.585 15.1706C289.585 15.5256 289.869 15.8131 290.218 15.8131H291.237C291.586 15.8131 291.873 15.5256 291.873 15.1706C291.873 13.1881 291.128 11.5881 289.663 10.4156C288.243 9.28062 286.359 8.70312 284.059 8.70312C281.934 8.70312 280.172 9.23812 278.827 10.2881C277.422 11.3781 276.712 12.7931 276.712 14.4906C276.712 16.1631 277.28 17.5031 278.399 18.4756C279.467 19.4031 281.264 20.1281 283.892 20.6981C287.749 21.5256 289.623 22.9706 289.623 25.1181C289.623 26.1181 289.157 26.9556 288.198 27.6831C287.196 28.4431 285.853 28.8281 284.209 28.8281C282.395 28.8281 280.95 28.4631 279.921 27.7456C278.937 27.0581 278.416 26.1231 278.331 24.8856C278.309 24.5481 278.032 24.2881 277.698 24.2881H276.697C276.348 24.2881 276.064 24.5756 276.064 24.9306C276.064 26.7706 276.846 28.2931 278.389 29.4506C279.871 30.5656 281.829 31.1306 284.209 31.1306C286.441 31.1306 288.282 30.5931 289.685 29.5331C291.148 28.4306 291.89 26.9506 291.89 25.1356C291.89 23.9781 291.638 22.9756 291.148 22.1556" fill="#80B341"/>
</svg>
