<svg width="62" height="35" viewBox="0 0 62 35" fill="none" xmlns="http://www.w3.org/2000/svg">
<rect x="0.5" y="0.5" width="61" height="34" rx="5.5" fill="white" stroke="#EF5B68"/>
<path d="M19.8413 20.6782L22.5513 12.3359H24.5874L20.7495 23H18.9551L15.1318 12.3359H17.1606L19.8413 20.6782ZM27.5171 23H25.7373V15.0752H27.5171V23ZM25.6274 13.0171C25.6274 12.7437 25.7129 12.5166 25.8838 12.3359C26.0596 12.1553 26.3086 12.0649 26.6309 12.0649C26.9531 12.0649 27.2021 12.1553 27.3779 12.3359C27.5537 12.5166 27.6416 12.7437 27.6416 13.0171C27.6416 13.2856 27.5537 13.5103 27.3779 13.6909C27.2021 13.8667 26.9531 13.9546 26.6309 13.9546C26.3086 13.9546 26.0596 13.8667 25.8838 13.6909C25.7129 13.5103 25.6274 13.2856 25.6274 13.0171ZM32.9517 23.1465C31.8237 23.1465 30.9082 22.7925 30.2051 22.0845C29.5068 21.3716 29.1577 20.4243 29.1577 19.2427V19.0229C29.1577 18.2319 29.3091 17.5264 29.6118 16.9062C29.9194 16.2812 30.3491 15.7954 30.9009 15.4487C31.4526 15.1021 32.0679 14.9287 32.7466 14.9287C33.8257 14.9287 34.6582 15.2729 35.2441 15.9614C35.835 16.6499 36.1304 17.624 36.1304 18.8838V19.6016H30.9521C31.0059 20.2559 31.2231 20.7734 31.604 21.1543C31.9897 21.5352 32.4731 21.7256 33.0542 21.7256C33.8696 21.7256 34.5337 21.396 35.0464 20.7368L36.0059 21.6523C35.6885 22.126 35.2637 22.4946 34.7314 22.7583C34.2041 23.0171 33.6108 23.1465 32.9517 23.1465ZM32.7393 16.3569C32.251 16.3569 31.8555 16.5278 31.5527 16.8696C31.2549 17.2114 31.0645 17.6875 30.9814 18.2979H34.3726V18.166C34.3335 17.5703 34.1748 17.1211 33.8965 16.8184C33.6182 16.5107 33.2324 16.3569 32.7393 16.3569ZM44.48 20.5464L45.7397 15.0752H47.4756L45.3149 23H43.8501L42.1509 17.5581L40.481 23H39.0161L36.8481 15.0752H38.584L39.8657 20.4878L41.4917 15.0752H42.832L44.48 20.5464Z" fill="#EF5B68"/>
</svg>
