<svg width="24" height="24" viewBox="0 0 24 24" fill="none" xmlns="http://www.w3.org/2000/svg">
<path d="M11.8132 23.9991C11.7263 23.9541 11.6425 23.8991 11.5513 23.8654C9.93437 23.2691 8.31681 22.676 6.69926 22.0822C6.64801 22.0635 6.5955 22.0479 6.54488 22.0272C6.25799 21.9097 6.12861 21.6554 6.22112 21.3916C6.318 21.1135 6.58488 20.9841 6.88364 21.0916C7.67617 21.3754 8.46557 21.6691 9.25622 21.9585C9.92249 22.2022 10.5888 22.4466 11.255 22.6904C11.3257 22.716 11.3982 22.7385 11.4963 22.7716C11.4963 22.6635 11.4963 22.5866 11.4963 22.5097C11.4963 19.0416 11.495 15.5734 11.5 12.1047C11.5 11.9134 11.45 11.8234 11.2607 11.754C8.57307 10.7722 5.88861 9.77965 3.20414 8.79026C3.14664 8.76901 3.08789 8.74964 2.99976 8.71901C2.99976 8.83089 2.99976 8.92026 2.99976 9.01026C2.99976 11.6897 2.99976 14.3691 2.99976 17.0485C2.99976 17.1266 3.00351 17.2053 2.99663 17.2828C2.97288 17.5628 2.75038 17.7685 2.48474 17.7597C2.22661 17.751 2.02535 17.5491 2.0066 17.2759C2.00098 17.1903 2.00285 17.1041 2.00285 17.0184C2.00285 14.1516 2.00285 11.2847 2.00223 8.41776C2.00223 8.29276 1.99348 8.16838 1.99223 8.04338C1.98973 7.78588 2.1091 7.60151 2.34161 7.51651C4.48606 6.73025 6.63176 5.94587 8.7762 5.15899C8.99558 5.07836 9.19372 5.09774 9.3581 5.26836C9.49998 5.41586 9.55935 5.61149 9.45435 5.78399C9.37247 5.91837 9.22809 6.04899 9.08246 6.10399C7.61616 6.6565 6.14299 7.19275 4.67232 7.73338C4.45293 7.81401 4.23418 7.89588 3.96792 7.99463C4.08292 8.04213 4.16167 8.07776 4.24168 8.10776C6.77301 9.04089 9.30372 9.97402 11.8369 10.9015C11.9294 10.9353 12.0544 10.9428 12.1451 10.9097C14.7295 9.9634 17.3115 9.01026 19.8941 8.05776C19.9291 8.04463 19.9616 8.02276 20.0216 7.99026C19.5234 7.80588 19.0515 7.62963 18.579 7.45588C17.379 7.01462 16.1783 6.57462 14.9777 6.134C14.9189 6.11275 14.8602 6.09212 14.8039 6.06524C14.5445 5.94149 14.4358 5.67587 14.537 5.42086C14.632 5.18274 14.8964 5.04961 15.1539 5.13961C15.7208 5.33711 16.2821 5.55024 16.8458 5.75586C18.4422 6.33962 20.0385 6.92275 21.6341 7.5065C21.8848 7.59838 22.0054 7.77463 22.0054 8.04213C22.0016 11.0259 21.9985 14.0097 21.9948 16.9935C21.9948 17.0716 21.9966 17.1497 21.9935 17.2278C21.9816 17.5447 21.7723 17.7641 21.4898 17.7585C21.2079 17.7528 21.0066 17.5297 20.9991 17.2109C20.996 17.0784 20.9985 16.9453 20.9985 16.8128C20.9985 14.2197 20.9985 11.6259 20.9985 9.03277C20.9985 8.93964 20.9985 8.84589 20.9985 8.72464C20.851 8.77589 20.721 8.81776 20.5928 8.86526C17.9659 9.83277 15.3402 10.8015 12.712 11.7665C12.5745 11.8172 12.497 11.8678 12.4976 12.0409C12.5038 15.5559 12.502 19.071 12.5026 22.5866C12.5026 22.6404 12.5101 22.6941 12.5163 22.7747C13.0557 22.5772 13.5814 22.386 14.1064 22.1935C15.1089 21.8254 16.1108 21.4541 17.1152 21.091C17.4046 20.9866 17.6652 21.106 17.7703 21.3691C17.874 21.6297 17.7546 21.8947 17.4759 22.0197C17.419 22.0454 17.359 22.0629 17.3002 22.0847C15.6902 22.6766 14.0801 23.2679 12.4707 23.861C12.3719 23.8972 12.2807 23.9529 12.1857 23.9997C12.0632 23.9991 11.9382 23.9991 11.8132 23.9991Z" fill="#FFB533"/>
<path d="M21.7026 23.9995C21.5345 23.9426 21.3607 23.8976 21.1988 23.8264C20.1763 23.3789 19.7182 22.1945 20.1838 21.1782C20.2569 21.0195 20.2338 20.9351 20.1169 20.8201C19.4988 20.212 18.8881 19.5963 18.2756 18.9826C18.2262 18.9326 18.1744 18.8844 18.13 18.8301C17.9506 18.6119 17.9581 18.3419 18.145 18.1519C18.3394 17.9551 18.6237 17.9407 18.8394 18.1388C19.075 18.3551 19.2956 18.5882 19.5225 18.8144C19.8269 19.1182 20.1457 19.4082 20.4301 19.7294C20.7413 20.0813 20.9976 20.2676 21.5513 20.0826C22.5783 19.7388 23.6545 20.4401 23.9333 21.4938C24.2102 22.5382 23.5933 23.6176 22.5501 23.917C22.4695 23.9401 22.3914 23.9707 22.3126 23.9982C22.1089 23.9995 21.9057 23.9995 21.7026 23.9995ZM21.0001 22.0076C21.0038 22.5526 21.4657 23.0095 22.0076 23.0026C22.5526 22.9957 23.0076 22.5332 23.0014 21.992C22.9951 21.4445 22.5395 20.9976 21.9914 21.0007C21.4445 21.0038 20.9963 21.4588 21.0001 22.0076Z" fill="#FFB533"/>
<path d="M0 21.7023C0.030001 21.6073 0.060002 21.5123 0.089378 21.4167C0.43939 20.2679 1.73131 19.6754 2.81822 20.181C2.99135 20.2617 3.0751 20.2235 3.19261 20.1041C3.7945 19.4916 4.4039 18.8873 5.01142 18.281C5.07204 18.2204 5.13205 18.1579 5.20017 18.1066C5.40456 17.9529 5.66144 17.9691 5.84144 18.141C6.0277 18.3191 6.05395 18.5879 5.89332 18.7991C5.81832 18.8979 5.72519 18.9829 5.63706 19.0716C5.04704 19.6629 4.45765 20.2541 3.8645 20.8417C3.77325 20.9323 3.73387 21.001 3.797 21.1398C4.34577 22.3567 3.69762 23.6567 2.40196 23.9573C2.3657 23.9654 2.33258 23.9854 2.29758 24.0004C2.09444 24.0004 1.89131 24.0004 1.68818 24.0004C1.6313 23.9804 1.57568 23.9579 1.51818 23.9417C0.810027 23.7392 0.330636 23.2948 0.0931281 22.5948C0.061252 22.501 0.031251 22.4073 0.000625021 22.3129C0 22.1085 0 21.9054 0 21.7023ZM2.99948 21.9979C2.99885 21.451 2.54571 20.9992 1.99819 20.9998C1.4513 21.0004 0.996908 21.4554 0.997533 22.0004C0.998783 22.5435 1.4588 23.0029 2.00132 23.0017C2.54696 23.0004 3.0001 22.5442 2.99948 21.9979Z" fill="#FFB533"/>
<path d="M11.4975 5.77567C11.4975 5.26004 11.4888 4.74441 11.5019 4.2294C11.5069 4.02503 11.4606 3.92065 11.2487 3.8394C10.3556 3.49628 9.85557 2.54752 10.04 1.60189C10.2187 0.685631 11.0569 0.000625436 12 4.31278e-07C12.9457 -0.000624573 13.7782 0.678132 13.962 1.59876C14.1513 2.54877 13.6407 3.5044 12.7363 3.84878C12.5444 3.92191 12.5 4.0144 12.5013 4.2019C12.5094 5.27191 12.5082 6.3413 12.5038 7.41131C12.5019 7.83506 12.1957 8.08693 11.8425 7.96881C11.6206 7.89506 11.5006 7.71006 11.4988 7.41506C11.495 6.8688 11.4975 6.32254 11.4975 5.77567ZM11.0069 1.99876C11.0069 2.55189 11.4506 2.99815 12.0013 2.99877C12.5513 2.99877 12.9957 2.55189 12.9957 1.99939C12.9957 1.44626 12.5513 0.998134 12.0013 0.997509C11.4525 0.996884 11.0069 1.44626 11.0069 1.99876Z" fill="#FFB533"/>
</svg>
