<svg width="75" height="58" viewBox="0 0 75 58" fill="none" xmlns="http://www.w3.org/2000/svg">
<path d="M74.4151 46.8756C73.2585 48.8435 71.2224 49.2274 69.256 49.6888C68.7174 49.8148 68.2795 49.4639 68.1381 48.8803C67.9948 48.2909 68.2815 47.8043 68.9014 47.5891C69.7674 47.2905 70.6431 47.0152 71.5071 46.7089C72.036 46.5208 72.2743 46.1835 72.253 45.5592C72.1988 43.9636 72.2356 42.3661 72.2356 40.6522C68.3338 42.1838 64.2848 42.4087 60.2067 42.5851C60.2067 44.5937 60.2067 46.5228 60.2067 48.5449C61.187 48.4926 62.1421 48.4422 63.0991 48.3898C63.4381 48.3704 63.7752 48.3297 64.1143 48.3278C64.8195 48.3239 65.265 48.7078 65.3057 49.3243C65.3464 49.9699 64.9241 50.4391 64.1956 50.4973C63.2076 50.5748 62.2157 50.6175 61.2238 50.6776C60.8905 50.6969 60.5573 50.7241 60.2222 50.7473C60.2009 50.9044 60.1679 51.0033 60.1795 51.0944C60.443 53.1126 59.2535 54.1945 57.6474 54.9739C55.3149 56.1061 52.8041 56.6393 50.2701 57.0425C43.0554 58.1844 35.8059 58.2155 28.5467 57.6048C25.2183 57.3236 21.9113 56.8293 18.7341 55.7455C17.7363 55.4062 16.7638 54.939 15.8513 54.4077C14.7567 53.7699 14.1329 52.7927 14.2588 51.4511C14.2782 51.2398 14.2608 51.0227 14.2608 50.7648C12.9531 50.6795 11.6996 50.6213 10.452 50.5108C7.91792 50.2859 5.40132 49.9525 2.98933 49.0858C2.49144 48.9075 2.00129 48.6864 1.5402 48.4286C0.50954 47.8547 2.05375e-05 47.0268 0.00389521 45.7744C0.0348926 35.2818 0.03683 24.7892 2.05376e-05 14.2985C-0.00385414 12.9763 0.540538 12.1349 1.62351 11.5455C3.30706 10.6304 5.15334 10.2058 7.02287 9.95764C9.15588 9.67652 11.3063 9.53498 13.449 9.33529C13.6873 9.31397 13.9256 9.29845 14.2608 9.27325C14.2608 8.36009 14.3111 7.47214 14.2491 6.59C14.1523 5.18827 14.7528 4.13746 15.9307 3.53645C17.2559 2.85982 18.6663 2.33828 20.0708 1.83226C20.8613 1.54726 21.7098 1.4135 22.539 1.24676C23.3043 1.0936 23.8777 1.44063 23.992 2.07655C24.1082 2.7241 23.7111 3.1894 22.9497 3.39685C21.3902 3.82338 19.8209 4.22859 18.2924 4.74818C17.6124 4.98083 17.0176 5.46939 16.171 5.96766C16.8219 6.41939 17.2326 6.78775 17.7092 7.02234C19.8132 8.06346 22.0876 8.54428 24.3814 8.91458C31.474 10.0585 38.6034 10.0875 45.7406 9.47682C49.1406 9.186 52.5212 8.6955 55.7353 7.46051C56.547 7.14837 57.289 6.65397 58.064 6.24102C58.064 6.13244 58.062 6.02582 58.062 5.91725C57.5971 5.6051 57.1631 5.2348 56.6652 4.98858C54.5361 3.94165 52.2326 3.48022 49.9136 3.10991C42.7958 1.9738 35.647 1.95053 28.4828 2.58256C27.9345 2.63103 27.4618 2.57094 27.1615 2.05717C26.745 1.34564 27.1789 0.521657 28.0914 0.451861C30.455 0.271556 32.8224 0.087378 35.1918 0.0330926C41.2072 -0.108437 47.1994 0.170744 53.0869 1.52206C54.6078 1.87104 56.0918 2.42553 57.5525 2.99165C58.188 3.23788 58.7575 3.70512 59.2903 4.15103C59.9122 4.67062 60.195 5.38409 60.1795 6.21388C60.1621 7.20459 60.1757 8.19723 60.1757 9.25774C61.433 9.33916 62.6593 9.39539 63.8779 9.50202C66.4604 9.72886 69.0235 10.0701 71.4858 10.9406C72.6947 11.3671 73.7622 11.974 74.4151 13.1372C74.4151 24.3859 74.4151 35.6308 74.4151 46.8756ZM16.4403 8.90489C16.4403 11.3031 16.4403 13.6219 16.4403 15.9426C16.4403 17.9473 16.5294 18.0791 18.4202 18.8469C18.5093 18.8837 18.5985 18.9206 18.6895 18.9555C21.9636 20.1711 25.3888 20.6461 28.8334 20.9757C33.9286 21.4662 39.0335 21.4584 44.1403 21.1152C44.3573 21.0997 44.5782 21.0823 44.7913 21.1075C45.3531 21.1734 45.6631 21.5301 45.7115 22.0672C45.7599 22.6062 45.5023 23.0075 44.9714 23.1762C44.7428 23.2479 44.4968 23.2808 44.2566 23.2867C41.5714 23.372 38.8863 23.5174 36.2011 23.5116C31.2067 23.498 26.2335 23.149 21.3553 22.0051C19.6989 21.6174 18.0909 21.0319 16.4403 20.5297C16.4403 23.1122 16.4635 25.7508 16.4228 28.3895C16.4131 29.0177 16.6243 29.4539 17.1474 29.6749C18.3892 30.2022 19.6233 30.7878 20.9175 31.1348C25.4818 32.3582 30.1624 32.6955 34.8663 32.7905C40.7093 32.9068 46.5407 32.7478 52.2655 31.4314C53.9665 31.0398 55.5958 30.3186 57.2406 29.702C57.8024 29.4907 58.0252 29.0312 58.0136 28.374C57.9729 25.9525 57.9981 23.529 57.9962 21.1055C57.9962 20.8826 57.971 20.6577 57.9535 20.3688C55.5706 21.5495 53.0928 22.0788 50.5897 22.5208C50.3282 22.5674 50.0628 22.6139 49.7993 22.6275C49.1813 22.6585 48.7783 22.3696 48.6446 21.7589C48.5187 21.1831 48.8442 20.6655 49.4816 20.5201C50.4231 20.3048 51.4034 20.2253 52.3217 19.9462C53.9568 19.4498 55.5687 18.8721 57.1689 18.273C57.7753 18.0462 58.033 17.5634 58.0175 16.8383C57.9652 14.4168 57.9981 11.9933 57.9962 9.56989C57.9962 9.36632 57.9768 9.16081 57.9652 8.93785C57.1612 9.24611 56.4308 9.56407 55.6791 9.80835C51.7599 11.0821 47.705 11.5629 43.6172 11.8266C38.7293 12.1426 33.8414 12.1232 28.9632 11.6831C24.7146 11.3031 20.5106 10.7079 16.4403 8.90489ZM16.4403 43.475C16.4403 46.0769 16.4635 48.7136 16.4228 51.3484C16.4131 52.0056 16.6398 52.4496 17.1939 52.6803C18.4396 53.1979 19.6756 53.7776 20.9698 54.1227C25.5089 55.3384 30.1682 55.6738 34.845 55.7668C40.688 55.8831 46.5194 55.728 52.2423 54.4116C53.9432 54.02 55.5745 53.3046 57.2193 52.6881C57.7734 52.4806 58.0252 52.0366 58.0117 51.3716C57.9671 49.0955 57.9942 46.8175 57.9942 44.5394C57.9942 44.1672 57.9942 43.793 57.9942 43.3354C55.7101 44.4425 53.3892 45.0028 51.0334 45.4235C45.6243 46.389 40.1649 46.579 34.6861 46.4569C29.9609 46.3502 25.259 45.9916 20.6617 44.8167C19.2475 44.4561 17.872 43.9365 16.4403 43.475ZM16.4403 32.0809C16.4403 32.1875 16.4403 32.4241 16.4403 32.6587C16.4403 34.9115 16.5178 37.1682 16.4073 39.4172C16.3531 40.5514 16.7967 41.1951 17.7577 41.5033C19.6834 42.1237 21.6052 42.8197 23.5813 43.2133C28.5138 44.1943 33.5237 44.363 38.5414 44.299C43.1465 44.2408 47.7418 43.9966 52.2345 42.9283C53.9336 42.5231 55.5667 41.8193 57.2115 41.2047C57.8024 40.9837 58.0233 40.501 58.0117 39.8185C57.9671 37.4203 57.9962 35.022 57.9942 32.6238C57.9942 32.395 57.9748 32.1662 57.9671 32.0305C56.3204 32.5307 54.7298 33.1065 53.0947 33.4923C47.4725 34.8146 41.7458 35.0453 35.9996 34.9949C31.4914 34.9561 26.9968 34.7002 22.5778 33.7618C20.5164 33.3217 18.5016 32.6528 16.4403 32.0809ZM2.20084 32.5074C2.20084 34.3415 2.1834 36.0786 2.22215 37.8158C2.22796 38.031 2.4895 38.3412 2.70648 38.4323C3.52791 38.7755 4.37065 39.0721 5.21921 39.3396C6.07551 39.6091 6.45329 40.0958 6.26343 40.7918C6.09295 41.4219 5.50206 41.6914 4.66513 41.4645C3.85532 41.2454 3.05714 40.976 2.19696 40.7103C2.19696 42.2555 2.19696 43.7542 2.19696 45.2529C2.19696 46.42 2.16403 46.5364 3.31093 46.8582C5.18821 47.3875 7.09649 47.8431 9.02027 48.1513C10.7232 48.4228 12.4668 48.4518 14.2298 48.5895C14.2298 46.5305 14.2298 44.6015 14.2298 42.6065C13.8985 42.5832 13.5885 42.558 13.2805 42.5406C12.3157 42.4824 11.3489 42.4378 10.3842 42.3661C9.65571 42.3118 9.22175 41.8484 9.26049 41.2086C9.2973 40.5727 9.77389 40.1791 10.514 40.1947C10.8278 40.2005 11.1397 40.2489 11.4555 40.2644C12.366 40.3129 13.2785 40.3556 14.2104 40.4002C14.2104 38.3858 14.2104 36.4431 14.2104 34.4404C10.1304 34.264 6.09876 34.0429 2.20084 32.5074ZM72.2356 32.5016C68.3047 34.0643 64.2654 34.2485 60.2241 34.452C60.2241 36.4683 60.2241 38.4168 60.2241 40.5436C62.7833 40.247 65.2902 40.0337 67.7662 39.6343C69.0855 39.4211 70.3622 38.9131 71.6369 38.475C71.8869 38.3897 72.2046 38.0194 72.2104 37.7731C72.2588 36.0573 72.2356 34.3396 72.2356 32.5016ZM14.2414 18.1567C10.1381 17.9841 6.09682 17.7495 2.25702 16.2489C2.22408 16.3982 2.20471 16.4448 2.20471 16.4913C2.20084 17.7263 2.1989 18.9613 2.1989 20.1963C2.1989 22.1021 2.16596 22.23 4.02581 22.6934C6.17238 23.2304 8.37707 23.5581 10.5701 23.8838C11.7713 24.0622 13.0015 24.0525 14.2395 24.13C14.2414 22.0943 14.2414 20.1866 14.2414 18.1567ZM2.20084 24.3627C2.20084 25.9098 2.20084 27.3581 2.20084 28.8063C2.20084 30.1189 2.20084 30.1208 3.44267 30.6443C3.68677 30.747 3.93282 30.8614 4.19048 30.9157C5.69967 31.2376 7.20304 31.6272 8.72773 31.8327C10.5372 32.077 12.368 32.1604 14.2298 32.3155C14.2298 30.2488 14.2298 28.3197 14.2298 26.3111C10.1691 26.1076 6.11038 25.9118 2.20084 24.3627ZM60.2318 18.1683C60.2318 20.1943 60.2318 22.1389 60.2318 24.258C62.824 23.9555 65.3561 23.7423 67.8533 23.3332C69.1688 23.118 70.4339 22.5751 71.7048 22.1331C71.9237 22.0575 72.2046 21.7415 72.2104 21.5301C72.2511 19.793 72.2337 18.0539 72.2337 16.2199C68.3241 17.7747 64.2654 17.9589 60.2318 18.1683ZM72.2317 24.3627C68.3164 25.9273 64.2557 26.0979 60.2105 26.315C60.2105 28.3333 60.2105 30.2623 60.2105 32.172C60.9409 32.172 61.6422 32.2302 62.33 32.1604C64.1569 31.9781 65.9974 31.8347 67.7971 31.4935C69.1339 31.2395 70.4242 30.716 71.7203 30.272C71.9276 30.2003 72.2046 29.9211 72.2085 29.733C72.2472 27.9746 72.2317 26.2161 72.2317 24.3627ZM60.2163 15.9329C62.8976 16.0105 67.5085 15.4618 69.8662 14.7425C70.6315 14.5099 71.358 14.157 72.1562 13.8371C70.7845 12.3268 63.1921 11.3846 60.2163 11.561C60.2163 12.9976 60.2163 14.4362 60.2163 15.9329ZM2.28027 13.5928C3.76039 15.2524 11.998 16.1152 14.2143 15.867C14.2143 14.4265 14.2143 12.986 14.2143 11.4776C10.1478 11.6967 6.12588 11.8382 2.28027 13.5928Z" fill="#212121"/>
</svg>
