<svg width="59" height="58" viewBox="0 0 59 58" fill="none" xmlns="http://www.w3.org/2000/svg">
<path d="M28.0405 39.2867C28.0405 36.778 28.0405 34.3302 28.0405 31.8028C27.8269 31.8028 27.6211 31.8028 27.4153 31.8028C23.7715 31.8028 20.1278 31.8028 16.484 31.8028C16.3281 31.8028 16.1722 31.8059 16.0163 31.8012C15.3459 31.7825 14.981 31.4582 14.9732 30.8797C14.9654 30.2966 15.3318 29.9536 15.9882 29.9333C16.2221 29.9255 16.456 29.9318 16.6899 29.9318C20.4505 29.9318 24.2112 29.9318 28.0187 29.9318C28.0187 27.4527 28.0187 24.9908 28.0187 22.4712C26.8571 22.4244 25.6768 22.3886 24.4981 22.3293C22.0456 22.2061 19.5961 22.0549 17.2153 21.3876C16.8785 21.294 16.5495 21.1693 16.2283 21.0321C15.3614 20.661 14.8235 20.0826 14.9607 19.0489C15.0138 18.6466 14.9545 18.2303 14.9779 17.8234C15.0091 17.273 15.3459 16.958 15.8729 16.944C16.431 16.93 16.7834 17.248 16.8364 17.8156C16.8458 17.9122 16.8411 18.0105 16.8411 18.1071C16.852 19.3654 16.8395 19.4574 18.1165 19.6242C20.6033 19.9501 23.1011 20.2775 25.6036 20.3975C29.9474 20.6065 34.2912 20.5129 38.6069 19.8736C39.3366 19.7661 40.0507 19.5649 40.7742 19.4153C41.072 19.3544 41.1936 19.2001 41.1702 18.8883C41.1452 18.539 41.1499 18.1866 41.1702 17.8374C41.2045 17.2605 41.5538 16.9378 42.1088 16.9424C42.6389 16.9471 42.9975 17.2574 43.0225 17.8C43.0505 18.4221 43.0521 19.0473 43.024 19.6694C42.9944 20.3196 42.5345 20.7187 42.0012 20.9074C40.9441 21.2816 39.8667 21.7135 38.766 21.8335C36.0795 22.1251 33.3744 22.2529 30.6755 22.4431C30.4479 22.4587 30.2187 22.4447 29.9645 22.4447C29.9645 24.9549 29.9645 27.4028 29.9645 29.9333C30.1922 29.9333 30.4182 29.9333 30.6428 29.9333C36.8201 29.9333 42.9975 29.9333 49.1749 29.9333C50.2804 29.9333 50.5173 30.1688 50.5173 31.2602C50.5173 33.9076 50.5173 36.5566 50.5173 39.2883C50.7512 39.2883 50.957 39.2883 51.1628 39.2883C53.0525 39.2883 54.9438 39.2852 56.8335 39.2898C57.7035 39.2914 57.9998 39.5814 57.9998 40.4405C58.0029 45.9163 58.0029 51.392 57.9998 56.8678C57.9998 57.6942 57.6957 57.9966 56.8709 57.9982C52.0188 58.0013 47.1667 58.0013 42.3146 57.9982C41.5491 57.9982 41.1686 57.6817 41.1671 57.0658C41.1655 56.4499 41.546 56.1303 42.3099 56.1288C46.6553 56.1256 51.0007 56.1272 55.3461 56.1272C55.5784 56.1272 55.8107 56.1272 56.0867 56.1272C56.0867 52.393 56.0867 48.6838 56.0867 44.9387C51.7584 44.9387 47.4255 44.9387 43.0334 44.9387C43.0334 45.1632 43.0334 45.3721 43.0334 45.581C43.0334 48.0165 43.0334 50.4534 43.0334 52.8888C43.0334 53.0447 43.0412 53.2007 43.0287 53.3566C42.9835 53.9241 42.6249 54.2624 42.0823 54.2546C41.5428 54.2468 41.2029 53.9054 41.1671 53.3254C41.1577 53.1695 41.164 53.0136 41.164 52.8576C41.164 48.8038 41.164 44.7516 41.164 40.6978C41.164 39.491 41.3682 39.2898 42.5999 39.2898C44.5863 39.2898 46.5727 39.2898 48.6027 39.2898C48.6027 36.8046 48.6027 34.3426 48.6027 31.8433C42.4051 31.8433 36.2027 31.8433 29.9676 31.8433C29.9676 34.3052 29.9676 36.7531 29.9676 39.2898C30.1657 39.2898 30.3699 39.2898 30.5757 39.2898C32.4467 39.2898 34.3177 39.2883 36.1871 39.2898C37.1382 39.2914 37.4189 39.5627 37.4204 40.492C37.422 45.9287 37.422 51.3655 37.4204 56.8023C37.4204 57.7082 37.1351 57.9982 36.2401 57.9982C31.4067 57.9997 26.5749 58.0013 21.7415 57.9982C20.8778 57.9982 20.5846 57.7035 20.5831 56.8397C20.5815 51.3842 20.5815 45.9272 20.5831 40.4717C20.5831 39.5736 20.87 39.293 21.7774 39.2914C23.8433 39.2852 25.9076 39.2867 28.0405 39.2867ZM35.5089 56.1007C35.5089 52.3447 35.5089 48.6386 35.5089 44.9465C31.1355 44.9465 26.8041 44.9465 22.4852 44.9465C22.4852 48.6869 22.4852 52.3805 22.4852 56.1007C26.8337 56.1007 31.151 56.1007 35.5089 56.1007ZM22.4806 42.9882C26.8587 42.9882 31.1885 42.9882 35.5027 42.9882C35.5027 42.3551 35.5027 41.7642 35.5027 41.1889C31.1386 41.1889 26.8228 41.1889 22.4806 41.1889C22.4806 41.7939 22.4806 42.3707 22.4806 42.9882ZM56.1054 41.1998C51.7241 41.1998 47.3944 41.1998 43.0615 41.1998C43.0615 41.8188 43.0615 42.3957 43.0615 42.9975C47.4193 42.9975 51.7491 42.9975 56.1054 42.9975C56.1054 42.3895 56.1054 41.8141 56.1054 41.1998Z" fill="#212121"/>
<path d="M14.9703 44.9278C10.5672 44.9278 6.24989 44.9278 1.90295 44.9278C1.90295 48.6495 1.90295 52.3432 1.90295 56.0821C6.23118 56.0821 10.5625 56.0821 14.9703 56.0821C14.9703 55.8825 14.9703 55.6767 14.9703 55.4709C14.9703 53.5812 14.9687 51.6915 14.9718 49.8018C14.9734 49.0315 15.2821 48.6527 15.8964 48.6464C16.5138 48.6418 16.8397 49.0237 16.8397 49.7831C16.8428 52.1405 16.8444 54.4979 16.8397 56.8554C16.8381 57.688 16.5388 57.9951 15.7218 57.9967C10.851 57.9998 5.98015 57.9998 1.10934 57.9967C0.297021 57.9967 0.0038979 57.688 0.00233874 56.846C-0.000779579 51.3718 -0.000779579 45.8961 0.00233874 40.4219C0.00233874 39.5924 0.301697 39.293 1.12805 39.2899C3.01775 39.2852 4.90745 39.2884 6.79715 39.2884C7.00608 39.2884 7.21656 39.2884 7.48474 39.2884C7.48474 39.028 7.48474 38.819 7.48474 38.6101C7.48474 36.117 7.48318 33.6224 7.4863 31.1293C7.48785 30.2219 7.7685 29.9381 8.66658 29.935C9.75799 29.9319 10.8494 29.9287 11.9393 29.9365C12.6253 29.9412 12.9761 30.253 12.9901 30.8393C13.0042 31.4552 12.644 31.795 11.9393 31.8028C11.1035 31.8122 10.2694 31.8044 9.39471 31.8044C9.39471 34.3006 9.39471 36.7625 9.39471 39.2884C9.76579 39.2884 10.1306 39.2884 10.4955 39.2884C12.2495 39.2884 14.002 39.2837 15.7561 39.2915C16.5154 39.2946 16.8335 39.6018 16.8366 40.3486C16.8444 42.2383 16.8444 44.128 16.8366 46.0177C16.8335 46.6897 16.4982 47.0374 15.9011 47.0358C15.3039 47.0343 14.9858 46.6897 14.9703 46.013C14.964 45.6638 14.9703 45.3161 14.9703 44.9278ZM1.90295 42.9914C6.27327 42.9914 10.6031 42.9914 14.925 42.9914C14.925 42.3615 14.925 41.7705 14.925 41.1859C10.5641 41.1859 6.24677 41.1859 1.90295 41.1859C1.90295 41.7892 1.90295 42.3661 1.90295 42.9914Z" fill="#212121"/>
<path d="M18.1212 2.95461C25.3807 4.01796 32.6386 4.02263 39.8964 2.95305C39.9027 2.86886 39.9074 2.78622 39.9136 2.70202C38.8113 2.54299 37.7121 2.35589 36.6051 2.23116C35.5417 2.1111 34.4706 2.05497 33.4025 1.97234C32.6931 1.91777 32.3454 1.57319 32.386 0.963563C32.4234 0.403825 32.8163 0.0732853 33.4867 0.107587C35.997 0.235438 38.5072 0.378879 40.9473 1.0462C41.3574 1.15846 41.7643 1.31126 42.1401 1.50927C43.3344 2.13761 43.3843 3.28983 42.19 3.92752C41.4462 4.32355 40.6105 4.59952 39.7842 4.77727C36.3556 5.51163 32.8646 5.58335 29.3768 5.59738C25.8297 5.61297 22.2842 5.53658 18.7792 4.89732C18.0558 4.76479 17.3448 4.54651 16.64 4.33135C16.3282 4.23624 16.0257 4.08032 15.7466 3.90725C14.716 3.26176 14.6802 2.30288 15.7373 1.7182C16.4576 1.32061 17.2668 1.0197 18.0729 0.84507C21.6746 0.0701687 25.3401 0.0140369 29.0042 4.4821e-06C29.6029 -0.00155468 29.9553 0.403825 29.9334 0.96824C29.9116 1.52018 29.5545 1.83825 28.92 1.86164C26.8182 1.94116 24.7118 1.97234 22.6147 2.11266C21.107 2.21401 19.6102 2.46036 18.1072 2.64122C18.1119 2.7488 18.1166 2.85171 18.1212 2.95461Z" fill="#212121"/>
<path d="M29.0166 16.8432C25.5911 16.7965 22.1594 16.7684 18.7791 16.1182C17.8327 15.9358 16.9035 15.6193 16.0023 15.2716C15.2726 14.991 14.875 14.4219 14.9607 13.5706C15.0122 13.0701 14.9561 12.5587 14.9763 12.0535C14.9997 11.4797 15.3599 11.1321 15.8931 11.1258C16.4279 11.1196 16.7959 11.4642 16.8333 12.0317C16.852 12.3233 16.8801 12.6226 16.8317 12.9064C16.7226 13.5441 16.9939 13.8341 17.6051 13.9105C19.7068 14.1755 21.7992 14.5513 23.9087 14.7041C27.855 14.991 31.8121 14.9504 35.7537 14.5903C37.3752 14.4421 38.9811 14.1069 40.5949 13.8575C41.0267 13.7904 41.2341 13.5799 41.1717 13.1091C41.1281 12.7832 41.1546 12.448 41.1655 12.1174C41.1873 11.4969 41.5257 11.1352 42.0792 11.1243C42.6576 11.1133 43.0147 11.486 43.0303 12.1393C43.0427 12.6257 42.9928 13.1169 43.0412 13.5986C43.1269 14.4577 42.6997 15.0284 41.9732 15.2825C40.8599 15.6723 39.7202 16.0933 38.5602 16.218C35.3904 16.5579 32.205 16.7497 29.0259 16.9992C29.0243 16.9477 29.0197 16.8947 29.0166 16.8432Z" fill="#212121"/>
<path d="M28.9445 11.2306C25.5549 11.1807 22.1606 11.1542 18.8162 10.5102C17.8511 10.3247 16.9031 10.0004 15.9832 9.64646C15.2769 9.37516 14.8793 8.82166 14.9619 7.99063C15.0103 7.50885 14.9557 7.01615 14.9775 6.5297C15.0025 5.95281 15.358 5.61447 15.899 5.61135C16.4416 5.60823 16.8018 5.94501 16.8345 6.51722C16.8548 6.86647 16.8828 7.22508 16.8314 7.5681C16.755 8.07794 16.9982 8.28219 17.4457 8.34144C19.7392 8.6408 22.0265 9.03527 24.3294 9.20833C28.0448 9.48742 31.7712 9.42661 35.482 9.09295C37.1831 8.94015 38.867 8.59869 40.5587 8.34299C41.003 8.27595 41.2494 8.08261 41.1745 7.56965C41.1215 7.20793 41.1465 6.82905 41.1745 6.46109C41.2151 5.92942 41.583 5.60979 42.1038 5.61291C42.6245 5.61603 42.9987 5.93566 43.0221 6.47201C43.0517 7.13309 43.058 7.79885 43.0206 8.45838C42.9847 9.10699 42.506 9.49366 41.9728 9.67452C40.8736 10.0472 39.7557 10.4806 38.6144 10.6007C35.4041 10.9421 32.1766 11.137 28.957 11.3896C28.9538 11.3366 28.9492 11.2836 28.9445 11.2306Z" fill="#212121"/>
<path d="M52.3914 48.6399C52.0484 48.6399 51.7615 48.6508 51.4762 48.6384C50.8681 48.6103 50.5158 48.2548 50.5236 47.6935C50.5298 47.154 50.8681 46.797 51.4435 46.7783C52.0843 46.758 52.7267 46.7565 53.3659 46.7798C53.9147 46.8001 54.2312 47.1182 54.2515 47.6654C54.2765 48.3063 54.2749 48.9486 54.2531 49.5879C54.2344 50.1632 53.8742 50.5016 53.3363 50.5078C52.7765 50.514 52.4211 50.1601 52.393 49.552C52.3805 49.2683 52.3914 48.9814 52.3914 48.6399Z" fill="#212121"/>
<path d="M5.61297 52.3876C5.99029 52.3876 6.29901 52.3705 6.6046 52.3923C7.14407 52.4313 7.46837 52.7758 7.4824 53.2919C7.49644 53.833 7.16278 54.2212 6.60148 54.2446C5.94196 54.2711 5.27932 54.2726 4.61979 54.243C4.07253 54.2181 3.76693 53.8875 3.75134 53.3403C3.73263 52.6994 3.72951 52.0571 3.7529 51.4178C3.77317 50.8487 4.14425 50.5135 4.68528 50.5166C5.22474 50.5197 5.574 50.8581 5.6083 51.4303C5.62701 51.7187 5.61297 52.0103 5.61297 52.3876Z" fill="#212121"/>
</svg>
