<svg width="55" height="58" viewBox="0 0 55 58" fill="none" xmlns="http://www.w3.org/2000/svg">
<path d="M28.3049 0C28.9926 0.100993 29.6848 0.177024 30.3656 0.307521C37.1537 1.61476 41.9538 5.46272 44.6976 11.7776C45.3716 13.3289 45.6292 15.0639 46.0423 16.7229C46.1728 17.2483 45.8199 17.6954 45.3342 17.7669C44.8814 17.8338 44.4706 17.5388 44.3855 17.0032C44.095 15.1694 43.657 13.3822 42.8207 11.713C40.1132 6.3013 35.8034 2.9515 29.8312 1.94951C21.7449 0.593477 13.6995 5.22328 10.9011 12.9215C8.35929 19.9161 9.84582 26.1539 14.9692 31.5349C15.0067 31.5746 15.06 31.6007 15.0419 31.5882C17.6302 30.5817 20.1732 29.5933 22.7162 28.6049C23.3279 28.3666 23.5503 27.258 23.0521 26.8166C22.032 25.911 21.3738 24.8024 21.0334 23.4849C20.9846 23.2977 20.7678 23.0787 20.5795 23.0129C18.588 22.3104 17.9253 20.6072 18.9216 18.736C19.0203 18.551 19.0192 18.3059 19.0373 18.0869C19.1486 16.7376 19.0703 15.343 19.3925 14.0483C20.2493 10.6145 23.6115 7.96258 27.7341 8.25422C31.1929 8.49819 34.3588 11.3373 34.8695 14.854C35.0227 15.9104 34.9625 16.9975 35.0147 18.0699C35.0249 18.2866 35.0442 18.5408 35.1611 18.7076C36.2698 20.294 35.4527 22.3399 33.56 22.9709C33.2207 23.0843 33.0777 23.2398 33.0039 23.5723C32.7384 24.7661 32.1324 25.7692 31.236 26.5998C30.9682 26.8472 30.7582 28.0784 30.9614 28.3383C31.0533 28.4563 31.2428 28.5085 31.3971 28.5675C33.5214 29.3947 35.649 30.2129 37.7722 31.0447C38.2249 31.2217 38.6607 31.4396 39.1237 31.6472C41.6076 29.2529 43.2576 26.3865 44.0304 23.0253C44.1858 22.3468 44.2721 21.6523 44.3878 20.9646C44.4899 20.3541 44.8599 20.0046 45.3478 20.067C45.8698 20.1328 46.1512 20.5663 46.0706 21.212C45.4931 25.8804 43.5322 29.8509 40.0791 33.0679C39.5276 33.582 38.9739 34.096 38.4542 34.6418C37.6655 35.4702 37.3035 36.4938 37.257 37.6206C37.2184 38.5443 37.2196 39.4702 37.2434 40.3939C37.2479 40.563 37.4045 40.8047 37.5566 40.8819C38.4927 41.3562 38.9693 42.0949 38.9648 43.1446C38.9614 43.9332 39.051 44.7344 38.5506 45.4402C38.4973 45.5162 38.5767 45.7171 38.638 45.8373C39.1441 46.8439 39.1032 47.9083 38.7901 48.9216C38.5064 49.8419 37.7517 50.3287 36.7736 50.3991C36.4956 50.4195 36.2142 50.4025 35.9781 50.4025C35.9781 50.9698 35.9929 51.4748 35.9759 51.9786C35.9248 53.4527 35.0295 54.3673 33.5543 54.4161C32.5739 54.449 31.5912 54.424 30.6096 54.4252C30.4235 54.4252 30.2374 54.4252 29.9889 54.4252C29.9685 55.594 29.9991 56.7492 28.9313 57.5151C28.2164 58.028 27.4107 58.0292 26.5971 57.9792C25.7506 57.927 25.0016 57.5673 24.6601 56.8002C24.3491 56.1012 24.2697 55.3001 24.0586 54.424C23.624 54.424 23.0487 54.4263 22.4734 54.424C21.813 54.4206 21.1503 54.4467 20.4921 54.4025C19.1429 54.3106 18.2816 53.396 18.2373 52.0422C18.2203 51.5191 18.2351 50.9937 18.2351 50.4025C18.0013 50.4025 17.721 50.4149 17.443 50.4002C16.2629 50.3378 15.3301 49.4493 15.27 48.2748C15.2257 47.3976 15.1043 46.4978 15.6478 45.6921C15.7057 45.6059 15.6104 45.3914 15.5502 45.2529C15.0941 44.1976 15.0816 43.1083 15.4844 42.0643C15.6456 41.6478 16.0563 41.2336 16.4603 41.0282C16.9256 40.7922 17.0141 40.5187 16.9891 40.0694C16.9585 39.5236 16.9619 38.9743 16.9857 38.4274C17.0708 36.4756 16.3321 34.9289 14.8206 33.6864C12.5091 31.7845 10.7718 29.4322 9.58596 26.6804C8.08922 23.2092 7.61716 19.5961 8.31844 15.8843C9.63362 8.93507 13.6541 4.12824 20.1222 1.35376C21.7222 0.667236 23.4186 0.2905 25.156 0.115747C25.3386 0.0975913 25.5168 0.0397165 25.6972 0C26.5687 0 27.4368 0 28.3049 0ZM37.7563 32.892C37.543 32.7911 37.3988 32.7105 37.2468 32.6515C35.7012 32.0523 34.15 31.4691 32.6136 30.8518C32.272 30.7145 32.0882 30.7837 31.8487 31.039C31.1668 31.7664 30.4791 32.4937 29.7347 33.1553C29.2638 33.574 28.7452 33.498 28.4365 33.102C28.1154 32.6912 28.2538 32.2225 28.7441 31.7879C29.3421 31.2557 29.9004 30.6793 30.5506 30.0506C29.3659 29.6977 29.1753 28.8614 29.2218 27.8628C27.7943 28.3587 26.4053 28.2917 24.9778 27.9286C25.0152 28.9851 24.7633 29.7839 23.5525 30.0767C24.2708 30.7485 24.887 31.351 25.5316 31.9207C25.9423 32.2838 26.0762 32.7128 25.8289 33.1077C25.5622 33.5332 25.072 33.6614 24.6022 33.3187C24.0734 32.934 23.6002 32.4688 23.127 32.0149C22.7196 31.6245 22.3985 30.9584 21.9412 30.8574C21.4601 30.7519 20.8575 31.1581 20.3162 31.3635C19.0532 31.8435 17.7948 32.3383 16.5171 32.833C16.5681 32.9272 16.5851 32.9828 16.6203 33.018C18.1239 34.5193 18.7559 36.3497 18.6878 38.4524C18.664 39.1809 18.6844 39.9117 18.6844 40.6515C24.3287 40.6515 29.9015 40.6515 35.556 40.6515C35.4334 37.8192 35.3676 35.0186 37.7563 32.892ZM30.1682 16.2611C30.0558 16.2906 30.015 16.2928 29.9843 16.311C27.8079 17.5785 25.4771 18.29 22.9443 18.2639C22.6391 18.2605 22.5585 18.3933 22.5608 18.6724C22.5721 19.8412 22.5165 21.0123 22.5812 22.1777C22.7276 24.8194 24.6601 26.5907 27.2371 26.534C29.4567 26.4852 31.6002 24.6185 31.5026 21.9121C31.4573 20.6503 31.5026 19.3862 31.4879 18.1232C31.4856 17.9133 31.4425 17.6568 31.3177 17.5036C30.9636 17.0679 30.5563 16.6741 30.1682 16.2611ZM20.786 17.5252C20.9267 17.3731 21.0107 17.3084 21.0618 17.2233C21.3579 16.7388 21.805 16.53 22.3508 16.5572C24.8825 16.6877 27.1951 16.0182 29.3489 14.7121C30.1375 14.2332 30.6936 14.3252 31.3188 14.9981C32.0042 15.7379 32.6624 16.5039 33.299 17.2211C33.5271 14.4284 32.5988 12.0863 29.998 10.6905C27.6388 9.42529 25.2785 9.6545 23.1508 11.2965C21.148 12.842 20.5749 14.9879 20.786 17.5252ZM27.0703 44.7162C27.2587 44.7162 27.447 44.7162 27.6365 44.7162C30.5222 44.7162 33.409 44.7241 36.2947 44.7026C36.5841 44.7003 37.0879 44.563 37.122 44.4076C37.2377 43.8742 37.2854 43.2796 37.1526 42.7622C37.1027 42.5647 36.4956 42.4058 36.1415 42.4047C30.1614 42.3831 24.1823 42.3888 18.2022 42.3888C17.022 42.3888 16.9426 42.4683 16.946 43.6291C16.9483 44.5766 17.081 44.7139 18.0172 44.7151C21.0345 44.7162 24.053 44.7162 27.0703 44.7162ZM27.0533 48.7083C30.1659 48.7083 33.2774 48.7094 36.39 48.7071C37.0811 48.706 37.2581 48.5256 37.2683 47.8413C37.2706 47.653 37.2717 47.4646 37.2683 47.2751C37.257 46.5908 37.0868 46.4172 36.3832 46.4172C30.1965 46.4149 24.0098 46.4149 17.8232 46.4172C17.1139 46.4172 16.9596 46.5795 16.946 47.2819C16.9426 47.4521 16.9437 47.6212 16.946 47.7914C16.9551 48.5528 17.1094 48.7071 17.8867 48.7083C20.9426 48.7094 23.9974 48.7083 27.0533 48.7083ZM27.1588 50.407C25.0663 50.407 22.9738 50.3991 20.8813 50.4172C20.6203 50.4195 20.1574 50.5239 20.1335 50.6487C20.0257 51.2013 19.9531 51.7948 20.0439 52.344C20.1188 52.7979 20.6317 52.7196 21.0027 52.7208C24.4524 52.7242 27.9032 52.723 31.3529 52.723C32.0689 52.723 32.7861 52.7219 33.5021 52.7208C34.0093 52.7196 34.268 52.4632 34.2817 51.9582C34.2862 51.8073 34.2839 51.6564 34.2839 51.5054C34.2817 50.5727 34.1228 50.4081 33.2116 50.4081C31.1929 50.4059 29.1764 50.407 27.1588 50.407ZM26.015 54.4297C25.7676 55.906 26.0581 56.3168 27.2666 56.2907C28.0655 56.2737 28.6363 55.2626 28.2345 54.5659C28.196 54.5001 28.0882 54.4365 28.011 54.4354C27.3415 54.4252 26.6709 54.4297 26.015 54.4297ZM33.2184 21.246C33.729 21.0236 33.9685 20.6821 33.9492 20.2157C33.931 19.7788 33.6746 19.4736 33.2184 19.2727C33.2184 19.9513 33.2184 20.5607 33.2184 21.246ZM20.8416 19.2954C20.3832 19.595 20.0949 19.8673 20.1381 20.3428C20.1766 20.7626 20.3956 21.052 20.8416 21.2097C20.8416 20.5822 20.8416 20.0012 20.8416 19.2954Z" fill="#212121"/>
<path d="M3.39642 30.2351C3.20692 30.0876 2.86422 29.9515 2.79159 29.7279C2.70195 29.4533 2.71783 28.971 2.89712 28.8099C3.92748 27.8771 5.00777 26.9954 6.09827 26.1319C6.44778 25.855 6.86764 25.9299 7.16381 26.2726C7.4736 26.6323 7.4997 27.0783 7.14111 27.3903C6.09146 28.3027 5.0055 29.1741 3.92521 30.0502C3.81628 30.1375 3.6472 30.15 3.39642 30.2351Z" fill="#212121"/>
<path d="M3.43842 7.56152C3.73005 7.71018 3.95133 7.77939 4.11928 7.91443C5.08609 8.69514 6.04496 9.4838 6.99475 10.2849C7.4305 10.6526 7.49858 11.1553 7.20354 11.532C6.90397 11.9156 6.39787 11.9723 5.94964 11.6115C4.95219 10.8103 3.97176 9.9865 2.99133 9.16266C2.66792 8.89146 2.54991 8.50791 2.7587 8.15046C2.90055 7.90876 3.20126 7.75897 3.43842 7.56152Z" fill="#212121"/>
<path d="M46.7676 26.7532C46.9174 26.5512 47.0411 26.2289 47.268 26.12C47.4972 26.0099 47.9171 25.9974 48.0998 26.1393C49.2005 26.9892 50.2728 27.8777 51.318 28.7958C51.6743 29.1078 51.6425 29.5617 51.3191 29.9101C50.9707 30.2868 50.5304 30.2743 50.1503 29.9691C49.1369 29.1577 48.1452 28.3203 47.1466 27.4908C47.0898 27.4431 47.0342 27.3841 47.0025 27.3183C46.931 27.1685 46.8742 27.0119 46.7676 26.7532Z" fill="#212121"/>
<path d="M47.6003 11.9445C47.3666 11.7459 47.0148 11.5893 46.9399 11.3465C46.856 11.0764 46.9138 10.6055 47.1022 10.4341C48.1053 9.52631 49.1584 8.6707 50.2182 7.82758C50.6052 7.52006 51.1192 7.61311 51.3734 7.97963C51.6639 8.39722 51.6083 8.81936 51.2372 9.14617C50.5587 9.74191 49.8528 10.3059 49.1572 10.8835C48.8679 11.124 48.5865 11.376 48.2823 11.5961C48.1042 11.7255 47.8886 11.8004 47.6003 11.9445Z" fill="#212121"/>
<path d="M2.63491 19.7675C2.0698 19.7675 1.5047 19.7857 0.941857 19.7619C0.359727 19.7369 0.00228015 19.3965 1.06427e-05 18.9199C-0.00225887 18.4433 0.358596 18.0915 0.938456 18.0813C2.08569 18.062 3.23407 18.0609 4.38244 18.0813C4.98046 18.0915 5.31634 18.4217 5.31634 18.9165C5.31634 19.4124 4.98386 19.7358 4.38585 19.7619C3.80258 19.7868 3.21818 19.7675 2.63491 19.7675Z" fill="#212121"/>
<path d="M51.5809 18.0801C52.1641 18.0801 52.7474 18.0597 53.3295 18.0858C53.8697 18.1096 54.2158 18.4591 54.2158 18.9175C54.2158 19.3715 53.8697 19.7425 53.3318 19.755C52.1471 19.7811 50.9613 19.7834 49.7778 19.7561C49.2115 19.7437 48.9085 19.4078 48.9063 18.921C48.9051 18.4126 49.224 18.1039 49.8311 18.0812C50.4132 18.0597 50.9976 18.0767 51.5809 18.0767C51.5809 18.0767 51.5809 18.0778 51.5809 18.0801Z" fill="#212121"/>
</svg>
