<svg width="45" height="58" viewBox="0 0 45 58" fill="none" xmlns="http://www.w3.org/2000/svg">
<path d="M22.8868 0C23.6015 0.360207 24.4171 0.603743 25.0005 1.11347C25.5544 1.59714 25.9123 2.33455 26.2601 3.00965C26.4209 3.32229 26.5296 3.47181 26.8944 3.46841C28.7826 3.45142 30.672 3.51258 32.5569 3.44575C34.4044 3.38119 35.4023 4.56489 35.2448 6.14164C35.229 6.30589 35.2426 6.47353 35.2426 6.69555C35.5076 6.70687 35.7262 6.72273 35.9449 6.725C37.1909 6.73632 38.4369 6.72613 39.6817 6.75898C42.2734 6.82694 44.4063 8.93495 44.3927 11.9537C44.3667 17.8812 44.3848 23.8099 44.3848 29.7375C44.3848 37.3834 44.3848 45.0293 44.3848 52.6752C44.3848 53.8906 44.1526 55.0335 43.3959 56.0258C42.3278 57.4258 40.8847 57.999 39.1584 57.9979C30.9835 57.9922 22.8098 57.9956 14.6349 57.9956C11.444 57.9956 8.25424 58.0081 5.06334 57.9911C2.99725 57.9797 1.40237 57.0939 0.515445 55.2034C0.198282 54.5272 0.0272453 53.7173 0.0249799 52.9674C-0.00560374 42.1873 0.0034531 31.4082 0.00571855 20.6281C0.00571855 20.4593 -0.0271283 20.2305 0.0646225 20.1353C0.294566 19.8952 0.58794 19.5554 0.855263 19.5565C1.12259 19.5577 1.44428 19.8816 1.63571 20.141C1.75805 20.3064 1.70141 20.6145 1.70141 20.858C1.70368 31.449 1.70367 42.04 1.70367 52.631C1.70367 55.0539 2.94062 56.2954 5.35446 56.2954C16.6443 56.2954 27.9331 56.2965 39.223 56.2942C40.9062 56.2942 42.1307 55.4572 42.5305 54.0039C42.6393 53.6097 42.6801 53.1849 42.6801 52.7749C42.688 39.1629 42.688 25.552 42.6846 11.9401C42.6846 9.74938 41.391 8.44674 39.2105 8.42749C37.9124 8.41616 36.6132 8.42522 35.2788 8.42522C35.2788 9.22719 35.2788 9.96913 35.2788 10.77C36.2802 10.77 37.2566 10.7677 38.233 10.77C39.2083 10.7722 39.479 11.0362 39.479 12.0137C39.4812 22.6806 39.4801 33.3463 39.4778 44.0132C39.4778 44.2013 39.471 44.3938 39.4269 44.5751C39.3238 44.9953 39.0372 45.2128 38.6056 45.2037C38.199 45.1958 37.9215 44.9806 37.8365 44.5852C37.7822 44.3304 37.781 44.0608 37.781 43.798C37.7787 33.6408 37.7788 23.4848 37.7788 13.3277C37.7788 13.066 37.7788 12.8055 37.7788 12.4736C36.8998 12.4736 36.074 12.4634 35.2505 12.4849C35.1361 12.4883 34.9911 12.6265 34.9198 12.7409C34.4146 13.5429 33.6658 13.8283 32.7551 13.8272C28.4507 13.8227 24.1464 13.8249 19.842 13.8249C17.1235 13.8249 14.4049 13.8159 11.6864 13.8295C10.7292 13.834 9.95219 13.5485 9.42774 12.7035C9.36091 12.5959 9.20006 12.4849 9.08112 12.4815C8.27462 12.4623 7.46812 12.4713 6.62764 12.4713C6.62764 25.1681 6.62764 37.807 6.62764 50.4879C16.9898 50.4879 27.3418 50.4879 37.7799 50.4879C37.7799 50.2659 37.7776 50.0484 37.7799 49.8309C37.7878 49.1139 37.7754 48.3957 37.815 47.681C37.8422 47.1871 38.1877 46.9289 38.6532 46.9402C39.0893 46.9504 39.4325 47.2075 39.4416 47.6742C39.4676 48.9372 39.4722 50.2013 39.4427 51.4643C39.4314 51.9457 39.0904 52.1915 38.6124 52.2232C38.4437 52.2346 38.2726 52.2289 38.1027 52.2289C27.4925 52.2289 16.8833 52.2289 6.2731 52.2289C5.10412 52.2289 4.8923 52.0159 4.8923 50.8424C4.8923 37.9486 4.8923 25.0536 4.8923 12.1598C4.8923 10.9976 5.11998 10.7711 6.28442 10.7711C7.20759 10.7711 8.13077 10.7711 9.09359 10.7711C9.09359 9.98838 9.09359 9.24645 9.09359 8.42635C8.48871 8.42635 7.90989 8.42295 7.33107 8.42749C6.44414 8.43428 5.55268 8.39577 4.67142 8.4694C2.87945 8.61892 1.72407 9.89776 1.70594 11.7033C1.68895 13.2891 1.70255 14.875 1.70255 16.4608C1.70255 16.5933 1.70708 16.7258 1.70141 16.8572C1.6731 17.4406 1.3548 17.7929 0.859799 17.7963C0.362532 17.7997 0.02158 17.4474 0.00912005 16.8697C-0.00787085 16.0768 0.00458472 15.2839 0.00458472 14.491C0.00458472 13.6414 0.00345199 12.7919 0.00458472 11.9423C0.0102484 8.82054 2.03897 6.76691 5.16303 6.72953C6.25837 6.71594 7.35259 6.72726 8.44793 6.72726C8.65182 6.72726 8.85685 6.72726 9.1355 6.72726C9.1355 6.39084 9.12983 6.11333 9.13662 5.83581C9.17174 4.34174 10.0088 3.4854 11.5074 3.46841C13.4138 3.44689 15.3213 3.44575 17.2277 3.47294C17.7454 3.47974 17.9855 3.36307 18.1769 2.81936C18.6413 1.50426 19.5917 0.618469 20.9464 0.201625C21.1413 0.141591 21.3327 0.0679636 21.5264 0C21.9806 0 22.4337 0 22.8868 0ZM22.2083 12.1258C25.6982 12.1258 29.187 12.127 32.6769 12.1258C33.4687 12.1258 33.5446 12.0477 33.5446 11.2412C33.5457 9.50584 33.5457 7.7705 33.5446 6.03517C33.5435 5.25698 33.4506 5.16297 32.6588 5.16297C30.527 5.1607 28.3964 5.16183 26.2646 5.16183C25.0628 5.16183 24.9721 5.08594 24.7649 3.91697C24.5281 2.58601 23.4056 1.65605 22.095 1.70702C20.7788 1.75799 19.7412 2.75706 19.6019 4.10953C19.5181 4.9149 19.2666 5.1573 18.4363 5.15957C16.1912 5.1675 13.9473 5.1607 11.7023 5.1641C10.9422 5.16523 10.8448 5.26151 10.8436 6.00685C10.8402 7.74219 10.8414 9.47752 10.8425 11.2129C10.8436 12.0545 10.9161 12.127 11.7396 12.127C15.2284 12.1258 18.7184 12.1258 22.2083 12.1258Z" fill="#212121"/>
<path d="M15.9521 27.9604C17.8585 27.9604 19.7649 27.9638 21.6724 27.957C22.0824 27.9559 22.4245 28.0624 22.6148 28.4475C22.8482 28.921 22.5899 29.4613 22.0541 29.5984C21.8389 29.6539 21.6067 29.6561 21.3813 29.6561C17.7384 29.6595 14.0944 29.6584 10.4516 29.6584C10.3576 29.6584 10.2624 29.6607 10.1684 29.6573C9.50577 29.6301 9.13877 29.3061 9.15689 28.7692C9.17501 28.2561 9.52616 27.9638 10.1752 27.9616C12.1008 27.9559 14.0265 27.9604 15.9521 27.9604Z" fill="#212121"/>
<path d="M15.915 21.5184C17.7613 21.5184 19.6077 21.5184 21.4552 21.5196C21.6251 21.5196 21.7984 21.506 21.9626 21.5365C22.3761 21.6124 22.6434 21.8514 22.6796 22.2864C22.7193 22.7486 22.4859 23.0431 22.0566 23.1699C21.8811 23.222 21.684 23.2164 21.4971 23.2164C17.7851 23.2186 14.0732 23.2186 10.3612 23.2175C10.2106 23.2175 10.0565 23.2277 9.9104 23.2005C9.45051 23.1122 9.16394 22.8494 9.15827 22.3566C9.15261 21.9001 9.48336 21.5637 9.98063 21.5263C10.2615 21.506 10.5459 21.5184 10.8279 21.5184C12.5225 21.5173 14.2193 21.5184 15.915 21.5184Z" fill="#212121"/>
<path d="M15.922 34.396C17.7525 34.396 19.5842 34.3949 21.4146 34.3971C21.6219 34.3971 21.8337 34.3949 22.0342 34.4345C22.433 34.5138 22.6572 34.7766 22.681 35.1821C22.706 35.6114 22.51 35.9173 22.0875 36.026C21.8723 36.0815 21.6401 36.0917 21.4158 36.0917C17.7537 36.0951 14.0916 36.0951 10.4306 36.0917C10.2063 36.0917 9.97411 36.0815 9.75889 36.026C9.33638 35.9173 9.13929 35.6114 9.16421 35.1821C9.18686 34.7766 9.41227 34.5138 9.81099 34.4334C10.0126 34.3926 10.2244 34.396 10.4306 34.396C12.2599 34.3949 14.0904 34.396 15.922 34.396Z" fill="#212121"/>
<path d="M15.8736 42.5215C14.0805 42.5215 12.2874 42.5215 10.4943 42.5204C10.3063 42.5204 10.116 42.5215 9.92909 42.5C9.44655 42.4468 9.16903 42.1727 9.16223 41.6856C9.15543 41.194 9.43522 40.9221 9.91209 40.8519C10.0786 40.827 10.2496 40.8236 10.4196 40.8236C14.0817 40.8224 17.7438 40.8213 21.4047 40.8236C21.5928 40.8236 21.7831 40.8304 21.9677 40.861C22.4491 40.9402 22.7028 41.2382 22.6802 41.7241C22.6587 42.184 22.3891 42.4456 21.9326 42.4989C21.7457 42.5204 21.5565 42.5215 21.3674 42.5215C19.5357 42.5227 17.7053 42.5215 15.8736 42.5215Z" fill="#212121"/>
<path d="M30.6632 22.1335C31.6577 21.626 32.5719 21.1582 33.4882 20.6949C33.7057 20.5851 33.9221 20.4593 34.1531 20.3936C34.5836 20.2724 34.9449 20.405 35.1465 20.8195C35.347 21.2318 35.2394 21.5989 34.869 21.8605C34.6561 22.0112 34.4137 22.1222 34.1803 22.2434C32.8426 22.9332 31.5037 23.6185 30.1671 24.3106C29.7853 24.5088 29.407 24.6606 29.0049 24.3684C28.5767 24.058 28.6334 23.6298 28.7161 23.1903C28.8441 22.5062 28.9483 21.8175 29.0921 21.1367C29.2156 20.5533 29.5815 20.2872 30.0799 20.3642C30.5635 20.4389 30.8195 20.8467 30.7493 21.4267C30.7232 21.6272 30.6995 21.8299 30.6632 22.1335Z" fill="#212121"/>
<path d="M30.654 28.5779C31.7074 28.0399 32.6771 27.5437 33.6478 27.051C33.8143 26.9661 33.9854 26.8822 34.1643 26.8279C34.5812 26.701 34.9153 26.8426 35.1226 27.2164C35.3446 27.6174 35.2608 27.9912 34.9006 28.2721C34.7092 28.4205 34.4838 28.5281 34.2674 28.6402C32.8945 29.3482 31.5171 30.0482 30.1454 30.7584C29.7558 30.96 29.3729 31.0801 28.9798 30.789C28.6026 30.5081 28.6219 30.1128 28.6944 29.7095C28.8213 29.005 28.9357 28.2981 29.0829 27.597C29.2052 27.0091 29.579 26.7169 30.0525 26.7905C30.5555 26.8686 30.8182 27.2934 30.739 27.8983C30.7129 28.0954 30.6891 28.2947 30.654 28.5779Z" fill="#212121"/>
<path d="M30.6538 41.4567C31.6654 40.9379 32.584 40.4667 33.5026 39.9967C33.6873 39.9026 33.8708 39.8052 34.0645 39.7339C34.5312 39.5606 34.9695 39.7237 35.1542 40.1462C35.349 40.5959 35.2085 40.964 34.8075 41.2177C34.5221 41.3978 34.2106 41.5394 33.9093 41.6946C32.6361 42.3493 31.3595 42.9984 30.0886 43.6576C29.7125 43.8536 29.3501 43.9453 28.9785 43.6633C28.6263 43.3948 28.6172 43.0256 28.6863 42.6382C28.8098 41.9336 28.9264 41.2268 29.0691 40.5245C29.1971 39.8947 29.5709 39.5821 30.0546 39.6602C30.5723 39.7429 30.8192 40.1711 30.7286 40.8258C30.7071 40.9912 30.6901 41.1588 30.6538 41.4567Z" fill="#212121"/>
<path d="M30.6613 35.0139C31.6638 34.4996 32.596 34.0205 33.5305 33.5447C33.731 33.4428 33.936 33.3431 34.1479 33.2684C34.567 33.1211 34.8966 33.2774 35.1129 33.6376C35.335 34.0069 35.2727 34.3682 34.9566 34.6616C34.8354 34.7749 34.6814 34.8587 34.5319 34.9357C33.0582 35.6958 31.58 36.4479 30.1063 37.2102C29.7325 37.4028 29.3678 37.5093 28.9928 37.2352C28.6134 36.9588 28.6179 36.5669 28.6915 36.1602C28.8229 35.4375 28.9396 34.7103 29.0925 33.9922C29.2137 33.4235 29.6294 33.1279 30.0927 33.2298C30.5741 33.3363 30.8154 33.7407 30.7429 34.3161C30.7168 34.52 30.6953 34.7239 30.6613 35.0139Z" fill="#212121"/>
<path d="M22.1107 10.235C21.2985 10.2203 20.6053 9.92242 20.0435 9.3368C19.6685 8.94601 19.6527 8.47139 19.9834 8.12251C20.2915 7.79855 20.748 7.7827 21.1581 8.08174C22.0053 8.70247 22.3848 8.7036 23.2174 8.0874C23.6467 7.77024 24.1213 7.79742 24.4294 8.15763C24.7126 8.48952 24.6865 8.97659 24.3444 9.33227C23.7361 9.96659 22.9829 10.2532 22.1107 10.235Z" fill="#212121"/>
<path d="M16.5337 8.20338C16.5337 8.42879 16.5609 8.6576 16.528 8.87735C16.4612 9.32252 16.1814 9.5955 15.734 9.61136C15.2548 9.62835 14.9365 9.35197 14.881 8.88528C14.8278 8.44125 14.8323 7.98363 14.8731 7.53847C14.9173 7.04574 15.2911 6.74896 15.7544 6.78521C16.2414 6.82259 16.4906 7.11823 16.5393 7.58605C16.5609 7.78994 16.5427 7.99836 16.5427 8.20451C16.5393 8.20338 16.5371 8.20338 16.5337 8.20338Z" fill="#212121"/>
<path d="M27.832 8.14912C27.8422 7.92484 27.832 7.69717 27.8683 7.47628C27.9374 7.05604 28.1956 6.81024 28.6272 6.78532C29.0554 6.7604 29.3997 6.95523 29.4575 7.3766C29.5277 7.8886 29.5277 8.42098 29.4779 8.93637C29.4348 9.38606 29.095 9.63073 28.6499 9.61034C28.1798 9.58882 27.8943 9.30677 27.8558 8.82423C27.8377 8.60108 27.8524 8.37454 27.8524 8.15026C27.8468 8.14912 27.8388 8.14912 27.832 8.14912Z" fill="#212121"/>
<path d="M22.8855 3.8157C22.864 4.1895 22.6375 4.45569 22.2297 4.47608C21.8264 4.49647 21.5512 4.27672 21.5127 3.84515C21.4764 3.43963 21.7845 3.10435 22.1821 3.09868C22.5468 3.09415 22.8708 3.40339 22.8855 3.8157Z" fill="#212121"/>
</svg>
