<svg width="176" height="21" viewBox="0 0 176 21" fill="none" xmlns="http://www.w3.org/2000/svg">
<path d="M12.7639 3.88908C12.263 3.61108 10.8272 3.78309 9.10245 4.3165C6.08385 6.37949 3.53668 9.41952 3.35888 14.3001C3.32645 14.4171 3.02876 14.2845 2.96968 14.248C2.1548 12.686 1.83162 11.0406 2.51214 8.66776C2.63898 8.45637 2.2243 8.19632 2.14959 8.27104C2.00016 8.42046 1.37756 9.08418 0.964036 9.80119C-1.08621 13.3578 0.25456 17.9147 3.84132 19.9093C7.42751 21.9069 11.956 20.6182 13.953 17.0309C16.2632 12.891 14.118 4.64547 12.7639 3.88908Z" fill="#81B441"/>
<path d="M25.6003 5.87563C21.3481 5.87563 18.2617 9.03671 18.2617 13.392C18.2617 17.7833 21.34 20.8499 25.7486 20.8499C27.9755 20.8499 29.7379 20.1538 31.14 18.7203C31.5588 18.268 31.6039 17.8325 31.6039 17.6657C31.6039 16.9556 31.0757 16.4396 30.3483 16.4396C29.9817 16.4396 29.6747 16.578 29.3232 16.9035C28.5291 17.6431 27.4838 18.3989 25.7486 18.3989C23.3358 18.3989 21.3736 16.5873 21.2496 14.2608H30.8528C31.897 14.2608 32.4043 13.7725 32.4043 12.7688C32.4043 12.4735 32.4043 12.2598 32.3447 11.8393C31.8275 8.10541 29.3064 5.87563 25.6003 5.87563ZM25.6003 8.20735C27.906 8.20735 29.3857 9.67669 29.4767 12.0484H21.2525C21.4686 9.85391 23.3242 8.20735 25.6003 8.20735ZM41.5754 5.87563C39.6439 5.87563 37.7315 6.98647 36.9844 8.52878V7.57548C36.9844 6.09861 35.8399 6.0239 35.6106 6.0239C34.9324 6.0239 34.2073 6.43163 34.2073 7.57548V19.0898C34.2073 20.6235 35.4258 20.7011 35.6697 20.7011C35.9135 20.7011 37.1326 20.6235 37.1326 19.0898V12.9177C37.1326 10.2321 38.6547 8.35619 40.8335 8.35619C42.944 8.35619 43.9702 9.74098 43.9702 12.591V19.0904C43.9702 20.6241 45.1894 20.7017 45.4332 20.7017C45.677 20.7017 46.8956 20.6241 46.8956 19.0904V11.6713C46.8956 8.86933 45.4975 5.87563 41.5754 5.87563ZM60.1318 6.02448C59.4559 6.02448 58.9654 6.41889 58.6735 7.19439L54.6709 17.2591L50.699 7.19439C50.388 6.40673 49.9015 6.02448 49.2111 6.02448C48.4043 6.02448 47.7481 6.65403 47.7481 7.42779C47.7481 7.6195 47.7701 7.86738 47.9317 8.25542L52.5315 19.1165C53.0793 20.4266 53.9811 20.7017 54.6414 20.7017C55.301 20.7017 56.2028 20.4266 56.7524 19.1171L61.3822 8.19577C61.5404 7.81236 61.5647 7.53146 61.5647 7.39826C61.5647 6.61523 60.9479 6.02448 60.1318 6.02448ZM68.6386 5.87563C66.7673 5.87563 65.0246 6.39688 63.7319 7.34208C63.2935 7.6444 63.0804 8.02202 63.0804 8.49635C63.0804 9.14965 63.579 9.66163 64.2173 9.66163C64.4929 9.66163 64.8022 9.55159 65.0854 9.35351C66.1968 8.61276 67.2411 8.267 68.371 8.267C70.5342 8.267 71.7759 9.36684 71.7759 11.2856V11.6036C66.9202 11.6088 61.9823 12.1955 61.9823 16.4193C61.9823 19.4594 64.5804 20.8204 67.1554 20.8204C69.2056 20.8204 70.8435 20.0078 71.8941 18.4696V19.2092C71.8941 20.3107 72.6337 20.7011 73.2684 20.7011C73.4022 20.7011 74.5826 20.6594 74.5826 19.2092V11.464C74.5814 7.96468 72.3591 5.87563 68.6386 5.87563ZM71.1603 13.7575H71.7759V14.4316C71.7759 16.8966 70.2064 18.4893 67.778 18.4893C67.1189 18.4893 64.9679 18.3358 64.9679 16.3602C64.9673 14.0268 68.5013 13.7575 71.1603 13.7575ZM82.1997 8.68226C83.4797 8.68226 83.5445 7.6861 83.5445 7.48687C83.5445 6.89438 83.1913 6.26136 82.1997 6.26136H79.5674V3.59952C79.5674 2.41049 78.796 1.98828 78.1346 1.98828C77.8907 1.98828 76.6722 2.06589 76.6722 3.59952V16.2421C76.6722 19.1593 78.1114 20.7017 80.8346 20.7017C81.5395 20.7017 82.2258 20.5771 82.6752 20.3681C83.1901 20.1109 83.4849 19.6887 83.4849 19.2097C83.4849 18.5338 82.9943 18.0433 82.3185 18.0433C82.1881 18.0433 82.0022 18.0757 81.7972 18.1348C81.5464 18.1974 81.3767 18.2217 81.1914 18.2217C80.0835 18.2217 79.5674 17.4983 79.5674 15.945V8.68226H82.1997ZM91.8735 5.87563C87.4487 5.87563 84.2384 9.01181 84.2384 13.3324C84.2384 15.4359 85.0162 17.3529 86.4276 18.7308C87.8286 20.097 89.7625 20.8499 91.8729 20.8499C96.2421 20.8499 99.5376 17.6182 99.5376 13.333C99.5382 9.01181 96.314 5.87563 91.8735 5.87563ZM91.8735 18.3699C88.8393 18.3699 87.2524 15.8361 87.2524 13.333C87.2524 9.8933 89.6478 8.32666 91.8735 8.32666C94.0992 8.32666 96.4947 9.8933 96.4947 13.333C96.4947 16.7935 94.0992 18.3699 91.8735 18.3699Z" fill="white"/>
<path d="M122.525 6.91349C122.097 6.44726 121.566 6.10092 120.947 5.88431C119.817 5.49048 118.271 5.45862 117.044 5.84898C116.468 6.032 115.938 6.28567 115.467 6.60305C114.995 6.92275 114.581 7.3021 114.236 7.73069C114.128 7.86447 114.026 8.00289 113.931 8.14479C113.629 7.40114 113.186 6.82256 112.605 6.42004C111.794 5.85709 110.749 5.57156 109.499 5.57156C108.861 5.57156 108.257 5.67349 107.701 5.87389C107.153 6.07196 106.645 6.3459 106.193 6.68703C105.749 7.02237 105.354 7.42431 105.021 7.88069V6.26656C105.021 6.02447 104.825 5.82813 104.583 5.82813H103.877C103.635 5.82813 103.438 6.02447 103.438 6.26656V20.1549C103.438 20.397 103.635 20.5933 103.877 20.5933H104.583C104.825 20.5933 105.021 20.397 105.021 20.1549V11.4171C105.102 11.0064 105.25 10.5472 105.461 10.0508C105.674 9.54984 105.967 9.07145 106.332 8.63129C106.689 8.20039 107.135 7.83609 107.657 7.54767C108.162 7.26909 108.769 7.12778 109.461 7.12778C109.966 7.12778 110.439 7.18685 110.866 7.30442C111.265 7.41446 111.599 7.60037 111.887 7.87316C112.172 8.14479 112.4 8.52298 112.564 8.99674C112.735 9.49135 112.822 10.136 112.822 10.9132V20.1549C112.822 20.397 113.018 20.5933 113.261 20.5933H113.954C114.196 20.5933 114.392 20.397 114.392 20.1549L114.391 10.9427C114.406 10.7337 114.459 10.4921 114.549 10.2257C114.641 9.95178 114.773 9.67147 114.94 9.39173C115.109 9.10794 115.318 8.82704 115.563 8.55484C115.801 8.29016 116.086 8.04981 116.411 7.84073C116.735 7.63223 117.108 7.46138 117.518 7.33164C117.926 7.20365 118.388 7.1353 118.889 7.1272L118.979 7.12662C119.446 7.12662 119.884 7.18511 120.281 7.3021C120.679 7.4191 121.013 7.61543 121.3 7.90444C121.588 8.19112 121.817 8.59712 121.983 9.1091C122.156 9.64482 122.244 10.3375 122.244 11.1692V20.1549C122.244 20.397 122.44 20.5933 122.682 20.5933H123.376C123.618 20.5933 123.814 20.397 123.814 20.1549V11.1692C123.814 10.2055 123.706 9.3674 123.493 8.67762C123.274 7.96872 122.948 7.37508 122.525 6.91349ZM136.579 19.4368C136.538 19.2416 136.504 19.0331 136.476 18.8095C136.447 18.5825 136.424 18.3439 136.408 18.0919C136.391 17.8406 136.383 17.5956 136.383 17.3564V10.3995C136.383 9.61471 136.248 8.90929 135.979 8.3029C135.709 7.69188 135.326 7.17643 134.839 6.77043C134.359 6.37139 133.783 6.06675 133.126 5.86636C131.814 5.46731 130.126 5.46673 128.812 5.92311C128.139 6.15536 127.546 6.47795 127.048 6.88221C126.545 7.29226 126.148 7.77528 125.87 8.31912C125.586 8.87106 125.443 9.45891 125.443 10.0653C125.443 10.301 125.629 10.4945 125.865 10.5031L126.558 10.5286C126.675 10.5379 126.792 10.4887 126.878 10.4064C126.964 10.3242 127.013 10.2101 127.013 10.0908C127.013 9.68247 127.106 9.31238 127.299 8.95967C127.495 8.60059 127.77 8.28437 128.117 8.01969C128.473 7.74748 128.901 7.53145 129.39 7.37624C129.883 7.21986 130.43 7.14052 131.015 7.14052C132.26 7.14052 133.219 7.42778 133.865 7.99421C134.503 8.55426 134.813 9.33208 134.813 10.3734V11.9632H131.926C130.894 11.9632 129.95 12.0738 129.119 12.2922C128.279 12.514 127.555 12.8279 126.964 13.2258C126.357 13.6358 125.885 14.138 125.562 14.7171C125.235 15.3027 125.07 15.949 125.07 16.6377C125.07 17.2521 125.184 17.8249 125.408 18.3398C125.633 18.8582 125.96 19.3105 126.377 19.6852C126.792 20.057 127.295 20.3472 127.873 20.5488C128.444 20.748 129.087 20.8493 129.783 20.8493C130.51 20.8493 131.183 20.7688 131.782 20.6096C132.379 20.452 132.928 20.2325 133.413 19.958C133.899 19.6829 134.331 19.3597 134.699 18.9966L134.858 18.8338L134.872 19.0163C134.913 19.501 134.985 19.9244 135.087 20.276C135.141 20.4636 135.313 20.5928 135.508 20.5928H136.304C136.546 20.5928 136.742 20.3964 136.742 20.1543V20.0391C136.742 19.9789 136.729 19.9186 136.705 19.8636C136.658 19.7553 136.615 19.6117 136.579 19.4368ZM129.783 19.2931C129.305 19.2931 128.868 19.2225 128.482 19.0817C128.099 18.9433 127.766 18.751 127.492 18.5101C127.222 18.2732 127.01 17.9941 126.86 17.6819C126.714 17.3744 126.64 17.0408 126.64 16.6892C126.64 16.2444 126.75 15.8465 126.975 15.4718C127.204 15.0907 127.542 14.7571 127.978 14.4785C128.431 14.1895 128.996 13.9602 129.657 13.7969C130.331 13.6306 131.107 13.5461 131.965 13.5461H134.813V16.311C134.606 16.7518 134.35 17.152 134.051 17.5029C133.735 17.8742 133.363 18.1968 132.943 18.4632C132.525 18.729 132.047 18.9358 131.523 19.0777C130.995 19.2201 130.409 19.2931 129.783 19.2931ZM145.138 5.74126C144.997 5.68682 144.833 5.64511 144.638 5.615C144.454 5.58546 144.241 5.57098 144.005 5.57098C142.776 5.57098 141.733 5.88605 140.906 6.50633C140.533 6.78549 140.202 7.11214 139.913 7.48396V6.26656C139.913 6.02447 139.716 5.82813 139.474 5.82813H138.781C138.539 5.82813 138.342 6.02447 138.342 6.26656V20.1549C138.342 20.397 138.539 20.5933 138.781 20.5933H139.474C139.716 20.5933 139.913 20.397 139.913 20.1549V11.0933C140.017 10.5223 140.182 9.98827 140.405 9.50409C140.627 9.02164 140.912 8.59827 141.253 8.24614C141.588 7.8998 141.99 7.62412 142.447 7.42605C142.903 7.22855 143.427 7.12836 144.005 7.12836C144.151 7.12836 144.29 7.13588 144.424 7.15094L144.85 7.20191C144.965 7.21581 145.082 7.18395 145.173 7.1133C145.265 7.04206 145.324 6.93723 145.339 6.82198L145.416 6.20575C145.441 6.00478 145.327 5.81365 145.138 5.74126ZM150.955 12.2198L157.027 6.58742C157.159 6.46463 157.202 6.27409 157.137 6.10555C157.071 5.93817 156.909 5.82755 156.729 5.82755H155.74C155.63 5.82755 155.524 5.86925 155.443 5.94454L149.124 11.7883L148.233 12.6304V0.438427C148.233 0.196337 148.037 0 147.795 0H147.102C146.86 0 146.663 0.196337 146.663 0.438427V20.1549C146.663 20.397 146.86 20.5933 147.102 20.5933H147.795C148.037 20.5933 148.233 20.397 148.233 20.1549V14.6054L149.79 13.2675L155.895 20.4393C155.978 20.5372 156.1 20.5933 156.228 20.5933H157.139C157.381 20.5933 157.578 20.397 157.578 20.1549C157.578 20.0136 157.51 19.8879 157.407 19.808L150.955 12.2198ZM167.088 7.36002C166.582 6.79476 165.971 6.34938 165.27 6.03895C163.837 5.40302 162.002 5.40592 160.512 6.12814C159.755 6.49475 159.086 7.0131 158.522 7.66872C157.964 8.31796 157.516 9.10215 157.191 9.99927C156.867 10.8952 156.702 11.885 156.702 12.9408V13.5055C156.702 14.5637 156.872 15.5506 157.206 16.4384C157.54 17.3298 158.007 18.111 158.593 18.7597C159.182 19.4124 159.879 19.929 160.666 20.2951C161.457 20.6628 162.318 20.8493 163.226 20.8493C163.813 20.8493 164.363 20.7891 164.856 20.6704C165.35 20.5511 165.809 20.3837 166.219 20.1717C166.632 19.958 167.007 19.698 167.334 19.3997C167.656 19.1049 167.945 18.7736 168.194 18.4145C168.33 18.217 168.283 17.9471 168.088 17.8081L167.6 17.4618C167.409 17.3251 167.144 17.3639 167 17.551C166.732 17.8968 166.453 18.1829 166.168 18.4024C165.883 18.6219 165.583 18.7997 165.276 18.93C164.968 19.0615 164.641 19.1547 164.306 19.2086C163.307 19.3696 162.202 19.3012 161.289 18.8506C160.687 18.553 160.156 18.1423 159.714 17.6292C159.268 17.112 158.913 16.4934 158.658 15.7892C158.403 15.0832 158.274 14.314 158.274 13.5055V13.1864H168.246C168.488 13.1864 168.684 12.9901 168.684 12.748V11.9395C168.684 11.0117 168.543 10.1499 168.267 9.37841C167.986 8.60117 167.59 7.92239 167.088 7.36002ZM164.661 7.51234C165.169 7.76254 165.607 8.10541 165.963 8.52993C166.325 8.96257 166.61 9.47397 166.809 10.0491C166.982 10.546 167.082 11.0725 167.106 11.6169H158.373C158.463 11.0893 158.608 10.5889 158.807 10.1226C159.064 9.52204 159.402 8.99095 159.811 8.54615C160.216 8.10656 160.691 7.75849 161.222 7.51002C162.261 7.02468 163.647 7.01484 164.661 7.51234ZM175.878 19.5265C175.837 19.2943 175.62 19.1437 175.385 19.1692C175.151 19.2028 174.934 19.2306 174.734 19.2508C174.355 19.2908 173.821 19.3128 173.392 19.1883C173.217 19.1379 173.064 19.0406 172.925 18.8883C172.78 18.7308 172.66 18.4927 172.568 18.1823C172.47 17.8481 172.419 17.3929 172.419 16.8299V7.41041H175.139C175.381 7.41041 175.577 7.21407 175.577 6.97198V6.26598C175.577 6.02389 175.381 5.82755 175.139 5.82755H172.419V2.51763C172.419 2.27554 172.223 2.0792 171.981 2.0792H171.275C171.033 2.0792 170.836 2.27554 170.836 2.51763V5.82755H168.707C168.465 5.82755 168.269 6.02389 168.269 6.26598V6.97198C168.269 7.21407 168.465 7.41041 168.707 7.41041H170.836V16.8305C170.836 17.5603 170.906 18.1829 171.045 18.6809C171.191 19.2062 171.41 19.636 171.698 19.9592C171.994 20.291 172.36 20.5285 172.785 20.6628C173.177 20.7874 173.624 20.8505 174.112 20.8505L174.449 20.8435C174.585 20.8389 174.724 20.8296 174.873 20.8163L175.286 20.77C175.445 20.7486 175.588 20.715 175.712 20.6704C175.912 20.5974 176.03 20.3918 175.994 20.1821L175.878 19.5265Z" fill="#81B441"/>
</svg>
