<svg width="39" height="39" viewBox="0 0 39 39" fill="none" xmlns="http://www.w3.org/2000/svg">
<path d="M13 14.2974C13.1092 14.0665 13.2972 13.9967 13.5517 14.0001C14.3039 14.0108 15.0567 14.0036 15.8089 14.0041C16.1148 14.0044 16.2503 14.1078 16.3178 14.3966C16.4109 14.7941 16.5012 15.1924 16.5959 15.6037C16.6555 15.6037 16.7138 15.6037 16.7718 15.6037C20.0188 15.6037 23.2658 15.6037 26.513 15.6037C26.7845 15.6037 26.9478 15.7 26.9913 15.9085C27.0094 15.9951 26.9974 16.0951 26.9725 16.1817C26.6559 17.2743 26.3343 18.3658 26.0139 19.4575C25.8024 20.1781 25.5909 20.8988 25.3785 21.6191C25.2918 21.9132 25.1697 22.0022 24.8583 22.0022C22.4459 22.0022 20.0333 22.003 17.6209 22.0009C17.4277 22.0006 17.2687 22.0497 17.1771 22.2267C17.0479 22.476 17.217 22.7698 17.5054 22.7988C17.5596 22.8044 17.6149 22.8018 17.6693 22.8018C20.0727 22.8018 22.4761 22.8026 24.8794 22.8007C25.072 22.8004 25.2316 22.8487 25.323 23.0263C25.4573 23.2875 25.2737 23.5872 24.9675 23.5992C24.7582 23.6075 24.5483 23.6008 24.342 23.6008C24.4895 23.6624 24.6498 23.7056 24.7812 23.7909C24.9185 23.8802 25.0488 23.9959 25.1432 24.1265C25.2349 24.2534 25.303 24.4094 25.3339 24.5619C25.3657 24.7189 25.3646 24.8914 25.3353 25.0498C25.2346 25.5982 24.6838 26.0178 24.1143 25.9994C23.4715 25.9786 22.9774 25.5289 22.915 24.8874C22.8668 24.3926 23.1618 23.7837 23.9622 23.6061C22.1485 23.6061 20.3524 23.6061 18.5387 23.6061C19.2904 23.7986 19.6685 24.319 19.5714 25.0074C19.4937 25.5579 18.9472 26.0048 18.3581 26C17.7186 25.9949 17.2066 25.5366 17.1418 24.8909C17.089 24.3646 17.4258 23.7661 18.1693 23.5827C17.9028 23.5827 17.6338 23.6037 17.3697 23.5781C16.8632 23.5293 16.4322 23.1254 16.3386 22.6453C16.2371 22.1243 16.4749 21.6119 16.9338 21.3624C16.9694 21.3429 17.0055 21.3245 17.0528 21.2995C16.5595 19.136 16.0661 16.9725 15.5714 14.8031C15.1379 14.8031 14.7143 14.8031 14.2905 14.8031C14.0442 14.8031 13.7974 14.7925 13.5519 14.8061C13.2972 14.8207 13.1089 14.7423 13 14.5107C13 14.4395 13 14.3683 13 14.2974Z" fill="#6CA128"/>
<rect x="0.5" y="0.5" width="38" height="38" rx="1.5" stroke="#6CA128"/>
</svg>
