<svg width="90" height="80" viewBox="0 0 90 80" fill="none" xmlns="http://www.w3.org/2000/svg">
<g clip-path="url(#clip0_261_423)">
<path d="M89.452 75.2928C88.9419 76.0812 88.1998 76.2899 87.3187 76.2899C59.0752 76.2899 30.8085 76.2899 2.56498 76.2899C1.66063 76.2899 0.918598 76.0812 0.431641 75.2928C0.431641 74.9913 0.431641 74.7131 0.431641 74.4116C0.849032 73.3913 1.707 73.2986 2.65773 73.2986C18.6577 73.2986 34.6578 73.2986 50.6578 73.2986C62.8549 73.2986 75.052 73.2986 87.2723 73.2986C88.223 73.2986 89.081 73.4145 89.4984 74.4116C89.452 74.7131 89.452 75.0145 89.452 75.2928Z" fill="#57FFEB"/>
<path d="M48.7097 67.3624C47.8286 65.7856 47.8749 64.2552 47.8981 62.7247C47.8981 59.0841 47.8981 55.4204 47.8981 51.7798C47.8981 50.7595 46.7155 49.5769 45.7184 49.5769C41.2199 49.5769 36.7445 49.5769 32.246 49.5769C31.9677 49.5769 31.6662 49.6001 31.388 49.5305C30.646 49.3914 30.1358 48.8117 30.159 48.0696C30.159 47.3508 30.6691 46.7479 31.4112 46.632C31.6894 46.5856 31.9909 46.6088 32.2691 46.6088C35.6315 46.6088 38.9938 46.6088 42.3561 46.6088C42.6344 46.6088 42.9126 46.6088 43.0749 46.6088C36.3271 39.8377 29.5097 33.0435 22.7387 26.2493C21.2546 28.3131 21.417 31.7218 23.2257 33.9479C23.6894 34.5044 24.1996 35.0146 24.6633 35.5711C26.1242 37.403 25.9619 40.0233 24.3155 41.6696C22.646 43.3392 19.9561 43.5247 18.1474 41.9711C11.7706 36.4986 10.6575 27.2232 15.388 20.4522C16.0141 19.5479 16.7561 18.7363 17.5445 17.7856C14.1822 17.3914 11.701 15.6986 10.217 12.6841C9.17349 10.5508 9.03436 8.3015 9.82276 6.00584C11.2836 1.6928 15.9909 -0.834743 20.3503 0.255113C24.6402 1.32178 28.2112 5.84352 26.7271 11.6638C27.5155 11.4551 28.2344 11.1769 28.9764 11.0609C30.5764 10.8058 32.1764 10.5276 33.7764 10.4348C36.9764 10.2725 38.7619 8.62613 38.9938 5.44932C39.1793 3.03772 41.1039 1.20584 43.446 1.20584C45.8807 1.22903 47.7822 3.17685 47.8518 5.65802C48.0141 11.9189 43.5155 17.6464 37.3706 18.945C37.1155 18.9914 36.8604 19.0609 36.5126 19.1537C38.2054 20.8464 39.8286 22.4696 41.4749 24.116C43.0981 25.7392 44.6981 27.3624 46.3445 29.0319C46.6228 28.7769 46.8547 28.5682 47.0633 28.3595C50.2865 25.1363 53.5097 21.9363 56.7097 18.7131C57.9387 17.4841 58.5648 17.4841 59.7706 18.6899C64.5706 23.4899 69.3706 28.2667 74.1474 33.0899C76.8373 35.803 76.6517 39.6754 73.7532 41.9015C71.8054 43.4088 68.8605 43.4551 66.9822 41.8551C65.5213 40.6262 64.2228 39.2117 62.8547 37.8667C61.3242 36.3595 59.8402 34.8291 58.3793 33.3682C56.5938 35.1769 54.8778 36.916 52.9764 38.8175C53.5793 39.3508 54.3213 39.9769 54.9938 40.6262C56.3387 41.9479 57.7068 43.2464 58.9822 44.6378C59.3764 45.0551 59.701 45.7276 59.701 46.3073C59.7474 52.2667 59.7706 58.2494 59.7242 64.2088C59.701 67.8494 57.2662 70.261 53.5561 70.3073C48.8025 70.3769 44.0489 70.3305 39.2952 70.3073C38.159 70.3073 37.5097 69.7276 37.5097 68.8465C37.4865 67.9653 38.159 67.3856 39.272 67.3392C39.4807 67.3392 39.6662 67.3392 39.8749 67.3392C42.4257 67.3392 44.9764 67.3392 47.5271 67.3392C47.8518 67.3624 48.1764 67.3624 48.7097 67.3624ZM58.2865 21.4493C58.101 21.6117 57.9619 21.7508 57.8228 21.8899C54.53 25.1827 51.2141 28.4986 47.9213 31.7914C46.7619 32.9508 46.0894 32.9508 44.93 31.7914C41.359 28.2204 37.8112 24.6493 34.217 21.1247C33.3822 20.3131 32.988 19.4551 33.0576 18.2957C33.1503 16.9044 33.5445 16.4174 34.9358 16.3711C36.7909 16.2783 38.53 15.7682 40.0836 14.7479C43.2141 12.6841 44.8141 9.76237 44.93 6.00584C44.9532 4.96236 44.3735 4.2899 43.5155 4.24352C42.7039 4.19715 42.101 4.82323 41.9851 5.79715C41.9387 6.16816 41.8923 6.53918 41.846 6.91019C41.4518 10.087 38.5532 12.916 35.3764 13.2638C33.6141 13.4493 31.8518 13.5189 30.1126 13.8667C25.6836 14.7479 22.1822 17.229 19.1445 20.4986C16.1996 23.6754 14.9474 27.3856 15.5503 31.6754C15.9909 34.8059 17.4749 37.403 19.7706 39.5595C20.5126 40.232 21.4865 40.2551 22.1358 39.6291C22.8315 38.9798 22.8315 38.0291 22.1358 37.2175C21.8344 36.8696 21.4865 36.545 21.1851 36.1972C17.8923 32.5102 17.9619 26.6435 21.3474 23.0261C22.2518 22.0754 23.0402 22.029 23.9445 22.9566C32.7097 31.6986 41.4518 40.4407 50.1706 49.2291C50.5416 49.6233 50.7039 50.2725 50.8199 50.8523C50.9358 51.3856 50.8431 51.9421 50.8431 52.4986C50.8431 56.4175 50.8199 60.3131 50.8431 64.232C50.8431 66.203 52.2344 67.5247 54.0662 67.3856C55.6662 67.2697 56.7561 66.0175 56.7561 64.232C56.7793 58.574 56.7793 52.9392 56.7329 47.2812C56.7329 46.9102 56.501 46.4465 56.246 46.1682C54.2518 44.1044 52.2112 42.1102 50.1706 40.0696C49.0807 38.9798 49.0807 38.3073 50.1938 37.1943C52.3967 34.9682 54.6228 32.7653 56.8257 30.5624C57.9387 29.4725 58.588 29.4725 59.701 30.5624C62.4373 33.2754 65.1503 36.0117 67.8865 38.7247C68.188 39.0262 68.4894 39.3508 68.8605 39.6059C69.8112 40.2551 70.8315 40.2783 71.8054 39.6986C72.7561 39.1189 73.2663 38.1914 73.0344 37.1247C72.8952 36.4291 72.4778 35.7102 71.9909 35.2001C67.6315 30.7943 63.2489 26.4117 58.8662 22.029C58.6807 21.7972 58.4952 21.6348 58.2865 21.4493ZM18.2633 14.8174C21.5329 14.7943 24.1532 12.1276 24.13 8.88121C24.1068 5.63483 21.4402 2.96816 18.217 2.96816C14.9706 2.96816 12.188 5.77396 12.2807 8.97396C12.3735 12.2435 15.017 14.8406 18.2633 14.8174Z" fill="#57FFEB"/>
<path d="M12.0953 67.084C12.2809 65.9942 12.5359 64.8347 12.6751 63.6521C12.7214 63.2579 12.5591 62.7478 12.304 62.4463C11.5852 61.6347 10.7504 60.8927 9.96201 60.1275C9.47505 59.6405 9.21998 59.1072 9.45186 58.4115C9.68375 57.7159 10.2403 57.4608 10.9127 57.3681C12.0026 57.2058 13.0924 56.9971 14.1823 56.9043C14.7156 56.8579 14.9243 56.6029 15.133 56.1855C15.5968 55.1884 16.1069 54.2144 16.5707 53.2173C16.8722 52.5913 17.3591 52.0579 18.0316 52.2202C18.5417 52.3362 19.1214 52.7536 19.4229 53.2173C20.0258 54.1681 20.42 55.2347 20.9765 56.2318C21.1388 56.5333 21.533 56.8115 21.8577 56.8811C22.9707 57.113 24.107 57.1594 25.1968 57.4376C25.7301 57.5768 26.3099 57.971 26.5881 58.4115C26.9591 58.9913 26.6345 59.6405 26.1243 60.1275C25.3359 60.8927 24.5707 61.6811 23.7591 62.4232C23.3881 62.771 23.2258 63.0956 23.3417 63.6289C23.5736 64.6724 23.7127 65.7391 23.8983 66.7826C24.0142 67.4782 23.9678 68.1275 23.3417 68.5681C22.6925 69.0319 22.0896 68.8463 21.4635 68.5217C20.5359 68.0347 19.6084 67.571 18.704 67.0608C18.2171 66.7826 17.8229 66.8058 17.3591 67.084C16.362 67.6637 15.3417 68.1971 14.2751 68.684C13.1156 69.171 12.0258 68.3826 12.0953 67.084ZM20.4664 64.5797C19.6316 62.5623 20.3504 61.1478 21.9504 59.942C19.8171 60.0347 18.5881 59.0608 18.1243 57.0434C17.5678 57.9014 17.2664 58.8289 16.6171 59.2927C15.991 59.7565 15.0171 59.7797 13.9968 60.0579C15.8055 61.1478 16.2925 62.6318 15.5504 64.6261C17.1968 63.3507 18.7504 63.2579 20.4664 64.5797Z" fill="#57FFEB"/>
<path d="M31.6202 70.3768C31.0173 70.3537 30.4376 70.3537 29.8579 70.2841C29.1159 70.1913 28.5594 69.5421 28.6289 68.8464C28.6985 68.1276 29.0463 67.5247 29.8347 67.4783C31.0173 67.4087 32.1999 67.4087 33.3826 67.5015C34.1478 67.5711 34.5188 68.1508 34.5188 68.916C34.4956 69.6812 34.1014 70.1913 33.3362 70.3073C32.7565 70.3537 32.1768 70.3305 31.6202 70.3768Z" fill="#57FFEB"/>
<path d="M24.1529 49.5537C23.6428 49.5537 23.1095 49.6001 22.5993 49.5537C21.7413 49.4841 21.208 48.858 21.2312 48.0464C21.2544 47.2812 21.7877 46.6783 22.5993 46.632C23.6428 46.5856 24.6863 46.5856 25.7297 46.632C26.5877 46.6783 27.1442 47.3276 27.1211 48.116C27.0979 48.8812 26.5645 49.4609 25.7529 49.5305C25.1964 49.5769 24.6863 49.5537 24.1529 49.5537Z" fill="#57FFEB"/>
</g>
<defs>
<clipPath id="clip0_261_423">
<rect width="89.0436" height="80" fill="white" transform="translate(0.408203)"/>
</clipPath>
</defs>
</svg>
