<svg width="14" height="15" viewBox="0 0 14 15" fill="none" xmlns="http://www.w3.org/2000/svg">
<path d="M1.79997 6.21691L1.15909 6.93627C0.887725 7.24086 0.887725 7.7334 1.15909 8.03476L6.76827 14.3341C7.03963 14.6386 7.47843 14.6386 7.74691 14.3341L13.359 8.03476C13.6303 7.73016 13.6303 7.23762 13.359 6.93627L12.7181 6.21691C12.4438 5.90907 11.9964 5.91555 11.7279 6.22987L8.41378 10.1345L8.41378 0.821675C8.41378 0.390705 8.10488 0.0439843 7.72093 0.0439843L6.79713 0.0439843C6.41318 0.0439843 6.10429 0.390705 6.10429 0.821675L6.10429 10.1345L2.79017 6.22987C2.52169 5.91231 2.07423 5.90583 1.79997 6.21691Z" fill="#FFB533"/>
</svg>
