<svg width="25" height="25" viewBox="0 0 25 25" fill="none" xmlns="http://www.w3.org/2000/svg">
<path d="M0 22.4597C0 15.8194 0 9.17917 0 2.53892C0.0161122 2.49449 0.0380829 2.45152 0.0468714 2.40611C0.201646 1.62295 0.584432 0.968207 1.25821 0.544402C1.64588 0.300764 2.10923 0.177236 2.53889 0C9.17906 0 15.8192 0 22.4594 0C22.5116 0.0170889 22.5629 0.0395485 22.6166 0.0502901C23.9901 0.330548 24.9934 1.50236 24.9949 2.88021C25.0012 9.29098 25.0022 15.7017 24.9949 22.1125C24.9929 23.6871 23.6878 24.9927 22.1132 24.9947C15.7025 25.002 9.29184 25.002 2.88115 24.9932C1.93834 24.9918 1.17814 24.5709 0.593709 23.8307C0.272931 23.4254 0.126944 22.9474 0 22.4597ZM23.0453 12.4939C23.0453 9.36178 23.0453 6.22963 23.0453 3.09748C23.0453 2.33043 22.6728 1.9535 21.915 1.9535C15.6342 1.9535 9.35385 1.9535 3.07303 1.9535C2.33138 1.9535 1.95348 2.33483 1.95348 3.08332C1.95348 9.36421 1.95348 15.6446 1.95348 21.9255C1.95348 22.6667 2.33578 23.0456 3.08328 23.0456C9.3641 23.0456 15.6444 23.0456 21.9253 23.0456C22.6664 23.0456 23.0453 22.6628 23.0453 21.9153C23.0453 18.7748 23.0453 15.6344 23.0453 12.4939Z" fill="#FFB533"/>
<path d="M18.0024 4.16699C18.2447 4.26726 18.3333 4.45424 18.3333 4.72251C18.3255 5.69806 18.3307 6.67631 18.3307 7.65186C18.3307 8.05834 18.19 8.19383 17.7966 8.19925C17.1321 8.20738 16.4651 8.20467 15.8033 8.23177C15.4437 8.24803 15.0945 8.35642 14.9173 8.72767C14.8314 8.90381 14.7714 9.11247 14.7662 9.30758C14.748 10.0799 14.7584 10.8522 14.7584 11.657C14.8288 11.657 14.8965 11.657 14.9642 11.657C15.8632 11.657 16.7647 11.657 17.6637 11.657C18.065 11.657 18.2057 11.8006 18.2057 12.218C18.2057 13.2748 18.2057 14.3344 18.2057 15.3912C18.2057 15.7841 18.065 15.9305 17.6845 15.9305C16.7856 15.9305 15.884 15.9305 14.9851 15.9305C14.9147 15.9305 14.8444 15.9305 14.7506 15.9305C14.7506 16.028 14.7506 16.1066 14.7506 16.1852C14.7506 18.9194 14.7506 21.6509 14.7506 24.3852C14.7506 24.8675 14.6203 25.0003 14.1591 25.0003C13.1299 25.0003 12.0981 25.0003 11.0688 25.0003C10.6623 25.0003 10.5269 24.8594 10.5269 24.4421C10.5269 21.6943 10.5269 18.9492 10.5269 16.2014C10.5269 16.1201 10.5269 16.0416 10.5269 15.9305C10.4435 15.9305 10.3757 15.9305 10.3054 15.9305C9.54192 15.9305 8.77847 15.9305 8.01502 15.9305C7.65023 15.9305 7.50432 15.7841 7.50432 15.402C7.49911 14.3316 7.49911 13.2613 7.50171 12.1882C7.50171 11.8115 7.65284 11.6597 8.01502 11.657C8.77066 11.6543 9.52889 11.657 10.2845 11.657C10.3549 11.657 10.4252 11.657 10.5216 11.657C10.5216 11.5703 10.5216 11.4971 10.5216 11.424C10.5242 10.5839 10.5034 9.74115 10.5373 8.9011C10.5868 7.70606 10.9307 6.61128 11.7098 5.70077C12.3612 4.93659 13.1898 4.49759 14.1409 4.29165C14.3702 4.24287 14.5995 4.20764 14.8314 4.16699C15.8892 4.16699 16.9445 4.16699 18.0024 4.16699Z" fill="#FFB533"/>
</svg>
