<svg width="25" height="25" viewBox="0 0 25 25" fill="none" xmlns="http://www.w3.org/2000/svg">
<path d="M0 22.4597C0 15.8194 0 9.17917 0 2.53892C0.0161122 2.49449 0.0380829 2.45152 0.0468714 2.40611C0.201646 1.62295 0.584432 0.968207 1.25821 0.544402C1.64588 0.300764 2.10923 0.177236 2.53889 0C9.17906 0 15.8192 0 22.4594 0C22.5116 0.0170889 22.5629 0.0395485 22.6166 0.0502901C23.9901 0.330548 24.9934 1.50236 24.9949 2.88021C25.0012 9.29098 25.0022 15.7017 24.9949 22.1125C24.9929 23.6871 23.6878 24.9927 22.1132 24.9947C15.7025 25.002 9.29184 25.002 2.88115 24.9932C1.93834 24.9918 1.17814 24.5709 0.593709 23.8307C0.272931 23.4254 0.126944 22.9474 0 22.4597ZM23.0453 12.4939C23.0453 9.36178 23.0453 6.22963 23.0453 3.09748C23.0453 2.33043 22.6728 1.9535 21.915 1.9535C15.6342 1.9535 9.35385 1.9535 3.07303 1.9535C2.33138 1.9535 1.95348 2.33483 1.95348 3.08332C1.95348 9.36421 1.95348 15.6446 1.95348 21.9255C1.95348 22.6667 2.33578 23.0456 3.08328 23.0456C9.3641 23.0456 15.6444 23.0456 21.9253 23.0456C22.6664 23.0456 23.0453 22.6628 23.0453 21.9153C23.0453 18.7748 23.0453 15.6344 23.0453 12.4939Z" fill="#FFB533"/>
<path d="M20.5945 20.6433C19.4681 20.6433 18.3647 20.6433 17.2334 20.6433C17.2334 20.5471 17.2334 20.4602 17.2334 20.3738C17.2324 18.5512 17.2363 16.729 17.2266 14.9064C17.2246 14.5582 17.1904 14.2072 17.1328 13.8634C16.9434 12.7351 16.1841 12.198 15.0514 12.3704C14.1145 12.5129 13.5652 13.052 13.3845 14.0543C13.3157 14.4362 13.2859 14.8297 13.2835 15.2179C13.2727 16.9346 13.2791 18.6513 13.2791 20.368C13.2791 20.4554 13.2791 20.5423 13.2791 20.6409C12.1683 20.6409 11.081 20.6409 9.97656 20.6409C9.97656 16.9761 9.97656 13.3122 9.97656 9.63321C11.0697 9.63321 12.1624 9.63321 13.2732 9.63321C13.2732 10.1019 13.2732 10.5628 13.2732 11.0252C13.3049 11.0213 13.3264 11.0247 13.3313 11.0174C14.0041 9.98622 15.0006 9.52531 16.1861 9.43742C17.0122 9.3759 17.8291 9.46037 18.5971 9.80654C19.5916 10.2548 20.1292 11.076 20.3474 12.1008C20.4856 12.7492 20.5779 13.4191 20.5877 14.0807C20.6184 16.2202 20.6013 18.3603 20.6028 20.4998C20.6018 20.5403 20.5979 20.5799 20.5945 20.6433Z" fill="#FFB533"/>
<path d="M4.41016 20.6356C4.41016 16.9605 4.41016 13.303 4.41016 9.63184C5.53996 9.63184 6.65951 9.63184 7.79811 9.63184C7.79811 13.2908 7.79811 16.9542 7.79811 20.6356C6.68002 20.6356 5.55461 20.6356 4.41016 20.6356Z" fill="#FFB533"/>
<path d="M8.15796 6.11857C8.15162 7.21812 7.24494 8.11162 6.14199 8.10479C5.04245 8.09795 4.14994 7.19176 4.15628 6.0883C4.16214 4.98827 5.06784 4.09623 6.17226 4.10257C7.27228 4.10843 8.16431 5.01414 8.15796 6.11857Z" fill="#FFB533"/>
</svg>
