<svg width="25" height="25" viewBox="0 0 25 25" fill="none" xmlns="http://www.w3.org/2000/svg">
<path d="M0 18.6028C0.0644558 18.2858 0.115239 17.9649 0.195972 17.6517C0.447935 16.6708 0.921263 15.8063 1.63549 15.0883C3.40835 13.3059 5.16298 11.5041 6.97686 9.76408C9.59285 7.25463 14.0091 7.85287 15.888 10.9306C15.9173 10.9781 15.944 11.0269 15.9505 11.0374C15.6074 11.4032 15.3086 11.786 14.9466 12.0932C14.3808 12.573 13.5826 12.5007 13.0168 11.9676C12.4198 11.4045 11.7121 11.1233 10.8943 11.137C10.1404 11.1493 9.4698 11.4006 8.93267 11.9344C7.19431 13.6588 5.45596 15.3838 3.73844 17.1297C2.63162 18.2545 2.66873 20.087 3.78206 21.2027C4.91557 22.3393 6.73596 22.3679 7.89226 21.2411C9.01079 20.1508 10.1078 19.0389 11.2069 17.9278C11.3416 17.7911 11.4484 17.767 11.6274 17.8308C12.6952 18.2122 13.7948 18.3183 14.9192 18.1797C14.9648 18.1738 15.011 18.1745 15.0963 18.1699C15.0377 18.2376 15.0045 18.2799 14.9668 18.3183C13.2922 19.9926 11.6333 21.6818 9.93987 23.3359C7.06019 26.1481 2.27874 25.2725 0.557315 21.6356C0.287773 21.066 0.113937 20.4671 0.0442727 19.8396C0.0384131 19.7843 0.0156257 19.7316 0 19.6775C0 19.3189 0 18.9608 0 18.6028Z" fill="#FFB533"/>
<path d="M19.6788 0.00195288C20.0428 0.0794169 20.4119 0.137352 20.7694 0.2376C23.4843 0.99857 25.278 3.67531 24.9649 6.47574C24.8151 7.81671 24.2871 8.98258 23.3391 9.93949C21.5871 11.7081 19.8449 13.4885 18.0486 15.2116C15.7522 17.4144 11.9845 17.281 9.81058 14.9629C9.51304 14.6459 9.27345 14.2749 9.01562 13.939C9.3633 13.5842 9.66149 13.2483 9.99223 12.9489C10.5613 12.434 11.3953 12.4626 11.9825 13.0101C12.4682 13.4631 13.0282 13.7476 13.689 13.8264C14.6467 13.9403 15.4736 13.6617 16.1579 12.9821C17.1338 12.0134 18.1039 11.039 19.0766 10.0664C19.7902 9.35297 20.5135 8.64929 21.2141 7.92347C22.0005 7.10912 22.2616 6.13073 21.9465 5.04493C21.6314 3.95913 20.8924 3.26326 19.7856 3.01068C18.7595 2.77634 17.8435 3.04063 17.0915 3.77556C15.9801 4.86201 14.887 5.96669 13.7938 7.07136C13.6649 7.20155 13.5646 7.21783 13.3954 7.15794C12.2801 6.76151 11.1316 6.65931 9.95772 6.81749C9.92777 6.78364 9.89782 6.74979 9.86787 6.71594C9.94991 6.67753 10.0508 6.65866 10.1114 6.59812C11.7084 5.00782 13.3062 3.41818 14.8941 1.81878C15.8929 0.812396 17.0785 0.200495 18.4919 0.0390575C18.5303 0.0345008 18.5668 0.0136701 18.6046 0C18.9627 0.00195288 19.3207 0.00195288 19.6788 0.00195288Z" fill="#FFB533"/>
</svg>
