<svg width="25" height="25" viewBox="0 0 25 25" fill="none" xmlns="http://www.w3.org/2000/svg">
<path d="M6.27344 6.62713C6.27344 6.62713 6.64113 7.05864 7.81549 8.06083C8.14027 8.3378 8.40233 8.48498 8.81953 8.72048C9.58857 9.15333 10.1404 9.30988 11.2059 9.61294C11.9003 9.8103 12.1861 9.85044 12.3274 9.69523C12.4542 9.55541 12.4126 9.36206 12.4126 8.84224C12.4126 8.84224 12.4377 8.52713 12.5611 8.02537C12.7334 7.32424 13.5123 6.52811 14.2583 6.1548C15.4749 5.54533 17.0796 5.81896 18.3537 6.8285C18.5623 6.72079 18.8758 6.56491 19.2659 6.39097C19.901 6.10864 20.2198 5.96949 20.3056 6.05378C20.3987 6.14544 20.3347 6.49065 19.4851 7.71695C20.2779 7.33695 20.7215 7.21319 20.8146 7.34431C20.9427 7.52428 20.4146 8.18393 19.2303 9.32259C19.2415 10.2833 19.1346 12.4335 17.8018 14.6272C16.737 16.38 15.3957 17.3267 14.8735 17.6665C14.4669 17.9308 12.8245 18.9464 10.4461 19.1431C10.1015 19.1718 7.84783 19.3304 5.73545 18.1683C5.5724 18.0787 4.94396 17.7248 5.00403 17.5C5.08457 17.1976 6.30909 17.5187 7.71581 17.0357C8.38583 16.8062 8.88752 16.4657 9.21494 16.2041C8.23466 15.9586 7.62867 15.4949 7.29135 15.1718C6.75005 14.6533 6.23978 13.8645 6.41405 13.6525C6.5705 13.4625 7.21148 13.813 7.26297 13.71C7.32238 13.5916 6.41867 13.2424 5.84833 12.4054C5.26346 11.5457 5.17962 10.3923 5.42453 10.2686C5.46876 10.2465 5.54863 10.2773 5.70772 10.3402C6.15792 10.5188 6.38368 10.7302 6.41471 10.6988C6.45498 10.6579 6.06881 10.2994 5.77835 9.79558C5.39416 9.12925 5.33673 8.48365 5.32551 8.23276C5.32551 8.23276 5.29779 7.61928 5.73545 6.56959C5.75657 6.51942 5.80278 6.41371 5.89388 6.38963C6.04174 6.35149 6.21073 6.55354 6.27344 6.62713Z" fill="#FFB533"/>
<path d="M0 22.4597C0 15.8194 0 9.17917 0 2.53892C0.0161122 2.49449 0.0380829 2.45152 0.0468714 2.40611C0.201646 1.62295 0.584432 0.968207 1.25821 0.544402C1.64588 0.300764 2.10923 0.177236 2.53889 0C9.17906 0 15.8192 0 22.4594 0C22.5116 0.0170889 22.5629 0.0395485 22.6166 0.0502901C23.9901 0.330548 24.9934 1.50236 24.9949 2.88021C25.0012 9.29098 25.0022 15.7017 24.9949 22.1125C24.9929 23.6871 23.6878 24.9927 22.1132 24.9947C15.7025 25.002 9.29184 25.002 2.88115 24.9932C1.93834 24.9918 1.17814 24.5709 0.593709 23.8307C0.272931 23.4254 0.126944 22.9474 0 22.4597ZM23.0453 12.4939C23.0453 9.36178 23.0453 6.22963 23.0453 3.09748C23.0453 2.33043 22.6728 1.9535 21.915 1.9535C15.6342 1.9535 9.35385 1.9535 3.07303 1.9535C2.33138 1.9535 1.95348 2.33483 1.95348 3.08332C1.95348 9.36421 1.95348 15.6446 1.95348 21.9255C1.95348 22.6667 2.33578 23.0456 3.08328 23.0456C9.3641 23.0456 15.6444 23.0456 21.9253 23.0456C22.6664 23.0456 23.0453 22.6628 23.0453 21.9153C23.0453 18.7748 23.0453 15.6344 23.0453 12.4939Z" fill="#FFB533"/>
</svg>
