<svg width="142" height="31" viewBox="0 0 142 31" fill="none" xmlns="http://www.w3.org/2000/svg">
<path d="M11.815 0.435C15.535 0.435 17.395 2.415 17.395 6.375L17.395 30H11.095L11.095 20.235H6.55L6.55 30H0.25L0.25 6.375C0.25 2.415 2.11 0.435 5.83 0.435H11.815ZM6.55 15.375L11.095 15.375L11.095 5.61C11.095 5.37 11.005 5.16 10.825 4.98C10.675 4.8 10.48 4.71 10.24 4.71L7.405 4.71C7.165 4.71 6.955 4.8 6.775 4.98C6.625 5.16 6.55 5.37 6.55 5.61L6.55 15.375ZM31.5858 7.59H32.5308C36.2508 7.59 38.1108 9.57 38.1108 13.53V24.51C38.1108 28.47 36.2508 30.45 32.5308 30.45H31.5858C29.4258 30.45 27.8808 29.76 26.9508 28.38V30H21.8658L21.8658 0.884999L27.8958 0.884999V8.67C28.8558 7.95 30.0858 7.59 31.5858 7.59ZM27.8958 12.81L27.8958 25.23C27.8958 25.47 27.9708 25.68 28.1208 25.86C28.3008 26.04 28.5108 26.13 28.7508 26.13H31.2258C31.4658 26.13 31.6608 26.04 31.8108 25.86C31.9908 25.68 32.0808 25.47 32.0808 25.23V12.81C32.0808 12.57 31.9908 12.36 31.8108 12.18C31.6608 12 31.4658 11.91 31.2258 11.91L28.7508 11.91C28.5108 11.91 28.3008 12 28.1208 12.18C27.9708 12.36 27.8958 12.57 27.8958 12.81ZM58.4575 13.53V24.51C58.4575 28.47 56.5975 30.45 52.8775 30.45H47.7925C44.0725 30.45 42.2125 28.47 42.2125 24.51V13.53C42.2125 9.57 44.0725 7.59 47.7925 7.59H52.8775C56.5975 7.59 58.4575 9.57 58.4575 13.53ZM52.4275 25.77V12.225C52.4275 11.985 52.3375 11.775 52.1575 11.595C52.0075 11.415 51.8125 11.325 51.5725 11.325H49.0975C48.8575 11.325 48.6475 11.415 48.4675 11.595C48.3175 11.775 48.2425 11.985 48.2425 12.225V25.77C48.2425 26.01 48.3175 26.22 48.4675 26.4C48.6475 26.58 48.8575 26.67 49.0975 26.67H51.5725C51.8125 26.67 52.0075 26.58 52.1575 26.4C52.3375 26.22 52.4275 26.01 52.4275 25.77ZM72.7742 8.04L78.8042 8.04V30H73.3142V28.875C72.3842 29.925 70.9742 30.45 69.0842 30.45H68.1392C64.4192 30.45 62.5592 28.47 62.5592 24.51V8.04H68.5892V25.23C68.5892 25.47 68.6642 25.68 68.8142 25.86C68.9942 26.04 69.2042 26.13 69.4442 26.13H71.9192C72.1592 26.13 72.3542 26.04 72.5042 25.86C72.6842 25.68 72.7742 25.47 72.7742 25.23V8.04ZM90.9159 26.535H92.7159L92.7159 30.45H88.4859C84.7659 30.45 82.9059 28.47 82.9059 24.51V3.27H88.9359V8.04H92.7159V12.405H88.9359V24.375C88.9359 25.215 89.1009 25.785 89.4309 26.085C89.7609 26.385 90.2559 26.535 90.9159 26.535ZM115.586 0.884999H121.886V24.51C121.886 28.47 120.026 30.45 116.306 30.45H110.726C107.006 30.45 105.146 28.47 105.146 24.51V0.884999H111.446V25.05C111.446 25.29 111.521 25.5 111.671 25.68C111.851 25.86 112.061 25.95 112.301 25.95H114.731C114.971 25.95 115.166 25.86 115.316 25.68C115.496 25.5 115.586 25.29 115.586 25.05V0.884999ZM136.322 16.23C140.042 16.23 141.902 18.21 141.902 22.17V24.51C141.902 28.47 140.042 30.45 136.322 30.45H131.327C127.607 30.45 125.747 28.47 125.747 24.51V23.115H131.327V25.095C131.327 25.335 131.402 25.545 131.552 25.725C131.732 25.905 131.942 25.995 132.182 25.995H135.872C136.112 25.995 136.307 25.905 136.457 25.725C136.637 25.545 136.727 25.335 136.727 25.095V22.395C136.727 22.155 136.637 21.945 136.457 21.765C136.307 21.585 136.112 21.495 135.872 21.495H131.237C127.517 21.495 125.657 19.515 125.657 15.555V13.53C125.657 9.57 127.517 7.59 131.237 7.59H135.962C139.682 7.59 141.542 9.57 141.542 13.53V14.34H135.962V12.945C135.962 12.705 135.872 12.495 135.692 12.315C135.542 12.135 135.347 12.045 135.107 12.045H131.687C131.447 12.045 131.237 12.135 131.057 12.315C130.907 12.495 130.832 12.705 130.832 12.945V15.33C130.832 15.57 130.907 15.78 131.057 15.96C131.237 16.14 131.447 16.23 131.687 16.23H136.322Z" fill="#212121"/>
</svg>
