<svg width="164" height="32" viewBox="0 0 164 32" fill="none" xmlns="http://www.w3.org/2000/svg">
<path d="M17.395 7.375L17.395 25.51C17.395 29.47 15.535 31.45 11.815 31.45H5.83C2.11 31.45 0.25 29.47 0.25 25.51L0.25 7.375C0.25 3.415 2.11 1.435 5.83 1.435H11.815C15.535 1.435 17.395 3.415 17.395 7.375ZM11.095 26.23L11.095 6.61C11.095 6.37 11.005 6.16 10.825 5.98C10.675 5.8 10.48 5.71 10.24 5.71L7.405 5.71C7.165 5.71 6.955 5.8 6.775 5.98C6.625 6.16 6.55 6.37 6.55 6.61L6.55 26.23C6.55 26.47 6.625 26.68 6.775 26.86C6.955 27.04 7.165 27.13 7.405 27.13H10.24C10.48 27.13 10.675 27.04 10.825 26.86C11.005 26.68 11.095 26.47 11.095 26.23ZM32.0369 9.04H38.0669L38.0669 31H32.5769V29.875C31.6469 30.925 30.2369 31.45 28.3469 31.45H27.4019C23.6819 31.45 21.8219 29.47 21.8219 25.51L21.8219 9.04H27.8519L27.8519 26.23C27.8519 26.47 27.9269 26.68 28.0769 26.86C28.2569 27.04 28.4669 27.13 28.7069 27.13H31.1819C31.4219 27.13 31.6169 27.04 31.7669 26.86C31.9469 26.68 32.0369 26.47 32.0369 26.23L32.0369 9.04ZM51.5286 8.59H52.6986L52.6986 14.44H49.7286C48.7086 14.44 48.1986 14.965 48.1986 16.015V31H42.1686L42.1686 9.04H47.6586L47.6586 11.155C48.5286 9.445 49.8186 8.59 51.5286 8.59ZM76.4628 1.885L82.5378 1.885L76.5078 31H69.2628L63.2328 1.885H69.3528L72.9078 23.125L76.4628 1.885ZM91.5307 6.295C90.9007 6.925 90.1357 7.24 89.2357 7.24C88.3357 7.24 87.5557 6.925 86.8957 6.295C86.2357 5.635 85.9057 4.855 85.9057 3.955C85.9057 3.025 86.2357 2.245 86.8957 1.615C87.5557 0.954999 88.3357 0.624999 89.2357 0.624999C90.1357 0.624999 90.9007 0.954999 91.5307 1.615C92.1907 2.245 92.5207 3.025 92.5207 3.955C92.5207 4.885 92.1907 5.665 91.5307 6.295ZM86.2207 31V9.04H92.2507V31H86.2207ZM106.835 17.23C110.555 17.23 112.415 19.21 112.415 23.17V25.51C112.415 29.47 110.555 31.45 106.835 31.45H101.84C98.12 31.45 96.26 29.47 96.26 25.51V24.115H101.84V26.095C101.84 26.335 101.915 26.545 102.065 26.725C102.245 26.905 102.455 26.995 102.695 26.995H106.385C106.625 26.995 106.82 26.905 106.97 26.725C107.15 26.545 107.24 26.335 107.24 26.095V23.395C107.24 23.155 107.15 22.945 106.97 22.765C106.82 22.585 106.625 22.495 106.385 22.495H101.75C98.03 22.495 96.17 20.515 96.17 16.555V14.53C96.17 10.57 98.03 8.59 101.75 8.59H106.475C110.195 8.59 112.055 10.57 112.055 14.53V15.34H106.475V13.945C106.475 13.705 106.385 13.495 106.205 13.315C106.055 13.135 105.86 13.045 105.62 13.045H102.2C101.96 13.045 101.75 13.135 101.57 13.315C101.42 13.495 101.345 13.705 101.345 13.945V16.33C101.345 16.57 101.42 16.78 101.57 16.96C101.75 17.14 101.96 17.23 102.2 17.23H106.835ZM122.073 6.295C121.443 6.925 120.678 7.24 119.778 7.24C118.878 7.24 118.098 6.925 117.438 6.295C116.778 5.635 116.448 4.855 116.448 3.955C116.448 3.025 116.778 2.245 117.438 1.615C118.098 0.954999 118.878 0.624999 119.778 0.624999C120.678 0.624999 121.443 0.954999 122.073 1.615C122.733 2.245 123.063 3.025 123.063 3.955C123.063 4.885 122.733 5.665 122.073 6.295ZM116.763 31V9.04L122.793 9.04V31H116.763ZM143.272 14.53V25.51C143.272 29.47 141.412 31.45 137.692 31.45H132.607C128.887 31.45 127.027 29.47 127.027 25.51V14.53C127.027 10.57 128.887 8.59 132.607 8.59H137.692C141.412 8.59 143.272 10.57 143.272 14.53ZM137.242 26.77V13.225C137.242 12.985 137.152 12.775 136.972 12.595C136.822 12.415 136.627 12.325 136.387 12.325H133.912C133.672 12.325 133.462 12.415 133.282 12.595C133.132 12.775 133.057 12.985 133.057 13.225V26.77C133.057 27.01 133.132 27.22 133.282 27.4C133.462 27.58 133.672 27.67 133.912 27.67H136.387C136.627 27.67 136.822 27.58 136.972 27.4C137.152 27.22 137.242 27.01 137.242 26.77ZM153.404 31L147.374 31V9.04H152.864V10.165C153.794 9.115 155.204 8.59 157.094 8.59H158.039C161.759 8.59 163.619 10.57 163.619 14.53V31H157.589V13.81C157.589 13.57 157.499 13.36 157.319 13.18C157.169 13 156.974 12.91 156.734 12.91H154.259C154.019 12.91 153.809 13 153.629 13.18C153.479 13.36 153.404 13.57 153.404 13.81V31Z" fill="#212121"/>
</svg>
