<svg width="194" height="32" viewBox="0 0 194 32" fill="none" xmlns="http://www.w3.org/2000/svg">
<path d="M17.395 7.375L17.395 25.51C17.395 29.47 15.535 31.45 11.815 31.45H5.83C2.11 31.45 0.25 29.47 0.25 25.51L0.25 7.375C0.25 3.415 2.11 1.435 5.83 1.435H11.815C15.535 1.435 17.395 3.415 17.395 7.375ZM11.095 26.23L11.095 6.61C11.095 6.37 11.005 6.16 10.825 5.98C10.675 5.8 10.48 5.71 10.24 5.71L7.405 5.71C7.165 5.71 6.955 5.8 6.775 5.98C6.625 6.16 6.55 6.37 6.55 6.61L6.55 26.23C6.55 26.47 6.625 26.68 6.775 26.86C6.955 27.04 7.165 27.13 7.405 27.13H10.24C10.48 27.13 10.675 27.04 10.825 26.86C11.005 26.68 11.095 26.47 11.095 26.23ZM32.0369 9.04H38.0669L38.0669 31H32.5769V29.875C31.6469 30.925 30.2369 31.45 28.3469 31.45H27.4019C23.6819 31.45 21.8219 29.47 21.8219 25.51L21.8219 9.04H27.8519L27.8519 26.23C27.8519 26.47 27.9269 26.68 28.0769 26.86C28.2569 27.04 28.4669 27.13 28.7069 27.13H31.1819C31.4219 27.13 31.6169 27.04 31.7669 26.86C31.9469 26.68 32.0369 26.47 32.0369 26.23L32.0369 9.04ZM51.5286 8.59H52.6986L52.6986 14.44H49.7286C48.7086 14.44 48.1986 14.965 48.1986 16.015V31H42.1686L42.1686 9.04H47.6586L47.6586 11.155C48.5286 9.445 49.8186 8.59 51.5286 8.59ZM70.9728 31H64.6728V7.375C64.6728 3.415 66.5328 1.435 70.2528 1.435H73.5828C75.7728 1.435 77.3328 2.155 78.2628 3.595C79.1328 2.155 80.6928 1.435 82.9428 1.435H86.2728C89.9928 1.435 91.8528 3.415 91.8528 7.375V31H85.5528V6.835C85.5528 6.595 85.4628 6.385 85.2828 6.205C85.1328 6.025 84.9378 5.935 84.6978 5.935H82.2678C82.0278 5.935 81.8178 6.025 81.6378 6.205C81.4878 6.385 81.4128 6.595 81.4128 6.835V31H75.1128V6.835C75.1128 6.595 75.0228 6.385 74.8428 6.205C74.6928 6.025 74.4978 5.935 74.2578 5.935H71.8278C71.5878 5.935 71.3778 6.025 71.1978 6.205C71.0478 6.385 70.9728 6.595 70.9728 6.835V31ZM102.078 6.295C101.448 6.925 100.683 7.24 99.7826 7.24C98.8826 7.24 98.1026 6.925 97.4426 6.295C96.7826 5.635 96.4526 4.855 96.4526 3.955C96.4526 3.025 96.7826 2.245 97.4426 1.615C98.1026 0.954999 98.8826 0.624999 99.7826 0.624999C100.683 0.624999 101.448 0.954999 102.078 1.615C102.738 2.245 103.068 3.025 103.068 3.955C103.068 4.885 102.738 5.665 102.078 6.295ZM96.7676 31V9.04L102.798 9.04V31H96.7676ZM117.382 17.23C121.102 17.23 122.962 19.21 122.962 23.17V25.51C122.962 29.47 121.102 31.45 117.382 31.45H112.387C108.667 31.45 106.807 29.47 106.807 25.51V24.115L112.387 24.115V26.095C112.387 26.335 112.462 26.545 112.612 26.725C112.792 26.905 113.002 26.995 113.242 26.995H116.932C117.172 26.995 117.367 26.905 117.517 26.725C117.697 26.545 117.787 26.335 117.787 26.095V23.395C117.787 23.155 117.697 22.945 117.517 22.765C117.367 22.585 117.172 22.495 116.932 22.495H112.297C108.577 22.495 106.717 20.515 106.717 16.555V14.53C106.717 10.57 108.577 8.59 112.297 8.59H117.022C120.742 8.59 122.602 10.57 122.602 14.53V15.34L117.022 15.34V13.945C117.022 13.705 116.932 13.495 116.752 13.315C116.602 13.135 116.407 13.045 116.167 13.045H112.747C112.507 13.045 112.297 13.135 112.117 13.315C111.967 13.495 111.892 13.705 111.892 13.945V16.33C111.892 16.57 111.967 16.78 112.117 16.96C112.297 17.14 112.507 17.23 112.747 17.23H117.382ZM136.85 17.23C140.57 17.23 142.43 19.21 142.43 23.17V25.51C142.43 29.47 140.57 31.45 136.85 31.45H131.855C128.135 31.45 126.275 29.47 126.275 25.51V24.115H131.855V26.095C131.855 26.335 131.93 26.545 132.08 26.725C132.26 26.905 132.47 26.995 132.71 26.995H136.4C136.64 26.995 136.835 26.905 136.985 26.725C137.165 26.545 137.255 26.335 137.255 26.095V23.395C137.255 23.155 137.165 22.945 136.985 22.765C136.835 22.585 136.64 22.495 136.4 22.495H131.765C128.045 22.495 126.185 20.515 126.185 16.555V14.53C126.185 10.57 128.045 8.59 131.765 8.59H136.49C140.21 8.59 142.07 10.57 142.07 14.53V15.34L136.49 15.34V13.945C136.49 13.705 136.4 13.495 136.22 13.315C136.07 13.135 135.875 13.045 135.635 13.045H132.215C131.975 13.045 131.765 13.135 131.585 13.315C131.435 13.495 131.36 13.705 131.36 13.945V16.33C131.36 16.57 131.435 16.78 131.585 16.96C131.765 17.14 131.975 17.23 132.215 17.23H136.85ZM152.087 6.295C151.457 6.925 150.692 7.24 149.792 7.24C148.892 7.24 148.112 6.925 147.452 6.295C146.792 5.635 146.462 4.855 146.462 3.955C146.462 3.025 146.792 2.245 147.452 1.615C148.112 0.954999 148.892 0.624999 149.792 0.624999C150.692 0.624999 151.457 0.954999 152.087 1.615C152.747 2.245 153.077 3.025 153.077 3.955C153.077 4.885 152.747 5.665 152.087 6.295ZM146.777 31V9.04H152.807V31L146.777 31ZM173.287 14.53V25.51C173.287 29.47 171.427 31.45 167.707 31.45H162.622C158.902 31.45 157.042 29.47 157.042 25.51V14.53C157.042 10.57 158.902 8.59 162.622 8.59L167.707 8.59C171.427 8.59 173.287 10.57 173.287 14.53ZM167.257 26.77V13.225C167.257 12.985 167.167 12.775 166.987 12.595C166.837 12.415 166.642 12.325 166.402 12.325H163.927C163.687 12.325 163.477 12.415 163.297 12.595C163.147 12.775 163.072 12.985 163.072 13.225V26.77C163.072 27.01 163.147 27.22 163.297 27.4C163.477 27.58 163.687 27.67 163.927 27.67H166.402C166.642 27.67 166.837 27.58 166.987 27.4C167.167 27.22 167.257 27.01 167.257 26.77ZM183.418 31H177.388V9.04H182.878V10.165C183.808 9.115 185.218 8.59 187.108 8.59H188.053C191.773 8.59 193.633 10.57 193.633 14.53V31H187.603V13.81C187.603 13.57 187.513 13.36 187.333 13.18C187.183 13 186.988 12.91 186.748 12.91L184.273 12.91C184.033 12.91 183.823 13 183.643 13.18C183.493 13.36 183.418 13.57 183.418 13.81V31Z" fill="#212121"/>
</svg>
