<svg width="19" height="20" viewBox="0 0 19 20" fill="none" xmlns="http://www.w3.org/2000/svg">
<path d="M11.5298 4.25544C12.3247 4.41053 13.0553 4.79931 13.628 5.372C14.2007 5.9447 14.5895 6.67526 14.7446 7.47019M11.5298 1C13.1814 1.18347 14.7214 1.92306 15.8972 3.09732C17.0729 4.27159 17.8144 5.81073 18 7.46205M17.1861 13.9567V16.3982C17.1871 16.6249 17.1406 16.8492 17.0498 17.0569C16.959 17.2646 16.8258 17.451 16.6588 17.6043C16.4918 17.7575 16.2946 17.8742 16.0799 17.9468C15.8652 18.0194 15.6377 18.0464 15.4119 18.0259C12.9075 17.7538 10.5019 16.8981 8.38831 15.5274C6.42189 14.2779 4.7547 12.6107 3.50516 10.6442C2.12971 8.52105 1.27375 6.10371 1.00661 3.58807C0.986268 3.36302 1.01301 3.13619 1.08514 2.92203C1.15727 2.70788 1.2732 2.51108 1.42555 2.34419C1.5779 2.17729 1.76334 2.04395 1.97005 1.95264C2.17675 1.86134 2.40021 1.81407 2.62619 1.81386H5.06777C5.46274 1.80997 5.84565 1.94984 6.14512 2.20739C6.4446 2.46494 6.64021 2.8226 6.69549 3.2137C6.79854 3.99506 6.98966 4.76225 7.26519 5.50065C7.37469 5.79195 7.39839 6.10853 7.33348 6.41289C7.26857 6.71724 7.11777 6.99661 6.89895 7.21789L5.86535 8.25149C7.02392 10.289 8.71097 11.9761 10.7485 13.1347L11.7821 12.101C12.0034 11.8822 12.2828 11.7314 12.5871 11.6665C12.8915 11.6016 13.2081 11.6253 13.4994 11.7348C14.2377 12.0103 15.0049 12.2015 15.7863 12.3045C16.1816 12.3603 16.5427 12.5594 16.8008 12.864C17.0589 13.1687 17.196 13.5575 17.1861 13.9567Z" stroke="#3B0D38" stroke-width="2" stroke-linecap="round" stroke-linejoin="round"/>
</svg>
