<svg width="30" height="30" viewBox="0 0 30 30" fill="none" xmlns="http://www.w3.org/2000/svg">
<path d="M5.68164 0C11.8913 0 18.1009 0 24.3106 0C24.559 0.0460842 24.8089 0.0827954 25.0542 0.139815C27.9942 0.819362 29.9836 3.28369 29.9891 6.30026C30.0008 12.0975 29.993 17.8939 29.9922 23.6912C29.9922 24.6004 29.8352 25.483 29.4353 26.3016C28.2566 28.7112 26.3102 29.9727 23.631 29.9852C17.8729 30.0125 12.1155 29.9938 6.35728 29.993C6.22059 29.993 6.0839 29.9891 5.94799 29.9821C3.43757 29.8571 1.24896 28.2566 0.398355 25.8899C0.21558 25.3815 0.130442 24.8378 0 24.3106C0 18.1009 0 11.8913 0 5.68164C0.0210894 5.5879 0.0453031 5.49496 0.061706 5.40044C0.473339 2.97517 1.81056 1.28801 4.10774 0.398355C4.60764 0.204645 5.15518 0.129661 5.68164 0ZM2.50339 14.9969C2.50339 17.8377 2.50261 20.6785 2.50495 23.5194C2.50495 23.7818 2.50495 24.0497 2.54869 24.3075C2.87987 26.243 4.38659 27.4881 6.40102 27.4888C12.1311 27.492 17.8619 27.4912 23.592 27.4857C23.931 27.4857 24.2793 27.4631 24.6074 27.3842C26.3664 26.96 27.4873 25.4861 27.4881 23.6068C27.4912 17.8666 27.4896 12.1264 27.4873 6.38618C27.4873 6.15263 27.4834 5.91518 27.4443 5.68632C27.1139 3.76172 25.6111 2.50729 23.6209 2.50573C17.8713 2.50104 12.1209 2.50026 6.37134 2.51198C5.93939 2.51276 5.48871 2.57134 5.07785 2.70178C3.49068 3.20637 2.50807 4.61779 2.50495 6.35806C2.4987 9.23793 2.50339 12.1178 2.50339 14.9969Z" fill="#FFB533"/>
<path d="M15.0055 6.87222C19.489 6.90034 23.1484 10.5683 23.1202 15.0065C23.0921 19.4899 19.4241 23.1493 14.986 23.1212C10.5025 23.0931 6.84314 19.4251 6.87125 14.9869C6.89937 10.5043 10.5674 6.84488 15.0055 6.87222ZM20.6192 14.9854C20.6098 11.8884 18.0666 9.35921 14.9774 9.37405C11.889 9.38967 9.3762 11.9095 9.37308 14.994C9.37074 18.0871 11.9069 20.6233 15 20.6202C18.0955 20.6163 20.6286 18.0762 20.6192 14.9854Z" fill="#FFB533"/>
<path d="M25.611 6.24025C25.6157 7.27285 24.762 8.13048 23.738 8.12189C22.7179 8.1133 21.8821 7.27832 21.8712 6.25743C21.8603 5.23499 22.7179 4.3797 23.7505 4.38282C24.7768 4.38595 25.6064 5.2139 25.611 6.24025Z" fill="#FFB533"/>
</svg>
