<svg width="24" height="22" viewBox="0 0 24 22" fill="none" xmlns="http://www.w3.org/2000/svg">
<path d="M13.9272 19.9084L12.7533 20.9542C12.2562 21.397 11.4525 21.397 10.9607 20.9542L0.681379 11.8014C0.184332 11.3586 0.184332 10.6425 0.681379 10.2045L10.9607 1.04694C11.4578 0.604143 12.2615 0.604143 12.7533 1.04694L13.9272 2.09271C14.4295 2.54022 14.4189 3.27037 13.906 3.70846L7.53428 9.1163H22.7312C23.4345 9.1163 24.0003 9.62034 24.0003 10.2469V11.7543C24.0003 12.3808 23.4345 12.8848 22.7312 12.8848H7.53428L13.906 18.2927C14.4242 18.7307 14.4348 19.4609 13.9272 19.9084Z" fill="#626262"/>
</svg>
