<svg width="30" height="30" viewBox="0 0 30 30" fill="none" xmlns="http://www.w3.org/2000/svg">
<path d="M26.951 30C18.9826 30 11.0149 30 3.04641 30C2.98419 29.9795 2.92273 29.953 2.85899 29.9393C1.82557 29.7162 1.00763 29.1714 0.491677 28.248C0.268603 27.8497 0.160098 27.3868 0 26.9536C0 18.9851 0 11.0174 0 3.04897C0.0204864 2.986 0.0470459 2.92454 0.0599447 2.86004C0.396833 1.20216 1.81267 0.00635876 3.48497 0.00484125C11.1583 -0.0012288 18.8323 -0.00198756 26.5056 0.00484125C28.4276 0.00635876 29.9929 1.57091 29.9944 3.4936C30.0012 11.1669 30.002 18.841 29.9921 26.5143C29.9906 27.6691 29.4845 28.5963 28.5717 29.3065C28.0907 29.6813 27.5239 29.8429 26.951 30ZM14.9999 27.6562C18.7686 27.6562 22.5366 27.6562 26.3053 27.6562C27.1976 27.6562 27.6544 27.1987 27.6544 26.3049C27.6544 18.7681 27.6544 11.2314 27.6544 3.69467C27.6544 2.80086 27.1984 2.34636 26.3031 2.34636C18.7663 2.34636 11.2296 2.34636 3.69287 2.34636C2.79829 2.34636 2.34456 2.80086 2.34456 3.69771C2.34456 11.2344 2.34456 18.7712 2.34456 26.3079C2.34456 27.2017 2.80057 27.657 3.6959 27.657C7.46313 27.657 11.2319 27.6562 14.9999 27.6562Z" fill="#FFB533"/>
<path d="M11.9734 11.5582C13.2982 11.5582 14.6025 11.5582 15.9281 11.5582C15.9281 12.1243 15.9281 12.6774 15.9281 13.232C15.966 13.2282 15.9926 13.2328 15.9979 13.2237C16.8052 11.9862 18.001 11.433 19.4236 11.3268C20.4146 11.2532 21.3949 11.3541 22.3168 11.7692C23.5103 12.3071 24.1568 13.292 24.417 14.5219C24.5839 15.3095 24.694 16.1229 24.7061 16.9272C24.7433 19.4849 24.7228 22.0427 24.7236 24.6012C24.7236 24.649 24.719 24.6968 24.7152 24.7651C23.3775 24.7651 22.0467 24.7651 20.6817 24.7651C20.6817 24.6589 20.6817 24.555 20.6817 24.451C20.6809 22.2643 20.6855 20.0768 20.6733 17.89C20.671 17.4727 20.6301 17.0509 20.5603 16.6389C20.3326 15.2845 19.4221 14.6395 18.0632 14.8467C16.9387 15.0174 16.2794 15.6646 16.0624 16.8665C15.9797 17.3248 15.944 17.7967 15.941 18.2626C15.9281 20.3226 15.9356 22.3826 15.9356 24.4427C15.9356 24.5474 15.9356 24.6521 15.9356 24.7704C14.6033 24.7704 13.2982 24.7704 11.9727 24.7704C11.9734 20.3742 11.9734 15.9772 11.9734 11.5582Z" fill="#FFB533"/>
<path d="M9.35405 24.771C7.98828 24.771 6.64528 24.771 5.28711 24.771C5.28711 20.368 5.28711 15.9786 5.28711 11.5664C6.6339 11.5664 7.98373 11.5664 9.35405 11.5664C9.35405 15.9573 9.35405 20.3536 9.35405 24.771Z" fill="#FFB533"/>
<path d="M7.37814 9.72698C6.05714 9.72546 4.97971 8.64423 4.98047 7.32172C4.98199 5.99996 6.0617 4.92329 7.38497 4.92481C8.70672 4.92632 9.78415 6.00603 9.78264 7.3293C9.78188 8.65106 8.70065 9.72925 7.37814 9.72698Z" fill="#FFB533"/>
</svg>
