<svg width="9" height="12" viewBox="0 0 9 12" fill="none" xmlns="http://www.w3.org/2000/svg">
<path d="M4.73819 0C4.86571 0.0158157 4.99413 0.027531 5.12104 0.0477399C6.78448 0.30987 7.96552 1.18998 8.64344 2.66992C9.08519 3.63409 9.09644 4.63604 8.78797 5.64532C8.53259 6.48121 8.14312 7.2594 7.69529 8.01067C6.88801 9.36495 5.92012 10.6088 4.8648 11.7909C4.61614 12.0695 4.37387 12.07 4.12552 11.7909C2.92963 10.446 1.83787 9.02985 0.981411 7.45621C0.589765 6.7366 0.24548 5.99473 0.0903386 5.19018C-0.213568 3.60949 0.251248 2.25813 1.45534 1.15249C2.16637 0.499658 3.02952 0.142927 4.00105 0.0266524C4.08454 0.0166943 4.16863 0.00878648 4.25243 0C4.41425 0 4.57637 0 4.73819 0ZM4.48105 6.53159C5.7073 6.55296 6.73469 5.57884 6.75746 4.37332C6.78023 3.17134 5.77651 2.17964 4.51565 2.15825C3.28546 2.13746 2.25958 3.10485 2.23317 4.31065C2.20706 5.51704 3.21138 6.50933 4.48105 6.53159Z" fill="#FFB533"/>
</svg>
