<svg width="35" height="40" viewBox="0 0 35 40" fill="none" xmlns="http://www.w3.org/2000/svg">
<path d="M15.0163 0C15.8319 0.187104 16.6171 0.439775 17.2856 0.970703C18.4818 1.91742 19.107 3.15359 19.147 4.67441C19.1678 5.48039 19.1502 6.28798 19.1518 7.09557C19.1518 7.2219 19.163 7.34984 19.1694 7.49376C19.8666 7.49376 20.5383 7.49376 21.2691 7.49376C21.2691 7.30346 21.2691 7.11316 21.2691 6.92445C21.2691 6.18243 21.2659 5.44041 21.2707 4.69839C21.2739 4.13868 21.5922 3.77887 22.0655 3.78686C22.5245 3.79486 22.8283 4.14348 22.8315 4.6824C22.8363 5.58114 22.8347 6.47828 22.8379 7.37702C22.8379 7.40101 22.8507 7.4266 22.8651 7.48097C23.5368 7.48097 24.218 7.48097 24.9568 7.48097C24.9568 7.24429 24.9568 7.00122 24.9568 6.75974C24.9568 6.0561 24.9488 5.35406 24.96 4.65042C24.9696 4.11469 25.2991 3.77407 25.7628 3.78526C26.2122 3.79646 26.5128 4.13069 26.516 4.65042C26.5224 5.58434 26.5176 6.51986 26.5176 7.51135C26.911 7.51135 27.2772 7.46818 27.6275 7.52575C27.9169 7.57372 28.2432 7.67767 28.4526 7.86797C29.1339 8.49005 29.7592 9.1745 30.4276 9.81258C30.7347 10.1068 30.877 10.4315 30.8514 10.852C30.8338 11.1607 30.8482 11.4725 30.8482 11.8387C31.3855 11.8387 31.8893 11.8387 32.393 11.8387C32.8488 11.8387 33.3046 11.8291 33.7603 11.8451C34.2593 11.8643 34.5695 12.1682 34.5743 12.6095C34.5791 13.0685 34.2593 13.3883 33.7411 13.3963C32.8824 13.4091 32.0236 13.3995 31.1633 13.4027C31.0753 13.4027 30.9857 13.4155 30.8738 13.4251C30.8738 14.124 30.8738 14.8068 30.8738 15.5344C31.6414 15.5344 32.393 15.5344 33.1446 15.5344C33.3653 15.5344 33.5876 15.5281 33.8083 15.5376C34.2481 15.5584 34.5519 15.8543 34.5711 16.2685C34.5903 16.7003 34.3041 17.0473 33.8499 17.0825C33.4613 17.1128 33.0695 17.0936 32.6793 17.0952C32.0844 17.0968 31.4879 17.0952 30.8706 17.0952C30.8706 17.8085 30.8706 18.4801 30.8706 19.2142C30.9905 19.2142 31.1153 19.2142 31.2384 19.2142C32.0588 19.2142 32.8792 19.211 33.698 19.2158C34.2369 19.219 34.5743 19.5276 34.5711 19.9994C34.5679 20.4679 34.2289 20.7702 33.6868 20.775C32.8792 20.7798 32.0732 20.7766 31.2656 20.7766C31.1393 20.7766 31.0113 20.7766 30.8674 20.7766C30.8674 21.4914 30.8674 22.1631 30.8674 22.8955C31.0609 22.8955 31.2512 22.8955 31.4399 22.8955C32.1819 22.8955 32.924 22.8907 33.666 22.8971C34.2353 22.9019 34.5791 23.2121 34.5727 23.6951C34.5663 24.162 34.2289 24.4547 33.6788 24.4563C32.756 24.4595 31.8349 24.4579 30.8802 24.4579C30.8802 25.1679 30.8802 25.8476 30.8802 26.5832C31.2288 26.5832 31.5758 26.5832 31.9213 26.5832C32.5338 26.5832 33.1446 26.5704 33.7571 26.5896C34.2721 26.6056 34.5855 26.9366 34.5711 27.3956C34.5567 27.8369 34.2417 28.1344 33.7411 28.1408C32.9336 28.152 32.1276 28.144 31.32 28.144C31.1793 28.144 31.0401 28.144 30.8466 28.144C30.8466 28.5454 30.8914 28.9132 30.8322 29.2634C30.7843 29.5513 30.6755 29.8775 30.4852 30.087C29.8727 30.7603 29.1947 31.3743 28.5694 32.0364C28.2559 32.3674 27.9073 32.513 27.4596 32.4826C27.1637 32.4634 26.8647 32.4794 26.516 32.4794C26.516 33.1462 26.516 33.7811 26.516 34.4144C26.516 34.7534 26.524 35.0924 26.5096 35.4299C26.4905 35.884 26.1674 36.2039 25.7468 36.2071C25.3278 36.2103 24.9824 35.9032 24.9632 35.4459C24.9376 34.7822 24.9536 34.1185 24.952 33.4549C24.952 33.1462 24.952 32.836 24.952 32.5034C24.2324 32.5034 23.5512 32.5034 22.8283 32.5034C22.8283 33.1174 22.8283 33.7123 22.8283 34.3072C22.8283 34.6191 22.8299 34.9325 22.8283 35.2444C22.8251 35.8456 22.5325 36.2071 22.0495 36.2055C21.5666 36.2039 21.2691 35.8409 21.2675 35.2412C21.2659 34.3344 21.2675 33.4261 21.2675 32.4986C20.5543 32.4986 19.881 32.4986 19.1502 32.4986C19.1502 32.6617 19.1534 32.8248 19.1502 32.9879C19.131 33.9762 19.1902 34.9741 19.075 35.9496C18.8208 38.0973 17.0585 39.7381 14.8724 39.9747C12.8079 40.1986 10.7577 38.9145 10.0141 36.9203C9.92613 36.6836 9.83338 36.5429 9.55032 36.4933C5.00385 35.6985 2.47874 31.344 4.03315 27.0022C4.04594 26.967 4.05554 26.9286 4.07473 26.8646C1.47606 25.3278 0.00480929 23.0698 1.17476e-05 20.0154C-0.0047858 16.9561 1.46006 14.6949 4.00756 13.1677C3.86523 12.4208 3.66853 11.7044 3.59977 10.9752C3.26554 7.38982 5.86901 4.07152 9.43518 3.5118C9.75182 3.46223 9.90694 3.34709 10.0333 3.03365C10.6809 1.41528 11.8835 0.436576 13.5899 0.0767607C13.6762 0.0591697 13.7594 0.0255869 13.8441 0C14.2359 0 14.6261 0 15.0163 0ZM12.7151 19.2142C13.5115 19.2142 14.3175 19.2142 15.1251 19.2142C15.9391 19.2142 16.753 19.2142 17.5894 19.2142C17.5894 18.6129 17.5894 18.0676 17.5894 17.5222C17.5894 16.9785 17.5894 16.4364 17.5894 15.8559C17.3975 15.8559 17.244 15.8591 17.0921 15.8559C16.2365 15.8335 15.3809 15.8079 14.5254 15.7839C13.9049 15.1938 13.2828 14.6037 12.6639 14.0136C12.5232 13.8793 12.3761 13.7466 12.2513 13.5978C12.0818 13.3963 11.9331 13.3516 11.6564 13.4587C10.6234 13.8633 9.65267 13.6938 8.8179 12.963C8.00551 12.2513 7.72246 11.3254 7.95594 10.2795C8.31256 8.68675 9.93093 7.77202 11.4725 8.25657C13.0189 8.74272 13.8153 10.4027 13.2077 11.9219C13.1053 12.1778 13.1485 12.3137 13.334 12.4864C13.761 12.8878 14.1991 13.2828 14.5718 13.7322C14.9476 14.1863 15.3745 14.3575 15.9566 14.3031C16.4924 14.2535 17.0361 14.2919 17.5814 14.2919C17.5814 10.9976 17.6038 7.77042 17.5702 4.54327C17.5574 3.27192 16.6715 2.16529 15.4801 1.74311C13.9129 1.18499 12.0131 2.02936 11.5557 3.50221C11.7684 3.55818 11.9827 3.61095 12.1938 3.67172C13.302 3.99156 14.2759 4.54647 15.1011 5.35246C15.5217 5.76345 15.5696 6.20162 15.2418 6.55344C14.9188 6.90207 14.4598 6.87968 14.0376 6.49587C13.9705 6.43511 13.9065 6.36954 13.8361 6.31037C12.819 5.44361 11.658 4.93028 10.3067 4.98625C6.43672 5.14617 3.98037 9.31043 5.66591 12.8302C6.0865 13.7082 5.99054 13.9816 5.12219 14.3782C2.65785 15.5041 1.17861 18.2083 1.60559 20.8789C1.96541 23.1274 3.20477 24.7297 5.27571 25.6845C5.93297 25.9867 6.0753 26.3625 5.75227 26.991C5.39085 27.6962 5.19575 28.4414 5.13178 29.2298C4.9015 32.0764 7.26669 34.8222 10.1164 34.9965C11.666 35.0908 12.9566 34.5071 14.0712 33.4661C14.4614 33.1015 14.9316 33.1015 15.245 33.4437C15.5521 33.7779 15.5201 34.2161 15.1491 34.5887C14.5462 35.1948 13.8521 35.6777 13.0605 36.0008C12.5696 36.2023 12.0578 36.3494 11.5541 36.5205C11.9107 37.552 13.0749 38.3756 14.2583 38.4267C16.1006 38.5051 17.5766 37.0882 17.583 35.2044C17.5942 32.1324 17.5862 29.0603 17.5846 25.9883C17.5846 25.9019 17.5702 25.814 17.5606 25.6956C16.8394 25.6956 16.1374 25.6813 15.4385 25.7052C15.2674 25.7116 15.0627 25.7996 14.938 25.9163C14.3894 26.4345 13.8729 26.9862 13.326 27.5075C13.1373 27.6882 13.1101 27.8242 13.2077 28.0752C13.9161 29.8711 12.6447 31.8061 10.7337 31.8637C9.60949 31.8973 8.57482 31.248 8.11586 30.2213C7.65849 29.1963 7.86798 27.9921 8.64838 27.1797C9.43038 26.3641 10.6042 26.1002 11.6628 26.5336C11.9091 26.6344 12.0482 26.6088 12.229 26.4185C12.8318 25.79 13.4683 25.1903 14.0696 24.5586C14.3607 24.2532 14.6773 24.1141 15.1027 24.1268C15.9183 24.1508 16.7338 24.1332 17.5558 24.1332C17.5558 22.9914 17.5558 21.8944 17.5558 20.7926C15.9151 20.7926 14.3047 20.7926 12.7007 20.7926C12.0882 22.4237 10.6985 22.9467 9.46557 22.7052C8.19582 22.4573 7.27948 21.3203 7.26829 20.0281C7.2571 18.7056 8.14944 17.5638 9.43838 17.2919C10.5706 17.0537 12.0371 17.4487 12.7151 19.2142ZM19.1662 30.869C19.227 30.8914 19.251 30.909 19.2749 30.909C21.9424 30.9122 24.6098 30.917 27.2788 30.909C27.4116 30.909 27.5699 30.8098 27.6722 30.7123C28.152 30.2533 28.6238 29.7864 29.0779 29.3018C29.1883 29.1835 29.2794 28.9916 29.2794 28.8332C29.289 22.9371 29.289 17.0425 29.2794 11.1463C29.2794 10.9976 29.1995 10.8169 29.0971 10.7081C28.6509 10.2348 28.1968 9.7662 27.7154 9.32962C27.5619 9.19049 27.3156 9.08655 27.1109 9.08495C24.5986 9.06896 22.0879 9.07375 19.5756 9.07535C19.4493 9.07535 19.3213 9.08655 19.187 9.09295C19.187 9.87335 19.187 10.6298 19.187 11.4006C19.3629 11.4006 19.5052 11.4006 19.6476 11.4006C21.7825 11.4006 23.9158 11.399 26.0507 11.4022C26.6696 11.4022 26.9574 11.6932 26.9686 12.3057C26.9686 12.3441 26.9686 12.3841 26.9686 12.4224C26.9686 13.6986 26.9686 14.9731 26.9686 16.2493C26.9686 16.8922 26.6903 17.2536 26.1962 17.26C25.6957 17.2664 25.4078 16.9065 25.4062 16.2685C25.4046 15.6176 25.4062 14.9667 25.4062 14.3159C25.4062 13.8777 25.4062 13.4379 25.4062 12.9854C23.3065 12.9854 21.2451 12.9854 19.1806 12.9854C19.1806 17.6726 19.1806 22.3374 19.1806 26.9958C21.2675 26.9958 23.3273 26.9958 25.3822 26.9958C25.3934 26.9414 25.403 26.9158 25.403 26.8902C25.4046 25.9659 25.4062 25.0416 25.4062 24.1189C25.4062 23.9749 25.4062 23.8326 25.4062 23.6887C25.4094 23.073 25.6845 22.7276 26.1786 22.7228C26.6744 22.718 26.967 23.0666 26.9686 23.6727C26.9702 24.9744 26.9702 26.2761 26.9686 27.5763C26.9686 28.3279 26.7111 28.5854 25.9611 28.587C23.839 28.5886 21.7185 28.587 19.5964 28.587C19.4589 28.587 19.3197 28.587 19.1678 28.587C19.1662 29.3786 19.1662 30.1174 19.1662 30.869ZM9.45277 10.9048C9.45757 11.5829 9.99809 12.1138 10.6698 12.101C11.3238 12.0882 11.8515 11.5573 11.8579 10.9048C11.8643 10.2396 11.319 9.68944 10.6506 9.68944C9.9789 9.68784 9.44798 10.2268 9.45277 10.9048ZM9.45117 29.0923C9.45597 29.7768 9.9949 30.3125 10.6698 30.2997C11.327 30.2869 11.8499 29.756 11.8579 29.0939C11.8659 28.4318 11.303 27.8785 10.6314 27.8897C9.96771 27.8993 9.44637 28.4318 9.45117 29.0923ZM8.83549 19.9994C8.83709 20.6598 9.36162 21.1892 10.0205 21.1955C10.6889 21.2035 11.2503 20.6502 11.2471 19.9898C11.2439 19.3277 10.6809 18.7824 10.0109 18.7952C9.34883 18.8064 8.83229 19.3373 8.83549 19.9994Z" fill="#FFB533"/>
<path d="M26.9623 19.9799C26.9687 20.4085 26.6041 20.7763 26.1755 20.7715C25.7598 20.7667 25.4127 20.4213 25.4063 20.0039C25.3999 19.5705 25.7566 19.2107 26.1899 19.2139C26.6089 19.2187 26.9559 19.5625 26.9623 19.9799Z" fill="#FFB533"/>
</svg>
