<svg width="40" height="40" viewBox="0 0 40 40" fill="none" xmlns="http://www.w3.org/2000/svg">
<path d="M39.9973 16.0938C39.9484 16.5049 39.9074 16.917 39.8498 17.3262C39.1135 22.5596 36.4006 26.4414 31.801 29.002C30.1369 29.9277 28.3215 30.4346 26.4358 30.6846C26.0686 30.7334 25.7639 30.5117 25.719 30.1807C25.677 29.874 25.8947 29.6182 26.257 29.5283C27.4152 29.2422 28.6106 29.0547 29.7219 28.6416C32.7649 27.5098 35.1145 25.4932 36.7912 22.7148C38.2404 20.3125 38.9065 17.6875 38.802 14.8916C38.6545 10.9736 37.1047 7.67383 34.2639 4.97656C34.2287 4.94336 34.1838 4.9209 34.0852 4.85352C34.0852 5.52344 34.0734 6.1416 34.0959 6.75879C34.1008 6.87988 34.2258 7.00586 34.3166 7.1123C35.7776 8.82031 36.7346 10.7793 37.1486 12.9824C37.6897 15.8613 37.3313 18.6436 35.9738 21.2461C34.3918 24.2803 31.9885 26.4482 28.7219 27.5186C24.5832 28.874 20.6731 28.2949 17.1135 25.7646C14.4221 23.8516 12.7043 21.2285 12.0822 17.9951C11.177 13.291 12.4963 9.22852 16.0139 5.95898C18.3752 3.76465 21.2287 2.68066 24.4543 2.61523C25.6438 2.59082 26.8156 2.75488 27.9641 3.07324C28.0871 3.10742 28.2111 3.13574 28.3889 3.17969C28.3889 2.71484 28.4045 2.28809 28.3762 1.86426C28.3703 1.77734 28.2072 1.65723 28.0979 1.62891C26.1438 1.11914 24.1682 1.0127 22.1799 1.38672C17.6233 2.24316 14.2131 4.71289 12.008 8.78223C10.4807 11.6006 9.99533 14.6445 10.5988 17.7842C11.7199 23.625 15.2219 27.3828 20.8899 29.1191C21.6174 29.3418 22.3947 29.4004 23.1496 29.5322C23.3156 29.5615 23.4865 29.5703 23.6516 29.6074C23.9875 29.6826 24.1799 29.9502 24.134 30.2568C24.0891 30.5566 23.8186 30.7803 23.4856 30.7529C22.1067 30.6367 20.7561 30.374 19.4514 29.9062C17.5686 29.2324 15.8733 28.2402 14.3772 26.9092C14.301 26.8408 14.218 26.7793 14.1379 26.7148C13.759 27.1104 13.3938 27.4922 12.9826 27.9209C13.1858 28.1064 13.4416 28.3096 13.6623 28.5459C14.2678 29.1924 14.2717 30.0371 13.6662 30.6865C13.2404 31.1436 12.7883 31.5752 12.3459 32.0176C10.1272 34.2363 7.90548 36.4521 5.69259 38.6758C5.16134 39.21 4.64572 39.7549 3.90353 40C3.6174 40 3.33029 40 3.04416 40C2.68576 39.8008 2.2883 39.6484 1.97873 39.3906C1.50119 38.9912 1.06271 38.5391 0.646695 38.0752C-0.251742 37.0713 -0.211703 35.791 0.752164 34.8223C3.56173 32 6.37814 29.1846 9.19845 26.373C9.91427 25.6602 10.7844 25.6719 11.507 26.3906C11.7072 26.5898 11.8654 26.8301 12.0481 27.0596C12.5022 26.5664 12.8596 26.1797 13.2219 25.7861C13.2326 25.8027 13.2199 25.7793 13.2033 25.7598C13.0705 25.5996 12.9367 25.4395 12.8029 25.2803C10.6623 22.7422 9.48458 19.7998 9.23947 16.5059C9.03732 13.7842 9.51291 11.1621 10.7395 8.70898C12.9221 4.34473 16.3899 1.56348 21.134 0.404297C21.9123 0.213867 22.717 0.131836 23.51 0C24.2131 0 24.9162 0 25.6193 0C26.5695 0.166016 27.5188 0.333008 28.469 0.493164C28.5334 0.503906 28.6184 0.477539 28.675 0.439453C28.885 0.299805 29.0861 0.147461 29.2912 0C30.593 0 31.8957 0 33.1975 0C33.884 0.316406 34.1467 0.855469 34.0832 1.59863C34.049 1.99902 34.0969 2.40527 34.0715 2.80664C34.05 3.13477 34.1574 3.34668 34.4172 3.5625C37.1379 5.8252 38.8879 8.68945 39.632 12.1514C39.7951 12.9092 39.8762 13.6855 39.9943 14.4531C39.9973 15 39.9973 15.5469 39.9973 16.0938ZM29.5891 25.8926C30.7512 25.3477 31.7365 24.6416 32.6359 23.8027C32.8332 23.6191 32.9162 23.4355 32.9152 23.1631C32.9045 21.1328 32.9084 19.1016 32.9104 17.0703C32.9104 16.9277 32.9143 16.7832 32.9397 16.6436C33.0012 16.3145 33.2102 16.1416 33.5461 16.165C33.8635 16.1865 34.0373 16.3779 34.0705 16.6914C34.0842 16.8203 34.0813 16.9512 34.0813 17.0811C34.0822 18.5908 34.0813 20.1016 34.0813 21.6113C34.0813 21.7295 34.0813 21.8477 34.0813 21.9668C35.7561 19.6543 36.3947 17.0879 36.1613 14.2949C35.9787 12.1074 34.9074 9.65039 34.0813 8.84082C34.0813 10.4492 34.0813 12.0352 34.0803 13.6201C34.0803 13.7764 34.0832 13.9336 34.0617 14.0879C34.0197 14.3896 33.8186 14.5498 33.5305 14.5645C33.2434 14.5781 33.0207 14.4414 32.9563 14.1436C32.9182 13.9678 32.9113 13.7832 32.9104 13.6025C32.9084 9.63183 32.9084 5.66113 32.9084 1.69141C32.9084 1.52832 32.9084 1.36523 32.9084 1.18945C31.7717 1.18945 30.6945 1.18945 29.5891 1.18945C29.5891 9.41113 29.5891 17.6182 29.5891 25.8926ZM28.2854 4.44922C24.4992 3.02637 18.6555 3.74512 15.1643 8.64844C11.927 13.1953 12.6594 18.6113 14.8303 21.582C14.8303 21.416 14.8303 21.29 14.8303 21.1641C14.8303 19.0166 14.8283 16.8701 14.8313 14.7227C14.8322 13.793 15.2873 13.3418 16.2238 13.3369C17.1213 13.332 18.0197 13.3369 18.9172 13.335C19.0549 13.335 19.1926 13.3213 19.3547 13.3125C19.3547 12.2412 19.3469 11.2148 19.3567 10.1875C19.3645 9.37598 19.8381 8.9043 20.6447 8.89551C21.4123 8.88672 22.1799 8.89355 22.9475 8.89355C23.2414 8.89355 23.5363 8.89355 23.8723 8.89355C23.8723 8.70117 23.8723 8.56152 23.8723 8.4209C23.8723 7.5752 23.8693 6.72949 23.8733 5.88379C23.8772 4.90039 24.3264 4.45117 25.302 4.4502C26.2746 4.44824 27.2463 4.44922 28.2854 4.44922ZM25.0764 5.63867C25.0764 12.7832 25.0764 19.8936 25.0764 27.1191C26.0774 26.917 27.0256 26.7178 27.9777 26.5361C28.3059 26.4736 28.4006 26.3135 28.3996 25.9785C28.3889 19.3418 28.3918 12.7051 28.3908 6.06836C28.3908 5.92969 28.3781 5.79199 28.3713 5.63867C27.2619 5.63867 26.1867 5.63867 25.0764 5.63867ZM20.5246 10.084C20.5246 10.2842 20.5246 10.4395 20.5246 10.5938C20.5246 14.1592 20.5246 17.7246 20.5246 21.2891C20.5246 22.8506 20.5217 24.4121 20.5305 25.9736C20.5315 26.0967 20.5793 26.2988 20.6565 26.3281C21.6779 26.7188 22.7346 26.9492 23.8391 26.9932C23.8391 21.3369 23.8391 15.7139 23.8391 10.084C22.7287 10.084 21.6526 10.084 20.5246 10.084ZM16.0022 14.5273C16.0022 14.7314 16.0022 14.8867 16.0022 15.042C16.0022 17.2158 16.0012 19.3887 16.0031 21.5625C16.0041 22.1211 15.8401 22.7705 16.0676 23.2158C16.3401 23.749 16.9231 24.1455 17.424 24.5342C18.01 24.9893 18.6535 25.3711 19.3303 25.8242C19.3303 21.9814 19.3303 18.2656 19.3303 14.5273C18.2209 14.5273 17.135 14.5273 16.0022 14.5273ZM6.00216 31.2549C4.48166 32.7666 2.96115 34.2627 1.46213 35.7812C1.04025 36.209 1.07248 36.8105 1.48947 37.2617C1.8508 37.6533 2.23654 38.0234 2.61642 38.3994C3.18673 38.9639 3.73947 38.9629 4.30783 38.3955C5.70822 36.998 7.10763 35.5986 8.50607 34.1992C8.58517 34.1201 8.65646 34.0322 8.7131 33.9678C7.8049 33.0576 6.9133 32.166 6.00216 31.2549ZM11.2922 31.4316C11.7902 30.9287 12.2922 30.4219 12.7932 29.9131C12.9983 29.7041 12.9709 29.498 12.7727 29.3008C12.0647 28.5938 11.3567 27.8867 10.6477 27.1797C10.4416 26.9736 10.2414 26.9873 10.0383 27.1895C9.53244 27.6934 9.02365 28.1943 8.53732 28.6758C9.45333 29.5918 10.3518 30.4902 11.2922 31.4316ZM10.3039 32.3613C9.41623 31.4541 8.52169 30.54 7.64181 29.6416C7.40353 29.8848 7.15158 30.1416 6.92306 30.375C7.80783 31.2617 8.70529 32.1611 9.60177 33.0596C9.8381 32.8242 10.1037 32.5596 10.3039 32.3613Z" fill="#FFB533"/>
<path d="M29.293 0C29.0879 0.147461 28.8867 0.298828 28.6768 0.439453C28.6201 0.477539 28.5352 0.503906 28.4707 0.493164C27.5205 0.333008 26.5713 0.166016 25.6211 0C26.8457 0 28.0693 0 29.293 0Z" fill="#FFB533"/>
</svg>
