<svg width="57" height="40" viewBox="0 0 57 40" fill="none" xmlns="http://www.w3.org/2000/svg">
<path d="M0 12.7391C0.258376 11.8591 0.575589 11.0149 1.28676 10.3831C2.56841 9.24722 4.04192 8.96071 5.6024 9.61048C7.21917 10.2807 8.06848 11.6033 8.08383 13.3429C8.12221 17.7736 8.11965 22.2069 8.08639 26.6377C8.07104 28.651 6.76637 30.2012 4.88867 30.6105C3.07237 31.0071 1.2356 30.1015 0.404192 28.3773C0.225119 28.0038 0.133025 27.5893 0.00255818 27.1954C0 22.3732 0 17.5562 0 12.7391ZM5.90683 20.0197C5.90683 17.812 5.91962 15.6043 5.90171 13.3966C5.89404 12.271 5.06007 11.4473 4.01633 11.4703C2.98027 11.4933 2.21538 12.3017 2.1898 13.4043C2.18212 13.7701 2.18724 14.1333 2.18724 14.4992C2.18724 18.495 2.1898 22.4909 2.18468 26.4868C2.18468 27.3565 2.52492 28.0191 3.32819 28.3696C4.56634 28.9094 5.8838 28.0038 5.89659 26.5891C5.92217 24.3967 5.90683 22.2069 5.90683 20.0197Z" fill="#FFB533"/>
<path d="M44.2261 16.4612C43.8117 16.4612 43.451 16.4689 43.0903 16.4612C41.0565 16.4151 39.5319 14.9237 39.4986 12.9514C39.4653 11.0225 40.9363 9.41342 42.9496 9.37249C46.1575 9.30597 49.3706 9.30853 52.5785 9.36993C54.5995 9.4083 56.1165 11.066 56.0577 12.9897C55.9988 14.9467 54.4486 16.4228 52.4148 16.4612C52.072 16.4663 51.7318 16.4612 51.3353 16.4612C51.3353 16.7324 51.3353 16.9472 51.3353 17.1596C51.3353 20.388 51.3353 23.6164 51.3353 26.8448C51.3353 28.3209 50.8032 29.5181 49.4704 30.2549C47.1808 31.5186 44.3156 29.953 44.2517 27.3385C44.1775 24.3301 44.2261 21.3192 44.2235 18.3107C44.2261 17.7147 44.2261 17.1161 44.2261 16.4612ZM46.4185 21.332C46.4185 23.248 46.4108 25.1641 46.421 27.0802C46.4261 27.9883 47.1424 28.6227 47.9815 28.5C48.6927 28.3951 49.1455 27.7785 49.148 26.8883C49.1506 23.1303 49.1455 19.3698 49.1506 15.6119C49.1506 14.6756 49.5522 14.2842 50.486 14.2739C51.1255 14.2663 51.7625 14.2791 52.402 14.2714C53.2462 14.2586 53.8781 13.6651 53.873 12.9028C53.8679 12.166 53.2462 11.5469 52.443 11.5444C49.322 11.5341 46.2036 11.5316 43.0826 11.5469C42.2768 11.5495 41.6782 12.1762 41.6884 12.9309C41.6986 13.683 42.3049 14.2586 43.1235 14.2714C43.7247 14.2816 44.3284 14.2714 44.9296 14.2739C46.0322 14.2765 46.4159 14.6551 46.4159 15.75C46.4185 17.6098 46.4159 19.4722 46.4185 21.332Z" fill="#FFB533"/>
<path d="M34.0614 20.0049C34.0563 25.1596 29.8123 29.396 24.6857 29.3601C19.5463 29.3243 15.3637 25.1391 15.3458 20.01C15.3253 14.8706 19.5463 10.6496 24.7087 10.6445C29.8762 10.642 34.0665 14.8348 34.0614 20.0049ZM24.7471 12.8369C20.7947 12.8164 17.5663 16.0039 17.5356 19.9588C17.5049 23.878 20.7256 27.132 24.6754 27.1729C28.5971 27.2113 31.8562 23.9777 31.8716 20.0305C31.8869 16.0653 28.7071 12.8574 24.7471 12.8369Z" fill="#FFB533"/>
<path d="M25.6548 39.9989C21.0143 40.0322 17.2819 38.9756 13.8693 36.8089C13.2323 36.4047 13.0481 35.7677 13.3833 35.2202C13.7158 34.6779 14.363 34.5423 15.0179 34.9491C16.6219 35.9442 18.3103 36.7449 20.1471 37.1977C25.6369 38.5561 30.6944 37.5968 35.2966 34.3146C36.0205 33.7979 36.6575 33.1609 37.3482 32.5981C38.0287 32.0455 38.9343 32.2809 39.1569 33.0586C39.3078 33.583 39.0648 33.9667 38.699 34.3172C35.9233 36.9802 32.6668 38.7556 28.8986 39.5384C27.64 39.8045 26.3455 39.9042 25.6548 39.9989Z" fill="#FFB533"/>
<path d="M35.6886 3.6194C35.6809 4.67081 34.8623 5.15943 34.0769 4.78849C33.2865 4.41755 32.5369 3.95197 31.7311 3.62196C26.0468 1.28379 20.5519 1.70845 15.3051 4.88826C14.2383 5.53292 13.3199 6.42061 12.3273 7.18806C12.0997 7.36457 11.8669 7.55899 11.6034 7.65876C11.1531 7.82504 10.6389 7.58202 10.3934 7.15224C10.1427 6.7148 10.2143 6.15967 10.6594 5.76827C11.5369 5.00082 12.3964 4.20267 13.3506 3.5401C17.0855 0.946111 21.2528 -0.197393 25.7885 0.0277264C29.1064 0.19145 32.1992 1.14053 35.0414 2.86218C35.3586 3.05405 35.553 3.45568 35.6886 3.6194Z" fill="#FFB533"/>
<path d="M24.9852 5.28711C28.692 5.3613 32.1123 6.71457 34.9749 9.44158C35.5428 9.98392 35.617 10.5825 35.1821 11.0814C34.7498 11.5777 34.0795 11.5853 33.4937 11.0379C32.0637 9.69484 30.452 8.65367 28.5666 8.09087C24.1282 6.76573 20.1119 7.58691 16.5279 10.5263C16.2593 10.7463 16.0188 10.9995 15.7425 11.2042C15.2462 11.5725 14.6451 11.5137 14.2665 11.0865C13.8776 10.6516 13.8802 9.99415 14.3586 9.56694C15.0902 8.9146 15.8321 8.25203 16.6481 7.7097C19.0963 6.08526 21.8156 5.31013 24.9852 5.28711Z" fill="#FFB533"/>
<path d="M24.1098 34.686C20.7739 34.6425 17.3587 33.2765 14.4885 30.5622C13.9129 30.0199 13.8361 29.3573 14.2889 28.879C14.7392 28.4006 15.3608 28.3929 15.9389 28.9378C17.7322 30.6288 19.8043 31.7978 22.2346 32.2506C26.3021 33.0053 29.927 32.0485 33.0685 29.3292C33.2885 29.1373 33.4957 28.9301 33.7336 28.7638C34.2197 28.421 34.7927 28.4824 35.1687 28.8892C35.5627 29.3164 35.6011 29.9432 35.1406 30.3653C34.4064 31.0432 33.6517 31.7185 32.8203 32.2685C30.3747 33.8879 27.6605 34.686 24.1098 34.686Z" fill="#FFB533"/>
<path d="M38.1426 7.70227C37.544 7.7125 37.0145 7.18807 37.0196 6.59458C37.0247 6.02155 37.5414 5.51503 38.1145 5.51759C38.6901 5.5227 39.194 6.02411 39.2042 6.60225C39.2145 7.19319 38.731 7.69459 38.1426 7.70227Z" fill="#FFB533"/>
<path d="M11.3055 32.2786C11.8836 32.2633 12.4413 32.7928 12.4592 33.3735C12.4746 33.9415 11.9732 34.4659 11.395 34.4838C10.8066 34.5017 10.2694 33.985 10.2541 33.3889C10.2438 32.8005 10.7197 32.2966 11.3055 32.2786Z" fill="#FFB533"/>
<path d="M20.6797 19.979C20.6874 17.7585 22.5216 15.932 24.7242 15.9474C26.9345 15.9627 28.7687 17.8123 28.7533 20.0046C28.738 22.2226 26.9114 24.0338 24.6986 24.0261C22.473 24.021 20.672 22.2072 20.6797 19.979ZM24.7088 21.8363C25.7219 21.8363 26.5533 21.0177 26.5635 20.0072C26.5738 19.0044 25.7475 18.1576 24.737 18.1372C23.7137 18.1167 22.8618 18.966 22.8695 20.0046C22.8746 21.0305 23.6856 21.8363 24.7088 21.8363Z" fill="#FFB533"/>
</svg>
