<svg width="15" height="13" viewBox="0 0 15 13" fill="none" xmlns="http://www.w3.org/2000/svg">
<path d="M6.17198 11.7625L6.89135 12.4034C7.19594 12.6748 7.68848 12.6748 7.98984 12.4034L14.2891 6.79423C14.5937 6.52287 14.5937 6.08407 14.2891 5.81559L7.98984 0.203524C7.68524 -0.0678413 7.1927 -0.0678413 6.89135 0.203524L6.17198 0.844408C5.86415 1.11866 5.87063 1.56612 6.18495 1.8346L10.0896 5.14872H0.776753C0.345783 5.14872 -0.000937462 5.45762 -0.000937462 5.84157V6.76537C-0.000937462 7.14932 0.345783 7.45821 0.776753 7.45821H10.0896L6.18495 10.7723C5.86739 11.0408 5.86091 11.4883 6.17198 11.7625Z" fill="#FFB533"/>
</svg>
