<svg width="46" height="45" viewBox="0 0 46 45" fill="none" xmlns="http://www.w3.org/2000/svg">
<g clip-path="url(#clip0_35_420)">
<path d="M26.731 0C27.2115 0.257812 27.3756 0.65625 27.3521 1.19531C27.317 2.21484 27.3404 3.23438 27.3404 4.26562C29.6842 4.72266 31.8521 5.51953 33.8443 6.76172C38.4849 9.64453 41.4263 13.7578 42.692 19.0664C42.8443 19.7227 42.7037 20.0273 42.0943 20.3555C40.5709 21.1641 39.0474 21.9727 37.524 22.7812C36.7388 23.1914 36.1646 22.8516 36.0357 21.9727C35.3326 16.8984 32.5552 13.4766 27.7857 11.6367C27.6568 11.5898 27.5045 11.5547 27.3287 11.4961C27.3287 12.3047 27.317 13.0664 27.3287 13.8398C27.3404 14.25 27.2467 14.6016 26.8599 14.8125C26.4732 15.0234 26.1334 14.8945 25.7935 14.6836C22.3951 12.5508 18.9967 10.4297 15.5982 8.30859C14.8013 7.80469 14.8131 7.10156 15.6217 6.59766C19.1373 4.39453 22.6646 2.19141 26.1802 -0.0117188C26.3795 0 26.5552 0 26.731 0ZM25.5826 12.4805C25.5826 11.7656 25.5826 11.1445 25.5826 10.5234C25.5943 9.76172 26.0513 9.375 26.7779 9.55078C32.0748 10.8516 35.5787 14.0859 37.2896 19.2656C37.442 19.7344 37.5474 20.2148 37.6763 20.7305C38.7545 20.1562 39.8092 19.5938 40.9459 18.9844C40.524 17.8828 40.1842 16.7695 39.6685 15.7383C36.9381 10.2656 32.5318 7.00781 26.5201 5.91797C25.7701 5.77734 25.5709 5.54297 25.5709 4.75781C25.5709 4.01953 25.5709 3.28125 25.5709 2.47266C22.8638 4.16016 20.2506 5.80078 17.567 7.47656C20.274 9.15234 22.899 10.793 25.5826 12.4805Z" fill="#24CCD4"/>
<path d="M45.012 39.4687C44.4613 40.1367 44.1683 40.1953 43.4066 39.75C42.5277 39.2461 41.6605 38.7422 40.7347 38.2148C40.5941 38.3672 40.4534 38.5429 40.3011 38.6836C39.5745 39.3632 38.848 40.0429 38.098 40.6992C37.6409 41.0976 37.1019 41.039 36.7738 40.6406C36.4573 40.2304 36.5511 39.7617 36.9613 39.3632C37.9222 38.4375 38.8597 37.5 39.7972 36.5625C40.1722 36.1875 40.5355 36.1054 41.0159 36.3632C41.7074 36.75 42.387 37.1484 43.1722 37.5937C43.055 34.4179 42.9495 31.3359 42.8324 28.1601C40.0316 29.6484 37.3011 31.0898 34.4886 32.5898C34.9573 32.8593 35.3675 33.0937 35.7659 33.3281C35.9769 33.457 36.2113 33.5625 36.3988 33.7265C36.8324 34.0781 36.8441 34.6171 36.4339 35.0742C35.2152 36.4101 33.7738 37.4648 32.1448 38.2265C28.0433 40.125 23.9183 40.289 19.7464 38.4257C19.6761 38.3906 19.5941 38.3672 19.4534 38.3203C19.4066 39.5859 19.3597 40.8047 19.3128 42.1523C20.4027 42.4336 21.4925 42.7617 22.5941 42.9726C25.055 43.4414 27.5159 43.3242 29.9534 42.7265C30.1175 42.6914 30.305 42.6562 30.4691 42.6679C30.8792 42.7148 31.1956 43.0546 31.2308 43.4648C31.2659 43.8867 30.9964 44.2734 30.5277 44.3906C28.8988 44.8125 27.2464 45.0117 25.5706 45C23.0394 44.9882 20.6019 44.5078 18.2581 43.5351C17.6722 43.289 17.5199 43.0781 17.5433 42.4336C17.6019 40.6054 17.6605 38.7773 17.7308 36.9492C17.7659 36.0468 18.4339 35.6836 19.2191 36.1523C21.3284 37.4297 23.6136 38.0625 26.0745 37.957C29.0745 37.8281 31.7581 36.8203 34.0902 34.8984C34.1956 34.8164 34.2777 34.7226 34.4183 34.5937C33.7386 34.1953 33.0941 33.8203 32.4378 33.4453C32.0745 33.2461 31.7816 33 31.7933 32.5429C31.805 32.0742 32.1097 31.8632 32.4847 31.664C35.9886 29.8125 39.5042 27.9726 42.973 26.0742C43.8402 25.5937 44.5316 26.0859 44.555 27.0117C44.6253 30.4922 44.7777 33.9843 44.9066 37.4648C44.9066 37.6054 44.9534 37.7461 44.9769 37.8867C45.012 38.414 45.012 38.9414 45.012 39.4687Z" fill="#24CCD4"/>
<path d="M9.51591 26.6484C10.2542 26.2148 10.9339 25.8164 11.6253 25.4297C12.3401 25.0312 13.0315 25.4414 13.0081 26.25C12.8675 30.3632 12.7268 34.4765 12.5745 38.5898C12.5511 39.3281 11.8714 39.6562 11.1683 39.2812C8.92997 38.0859 6.69169 36.8671 4.45341 35.6601C3.17607 34.9687 1.89872 34.289 0.633099 33.5976C-0.187213 33.1523 -0.210651 32.3906 0.586224 31.8984C1.37138 31.4179 2.15654 30.9375 2.95341 30.4687C3.17607 30.3398 3.21122 30.2109 3.12919 29.9765C2.23857 27.3515 1.92216 24.6445 2.21513 21.8789C2.71904 17.1328 4.72294 13.125 8.15654 9.80855C8.48466 9.49215 8.8831 9.44527 9.28154 9.69137C10.8284 10.6406 12.3636 11.6015 13.8987 12.5742C14.5198 12.9726 14.5198 13.6406 13.8987 14.1328C11.9065 15.7148 10.4886 17.6953 9.71513 20.1211C9.0706 22.1718 8.97685 24.2578 9.42216 26.3671C9.43388 26.4609 9.48075 26.5429 9.51591 26.6484ZM11.2034 27.8086C11.1331 27.7968 11.0979 27.7851 11.0745 27.7968C10.594 28.0664 10.1018 28.3476 9.62138 28.6171C8.81279 29.0742 8.28544 28.8867 8.02763 27.9843C6.71513 23.4375 7.41826 19.2187 10.2425 15.3867C10.7464 14.6953 11.3558 14.0859 11.9417 13.4179C10.9456 12.7968 9.93779 12.164 8.8831 11.5078C8.30888 12.2226 7.68779 12.8671 7.18388 13.6054C3.65654 18.7031 2.96513 24.1757 5.01591 30.0117C5.33232 30.9023 5.25029 31.1367 4.44169 31.6289C3.86747 31.9687 3.30497 32.3203 2.67216 32.6953C5.44951 34.1953 8.1331 35.6484 10.887 37.125C10.9925 33.9609 11.0979 30.8906 11.2034 27.8086Z" fill="#24CCD4"/>
<path d="M34.9805 42.1875C34.9805 42.668 34.5703 43.0781 34.0898 43.0664C33.6211 43.0547 33.2344 42.6563 33.2344 42.1875C33.2344 41.707 33.6445 41.2969 34.125 41.3086C34.5938 41.3203 34.9805 41.7188 34.9805 42.1875Z" fill="#24CCD4"/>
</g>
<defs>
<clipPath id="clip0_35_420">
<rect width="45.0117" height="45" fill="white"/>
</clipPath>
</defs>
</svg>
