<svg width="52" height="45" viewBox="0 0 52 45" fill="none" xmlns="http://www.w3.org/2000/svg">
<g clip-path="url(#clip0_35_405)">
<path d="M-0.000213508 26.0512C0.174745 25.2164 0.282412 24.3551 0.511204 23.5336C1.49367 20.0618 3.43167 17.2791 6.58093 15.3578C8.65352 14.0989 10.8069 13.9399 13.0409 14.894C14.5483 15.5433 16.0556 16.2058 17.5226 16.9346C19.824 18.0742 21.0756 19.9426 21.3717 22.447C21.4255 22.9373 21.116 23.3215 20.6584 23.3613C20.1873 23.401 19.8374 23.1228 19.7701 22.6192C19.6221 21.3604 19.1376 20.2606 18.2359 19.3463C16.9035 18.0079 15.3289 17.7827 13.5927 18.3392C11.7624 18.9487 10.3896 20.1413 9.23223 21.6122C8.08826 23.0698 7.29422 24.6996 6.83664 26.4885C6.80972 26.621 6.7828 26.7403 6.74243 26.8728C6.59439 27.3763 6.17718 27.6413 5.71959 27.5221C5.28892 27.4028 5.04667 26.992 5.1678 26.5017C5.62538 24.5804 6.35214 22.7782 7.50955 21.1616C8.88231 19.2535 10.6857 17.8622 12.8929 16.9744C13.0006 16.9346 13.1082 16.8816 13.2159 16.8286C11.4798 15.6095 9.15148 15.6228 7.40189 16.7093C4.83134 18.3127 3.1625 20.5786 2.20696 23.3878C1.57442 25.2562 1.42637 27.1908 1.81667 29.1254C2.23388 31.1661 3.59317 32.4249 5.47734 33.0742C5.27547 32.0804 5.07359 31.0866 4.87172 30.0927C4.83134 29.8675 4.83134 29.629 4.8448 29.4037C4.87172 28.9267 5.20817 28.6219 5.6523 28.6219C6.10988 28.6219 6.37905 28.9267 6.4598 29.4037C6.58093 30.2385 6.63476 31.0998 6.87701 31.8949C7.79218 34.7968 10.3896 35.9364 13.2428 34.757C13.4312 34.6775 13.6735 34.6113 13.8754 34.6378C14.2387 34.6908 14.481 34.9293 14.5214 35.3003C14.5752 35.7111 14.3733 36.0026 13.9965 36.1616C12.2334 36.8904 10.4569 37.0892 8.66698 36.2941C7.0116 35.5653 5.35622 34.8233 3.72775 34.0415C1.61479 33.0212 0.63233 31.1926 0.188204 29.0194C0.120912 28.6616 0.05362 28.3039 -0.0136719 27.9593C-0.000213508 27.3101 -0.000213508 26.6873 -0.000213508 26.0512Z" fill="#24CCD4"/>
<path d="M37.9257 7.47631e-06C39.608 7.47631e-06 41.2903 7.47631e-06 42.9726 7.47631e-06C49.3384 0.0265092 53.4701 6.30743 50.8996 12.0451C50.0651 13.9002 49.1769 15.7421 48.3021 17.5839C48.1541 17.9019 48.181 18.114 48.3694 18.3922C52.38 24.3021 50.5093 32.3587 44.2915 35.9364C44.0223 36.0954 43.659 36.1882 43.3494 36.1882C41.5864 36.2147 39.8233 36.2014 38.0468 36.2014C37.3201 36.2014 36.8894 35.6316 37.1855 35.0618C37.3604 34.7173 37.6834 34.6113 38.0737 34.6113C39.7022 34.6246 41.3307 34.6246 42.9726 34.5981C43.2687 34.5981 43.6051 34.4921 43.8474 34.333C47.7234 31.8551 49.5806 27.2703 48.5443 22.7915C47.535 18.4187 43.7801 15.0928 39.2177 14.523C34.3727 13.9134 29.7834 16.4444 27.7915 20.8569C27.4551 21.6122 27.0648 21.8507 26.5668 21.6387C26.0554 21.4134 25.9478 20.9629 26.3111 20.2474C26.6476 19.5716 27.0379 18.909 27.4416 18.2597C27.5897 18.0212 27.6166 17.8489 27.4955 17.5839C26.6341 15.7951 25.7728 13.9929 24.9518 12.1776C22.6101 7.06273 25.5171 1.3781 31.0754 0.198771C31.6676 0.0795128 32.2732 0.0397601 32.8788 0.0397601C34.5611 -0.0132434 36.2434 7.47631e-06 37.9257 7.47631e-06ZM46.9966 16.6299C47.9118 14.6422 48.9212 12.7474 49.6614 10.7465C51.2764 6.34718 47.9387 1.66962 43.2014 1.60336C39.6484 1.55036 36.1088 1.55036 32.5558 1.60336C28.2088 1.66962 24.8307 5.8304 25.9747 9.95142C26.6072 12.2173 27.7781 14.3507 28.7336 16.5901C29.3527 16.0601 29.8641 15.6228 30.389 15.1723C29.6757 13.6617 28.9759 12.1908 28.2895 10.6935C26.688 7.23499 29.0836 3.57775 32.9461 3.56449C35.0591 3.56449 37.1855 3.56449 39.2984 3.56449C39.4196 3.56449 39.5407 3.56449 39.6484 3.57775C40.079 3.6175 40.3347 3.85601 40.3751 4.26679C40.429 4.70407 40.2002 4.99559 39.7695 5.11485C39.5945 5.1546 39.4061 5.1546 39.2177 5.1546C37.1182 5.1546 35.0187 5.14135 32.9057 5.1546C30.241 5.16785 28.6529 7.61926 29.743 10.0177C30.3486 11.356 30.9946 12.6944 31.6272 14.0194C31.6676 14.1122 31.7483 14.205 31.8021 14.2845C35.9069 12.2571 39.9714 12.2836 44.0493 14.3507C44.7356 12.8799 45.4355 11.4488 46.0949 10.0044C47.1851 7.60601 45.5835 5.1811 42.9187 5.1546C42.5957 5.1546 42.2727 5.16785 41.9632 5.14135C41.4922 5.08835 41.1826 4.71732 41.223 4.29329C41.2499 3.88252 41.5729 3.591 42.0305 3.57775C42.3535 3.56449 42.663 3.56449 42.986 3.57775C46.7544 3.60425 49.1365 7.26149 47.5888 10.6405C47.1447 11.6078 46.6871 12.5618 46.243 13.5292C45.9738 14.1122 45.7046 14.6952 45.4355 15.2518C45.9334 15.7156 46.4314 16.1396 46.9966 16.6299Z" fill="#24CCD4"/>
<path d="M36.6743 32.2262C36.3513 36.97 34.5209 40.8922 30.4565 43.6087C28.6127 44.841 26.5401 45.4373 24.3868 44.629C22.3546 43.8737 20.3627 42.9461 18.4516 41.9391C16.554 40.932 15.733 39.1166 15.3562 37.1157C14.9928 35.1944 15.1947 33.2862 15.7734 31.4311C15.8811 31.0866 15.8138 30.9408 15.4908 30.7818C14.4545 30.2518 13.4451 29.6422 12.3819 29.1387C11.3725 28.6617 10.9822 27.9064 11.1034 26.8463C11.238 25.6935 11.7628 24.7659 12.7588 24.1431C13.3509 23.7721 13.97 23.7191 14.616 24.0901C15.8003 24.7527 17.0116 25.3622 18.1825 26.0248C18.5055 26.2103 18.667 26.144 18.8958 25.8922C20.3358 24.3286 22.0181 23.1361 24.1445 22.659C25.5038 22.3543 26.8093 22.4603 28.0744 23.0433C29.4875 23.6926 30.8872 24.3816 32.3272 24.9779C34.7363 25.9717 35.9341 27.8401 36.4186 30.2518C36.5531 30.8878 36.5935 31.5769 36.6743 32.2262ZM35.0189 32.849C35.0189 30.9143 34.7766 29.7483 34.3056 28.7942C33.4443 27.0716 31.8293 26.1043 30.0528 26.2765C29.003 26.3825 28.0071 26.6873 27.1457 27.2968C23.0275 30.212 21.1971 34.1475 21.8028 39.1034C22.2469 42.7341 25.7999 44.5627 29.1241 42.5619C33.027 40.2164 34.7363 36.5857 35.0189 32.849ZM28.4108 24.9382C27.4149 24.4611 26.5132 24.0106 25.4365 24.0504C23.9427 24.1034 22.6641 24.6997 21.5336 25.5875C18.8688 27.6944 17.3884 30.4903 16.877 33.7898C16.6213 35.4196 16.7559 37.023 17.4557 38.5468C18.1017 39.9647 19.2591 40.7862 20.753 41.2368C18.3574 35.3401 22.2469 26.9788 28.4108 24.9382ZM17.5768 27.4823C16.5002 26.8993 15.4235 26.3163 14.3603 25.7465C13.6201 25.349 13.324 25.4285 12.9741 26.197C12.853 26.462 12.7857 26.7536 12.7318 27.0451C12.6645 27.3366 12.7857 27.5354 13.0818 27.6811C13.8085 28.0521 14.5218 28.4497 15.2485 28.8339C15.6523 29.046 16.0695 29.258 16.4733 29.47C16.8366 28.7809 17.2 28.1449 17.5768 27.4823Z" fill="#24CCD4"/>
<path d="M37.8848 19.439C40.9937 19.492 43.5912 21.9037 43.7123 24.8851C43.8469 28.0919 41.559 30.7155 38.3828 31.0203C38.2617 31.0335 38.154 31.0335 38.0329 31.0335C37.5349 31.0203 37.1715 30.689 37.1715 30.2517C37.1715 29.8277 37.4945 29.5229 37.979 29.4434C38.4232 29.3772 38.8808 29.3374 39.3114 29.1917C41.1418 28.5689 42.2319 26.8595 42.1108 24.8851C42.0031 23.0963 40.6034 21.5592 38.7327 21.1616C36.9293 20.7641 35.0317 21.6387 34.13 23.2685C34.0627 23.3878 34.0088 23.507 33.9415 23.6263C33.6858 24.0371 33.2686 24.1828 32.8649 23.9708C32.4746 23.7721 32.3131 23.348 32.5015 22.9108C33.309 21.1484 34.6952 20.0618 36.5928 19.6113C37.01 19.5053 37.4542 19.492 37.8848 19.439Z" fill="#24CCD4"/>
</g>
<defs>
<clipPath id="clip0_35_405">
<rect width="51.6667" height="45" fill="white"/>
</clipPath>
</defs>
</svg>
