<svg width="25" height="25" viewBox="0 0 25 25" fill="none" xmlns="http://www.w3.org/2000/svg">
<circle cx="12.5" cy="12.5" r="12" stroke="white"/>
<path d="M18.9331 9.56533C18.8563 9.25835 18.6998 8.97708 18.4794 8.74994C18.2591 8.52279 17.9827 8.35782 17.6782 8.27167C16.5657 8 12.1155 8 12.1155 8C12.1155 8 7.66531 8 6.55276 8.29754C6.24827 8.38369 5.97189 8.54867 5.75156 8.77581C5.53123 9.00296 5.37475 9.28422 5.29791 9.5912C5.0943 10.7203 4.9947 11.8657 5.00037 13.0129C4.99311 14.1689 5.09272 15.323 5.29791 16.4605C5.38262 16.758 5.54261 17.0286 5.76243 17.2461C5.98225 17.4637 6.25446 17.6208 6.55276 17.7025C7.66531 18 12.1155 18 12.1155 18C12.1155 18 16.5657 18 17.6782 17.7025C17.9827 17.6163 18.2591 17.4513 18.4794 17.2242C18.6998 16.997 18.8563 16.7158 18.9331 16.4088C19.1351 15.2882 19.2347 14.1516 19.2306 13.0129C19.2379 11.857 19.1383 10.7029 18.9331 9.56533V9.56533Z" stroke="white" stroke-linecap="round" stroke-linejoin="round"/>
<path d="M10.6602 15.1282L14.3794 13.0131L10.6602 10.8979V15.1282Z" stroke="white" stroke-linecap="round" stroke-linejoin="round"/>
</svg>
