<svg width="55" height="93" viewBox="0 0 55 93" fill="none" xmlns="http://www.w3.org/2000/svg">
<g clip-path="url(#clip0_54_675)">
<path d="M16.0581 26.8096H27.4233C30.1879 26.8096 33.834 26.8096 35.7168 27.9559C37.7817 29.1877 39.4028 31.4289 39.4028 34.5142C39.4028 37.8561 37.6509 40.3654 34.7498 41.5516V41.6428C38.6121 42.4355 40.7168 45.3384 40.7168 49.2106C40.7168 53.83 37.4233 58.2326 31.1947 58.2326H16.0581V26.8096ZM20.2219 40.3141H28.5667C33.305 40.3141 35.239 38.5974 35.239 35.2954C35.239 30.9384 32.1674 30.3225 28.5667 30.3225H20.2219V40.3141ZM20.2219 54.7026H30.6714C34.2663 54.7026 36.553 52.5012 36.553 49.0738C36.553 44.9791 33.2595 43.8384 29.7498 43.8384H20.2219V54.7026Z" fill="#A1A1A3"/>
<path d="M51.3821 42.5267C51.3821 55.7234 40.7108 66.422 27.5424 66.422C14.3798 66.422 3.70856 55.7234 3.70856 42.5267C3.70856 29.3302 14.3798 18.6315 27.5424 18.6315C40.7108 18.6372 51.3821 29.3302 51.3821 42.5267ZM27.5424 14.9873C12.3832 14.9873 0.0908203 27.3114 0.0908203 42.5096C0.0908203 57.708 12.3832 70.0319 27.5424 70.0319C42.7074 70.0319 54.9998 57.708 54.9998 42.5096C54.9998 27.3114 42.7074 14.9873 27.5424 14.9873Z" fill="#A1A1A3"/>
<path d="M54.9432 75.8428H0.147949V79.4527H54.9432V75.8428Z" fill="#A1A1A3"/>
<path d="M53.231 71.8683C53.2993 71.8683 53.3618 71.8625 53.4244 71.8625C53.4813 71.8568 53.5382 71.8454 53.5837 71.8283C53.6349 71.8055 53.669 71.7713 53.6975 71.7314C53.7259 71.6857 53.7373 71.6287 53.7373 71.5546C53.7373 71.4918 53.7259 71.4348 53.7032 71.4006C53.6804 71.3607 53.6463 71.3321 53.6065 71.315C53.5666 71.2922 53.5268 71.2808 53.4699 71.2694C53.4187 71.2638 53.3732 71.2638 53.3163 71.2638H52.9239V71.8739H53.231V71.8683ZM53.3618 71.0185C53.5894 71.0185 53.7543 71.0641 53.8681 71.1554C53.9762 71.2466 54.0331 71.3835 54.0331 71.5716C54.0331 71.7485 53.9819 71.8683 53.8908 71.9538C53.7942 72.0336 53.6747 72.0793 53.5268 72.0963L54.0729 72.9404H53.7543L53.231 72.1134H52.9181V72.9404H52.6167V71.0242H53.3618V71.0185ZM52.0138 72.524C52.0763 72.6951 52.173 72.8491 52.2981 72.9746C52.4176 73.1 52.5598 73.197 52.7247 73.2712C52.8841 73.3395 53.0661 73.3738 53.2538 73.3738C53.4472 73.3738 53.6235 73.3395 53.7828 73.2712C53.9477 73.197 54.09 73.1 54.2094 72.9746C54.3288 72.8491 54.4255 72.7009 54.4881 72.524C54.5564 72.353 54.5962 72.1705 54.5962 71.9709C54.5962 71.7713 54.5621 71.5888 54.4881 71.4177C54.4199 71.2466 54.3232 71.0983 54.2094 70.9729C54.0843 70.8474 53.942 70.7504 53.7828 70.6821C53.6235 70.6136 53.4415 70.5737 53.2538 70.5737C53.0661 70.5737 52.8841 70.6136 52.7247 70.6821C52.5598 70.7561 52.4119 70.8531 52.2981 70.9729C52.173 71.0983 52.082 71.2466 52.0138 71.4177C51.9455 71.5888 51.9113 71.7655 51.9113 71.9709C51.9113 72.1705 51.9455 72.3587 52.0138 72.524ZM51.7464 71.3207C51.8317 71.1211 51.9511 70.9558 52.099 70.8075C52.247 70.6592 52.4233 70.5509 52.6224 70.4653C52.8214 70.3798 53.0376 70.3398 53.2538 70.3398C53.4813 70.3398 53.6917 70.3798 53.8966 70.4653C54.09 70.5509 54.2663 70.6592 54.4085 70.8075C54.5564 70.9558 54.6815 71.1268 54.7611 71.3207C54.8522 71.5204 54.892 71.7371 54.892 71.9709C54.892 72.2047 54.8522 72.4214 54.7611 72.621C54.6758 72.8263 54.5564 72.9974 54.4085 73.1456C54.2606 73.2996 54.09 73.408 53.8966 73.4935C53.6917 73.5734 53.4813 73.6134 53.2538 73.6134C53.0319 73.6134 52.8214 73.5734 52.6224 73.4935C52.4233 73.408 52.247 73.2996 52.099 73.1456C51.9511 72.9974 51.8317 72.8263 51.7464 72.621C51.6554 72.4214 51.6212 72.2047 51.6212 71.9709C51.6155 71.7427 51.6497 71.5204 51.7464 71.3207Z" fill="#A1A1A3"/>
<path d="M6.78612 2.88568C6.65529 2.67467 6.49602 2.49218 6.30261 2.3382C6.10921 2.17852 5.88737 2.05876 5.64278 1.96751C5.39818 1.88197 5.1422 1.83634 4.87485 1.83634C4.38567 1.83634 3.97042 1.93329 3.62343 2.12149C3.28214 2.30968 3.00341 2.56631 2.79295 2.88568C2.58248 3.20504 2.42321 3.57003 2.32651 3.98064C2.22981 4.38555 2.17862 4.80757 2.17862 5.24669C2.17862 5.66301 2.22412 6.06791 2.32651 6.46142C2.42321 6.85492 2.57679 7.2085 2.79295 7.52786C3.00341 7.84152 3.28214 8.09815 3.62343 8.28638C3.96473 8.47452 4.37998 8.57147 4.87485 8.57147C5.54039 8.57147 6.06371 8.36621 6.43345 7.96129C6.80888 7.55067 7.0364 7.0146 7.12173 6.34736H9.23212C9.17523 6.96898 9.03297 7.52786 8.79975 8.02972C8.56654 8.53156 8.2651 8.95927 7.88395 9.30716C7.50284 9.66072 7.05916 9.92878 6.5529 10.117C6.04664 10.2995 5.4835 10.3964 4.87485 10.3964C4.11832 10.3964 3.43572 10.2653 2.82707 9.99725C2.21843 9.73488 1.71217 9.36987 1.29124 8.90224C0.875994 8.44037 0.557451 7.89285 0.335608 7.26553C0.113765 6.64391 0 5.97096 0 5.24669C0 4.50532 0.113765 3.81526 0.335608 3.17653C0.557451 2.54351 0.875994 1.98462 1.29124 1.51698C1.70649 1.04363 2.21843 0.672946 2.82707 0.404908C3.43003 0.136871 4.11263 0 4.87485 0C5.42093 0 5.93856 0.079841 6.42207 0.23382C6.90557 0.393502 7.34358 0.621619 7.72468 0.923877C8.1058 1.22613 8.42436 1.59682 8.67465 2.04165C8.92494 2.48647 9.08419 2.99974 9.14674 3.57003H7.0364C7.00227 3.32481 6.91695 3.09669 6.78612 2.88568Z" fill="#A1A1A3"/>
<path d="M12.0706 8.44569C12.3664 8.73087 12.793 8.87909 13.3447 8.87909C13.743 8.87909 14.0842 8.78214 14.3743 8.58256C14.6588 8.38298 14.8351 8.17196 14.9034 7.94955H16.6383C16.3596 8.8107 15.9329 9.43232 15.3584 9.803C14.7839 10.1737 14.09 10.3619 13.2765 10.3619C12.7134 10.3619 12.2014 10.2706 11.752 10.0882C11.297 9.90563 10.9159 9.64902 10.5974 9.31825C10.2844 8.98748 10.0399 8.58824 9.86924 8.12064C9.69857 7.6587 9.61328 7.14544 9.61328 6.59225C9.61328 6.05618 9.69857 5.55432 9.8749 5.09239C10.0512 4.63045 10.3015 4.22554 10.6258 3.88907C10.95 3.55259 11.3368 3.28456 11.7862 3.09066C12.2356 2.89676 12.7305 2.7998 13.2765 2.7998C13.8851 2.7998 14.4199 2.91957 14.8749 3.15339C15.33 3.39291 15.6997 3.70657 15.9898 4.10578C16.2799 4.50498 16.4904 4.96122 16.6212 5.46877C16.752 5.97634 16.7976 6.51241 16.7577 7.07129H11.5814C11.6155 7.69291 11.7748 8.16055 12.0706 8.44569ZM14.3004 4.65897C14.0615 4.40233 13.7031 4.27116 13.2253 4.27116C12.9125 4.27116 12.6508 4.32249 12.4404 4.43084C12.2299 4.5392 12.0649 4.67036 11.9398 4.82435C11.8146 4.98403 11.7293 5.14941 11.6781 5.3262C11.6269 5.50299 11.5985 5.65697 11.5871 5.79955H14.7896C14.6986 5.29769 14.5336 4.9213 14.3004 4.65897Z" fill="#A1A1A3"/>
<path d="M19.522 2.9771V4.31159H19.5504C19.6414 4.08918 19.7666 3.88387 19.9259 3.68997C20.0851 3.50177 20.2614 3.33639 20.4663 3.20522C20.671 3.07405 20.8871 2.9657 21.1203 2.89156C21.3536 2.81742 21.5925 2.7832 21.8428 2.7832C21.9737 2.7832 22.1158 2.80602 22.2751 2.85164V4.68798C22.1841 4.67087 22.0703 4.65376 21.9395 4.64236C21.8087 4.63095 21.6836 4.61955 21.564 4.61955C21.2057 4.61955 20.8985 4.68228 20.6483 4.80204C20.398 4.9218 20.1989 5.08718 20.0453 5.29819C19.8917 5.50921 19.7836 5.74873 19.721 6.02817C19.6585 6.30762 19.6243 6.60987 19.6243 6.93494V10.1799H17.6562V2.9771H19.522Z" fill="#A1A1A3"/>
<path d="M27.5485 2.97699V4.30007H26.1037V7.8644C26.1037 8.20088 26.1606 8.42326 26.2687 8.53165C26.3767 8.64004 26.6043 8.69707 26.9342 8.69707C27.048 8.69707 27.1503 8.69131 27.2528 8.68563C27.3551 8.67419 27.4518 8.66283 27.5429 8.64572V10.1741C27.3779 10.2026 27.1901 10.2197 26.9854 10.2311C26.7806 10.2425 26.5815 10.2482 26.3881 10.2482C26.0809 10.2482 25.7908 10.2254 25.5235 10.1855C25.2504 10.1456 25.0116 10.0657 24.8011 9.94031C24.5906 9.82048 24.4314 9.64946 24.3062 9.427C24.1867 9.20462 24.1242 8.91377 24.1242 8.54877V4.30007H22.9297V2.97699H24.1242V0.821289H26.0924V2.97699H27.5485Z" fill="#A1A1A3"/>
<path d="M28.6919 1.86444V0.233398H30.66V1.86444H28.6919ZM30.6657 2.9765V10.1679H28.6976V2.9765H30.6657Z" fill="#A1A1A3"/>
<path d="M31.4448 4.29958V2.9765H32.6223V2.41761C32.6223 1.77889 32.8215 1.25423 33.2196 0.84361C33.6178 0.433 34.2208 0.233398 35.0228 0.233398C35.1991 0.233398 35.3754 0.239101 35.5518 0.25621C35.7282 0.267616 35.8988 0.284725 36.0638 0.290427V1.76749C35.8362 1.73897 35.5973 1.72756 35.347 1.72756C35.0797 1.72756 34.8863 1.7903 34.7725 1.91576C34.6587 2.04123 34.6018 2.25223 34.6018 2.54879V2.98221H35.9614V4.30528H34.6018V10.1793H32.6281V4.29958H31.4448Z" fill="#A1A1A3"/>
<path d="M37.2925 1.86444V0.233398H39.2607V1.86444H37.2925ZM39.2607 2.9765V10.1679H37.2925V2.9765H39.2607Z" fill="#A1A1A3"/>
<path d="M42.3721 8.44569C42.6679 8.73087 43.0945 8.87909 43.6463 8.87909C44.0444 8.87909 44.3858 8.78214 44.6759 8.58256C44.9603 8.38298 45.1366 8.17196 45.2048 7.94955H46.9398C46.661 8.8107 46.2344 9.43232 45.6656 9.803C45.0911 10.1737 44.3972 10.3619 43.5837 10.3619C43.0206 10.3619 42.5086 10.2706 42.0593 10.0882C41.6041 9.90563 41.2231 9.64902 40.9045 9.31825C40.5917 8.98748 40.347 8.58824 40.1764 8.12064C40.0058 7.6587 39.9204 7.14544 39.9204 6.59225C39.9204 6.05618 40.0114 5.55432 40.1821 5.09239C40.3584 4.63045 40.6087 4.22554 40.933 3.88907C41.2572 3.55259 41.644 3.28456 42.0934 3.09066C42.5428 2.89676 43.0376 2.7998 43.5837 2.7998C44.1924 2.7998 44.7271 2.91957 45.1821 3.15339C45.6372 3.39291 46.0069 3.70657 46.297 4.10578C46.5872 4.50498 46.7975 4.96122 46.9284 5.46877C47.0592 5.97634 47.1047 6.51241 47.0707 7.07129H41.8943C41.9113 7.69291 42.0763 8.16055 42.3721 8.44569ZM44.5962 4.65897C44.363 4.40233 43.9989 4.27116 43.5211 4.27116C43.2083 4.27116 42.9466 4.32249 42.7362 4.43084C42.5257 4.5392 42.3607 4.67036 42.2356 4.82435C42.1105 4.98403 42.0251 5.14941 41.9739 5.3262C41.9227 5.50299 41.8943 5.65697 41.8829 5.79955H45.0854C45.0001 5.29769 44.8351 4.9213 44.5962 4.65897Z" fill="#A1A1A3"/>
<path d="M53.0432 9.24972C52.8099 9.63753 52.5085 9.9227 52.133 10.0937C51.7576 10.2648 51.3367 10.3504 50.8646 10.3504C50.3298 10.3504 49.8577 10.2477 49.4482 10.0368C49.0387 9.82575 48.703 9.54625 48.4414 9.18701C48.1797 8.82768 47.9806 8.41709 47.8441 7.95516C47.7076 7.49323 47.645 7.00847 47.645 6.50662C47.645 6.02187 47.7132 5.55993 47.8441 5.1094C47.9749 4.65887 48.1797 4.26537 48.4414 3.91749C48.703 3.57532 49.0387 3.29587 49.4311 3.09056C49.8293 2.87955 50.29 2.77691 50.8191 2.77691C51.2457 2.77691 51.6496 2.86815 52.0307 3.05064C52.4175 3.23313 52.719 3.49548 52.9408 3.84906H52.9693V0.233398H54.9374V10.1679H53.0716V9.24972H53.0432ZM52.9579 5.6968C52.901 5.42306 52.8099 5.18354 52.6734 4.97253C52.5369 4.76152 52.3662 4.59614 52.1501 4.46497C51.9396 4.3338 51.6666 4.27107 51.3481 4.27107C51.0295 4.27107 50.7508 4.3338 50.529 4.46497C50.3071 4.59614 50.1308 4.76722 49.9943 4.97823C49.8634 5.18924 49.7667 5.43447 49.7042 5.70821C49.6416 5.98195 49.6131 6.2671 49.6131 6.56364C49.6131 6.84309 49.6473 7.12253 49.7098 7.39628C49.7725 7.67572 49.8805 7.92094 50.0227 8.14336C50.1649 8.36005 50.3469 8.53683 50.5631 8.6737C50.7793 8.81057 51.0409 8.87336 51.3481 8.87336C51.6723 8.87336 51.9396 8.81057 52.1615 8.67946C52.3776 8.54827 52.554 8.37717 52.6848 8.15476C52.8157 7.93805 52.9066 7.68713 52.9635 7.41339C53.0204 7.13394 53.0489 6.84879 53.0489 6.55224C53.0489 6.25569 53.0147 5.97054 52.9579 5.6968Z" fill="#A1A1A3"/>
<path d="M4.95449 86.5472C4.8578 85.8518 4.19226 85.321 3.43004 85.321C2.05347 85.321 1.53584 86.4962 1.53584 87.7217C1.53584 88.8854 2.05347 90.0598 3.43004 90.0598C4.3686 90.0598 4.89761 89.4154 5.01138 88.492H6.50171C6.34244 90.2368 5.1422 91.3544 3.43004 91.3544C1.26849 91.3544 0 89.7348 0 87.7217C0 85.646 1.26849 84.0264 3.43004 84.0264C4.96587 84.0264 6.25142 84.9276 6.43914 86.5472H4.95449Z" fill="#A1A1A3"/>
<path d="M9.70414 85.9893C11.2969 85.9893 12.3208 87.0444 12.3208 88.664C12.3208 90.2722 11.2969 91.3273 9.70414 91.3273C8.12284 91.3273 7.09326 90.2664 7.09326 88.664C7.09326 87.0444 8.11715 85.9893 9.70414 85.9893ZM9.70414 90.278C10.6541 90.278 10.9329 89.4624 10.9329 88.664C10.9329 87.8484 10.6484 87.0386 9.70414 87.0386C8.76561 87.0386 8.48117 87.8542 8.48117 88.664C8.48117 89.4681 8.76561 90.278 9.70414 90.278Z" fill="#A1A1A3"/>
<path d="M13.1797 86.1142H14.4994V87.0557H14.5222C14.7724 86.417 15.4607 85.9775 16.1376 85.9775C16.2343 85.9775 16.3538 85.9948 16.4391 86.0228V87.3174C16.3083 87.2894 16.1035 87.2721 15.9386 87.2721C14.9203 87.2721 14.5677 88.0079 14.5677 88.8976V91.1789H13.1797V86.1142Z" fill="#A1A1A3"/>
<path d="M16.9739 86.1259H18.2936V86.7703H18.3107C18.6406 86.2345 19.1866 85.9893 19.8124 85.9893C21.3994 85.9893 22.1104 87.2723 22.1104 88.7093C22.1104 90.0615 21.371 91.3273 19.892 91.3273C19.289 91.3273 18.7089 91.0648 18.3789 90.5627H18.3562V92.975H16.9683V86.1259H16.9739ZM20.7282 88.6756C20.7282 87.8715 20.404 87.0386 19.5166 87.0386C18.6064 87.0386 18.3163 87.8542 18.3163 88.6756C18.3163 89.4969 18.6292 90.2837 19.528 90.2837C20.4324 90.278 20.7282 89.4969 20.7282 88.6756Z" fill="#A1A1A3"/>
<path d="M25.1594 85.9893C26.7521 85.9893 27.7817 87.0444 27.7817 88.664C27.7817 90.2722 26.7521 91.3273 25.1594 91.3273C23.5781 91.3273 22.5542 90.2664 22.5542 88.664C22.5542 87.0444 23.5781 85.9893 25.1594 85.9893ZM25.1594 90.278C26.1093 90.278 26.3938 89.4624 26.3938 88.664C26.3938 87.8484 26.1093 87.0386 25.1594 87.0386C24.2209 87.0386 23.9364 87.8542 23.9364 88.664C23.9364 89.4681 24.2209 90.278 25.1594 90.278Z" fill="#A1A1A3"/>
<path d="M28.6346 86.1142H29.9542V87.0557H29.977C30.2273 86.417 30.9156 85.9775 31.5868 85.9775C31.6835 85.9775 31.803 85.9948 31.8883 86.0228V87.3174C31.7632 87.2894 31.5584 87.2721 31.3877 87.2721C30.3695 87.2721 30.0168 88.0079 30.0168 88.8976V91.1789H28.6289V86.1142H28.6346Z" fill="#A1A1A3"/>
<path d="M32.2981 87.683C32.3777 86.3769 33.5382 85.9893 34.6758 85.9893C35.6827 85.9893 36.8943 86.2115 36.8943 87.4262V90.0615C36.8943 90.5232 36.9398 90.9792 37.0706 91.1907H35.6599C35.6144 91.031 35.5689 90.8656 35.5632 90.7002C35.1252 91.1619 34.4824 91.3273 33.8624 91.3273C32.9068 91.3273 32.1445 90.8483 32.1445 89.8105C32.1445 88.664 33.0035 88.39 33.8624 88.2706C34.7157 88.1447 35.5063 88.1735 35.5063 87.6032C35.5063 87.004 35.0911 86.9184 34.6076 86.9184C34.0786 86.9184 33.7373 87.1357 33.6861 87.683H32.2981ZM35.5063 88.7093C35.2675 88.9151 34.784 88.9266 34.3516 89.0064C33.9193 89.092 33.5325 89.2401 33.5325 89.7529C33.5325 90.2722 33.9307 90.3973 34.3857 90.3973C35.4665 90.3973 35.512 89.5364 35.512 89.2344V88.7093H35.5063Z" fill="#A1A1A3"/>
<path d="M39.6985 86.1253H40.7167V87.0553H39.6985V89.5647C39.6985 90.0379 39.818 90.1515 40.2844 90.1515C40.4323 90.1515 40.5689 90.1399 40.7167 90.112V91.2008C40.4835 91.2411 40.1763 91.2527 39.9033 91.2527C39.0558 91.2527 38.3106 91.0527 38.3106 90.0494V87.0611H37.4688V86.1311H38.3106V84.6143H39.6985V86.1253Z" fill="#A1A1A3"/>
<path d="M43.1458 85.3447H41.7578V84.1982H43.1458V85.3447ZM41.7578 86.1257H43.1458V91.1897H41.7578V86.1257Z" fill="#A1A1A3"/>
<path d="M46.6893 85.9893C48.282 85.9893 49.3116 87.0444 49.3116 88.664C49.3116 90.2722 48.282 91.3273 46.6893 91.3273C45.1079 91.3273 44.084 90.2664 44.084 88.664C44.0783 87.0444 45.1079 85.9893 46.6893 85.9893ZM46.6893 90.278C47.6392 90.278 47.9237 89.4624 47.9237 88.664C47.9237 87.8484 47.6392 87.0386 46.6893 87.0386C45.7507 87.0386 45.4663 87.8542 45.4663 88.664C45.4663 89.4681 45.7507 90.278 46.6893 90.278Z" fill="#A1A1A3"/>
<path d="M50.2046 86.1259H51.5243V86.8337H51.5527C51.9054 86.2633 52.5084 85.9893 53.1 85.9893C54.5732 85.9893 54.9486 86.8221 54.9486 88.0764V91.1907H53.5607V88.3274C53.5607 87.4945 53.3161 87.0839 52.6734 87.0839C51.9168 87.0839 51.5982 87.5061 51.5982 88.5381V91.1956H50.2103V86.1259H50.2046Z" fill="#A1A1A3"/>
</g>
<defs>
<clipPath id="clip0_54_675">
<rect width="55" height="93" fill="white"/>
</clipPath>
</defs>
</svg>
