<svg width="77" height="514" viewBox="0 0 77 514" fill="none" xmlns="http://www.w3.org/2000/svg">
<path d="M2.73 485.23C2.73 476.137 7.57 471.59 17.25 471.59L75 471.59L75 486.99L51.13 486.99L51.13 498.1L75 498.1L75 513.5L17.25 513.5C7.57 513.5 2.73 508.953 2.73 499.86L2.73 485.23ZM39.25 498.1L39.25 486.99L15.38 486.99C14.7933 486.99 14.28 487.21 13.84 487.65C13.4 488.017 13.18 488.493 13.18 489.08L13.18 496.01C13.18 496.597 13.4 497.11 13.84 497.55C14.28 497.917 14.7933 498.1 15.38 498.1L39.25 498.1ZM42.44 420.951L42.44 435.691L32.98 435.691C32.3933 435.691 31.88 435.911 31.44 436.351C31 436.718 30.78 437.195 30.78 437.781L30.78 443.831C30.78 444.418 31 444.931 31.44 445.371C31.88 445.738 32.3933 445.921 32.98 445.921L63.34 445.921C63.9267 445.921 64.44 445.738 64.88 445.371C65.32 444.931 65.54 444.418 65.54 443.831L65.54 437.781C65.54 437.195 65.32 436.718 64.88 436.351C64.44 435.911 63.9267 435.691 63.34 435.691L53.88 435.691L53.88 420.951L61.58 420.951C71.26 420.951 76.1 425.498 76.1 434.591L76.1 447.021C76.1 456.115 71.26 460.661 61.58 460.661L34.74 460.661C25.06 460.661 20.22 456.115 20.22 447.021L20.22 434.591C20.22 425.498 25.06 420.951 34.74 420.951L42.44 420.951ZM75 396.83L75 411.57L3.82999 411.57L3.82999 396.83L22.86 396.83C21.1 394.63 20.22 391.623 20.22 387.81L20.22 385.5C20.22 376.406 25.06 371.86 34.74 371.86L75 371.86L75 386.6L32.98 386.6C32.3933 386.6 31.88 386.82 31.44 387.26C31 387.626 30.78 388.103 30.78 388.69L30.78 394.74C30.78 395.986 31.44 396.683 32.76 396.83L75 396.83ZM14.61 346.873C16.15 348.413 16.92 350.283 16.92 352.483C16.92 354.683 16.15 356.59 14.61 358.203C12.9967 359.817 11.09 360.623 8.88999 360.623C6.61666 360.623 4.70999 359.817 3.16999 358.203C1.55666 356.59 0.749992 354.683 0.749991 352.483C0.749991 350.283 1.55666 348.413 3.16999 346.873C4.70999 345.26 6.61666 344.453 8.88999 344.453C11.1633 344.453 13.07 345.26 14.61 346.873ZM75 359.853L21.32 359.853L21.32 345.113L75 345.113L75 359.853ZM21.32 310.013L21.32 295.713L75 307.483L75 326.953L21.32 338.723L21.32 324.423L63.01 317.163L21.32 310.013ZM20.22 263.253C20.22 254.16 25.06 249.613 34.74 249.613L52.12 249.613L52.12 274.583L63.34 274.583C63.9267 274.583 64.44 274.4 64.88 274.033C65.32 273.593 65.54 273.08 65.54 272.493L65.54 266.443C65.54 265.857 65.32 265.38 64.88 265.013C64.44 264.573 63.9267 264.353 63.34 264.353L57.4 264.353L57.4 249.613L61.58 249.613C71.26 249.613 76.1 254.16 76.1 263.253L76.1 275.683C76.1 284.777 71.26 289.323 61.58 289.323L34.74 289.323C25.06 289.323 20.22 284.777 20.22 275.683L20.22 263.253ZM42.44 274.583L42.44 264.353L32.54 264.353C31.9533 264.353 31.44 264.573 31 265.013C30.56 265.38 30.34 265.857 30.34 266.443L30.34 272.493C30.34 273.08 30.56 273.593 31 274.033C31.44 274.4 31.9533 274.583 32.54 274.583L42.44 274.583ZM20.22 193.121C20.22 184.027 25.06 179.481 34.74 179.481L75 179.481L75 194.221L32.98 194.221C32.3933 194.221 31.88 194.441 31.44 194.881C31 195.247 30.78 195.724 30.78 196.311L30.78 201.041C30.78 201.627 31 202.141 31.44 202.581C31.88 202.947 32.3933 203.131 32.98 203.131L75 203.131L75 217.871L32.98 217.871C32.3933 217.871 31.88 218.091 31.44 218.531C31 218.897 30.78 219.374 30.78 219.961L30.78 224.691C30.78 225.277 31 225.791 31.44 226.231C31.88 226.597 32.3933 226.781 32.98 226.781L75 226.781L75 241.521L21.32 241.521L21.32 228.101L24.07 228.101C21.5033 225.827 20.22 222.381 20.22 217.761L20.22 216.771C20.22 211.344 21.9067 207.567 25.28 205.441C21.9067 203.167 20.22 199.391 20.22 194.111L20.22 193.121ZM20.22 142.726C20.22 133.633 25.06 129.086 34.74 129.086L52.12 129.086L52.12 154.056L63.34 154.056C63.9267 154.056 64.44 153.873 64.88 153.506C65.32 153.066 65.54 152.553 65.54 151.966L65.54 145.916C65.54 145.329 65.32 144.853 64.88 144.486C64.44 144.046 63.9266 143.826 63.34 143.826L57.4 143.826L57.4 129.086L61.58 129.086C71.26 129.086 76.1 133.633 76.1 142.726L76.1 155.156C76.1 164.249 71.26 168.796 61.58 168.796L34.74 168.796C25.06 168.796 20.22 164.249 20.22 155.156L20.22 142.726ZM42.44 154.056L42.44 143.826L32.54 143.826C31.9533 143.826 31.44 144.046 31 144.486C30.56 144.853 30.34 145.329 30.34 145.916L30.34 151.966C30.34 152.553 30.56 153.066 31 153.506C31.44 153.873 31.9533 154.056 32.54 154.056L42.44 154.056ZM75 106.253L75 120.993L21.32 120.993L21.32 107.573L24.07 107.573C21.5033 105.3 20.22 101.853 20.22 97.2334L20.22 94.9234C20.22 85.83 25.06 81.2834 34.74 81.2834L75 81.2834L75 96.0234L32.98 96.0234C32.3933 96.0234 31.88 96.2434 31.44 96.6834C31 97.05 30.78 97.5267 30.78 98.1134L30.78 104.163C30.78 104.75 31 105.263 31.44 105.703C31.88 106.07 32.3933 106.253 32.98 106.253L75 106.253ZM66.53 51.677L66.53 47.277L76.1 47.277L76.1 57.617C76.1 66.7104 71.26 71.257 61.58 71.257L9.65998 71.257L9.65998 56.517L21.32 56.517L21.32 47.277L31.99 47.277L31.99 56.517L61.25 56.517C63.3033 56.517 64.6966 56.1137 65.43 55.307C66.1633 54.5004 66.53 53.2904 66.53 51.677ZM41.34 14.2676C41.34 5.17424 46.18 0.627573 55.86 0.627572L61.58 0.627572C71.26 0.627571 76.1 5.17424 76.1 14.2676L76.1 26.4776C76.1 35.5709 71.26 40.1176 61.58 40.1176L58.17 40.1176L58.17 26.4776L63.01 26.4776C63.5966 26.4776 64.11 26.2942 64.55 25.9276C64.99 25.4876 65.21 24.9742 65.21 24.3876L65.21 15.3676C65.21 14.7809 64.99 14.3042 64.55 13.9376C64.11 13.4976 63.5966 13.2776 63.01 13.2776L56.41 13.2776C55.8233 13.2776 55.31 13.4976 54.87 13.9376C54.43 14.3042 54.21 14.7809 54.21 15.3676L54.21 26.6976C54.21 35.7909 49.37 40.3376 39.69 40.3376L34.74 40.3376C25.06 40.3376 20.22 35.7909 20.22 26.6976L20.22 15.1476C20.22 6.05424 25.06 1.50757 34.74 1.50757L36.72 1.50757L36.72 15.1476L33.31 15.1476C32.7233 15.1476 32.21 15.3676 31.77 15.8076C31.33 16.1742 31.11 16.6509 31.11 17.2376L31.11 25.5976C31.11 26.1842 31.33 26.6976 31.77 27.1376C32.21 27.5042 32.7233 27.6876 33.31 27.6876L39.14 27.6876C39.7266 27.6876 40.24 27.5042 40.68 27.1376C41.12 26.6976 41.34 26.1842 41.34 25.5976L41.34 14.2676Z" fill="#212121"/>
</svg>
