<svg width="116" height="48" viewBox="0 0 116 48" fill="none" xmlns="http://www.w3.org/2000/svg">
<rect x="68.5" y="0.5" width="47" height="47" stroke="#FFB533"/>
<path d="M90.3814 32.9084L91.5553 33.9542C92.0524 34.397 92.8561 34.397 93.3479 33.9542L103.627 24.8014C104.124 24.3586 104.124 23.6425 103.627 23.2045L93.3479 14.0469C92.8508 13.6041 92.0471 13.6041 91.5553 14.0469L90.3814 15.0927C89.8791 15.5402 89.8897 16.2704 90.4026 16.7085L96.7743 22.1163H81.5774C80.8741 22.1163 80.3083 22.6203 80.3083 23.2469V24.7543C80.3083 25.3808 80.8741 25.8848 81.5774 25.8848H96.7743L90.4026 31.2927C89.8844 31.7307 89.8738 32.4609 90.3814 32.9084Z" fill="#FFB533"/>
<rect x="0.5" y="0.5" width="47" height="47" stroke="#626262"/>
<path d="M25.9272 32.9084L24.7533 33.9542C24.2562 34.397 23.4525 34.397 22.9607 33.9542L12.6814 24.8014C12.1843 24.3586 12.1843 23.6425 12.6814 23.2045L22.9607 14.0469C23.4578 13.6041 24.2615 13.6041 24.7533 14.0469L25.9272 15.0927C26.4295 15.5402 26.4189 16.2704 25.906 16.7085L19.5343 22.1163H34.7312C35.4345 22.1163 36.0003 22.6203 36.0003 23.2469V24.7543C36.0003 25.3808 35.4345 25.8848 34.7312 25.8848H19.5343L25.906 31.2927C26.4242 31.7307 26.4348 32.4609 25.9272 32.9084Z" fill="#626262"/>
</svg>
