<svg width="173" height="65" viewBox="0 0 173 65" fill="none" xmlns="http://www.w3.org/2000/svg">
<path d="M10.8105 15.7148V18H3.24219V15.7148H10.8105ZM4.19922 3.78125V18H1.26953V3.78125H4.19922ZM9.82422 9.57227V11.7988H3.24219V9.57227H9.82422ZM10.8008 3.78125V6.07617H3.24219V3.78125H10.8008ZM18.418 15.4707V7.43359H21.2305V18H18.584L18.418 15.4707ZM18.7305 13.3027L19.5605 13.2832C19.5605 13.9863 19.4792 14.6406 19.3164 15.2461C19.1536 15.8451 18.9095 16.3659 18.584 16.8086C18.2585 17.2448 17.8483 17.5866 17.3535 17.834C16.8587 18.0749 16.276 18.1953 15.6055 18.1953C15.0911 18.1953 14.6159 18.1237 14.1797 17.9805C13.75 17.8307 13.3789 17.5996 13.0664 17.2871C12.7604 16.9681 12.5195 16.5612 12.3438 16.0664C12.1745 15.5651 12.0898 14.9629 12.0898 14.2598V7.43359H14.9023V14.2793C14.9023 14.5918 14.9382 14.8555 15.0098 15.0703C15.0879 15.2852 15.1953 15.4609 15.332 15.5977C15.4688 15.7344 15.6283 15.832 15.8105 15.8906C15.9993 15.9492 16.2077 15.9785 16.4355 15.9785C17.015 15.9785 17.4707 15.8613 17.8027 15.627C18.1413 15.3926 18.3789 15.0736 18.5156 14.6699C18.6589 14.2598 18.7305 13.804 18.7305 13.3027ZM26.1914 9.73828V18H23.3789V7.43359H26.0254L26.1914 9.73828ZM29.375 7.36523L29.3262 9.97266C29.1895 9.95312 29.0234 9.93685 28.8281 9.92383C28.6393 9.9043 28.4668 9.89453 28.3105 9.89453C27.9134 9.89453 27.5684 9.94661 27.2754 10.0508C26.9889 10.1484 26.748 10.2949 26.5527 10.4902C26.3639 10.6855 26.2207 10.9232 26.123 11.2031C26.0319 11.4831 25.9798 11.8021 25.9668 12.1602L25.4004 11.9844C25.4004 11.3008 25.4688 10.6725 25.6055 10.0996C25.7422 9.52018 25.9408 9.01562 26.2012 8.58594C26.4681 8.15625 26.7936 7.82422 27.1777 7.58984C27.5618 7.35547 28.0013 7.23828 28.4961 7.23828C28.6523 7.23828 28.8118 7.2513 28.9746 7.27734C29.1374 7.29688 29.2708 7.32617 29.375 7.36523ZM29.9609 12.8242V12.6191C29.9609 11.8444 30.0716 11.1315 30.293 10.4805C30.5143 9.82292 30.8366 9.25326 31.2598 8.77148C31.6829 8.28971 32.2038 7.91536 32.8223 7.64844C33.4408 7.375 34.1504 7.23828 34.9512 7.23828C35.752 7.23828 36.4648 7.375 37.0898 7.64844C37.7148 7.91536 38.2389 8.28971 38.6621 8.77148C39.0918 9.25326 39.4173 9.82292 39.6387 10.4805C39.86 11.1315 39.9707 11.8444 39.9707 12.6191V12.8242C39.9707 13.5924 39.86 14.3053 39.6387 14.9629C39.4173 15.6139 39.0918 16.1836 38.6621 16.6719C38.2389 17.1536 37.7181 17.528 37.0996 17.7949C36.4811 18.0618 35.7715 18.1953 34.9707 18.1953C34.1699 18.1953 33.457 18.0618 32.832 17.7949C32.2135 17.528 31.6895 17.1536 31.2598 16.6719C30.8366 16.1836 30.5143 15.6139 30.293 14.9629C30.0716 14.3053 29.9609 13.5924 29.9609 12.8242ZM32.7734 12.6191V12.8242C32.7734 13.2669 32.8125 13.6803 32.8906 14.0645C32.9688 14.4486 33.0924 14.7871 33.2617 15.0801C33.4375 15.3665 33.6654 15.5911 33.9453 15.7539C34.2253 15.9167 34.5671 15.998 34.9707 15.998C35.3613 15.998 35.6966 15.9167 35.9766 15.7539C36.2565 15.5911 36.4811 15.3665 36.6504 15.0801C36.8197 14.7871 36.9434 14.4486 37.0215 14.0645C37.1061 13.6803 37.1484 13.2669 37.1484 12.8242V12.6191C37.1484 12.1895 37.1061 11.7858 37.0215 11.4082C36.9434 11.0241 36.8164 10.6855 36.6406 10.3926C36.4714 10.0931 36.2467 9.85872 35.9668 9.68945C35.6868 9.52018 35.3483 9.43555 34.9512 9.43555C34.554 9.43555 34.2155 9.52018 33.9355 9.68945C33.6621 9.85872 33.4375 10.0931 33.2617 10.3926C33.0924 10.6855 32.9688 11.0241 32.8906 11.4082C32.8125 11.7858 32.7734 12.1895 32.7734 12.6191ZM44.5117 9.46484V22.0625H41.6992V7.43359H44.3066L44.5117 9.46484ZM51.2012 12.5996V12.8047C51.2012 13.5729 51.11 14.2858 50.9277 14.9434C50.752 15.6009 50.4915 16.1738 50.1465 16.6621C49.8014 17.1439 49.3717 17.5215 48.8574 17.7949C48.3496 18.0618 47.7637 18.1953 47.0996 18.1953C46.4551 18.1953 45.8952 18.0651 45.4199 17.8047C44.9447 17.5443 44.5443 17.1797 44.2188 16.7109C43.8997 16.2357 43.6426 15.6855 43.4473 15.0605C43.252 14.4355 43.1022 13.765 42.998 13.0488V12.5117C43.1022 11.7435 43.252 11.0404 43.4473 10.4023C43.6426 9.75781 43.8997 9.20117 44.2188 8.73242C44.5443 8.25716 44.9414 7.88932 45.4102 7.62891C45.8854 7.36849 46.4421 7.23828 47.0801 7.23828C47.7507 7.23828 48.3398 7.36523 48.8477 7.61914C49.362 7.87305 49.7917 8.23763 50.1367 8.71289C50.4883 9.18815 50.752 9.75456 50.9277 10.4121C51.11 11.0697 51.2012 11.7988 51.2012 12.5996ZM48.3789 12.8047V12.5996C48.3789 12.1504 48.3398 11.737 48.2617 11.3594C48.1901 10.9753 48.0729 10.64 47.9102 10.3535C47.7539 10.0671 47.5456 9.8457 47.2852 9.68945C47.0312 9.52669 46.722 9.44531 46.3574 9.44531C45.9733 9.44531 45.6445 9.50716 45.3711 9.63086C45.1042 9.75456 44.8861 9.93359 44.7168 10.168C44.5475 10.4023 44.4206 10.6823 44.3359 11.0078C44.2513 11.3333 44.1992 11.7012 44.1797 12.1113V13.4688C44.2122 13.9505 44.3034 14.3835 44.4531 14.7676C44.6029 15.1452 44.834 15.4447 45.1465 15.666C45.459 15.8874 45.8691 15.998 46.377 15.998C46.748 15.998 47.0605 15.9167 47.3145 15.7539C47.5684 15.5846 47.7734 15.3535 47.9297 15.0605C48.0924 14.7676 48.2064 14.429 48.2715 14.0449C48.3431 13.6608 48.3789 13.2474 48.3789 12.8047ZM57.8125 18.1953C56.9922 18.1953 56.2565 18.0651 55.6055 17.8047C54.9544 17.5378 54.401 17.1699 53.9453 16.7012C53.4961 16.2324 53.151 15.6888 52.9102 15.0703C52.6693 14.4453 52.5488 13.7812 52.5488 13.0781V12.6875C52.5488 11.8867 52.6628 11.1543 52.8906 10.4902C53.1185 9.82617 53.444 9.25 53.8672 8.76172C54.2969 8.27344 54.8177 7.89909 55.4297 7.63867C56.0417 7.37174 56.7318 7.23828 57.5 7.23828C58.2487 7.23828 58.9128 7.36198 59.4922 7.60938C60.0716 7.85677 60.5566 8.20833 60.9473 8.66406C61.3444 9.11979 61.6439 9.66667 61.8457 10.3047C62.0475 10.9362 62.1484 11.6393 62.1484 12.4141V13.5859H53.75V11.7109H59.3848V11.4961C59.3848 11.1055 59.3132 10.7572 59.1699 10.4512C59.0332 10.1387 58.8249 9.89128 58.5449 9.70898C58.265 9.52669 57.9069 9.43555 57.4707 9.43555C57.0996 9.43555 56.7806 9.51693 56.5137 9.67969C56.2467 9.84245 56.0286 10.0703 55.8594 10.3633C55.6966 10.6562 55.5729 11.0013 55.4883 11.3984C55.4102 11.7891 55.3711 12.2188 55.3711 12.6875V13.0781C55.3711 13.5013 55.4297 13.8919 55.5469 14.25C55.6706 14.6081 55.8431 14.9173 56.0645 15.1777C56.2923 15.4382 56.5658 15.64 56.8848 15.7832C57.2103 15.9264 57.5781 15.998 57.9883 15.998C58.4961 15.998 58.9681 15.9004 59.4043 15.7051C59.847 15.5033 60.2279 15.2005 60.5469 14.7969L61.9141 16.2812C61.6927 16.6003 61.39 16.9062 61.0059 17.1992C60.6283 17.4922 60.1725 17.7331 59.6387 17.9219C59.1048 18.1042 58.4961 18.1953 57.8125 18.1953ZM69.4531 15.6172V10.9102C69.4531 10.5716 69.3978 10.2819 69.2871 10.041C69.1764 9.79362 69.0039 9.60156 68.7695 9.46484C68.5417 9.32812 68.2454 9.25977 67.8809 9.25977C67.5684 9.25977 67.2982 9.3151 67.0703 9.42578C66.8424 9.52995 66.6667 9.68294 66.543 9.88477C66.4193 10.0801 66.3574 10.3112 66.3574 10.5781H63.5449C63.5449 10.1289 63.6491 9.70247 63.8574 9.29883C64.0658 8.89518 64.3685 8.54036 64.7656 8.23438C65.1628 7.92188 65.6348 7.67773 66.1816 7.50195C66.735 7.32617 67.3535 7.23828 68.0371 7.23828C68.8574 7.23828 69.5866 7.375 70.2246 7.64844C70.8626 7.92188 71.3639 8.33203 71.7285 8.87891C72.0996 9.42578 72.2852 10.1094 72.2852 10.9297V15.4512C72.2852 16.0306 72.321 16.5059 72.3926 16.877C72.4642 17.2415 72.5684 17.5605 72.7051 17.834V18H69.8633C69.7266 17.7135 69.6224 17.3555 69.5508 16.9258C69.4857 16.4896 69.4531 16.0534 69.4531 15.6172ZM69.8242 11.5645L69.8438 13.1562H68.2715C67.9004 13.1562 67.5781 13.1986 67.3047 13.2832C67.0312 13.3678 66.8066 13.4883 66.6309 13.6445C66.4551 13.7943 66.3249 13.9701 66.2402 14.1719C66.1621 14.3737 66.123 14.5951 66.123 14.8359C66.123 15.0768 66.1784 15.2949 66.2891 15.4902C66.3997 15.679 66.5592 15.8288 66.7676 15.9395C66.9759 16.0436 67.2201 16.0957 67.5 16.0957C67.9232 16.0957 68.291 16.0111 68.6035 15.8418C68.916 15.6725 69.1569 15.4642 69.3262 15.2168C69.502 14.9694 69.5931 14.735 69.5996 14.5137L70.3418 15.7051C70.2376 15.972 70.0944 16.2487 69.9121 16.5352C69.7363 16.8216 69.5117 17.0918 69.2383 17.3457C68.9648 17.5931 68.6361 17.7982 68.252 17.9609C67.8678 18.1172 67.4121 18.1953 66.8848 18.1953C66.2142 18.1953 65.6055 18.0618 65.0586 17.7949C64.5182 17.5215 64.0885 17.1471 63.7695 16.6719C63.457 16.1901 63.3008 15.6432 63.3008 15.0312C63.3008 14.4779 63.4049 13.9863 63.6133 13.5566C63.8216 13.127 64.1276 12.7656 64.5312 12.4727C64.9414 12.1732 65.4525 11.9486 66.0645 11.7988C66.6764 11.6426 67.3861 11.5645 68.1934 11.5645H69.8242ZM77.207 9.68945V18H74.3945V7.43359H77.0312L77.207 9.68945ZM76.7969 12.3457H76.0352C76.0352 11.5645 76.1361 10.8613 76.3379 10.2363C76.5397 9.60482 76.8229 9.06771 77.1875 8.625C77.5521 8.17578 77.985 7.83398 78.4863 7.59961C78.9941 7.35872 79.5605 7.23828 80.1855 7.23828C80.6803 7.23828 81.1328 7.3099 81.543 7.45312C81.9531 7.59635 82.3047 7.82422 82.5977 8.13672C82.8971 8.44922 83.125 8.86263 83.2812 9.37695C83.444 9.89128 83.5254 10.5195 83.5254 11.2617V18H80.6934V11.252C80.6934 10.7832 80.6283 10.4186 80.498 10.1582C80.3678 9.89779 80.1758 9.71549 79.9219 9.61133C79.6745 9.50065 79.3685 9.44531 79.0039 9.44531C78.6263 9.44531 78.2975 9.52018 78.0176 9.66992C77.7441 9.81966 77.5163 10.028 77.334 10.2949C77.1582 10.5553 77.0247 10.8613 76.9336 11.2129C76.8424 11.5645 76.7969 11.9421 76.7969 12.3457ZM6.83594 34.7598H3.18359L3.16406 32.748H6.23047C6.77083 32.748 7.21354 32.6797 7.55859 32.543C7.90365 32.3997 8.16081 32.1947 8.33008 31.9277C8.50586 31.6543 8.59375 31.3223 8.59375 30.9316C8.59375 30.4889 8.50911 30.1309 8.33984 29.8574C8.17708 29.584 7.91992 29.3854 7.56836 29.2617C7.22331 29.138 6.77734 29.0762 6.23047 29.0762H4.19922V41H1.26953V26.7812H6.23047C7.05729 26.7812 7.79622 26.8594 8.44727 27.0156C9.10482 27.1719 9.66146 27.4095 10.1172 27.7285C10.5729 28.0475 10.9212 28.4512 11.1621 28.9395C11.403 29.4212 11.5234 29.9941 11.5234 30.6582C11.5234 31.2441 11.39 31.7845 11.123 32.2793C10.8626 32.7741 10.4492 33.1777 9.88281 33.4902C9.32292 33.8027 8.59049 33.9753 7.68555 34.0078L6.83594 34.7598ZM6.70898 41H2.38281L3.52539 38.7148H6.70898C7.22331 38.7148 7.64323 38.6335 7.96875 38.4707C8.29427 38.3014 8.53516 38.0736 8.69141 37.7871C8.84766 37.5007 8.92578 37.1719 8.92578 36.8008C8.92578 36.3841 8.85417 36.0228 8.71094 35.7168C8.57422 35.4108 8.35286 35.1764 8.04688 35.0137C7.74089 34.8444 7.33724 34.7598 6.83594 34.7598H4.01367L4.0332 32.748H7.54883L8.22266 33.5391C9.08854 33.526 9.78516 33.679 10.3125 33.998C10.8464 34.3105 11.2337 34.7174 11.4746 35.2188C11.722 35.7201 11.8457 36.2572 11.8457 36.8301C11.8457 37.7415 11.6471 38.5098 11.25 39.1348C10.8529 39.7533 10.2702 40.2188 9.50195 40.5312C8.74023 40.8438 7.80924 41 6.70898 41ZM20.1172 38.4707V30.4336H22.9297V41H20.2832L20.1172 38.4707ZM20.4297 36.3027L21.2598 36.2832C21.2598 36.9863 21.1784 37.6406 21.0156 38.2461C20.8529 38.8451 20.6087 39.3659 20.2832 39.8086C19.9577 40.2448 19.5475 40.5866 19.0527 40.834C18.5579 41.0749 17.9753 41.1953 17.3047 41.1953C16.7904 41.1953 16.3151 41.1237 15.8789 40.9805C15.4492 40.8307 15.0781 40.5996 14.7656 40.2871C14.4596 39.9681 14.2188 39.5612 14.043 39.0664C13.8737 38.5651 13.7891 37.9629 13.7891 37.2598V30.4336H16.6016V37.2793C16.6016 37.5918 16.6374 37.8555 16.709 38.0703C16.7871 38.2852 16.8945 38.4609 17.0312 38.5977C17.168 38.7344 17.3275 38.832 17.5098 38.8906C17.6986 38.9492 17.9069 38.9785 18.1348 38.9785C18.7142 38.9785 19.1699 38.8613 19.502 38.627C19.8405 38.3926 20.0781 38.0736 20.2148 37.6699C20.3581 37.2598 20.4297 36.804 20.4297 36.3027ZM30.791 38.0801C30.791 37.8783 30.7324 37.696 30.6152 37.5332C30.498 37.3704 30.2799 37.2207 29.9609 37.084C29.6484 36.9408 29.196 36.8105 28.6035 36.6934C28.0697 36.5762 27.5716 36.4297 27.1094 36.2539C26.6536 36.0716 26.2565 35.8535 25.918 35.5996C25.5859 35.3457 25.3255 35.0462 25.1367 34.7012C24.9479 34.3496 24.8535 33.9492 24.8535 33.5C24.8535 33.0573 24.9479 32.6406 25.1367 32.25C25.332 31.8594 25.6087 31.5143 25.9668 31.2148C26.3314 30.9089 26.7741 30.6712 27.2949 30.502C27.8223 30.3262 28.4147 30.2383 29.0723 30.2383C29.9902 30.2383 30.778 30.3848 31.4355 30.6777C32.0996 30.9707 32.6074 31.3743 32.959 31.8887C33.3171 32.3965 33.4961 32.9759 33.4961 33.627H30.6836C30.6836 33.3535 30.625 33.1094 30.5078 32.8945C30.3971 32.6732 30.2214 32.5007 29.9805 32.377C29.7461 32.2467 29.4401 32.1816 29.0625 32.1816C28.75 32.1816 28.4798 32.237 28.252 32.3477C28.0241 32.4518 27.8483 32.5951 27.7246 32.7773C27.6074 32.9531 27.5488 33.1484 27.5488 33.3633C27.5488 33.526 27.5814 33.6725 27.6465 33.8027C27.7181 33.9264 27.832 34.0404 27.9883 34.1445C28.1445 34.2487 28.3464 34.3464 28.5938 34.4375C28.8477 34.5221 29.1602 34.6003 29.5312 34.6719C30.293 34.8281 30.9733 35.0332 31.5723 35.2871C32.1712 35.5345 32.6465 35.873 32.998 36.3027C33.3496 36.7259 33.5254 37.2826 33.5254 37.9727C33.5254 38.4414 33.4212 38.8711 33.2129 39.2617C33.0046 39.6523 32.7051 39.9941 32.3145 40.2871C31.9238 40.5736 31.4551 40.7982 30.9082 40.9609C30.3678 41.1172 29.7591 41.1953 29.082 41.1953C28.099 41.1953 27.2656 41.0195 26.582 40.668C25.9049 40.3164 25.3906 39.8704 25.0391 39.3301C24.694 38.7832 24.5215 38.2233 24.5215 37.6504H27.1875C27.2005 38.0345 27.2982 38.3438 27.4805 38.5781C27.6693 38.8125 27.9069 38.9818 28.1934 39.0859C28.4863 39.1901 28.8021 39.2422 29.1406 39.2422C29.5052 39.2422 29.8079 39.1934 30.0488 39.0957C30.2897 38.9915 30.472 38.8548 30.5957 38.6855C30.7259 38.5098 30.791 38.3079 30.791 38.0801ZM38.3203 30.4336V41H35.498V30.4336H38.3203ZM35.3223 27.6797C35.3223 27.2695 35.4655 26.931 35.752 26.6641C36.0384 26.3971 36.4225 26.2637 36.9043 26.2637C37.3796 26.2637 37.7604 26.3971 38.0469 26.6641C38.3398 26.931 38.4863 27.2695 38.4863 27.6797C38.4863 28.0898 38.3398 28.4284 38.0469 28.6953C37.7604 28.9622 37.3796 29.0957 36.9043 29.0957C36.4225 29.0957 36.0384 28.9622 35.752 28.6953C35.4655 28.4284 35.3223 28.0898 35.3223 27.6797ZM43.3984 32.6895V41H40.5859V30.4336H43.2227L43.3984 32.6895ZM42.9883 35.3457H42.2266C42.2266 34.5645 42.3275 33.8613 42.5293 33.2363C42.7311 32.6048 43.0143 32.0677 43.3789 31.625C43.7435 31.1758 44.1764 30.834 44.6777 30.5996C45.1855 30.3587 45.752 30.2383 46.377 30.2383C46.8717 30.2383 47.3242 30.3099 47.7344 30.4531C48.1445 30.5964 48.4961 30.8242 48.7891 31.1367C49.0885 31.4492 49.3164 31.8626 49.4727 32.377C49.6354 32.8913 49.7168 33.5195 49.7168 34.2617V41H46.8848V34.252C46.8848 33.7832 46.8197 33.4186 46.6895 33.1582C46.5592 32.8978 46.3672 32.7155 46.1133 32.6113C45.8659 32.5007 45.5599 32.4453 45.1953 32.4453C44.8177 32.4453 44.4889 32.5202 44.209 32.6699C43.9355 32.8197 43.7077 33.028 43.5254 33.2949C43.3496 33.5553 43.2161 33.8613 43.125 34.2129C43.0339 34.5645 42.9883 34.9421 42.9883 35.3457ZM56.7188 41.1953C55.8984 41.1953 55.1628 41.0651 54.5117 40.8047C53.8607 40.5378 53.3073 40.1699 52.8516 39.7012C52.4023 39.2324 52.0573 38.6888 51.8164 38.0703C51.5755 37.4453 51.4551 36.7812 51.4551 36.0781V35.6875C51.4551 34.8867 51.569 34.1543 51.7969 33.4902C52.0247 32.8262 52.3503 32.25 52.7734 31.7617C53.2031 31.2734 53.724 30.8991 54.3359 30.6387C54.9479 30.3717 55.638 30.2383 56.4062 30.2383C57.1549 30.2383 57.819 30.362 58.3984 30.6094C58.9779 30.8568 59.4629 31.2083 59.8535 31.6641C60.2507 32.1198 60.5501 32.6667 60.752 33.3047C60.9538 33.9362 61.0547 34.6393 61.0547 35.4141V36.5859H52.6562V34.7109H58.291V34.4961C58.291 34.1055 58.2194 33.7572 58.0762 33.4512C57.9395 33.1387 57.7311 32.8913 57.4512 32.709C57.1712 32.5267 56.8132 32.4355 56.377 32.4355C56.0059 32.4355 55.6868 32.5169 55.4199 32.6797C55.153 32.8424 54.9349 33.0703 54.7656 33.3633C54.6029 33.6562 54.4792 34.0013 54.3945 34.3984C54.3164 34.7891 54.2773 35.2188 54.2773 35.6875V36.0781C54.2773 36.5013 54.3359 36.8919 54.4531 37.25C54.5768 37.6081 54.7493 37.9173 54.9707 38.1777C55.1986 38.4382 55.472 38.64 55.791 38.7832C56.1165 38.9264 56.4844 38.998 56.8945 38.998C57.4023 38.998 57.8743 38.9004 58.3105 38.7051C58.7533 38.5033 59.1341 38.2005 59.4531 37.7969L60.8203 39.2812C60.599 39.6003 60.2962 39.9062 59.9121 40.1992C59.5345 40.4922 59.0788 40.7331 58.5449 40.9219C58.0111 41.1042 57.4023 41.1953 56.7188 41.1953ZM68.3691 38.0801C68.3691 37.8783 68.3105 37.696 68.1934 37.5332C68.0762 37.3704 67.8581 37.2207 67.5391 37.084C67.2266 36.9408 66.7741 36.8105 66.1816 36.6934C65.6478 36.5762 65.1497 36.4297 64.6875 36.2539C64.2318 36.0716 63.8346 35.8535 63.4961 35.5996C63.1641 35.3457 62.9036 35.0462 62.7148 34.7012C62.526 34.3496 62.4316 33.9492 62.4316 33.5C62.4316 33.0573 62.526 32.6406 62.7148 32.25C62.9102 31.8594 63.1868 31.5143 63.5449 31.2148C63.9095 30.9089 64.3522 30.6712 64.873 30.502C65.4004 30.3262 65.9928 30.2383 66.6504 30.2383C67.5684 30.2383 68.3561 30.3848 69.0137 30.6777C69.6777 30.9707 70.1855 31.3743 70.5371 31.8887C70.8952 32.3965 71.0742 32.9759 71.0742 33.627H68.2617C68.2617 33.3535 68.2031 33.1094 68.0859 32.8945C67.9753 32.6732 67.7995 32.5007 67.5586 32.377C67.3242 32.2467 67.0182 32.1816 66.6406 32.1816C66.3281 32.1816 66.0579 32.237 65.8301 32.3477C65.6022 32.4518 65.4264 32.5951 65.3027 32.7773C65.1855 32.9531 65.127 33.1484 65.127 33.3633C65.127 33.526 65.1595 33.6725 65.2246 33.8027C65.2962 33.9264 65.4102 34.0404 65.5664 34.1445C65.7227 34.2487 65.9245 34.3464 66.1719 34.4375C66.4258 34.5221 66.7383 34.6003 67.1094 34.6719C67.8711 34.8281 68.5514 35.0332 69.1504 35.2871C69.7493 35.5345 70.2246 35.873 70.5762 36.3027C70.9277 36.7259 71.1035 37.2826 71.1035 37.9727C71.1035 38.4414 70.9993 38.8711 70.791 39.2617C70.5827 39.6523 70.2832 39.9941 69.8926 40.2871C69.502 40.5736 69.0332 40.7982 68.4863 40.9609C67.946 41.1172 67.3372 41.1953 66.6602 41.1953C65.6771 41.1953 64.8438 41.0195 64.1602 40.668C63.4831 40.3164 62.9688 39.8704 62.6172 39.3301C62.2721 38.7832 62.0996 38.2233 62.0996 37.6504H64.7656C64.7786 38.0345 64.8763 38.3438 65.0586 38.5781C65.2474 38.8125 65.485 38.9818 65.7715 39.0859C66.0645 39.1901 66.3802 39.2422 66.7188 39.2422C67.0833 39.2422 67.3861 39.1934 67.627 39.0957C67.8678 38.9915 68.0501 38.8548 68.1738 38.6855C68.304 38.5098 68.3691 38.3079 68.3691 38.0801ZM78.6426 38.0801C78.6426 37.8783 78.584 37.696 78.4668 37.5332C78.3496 37.3704 78.1315 37.2207 77.8125 37.084C77.5 36.9408 77.0475 36.8105 76.4551 36.6934C75.9212 36.5762 75.4232 36.4297 74.9609 36.2539C74.5052 36.0716 74.1081 35.8535 73.7695 35.5996C73.4375 35.3457 73.1771 35.0462 72.9883 34.7012C72.7995 34.3496 72.7051 33.9492 72.7051 33.5C72.7051 33.0573 72.7995 32.6406 72.9883 32.25C73.1836 31.8594 73.4603 31.5143 73.8184 31.2148C74.1829 30.9089 74.6257 30.6712 75.1465 30.502C75.6738 30.3262 76.2663 30.2383 76.9238 30.2383C77.8418 30.2383 78.6296 30.3848 79.2871 30.6777C79.9512 30.9707 80.459 31.3743 80.8105 31.8887C81.1686 32.3965 81.3477 32.9759 81.3477 33.627H78.5352C78.5352 33.3535 78.4766 33.1094 78.3594 32.8945C78.2487 32.6732 78.0729 32.5007 77.832 32.377C77.5977 32.2467 77.2917 32.1816 76.9141 32.1816C76.6016 32.1816 76.3314 32.237 76.1035 32.3477C75.8757 32.4518 75.6999 32.5951 75.5762 32.7773C75.459 32.9531 75.4004 33.1484 75.4004 33.3633C75.4004 33.526 75.4329 33.6725 75.498 33.8027C75.5697 33.9264 75.6836 34.0404 75.8398 34.1445C75.9961 34.2487 76.1979 34.3464 76.4453 34.4375C76.6992 34.5221 77.0117 34.6003 77.3828 34.6719C78.1445 34.8281 78.8249 35.0332 79.4238 35.2871C80.0228 35.5345 80.498 35.873 80.8496 36.3027C81.2012 36.7259 81.377 37.2826 81.377 37.9727C81.377 38.4414 81.2728 38.8711 81.0645 39.2617C80.8561 39.6523 80.5566 39.9941 80.166 40.2871C79.7754 40.5736 79.3066 40.7982 78.7598 40.9609C78.2194 41.1172 77.6107 41.1953 76.9336 41.1953C75.9505 41.1953 75.1172 41.0195 74.4336 40.668C73.7565 40.3164 73.2422 39.8704 72.8906 39.3301C72.5456 38.7832 72.373 38.2233 72.373 37.6504H75.0391C75.0521 38.0345 75.1497 38.3438 75.332 38.5781C75.5208 38.8125 75.7585 38.9818 76.0449 39.0859C76.3379 39.1901 76.6536 39.2422 76.9922 39.2422C77.3568 39.2422 77.6595 39.1934 77.9004 39.0957C78.1413 38.9915 78.3236 38.8548 78.4473 38.6855C78.5775 38.5098 78.6426 38.3079 78.6426 38.0801ZM94.1406 29.2129L90.2734 41H87.1582L92.4414 26.7812H94.4238L94.1406 29.2129ZM97.3535 41L93.4766 29.2129L93.1641 26.7812H95.166L100.479 41H97.3535ZM97.1777 35.707V38.002H89.668V35.707H97.1777ZM104.307 38.2656L106.504 30.4336H108.291L107.715 33.5098L105.518 41H104.023L104.307 38.2656ZM103.193 30.4336L104.766 38.2559L104.912 41H103.154L100.479 30.4336H103.193ZM110.303 38.1289L111.836 30.4336H114.561L111.885 41H110.137L110.303 38.1289ZM108.535 30.4336L110.723 38.207L111.025 41H109.521L107.324 33.5195L106.768 30.4336H108.535ZM121.68 38.6172V33.9102C121.68 33.5716 121.624 33.2819 121.514 33.041C121.403 32.7936 121.23 32.6016 120.996 32.4648C120.768 32.3281 120.472 32.2598 120.107 32.2598C119.795 32.2598 119.525 32.3151 119.297 32.4258C119.069 32.5299 118.893 32.6829 118.77 32.8848C118.646 33.0801 118.584 33.3112 118.584 33.5781H115.771C115.771 33.1289 115.876 32.7025 116.084 32.2988C116.292 31.8952 116.595 31.5404 116.992 31.2344C117.389 30.9219 117.861 30.6777 118.408 30.502C118.962 30.3262 119.58 30.2383 120.264 30.2383C121.084 30.2383 121.813 30.375 122.451 30.6484C123.089 30.9219 123.59 31.332 123.955 31.8789C124.326 32.4258 124.512 33.1094 124.512 33.9297V38.4512C124.512 39.0306 124.548 39.5059 124.619 39.877C124.691 40.2415 124.795 40.5605 124.932 40.834V41H122.09C121.953 40.7135 121.849 40.3555 121.777 39.9258C121.712 39.4896 121.68 39.0534 121.68 38.6172ZM122.051 34.5645L122.07 36.1562H120.498C120.127 36.1562 119.805 36.1986 119.531 36.2832C119.258 36.3678 119.033 36.4883 118.857 36.6445C118.682 36.7943 118.551 36.9701 118.467 37.1719C118.389 37.3737 118.35 37.5951 118.35 37.8359C118.35 38.0768 118.405 38.2949 118.516 38.4902C118.626 38.679 118.786 38.8288 118.994 38.9395C119.202 39.0436 119.447 39.0957 119.727 39.0957C120.15 39.0957 120.518 39.0111 120.83 38.8418C121.143 38.6725 121.383 38.4642 121.553 38.2168C121.729 37.9694 121.82 37.735 121.826 37.5137L122.568 38.7051C122.464 38.972 122.321 39.2487 122.139 39.5352C121.963 39.8216 121.738 40.0918 121.465 40.3457C121.191 40.5931 120.863 40.7982 120.479 40.9609C120.094 41.1172 119.639 41.1953 119.111 41.1953C118.441 41.1953 117.832 41.0618 117.285 40.7949C116.745 40.5215 116.315 40.1471 115.996 39.6719C115.684 39.1901 115.527 38.6432 115.527 38.0312C115.527 37.4779 115.632 36.9863 115.84 36.5566C116.048 36.127 116.354 35.7656 116.758 35.4727C117.168 35.1732 117.679 34.9486 118.291 34.7988C118.903 34.6426 119.613 34.5645 120.42 34.5645H122.051ZM129.492 32.7383V41H126.68V30.4336H129.326L129.492 32.7383ZM132.676 30.3652L132.627 32.9727C132.49 32.9531 132.324 32.9368 132.129 32.9238C131.94 32.9043 131.768 32.8945 131.611 32.8945C131.214 32.8945 130.869 32.9466 130.576 33.0508C130.29 33.1484 130.049 33.2949 129.854 33.4902C129.665 33.6855 129.521 33.9232 129.424 34.2031C129.333 34.4831 129.281 34.8021 129.268 35.1602L128.701 34.9844C128.701 34.3008 128.77 33.6725 128.906 33.0996C129.043 32.5202 129.242 32.0156 129.502 31.5859C129.769 31.1562 130.094 30.8242 130.479 30.5898C130.863 30.3555 131.302 30.2383 131.797 30.2383C131.953 30.2383 132.113 30.2513 132.275 30.2773C132.438 30.2969 132.572 30.3262 132.676 30.3652ZM140.049 38.6953V26H142.881V41H140.332L140.049 38.6953ZM133.369 35.8438V35.6387C133.369 34.8314 133.46 34.099 133.643 33.4414C133.825 32.7773 134.092 32.2077 134.443 31.7324C134.795 31.2572 135.228 30.8893 135.742 30.6289C136.257 30.3685 136.842 30.2383 137.5 30.2383C138.118 30.2383 138.659 30.3685 139.121 30.6289C139.59 30.8893 139.987 31.2604 140.312 31.7422C140.645 32.2174 140.911 32.7806 141.113 33.4316C141.315 34.0762 141.462 34.7826 141.553 35.5508V36C141.462 36.7357 141.315 37.4193 141.113 38.0508C140.911 38.6823 140.645 39.2357 140.312 39.7109C139.987 40.1797 139.59 40.5443 139.121 40.8047C138.652 41.0651 138.105 41.1953 137.48 41.1953C136.823 41.1953 136.237 41.0618 135.723 40.7949C135.215 40.528 134.785 40.1536 134.434 39.6719C134.089 39.1901 133.825 38.6237 133.643 37.9727C133.46 37.3216 133.369 36.612 133.369 35.8438ZM136.182 35.6387V35.8438C136.182 36.2799 136.214 36.6868 136.279 37.0645C136.351 37.4421 136.465 37.7773 136.621 38.0703C136.784 38.3568 136.992 38.5814 137.246 38.7441C137.507 38.9004 137.822 38.9785 138.193 38.9785C138.675 38.9785 139.072 38.8711 139.385 38.6562C139.697 38.4349 139.935 38.1322 140.098 37.748C140.267 37.3639 140.365 36.9212 140.391 36.4199V35.1406C140.371 34.7305 140.312 34.3626 140.215 34.0371C140.124 33.7051 139.987 33.4219 139.805 33.1875C139.629 32.9531 139.408 32.7708 139.141 32.6406C138.88 32.5104 138.571 32.4453 138.213 32.4453C137.848 32.4453 137.536 32.5299 137.275 32.6992C137.015 32.862 136.803 33.0866 136.641 33.373C136.484 33.6595 136.367 33.998 136.289 34.3887C136.217 34.7728 136.182 35.1895 136.182 35.6387Z" fill="#FFB533"/>
<path d="M10.498 62.5156V64H1.19141V62.7012L5.84961 57.5156C6.42253 56.8776 6.86523 56.3372 7.17773 55.8945C7.49674 55.4453 7.7181 55.0449 7.8418 54.6934C7.97201 54.3353 8.03711 53.9707 8.03711 53.5996C8.03711 53.1309 7.93945 52.7077 7.74414 52.3301C7.55534 51.946 7.27539 51.64 6.9043 51.4121C6.5332 51.1842 6.08398 51.0703 5.55664 51.0703C4.92513 51.0703 4.39779 51.194 3.97461 51.4414C3.55794 51.6823 3.24544 52.0208 3.03711 52.457C2.82878 52.8932 2.72461 53.3945 2.72461 53.9609H0.917969C0.917969 53.1602 1.09375 52.4277 1.44531 51.7637C1.79688 51.0996 2.31771 50.5723 3.00781 50.1816C3.69792 49.7845 4.54753 49.5859 5.55664 49.5859C6.45508 49.5859 7.22331 49.7454 7.86133 50.0645C8.49935 50.377 8.98763 50.8197 9.32617 51.3926C9.67122 51.959 9.84375 52.623 9.84375 53.3848C9.84375 53.8014 9.77214 54.2246 9.62891 54.6543C9.49219 55.0775 9.30013 55.5007 9.05273 55.9238C8.81185 56.347 8.52865 56.7637 8.20312 57.1738C7.88411 57.584 7.54232 57.9876 7.17773 58.3848L3.36914 62.5156H10.498ZM54.1574 55.7578V57.9258C54.1574 59.0911 54.0533 60.0742 53.8449 60.875C53.6366 61.6758 53.3371 62.3203 52.9465 62.8086C52.5559 63.2969 52.0839 63.6517 51.5305 63.873C50.9836 64.0879 50.3651 64.1953 49.675 64.1953C49.1281 64.1953 48.6236 64.127 48.1613 63.9902C47.6991 63.8535 47.2824 63.6354 46.9113 63.3359C46.5467 63.0299 46.2342 62.6328 45.9738 62.1445C45.7134 61.6562 45.5148 61.0638 45.3781 60.3672C45.2414 59.6706 45.173 58.8568 45.173 57.9258V55.7578C45.173 54.5924 45.2772 53.6159 45.4855 52.8281C45.7004 52.0404 46.0031 51.4089 46.3937 50.9336C46.7844 50.4518 47.2531 50.1068 47.8 49.8984C48.3534 49.6901 48.9719 49.5859 49.6555 49.5859C50.2089 49.5859 50.7167 49.6543 51.1789 49.791C51.6477 49.9212 52.0643 50.1328 52.4289 50.4258C52.7935 50.7122 53.1027 51.0964 53.3566 51.5781C53.6171 52.0534 53.8156 52.6361 53.9523 53.3262C54.0891 54.0163 54.1574 54.8268 54.1574 55.7578ZM52.341 58.2188V55.4551C52.341 54.8171 52.302 54.2572 52.2238 53.7754C52.1522 53.2871 52.0448 52.8704 51.9016 52.5254C51.7583 52.1803 51.576 51.9004 51.3547 51.6855C51.1398 51.4707 50.8892 51.3145 50.6027 51.2168C50.3228 51.1126 50.007 51.0605 49.6555 51.0605C49.2258 51.0605 48.8449 51.1419 48.5129 51.3047C48.1809 51.4609 47.9009 51.7116 47.673 52.0566C47.4517 52.4017 47.2824 52.8542 47.1652 53.4141C47.048 53.974 46.9895 54.6543 46.9895 55.4551V58.2188C46.9895 58.8568 47.0253 59.4199 47.0969 59.9082C47.175 60.3965 47.2889 60.8197 47.4387 61.1777C47.5884 61.5293 47.7707 61.819 47.9855 62.0469C48.2004 62.2747 48.4478 62.444 48.7277 62.5547C49.0142 62.6589 49.3299 62.7109 49.675 62.7109C50.1177 62.7109 50.5051 62.6263 50.8371 62.457C51.1691 62.2878 51.4458 62.0241 51.6672 61.666C51.8951 61.3014 52.0643 60.8359 52.175 60.2695C52.2857 59.6966 52.341 59.013 52.341 58.2188ZM98.598 62.5156V64H89.2914V62.7012L93.9496 57.5156C94.5225 56.8776 94.9652 56.3372 95.2777 55.8945C95.5967 55.4453 95.8181 55.0449 95.9418 54.6934C96.072 54.3353 96.1371 53.9707 96.1371 53.5996C96.1371 53.1309 96.0395 52.7077 95.8441 52.3301C95.6553 51.946 95.3754 51.64 95.0043 51.4121C94.6332 51.1842 94.184 51.0703 93.6566 51.0703C93.0251 51.0703 92.4978 51.194 92.0746 51.4414C91.6579 51.6823 91.3454 52.0208 91.1371 52.457C90.9288 52.8932 90.8246 53.3945 90.8246 53.9609H89.018C89.018 53.1602 89.1937 52.4277 89.5453 51.7637C89.8969 51.0996 90.4177 50.5723 91.1078 50.1816C91.7979 49.7845 92.6475 49.5859 93.6566 49.5859C94.5551 49.5859 95.3233 49.7454 95.9613 50.0645C96.5993 50.377 97.0876 50.8197 97.4262 51.3926C97.7712 51.959 97.9437 52.623 97.9437 53.3848C97.9437 53.8014 97.8721 54.2246 97.7289 54.6543C97.5922 55.0775 97.4001 55.5007 97.1527 55.9238C96.9118 56.347 96.6286 56.7637 96.3031 57.1738C95.9841 57.584 95.6423 57.9876 95.2777 58.3848L91.4691 62.5156H98.598ZM142.257 55.7578V57.9258C142.257 59.0911 142.153 60.0742 141.945 60.875C141.737 61.6758 141.437 62.3203 141.046 62.8086C140.656 63.2969 140.184 63.6517 139.63 63.873C139.084 64.0879 138.465 64.1953 137.775 64.1953C137.228 64.1953 136.724 64.127 136.261 63.9902C135.799 63.8535 135.382 63.6354 135.011 63.3359C134.647 63.0299 134.334 62.6328 134.074 62.1445C133.813 61.6562 133.615 61.0638 133.478 60.3672C133.341 59.6706 133.273 58.8568 133.273 57.9258V55.7578C133.273 54.5924 133.377 53.6159 133.586 52.8281C133.8 52.0404 134.103 51.4089 134.494 50.9336C134.884 50.4518 135.353 50.1068 135.9 49.8984C136.453 49.6901 137.072 49.5859 137.755 49.5859C138.309 49.5859 138.817 49.6543 139.279 49.791C139.748 49.9212 140.164 50.1328 140.529 50.4258C140.893 50.7122 141.203 51.0964 141.457 51.5781C141.717 52.0534 141.916 52.6361 142.052 53.3262C142.189 54.0163 142.257 54.8268 142.257 55.7578ZM140.441 58.2188V55.4551C140.441 54.8171 140.402 54.2572 140.324 53.7754C140.252 53.2871 140.145 52.8704 140.002 52.5254C139.858 52.1803 139.676 51.9004 139.455 51.6855C139.24 51.4707 138.989 51.3145 138.703 51.2168C138.423 51.1126 138.107 51.0605 137.755 51.0605C137.326 51.0605 136.945 51.1419 136.613 51.3047C136.281 51.4609 136.001 51.7116 135.773 52.0566C135.552 52.4017 135.382 52.8542 135.265 53.4141C135.148 53.974 135.089 54.6543 135.089 55.4551V58.2188C135.089 58.8568 135.125 59.4199 135.197 59.9082C135.275 60.3965 135.389 60.8197 135.539 61.1777C135.688 61.5293 135.871 61.819 136.086 62.0469C136.3 62.2747 136.548 62.444 136.828 62.5547C137.114 62.6589 137.43 62.7109 137.775 62.7109C138.218 62.7109 138.605 62.6263 138.937 62.457C139.269 62.2878 139.546 62.0241 139.767 61.666C139.995 61.3014 140.164 60.8359 140.275 60.2695C140.386 59.6966 140.441 59.013 140.441 58.2188Z" fill="white"/>
<rect x="143" y="8" width="10" height="55" transform="rotate(90 143 8)" fill="#EAEAEA"/>
</svg>
