<svg width="140" height="16" viewBox="0 0 140 16" fill="none" xmlns="http://www.w3.org/2000/svg">
<path d="M10.498 13.5156V15H1.19141V13.7012L5.84961 8.51562C6.42253 7.8776 6.86523 7.33724 7.17773 6.89453C7.49674 6.44531 7.7181 6.04492 7.8418 5.69336C7.97201 5.33529 8.03711 4.9707 8.03711 4.59961C8.03711 4.13086 7.93945 3.70768 7.74414 3.33008C7.55534 2.94596 7.27539 2.63997 6.9043 2.41211C6.5332 2.18424 6.08398 2.07031 5.55664 2.07031C4.92513 2.07031 4.39779 2.19401 3.97461 2.44141C3.55794 2.68229 3.24544 3.02083 3.03711 3.45703C2.82878 3.89323 2.72461 4.39453 2.72461 4.96094H0.917969C0.917969 4.16016 1.09375 3.42773 1.44531 2.76367C1.79688 2.09961 2.31771 1.57227 3.00781 1.18164C3.69792 0.784505 4.54753 0.585938 5.55664 0.585938C6.45508 0.585938 7.22331 0.745443 7.86133 1.06445C8.49935 1.37695 8.98763 1.81966 9.32617 2.39258C9.67122 2.95898 9.84375 3.62305 9.84375 4.38477C9.84375 4.80143 9.77214 5.22461 9.62891 5.6543C9.49219 6.07747 9.30013 6.50065 9.05273 6.92383C8.81185 7.34701 8.52865 7.76367 8.20312 8.17383C7.88411 8.58398 7.54232 8.98763 7.17773 9.38477L3.36914 13.5156H10.498ZM54.1574 6.75781V8.92578C54.1574 10.0911 54.0533 11.0742 53.8449 11.875C53.6366 12.6758 53.3371 13.3203 52.9465 13.8086C52.5559 14.2969 52.0839 14.6517 51.5305 14.873C50.9836 15.0879 50.3651 15.1953 49.675 15.1953C49.1281 15.1953 48.6236 15.127 48.1613 14.9902C47.6991 14.8535 47.2824 14.6354 46.9113 14.3359C46.5467 14.0299 46.2342 13.6328 45.9738 13.1445C45.7134 12.6562 45.5148 12.0638 45.3781 11.3672C45.2414 10.6706 45.173 9.85677 45.173 8.92578V6.75781C45.173 5.59245 45.2772 4.61589 45.4855 3.82812C45.7004 3.04036 46.0031 2.40885 46.3937 1.93359C46.7844 1.45182 47.2531 1.10677 47.8 0.898438C48.3534 0.690104 48.9719 0.585938 49.6555 0.585938C50.2089 0.585938 50.7167 0.654297 51.1789 0.791016C51.6477 0.921224 52.0643 1.13281 52.4289 1.42578C52.7935 1.71224 53.1027 2.09635 53.3566 2.57812C53.6171 3.05339 53.8156 3.63607 53.9523 4.32617C54.0891 5.01628 54.1574 5.82682 54.1574 6.75781ZM52.341 9.21875V6.45508C52.341 5.81706 52.302 5.25716 52.2238 4.77539C52.1522 4.28711 52.0448 3.87044 51.9016 3.52539C51.7583 3.18034 51.576 2.90039 51.3547 2.68555C51.1398 2.4707 50.8892 2.31445 50.6027 2.2168C50.3228 2.11263 50.007 2.06055 49.6555 2.06055C49.2258 2.06055 48.8449 2.14193 48.5129 2.30469C48.1809 2.46094 47.9009 2.71159 47.673 3.05664C47.4517 3.40169 47.2824 3.85417 47.1652 4.41406C47.048 4.97396 46.9895 5.6543 46.9895 6.45508V9.21875C46.9895 9.85677 47.0253 10.4199 47.0969 10.9082C47.175 11.3965 47.2889 11.8197 47.4387 12.1777C47.5884 12.5293 47.7707 12.819 47.9855 13.0469C48.2004 13.2747 48.4478 13.444 48.7277 13.5547C49.0142 13.6589 49.3299 13.7109 49.675 13.7109C50.1177 13.7109 50.5051 13.6263 50.8371 13.457C51.1691 13.2878 51.4458 13.0241 51.6672 12.666C51.8951 12.3014 52.0643 11.8359 52.175 11.2695C52.2857 10.6966 52.341 10.013 52.341 9.21875ZM98.598 13.5156V15H89.2914V13.7012L93.9496 8.51562C94.5225 7.8776 94.9652 7.33724 95.2777 6.89453C95.5967 6.44531 95.8181 6.04492 95.9418 5.69336C96.072 5.33529 96.1371 4.9707 96.1371 4.59961C96.1371 4.13086 96.0395 3.70768 95.8441 3.33008C95.6553 2.94596 95.3754 2.63997 95.0043 2.41211C94.6332 2.18424 94.184 2.07031 93.6566 2.07031C93.0251 2.07031 92.4978 2.19401 92.0746 2.44141C91.6579 2.68229 91.3454 3.02083 91.1371 3.45703C90.9288 3.89323 90.8246 4.39453 90.8246 4.96094H89.018C89.018 4.16016 89.1937 3.42773 89.5453 2.76367C89.8969 2.09961 90.4177 1.57227 91.1078 1.18164C91.7979 0.784505 92.6475 0.585938 93.6566 0.585938C94.5551 0.585938 95.3233 0.745443 95.9613 1.06445C96.5993 1.37695 97.0876 1.81966 97.4262 2.39258C97.7712 2.95898 97.9437 3.62305 97.9437 4.38477C97.9437 4.80143 97.8721 5.22461 97.7289 5.6543C97.5922 6.07747 97.4001 6.50065 97.1527 6.92383C96.9118 7.34701 96.6286 7.76367 96.3031 8.17383C95.9841 8.58398 95.6423 8.98763 95.2777 9.38477L91.4691 13.5156H98.598ZM139.269 0.703125V15H137.462V2.95898L133.82 4.28711V2.65625L138.986 0.703125H139.269Z" fill="white"/>
</svg>
