<svg width="142" height="39" viewBox="0 0 142 39" fill="none" xmlns="http://www.w3.org/2000/svg">
<path d="M3.38477 0.78125V15H0.464844V0.78125H3.38477ZM8.70703 6.68945V15H5.89453V4.43359H8.53125L8.70703 6.68945ZM8.29688 9.3457H7.53516C7.53516 8.56445 7.63607 7.86133 7.83789 7.23633C8.03971 6.60482 8.32292 6.06771 8.6875 5.625C9.05208 5.17578 9.48503 4.83398 9.98633 4.59961C10.4941 4.35872 11.0605 4.23828 11.6855 4.23828C12.1803 4.23828 12.6328 4.3099 13.043 4.45312C13.4531 4.59635 13.8047 4.82422 14.0977 5.13672C14.3971 5.44922 14.625 5.86263 14.7812 6.37695C14.944 6.89128 15.0254 7.51953 15.0254 8.26172V15H12.1934V8.25195C12.1934 7.7832 12.1283 7.41862 11.998 7.1582C11.8678 6.89779 11.6758 6.71549 11.4219 6.61133C11.1745 6.50065 10.8685 6.44531 10.5039 6.44531C10.1263 6.44531 9.79753 6.52018 9.51758 6.66992C9.24414 6.81966 9.01628 7.02799 8.83398 7.29492C8.6582 7.55534 8.52474 7.86133 8.43359 8.21289C8.34245 8.56445 8.29688 8.94206 8.29688 9.3457ZM23.4043 12.6953V0H26.2363V15H23.6875L23.4043 12.6953ZM16.7246 9.84375V9.63867C16.7246 8.83138 16.8158 8.09896 16.998 7.44141C17.1803 6.77734 17.4473 6.20768 17.7988 5.73242C18.1504 5.25716 18.5833 4.88932 19.0977 4.62891C19.612 4.36849 20.1979 4.23828 20.8555 4.23828C21.474 4.23828 22.0143 4.36849 22.4766 4.62891C22.9453 4.88932 23.3424 5.26042 23.668 5.74219C24 6.21745 24.2669 6.7806 24.4688 7.43164C24.6706 8.07617 24.8171 8.78255 24.9082 9.55078V10C24.8171 10.7357 24.6706 11.4193 24.4688 12.0508C24.2669 12.6823 24 13.2357 23.668 13.7109C23.3424 14.1797 22.9453 14.5443 22.4766 14.8047C22.0078 15.0651 21.4609 15.1953 20.8359 15.1953C20.1784 15.1953 19.5924 15.0618 19.0781 14.7949C18.5703 14.528 18.1406 14.1536 17.7891 13.6719C17.444 13.1901 17.1803 12.6237 16.998 11.9727C16.8158 11.3216 16.7246 10.612 16.7246 9.84375ZM19.5371 9.63867V9.84375C19.5371 10.2799 19.5697 10.6868 19.6348 11.0645C19.7064 11.4421 19.8203 11.7773 19.9766 12.0703C20.1393 12.3568 20.3477 12.5814 20.6016 12.7441C20.862 12.9004 21.1777 12.9785 21.5488 12.9785C22.0306 12.9785 22.4277 12.8711 22.7402 12.6562C23.0527 12.4349 23.2904 12.1322 23.4531 11.748C23.6224 11.3639 23.7201 10.9212 23.7461 10.4199V9.14062C23.7266 8.73047 23.668 8.36263 23.5703 8.03711C23.4792 7.70508 23.3424 7.42188 23.1602 7.1875C22.9844 6.95312 22.763 6.77083 22.4961 6.64062C22.2357 6.51042 21.9264 6.44531 21.5684 6.44531C21.2038 6.44531 20.8913 6.52995 20.6309 6.69922C20.3704 6.86198 20.1589 7.08659 19.9961 7.37305C19.8398 7.65951 19.7227 7.99805 19.6445 8.38867C19.5729 8.77279 19.5371 9.18945 19.5371 9.63867ZM31.4023 4.43359V15H28.5801V4.43359H31.4023ZM28.4043 1.67969C28.4043 1.26953 28.5475 0.93099 28.834 0.664062C29.1204 0.397135 29.5046 0.263672 29.9863 0.263672C30.4616 0.263672 30.8424 0.397135 31.1289 0.664062C31.4219 0.93099 31.5684 1.26953 31.5684 1.67969C31.5684 2.08984 31.4219 2.42839 31.1289 2.69531C30.8424 2.96224 30.4616 3.0957 29.9863 3.0957C29.5046 3.0957 29.1204 2.96224 28.834 2.69531C28.5475 2.42839 28.4043 2.08984 28.4043 1.67969ZM39.4297 12.6172V7.91016C39.4297 7.57161 39.3743 7.2819 39.2637 7.04102C39.153 6.79362 38.9805 6.60156 38.7461 6.46484C38.5182 6.32812 38.222 6.25977 37.8574 6.25977C37.5449 6.25977 37.2747 6.3151 37.0469 6.42578C36.819 6.52995 36.6432 6.68294 36.5195 6.88477C36.3958 7.08008 36.334 7.3112 36.334 7.57812H33.5215C33.5215 7.12891 33.6257 6.70247 33.834 6.29883C34.0423 5.89518 34.3451 5.54036 34.7422 5.23438C35.1393 4.92188 35.6113 4.67773 36.1582 4.50195C36.7116 4.32617 37.3301 4.23828 38.0137 4.23828C38.834 4.23828 39.5632 4.375 40.2012 4.64844C40.8392 4.92188 41.3405 5.33203 41.7051 5.87891C42.0762 6.42578 42.2617 7.10938 42.2617 7.92969V12.4512C42.2617 13.0306 42.2975 13.5059 42.3691 13.877C42.4408 14.2415 42.5449 14.5605 42.6816 14.834V15H39.8398C39.7031 14.7135 39.599 14.3555 39.5273 13.9258C39.4622 13.4896 39.4297 13.0534 39.4297 12.6172ZM39.8008 8.56445L39.8203 10.1562H38.248C37.877 10.1562 37.5547 10.1986 37.2812 10.2832C37.0078 10.3678 36.7832 10.4883 36.6074 10.6445C36.4316 10.7943 36.3014 10.9701 36.2168 11.1719C36.1387 11.3737 36.0996 11.5951 36.0996 11.8359C36.0996 12.0768 36.1549 12.2949 36.2656 12.4902C36.3763 12.679 36.5358 12.8288 36.7441 12.9395C36.9525 13.0436 37.1966 13.0957 37.4766 13.0957C37.8997 13.0957 38.2676 13.0111 38.5801 12.8418C38.8926 12.6725 39.1335 12.4642 39.3027 12.2168C39.4785 11.9694 39.5697 11.735 39.5762 11.5137L40.3184 12.7051C40.2142 12.972 40.071 13.2487 39.8887 13.5352C39.7129 13.8216 39.4883 14.0918 39.2148 14.3457C38.9414 14.5931 38.6126 14.7982 38.2285 14.9609C37.8444 15.1172 37.3887 15.1953 36.8613 15.1953C36.1908 15.1953 35.582 15.0618 35.0352 14.7949C34.4948 14.5215 34.0651 14.1471 33.7461 13.6719C33.4336 13.1901 33.2773 12.6432 33.2773 12.0312C33.2773 11.4779 33.3815 10.9863 33.5898 10.5566C33.7982 10.127 34.1042 9.76562 34.5078 9.47266C34.918 9.17318 35.429 8.94857 36.041 8.79883C36.653 8.64258 37.3626 8.56445 38.1699 8.56445H39.8008ZM5.83594 31.7598H2.18359L2.16406 29.748H5.23047C5.77083 29.748 6.21354 29.6797 6.55859 29.543C6.90365 29.3997 7.16081 29.1947 7.33008 28.9277C7.50586 28.6543 7.59375 28.3223 7.59375 27.9316C7.59375 27.4889 7.50911 27.1309 7.33984 26.8574C7.17708 26.584 6.91992 26.3854 6.56836 26.2617C6.22331 26.138 5.77734 26.0762 5.23047 26.0762H3.19922V38H0.269531V23.7812H5.23047C6.05729 23.7812 6.79622 23.8594 7.44727 24.0156C8.10482 24.1719 8.66146 24.4095 9.11719 24.7285C9.57292 25.0475 9.92122 25.4512 10.1621 25.9395C10.403 26.4212 10.5234 26.9941 10.5234 27.6582C10.5234 28.2441 10.39 28.7845 10.123 29.2793C9.86263 29.7741 9.44922 30.1777 8.88281 30.4902C8.32292 30.8027 7.59049 30.9753 6.68555 31.0078L5.83594 31.7598ZM5.70898 38H1.38281L2.52539 35.7148H5.70898C6.22331 35.7148 6.64323 35.6335 6.96875 35.4707C7.29427 35.3014 7.53516 35.0736 7.69141 34.7871C7.84766 34.5007 7.92578 34.1719 7.92578 33.8008C7.92578 33.3841 7.85417 33.0228 7.71094 32.7168C7.57422 32.4108 7.35286 32.1764 7.04688 32.0137C6.74089 31.8444 6.33724 31.7598 5.83594 31.7598H3.01367L3.0332 29.748H6.54883L7.22266 30.5391C8.08854 30.526 8.78516 30.679 9.3125 30.998C9.84635 31.3105 10.2337 31.7174 10.4746 32.2188C10.722 32.7201 10.8457 33.2572 10.8457 33.8301C10.8457 34.7415 10.6471 35.5098 10.25 36.1348C9.85286 36.7533 9.27018 37.2188 8.50195 37.5312C7.74023 37.8438 6.80924 38 5.70898 38ZM19.1172 35.4707V27.4336H21.9297V38H19.2832L19.1172 35.4707ZM19.4297 33.3027L20.2598 33.2832C20.2598 33.9863 20.1784 34.6406 20.0156 35.2461C19.8529 35.8451 19.6087 36.3659 19.2832 36.8086C18.9577 37.2448 18.5475 37.5866 18.0527 37.834C17.5579 38.0749 16.9753 38.1953 16.3047 38.1953C15.7904 38.1953 15.3151 38.1237 14.8789 37.9805C14.4492 37.8307 14.0781 37.5996 13.7656 37.2871C13.4596 36.9681 13.2188 36.5612 13.043 36.0664C12.8737 35.5651 12.7891 34.9629 12.7891 34.2598V27.4336H15.6016V34.2793C15.6016 34.5918 15.6374 34.8555 15.709 35.0703C15.7871 35.2852 15.8945 35.4609 16.0312 35.5977C16.168 35.7344 16.3275 35.832 16.5098 35.8906C16.6986 35.9492 16.9069 35.9785 17.1348 35.9785C17.7142 35.9785 18.1699 35.8613 18.502 35.627C18.8405 35.3926 19.0781 35.0736 19.2148 34.6699C19.3581 34.2598 19.4297 33.804 19.4297 33.3027ZM29.791 35.0801C29.791 34.8783 29.7324 34.696 29.6152 34.5332C29.498 34.3704 29.2799 34.2207 28.9609 34.084C28.6484 33.9408 28.196 33.8105 27.6035 33.6934C27.0697 33.5762 26.5716 33.4297 26.1094 33.2539C25.6536 33.0716 25.2565 32.8535 24.918 32.5996C24.5859 32.3457 24.3255 32.0462 24.1367 31.7012C23.9479 31.3496 23.8535 30.9492 23.8535 30.5C23.8535 30.0573 23.9479 29.6406 24.1367 29.25C24.332 28.8594 24.6087 28.5143 24.9668 28.2148C25.3314 27.9089 25.7741 27.6712 26.2949 27.502C26.8223 27.3262 27.4147 27.2383 28.0723 27.2383C28.9902 27.2383 29.778 27.3848 30.4355 27.6777C31.0996 27.9707 31.6074 28.3743 31.959 28.8887C32.3171 29.3965 32.4961 29.9759 32.4961 30.627H29.6836C29.6836 30.3535 29.625 30.1094 29.5078 29.8945C29.3971 29.6732 29.2214 29.5007 28.9805 29.377C28.7461 29.2467 28.4401 29.1816 28.0625 29.1816C27.75 29.1816 27.4798 29.237 27.252 29.3477C27.0241 29.4518 26.8483 29.5951 26.7246 29.7773C26.6074 29.9531 26.5488 30.1484 26.5488 30.3633C26.5488 30.526 26.5814 30.6725 26.6465 30.8027C26.7181 30.9264 26.832 31.0404 26.9883 31.1445C27.1445 31.2487 27.3464 31.3464 27.5938 31.4375C27.8477 31.5221 28.1602 31.6003 28.5312 31.6719C29.293 31.8281 29.9733 32.0332 30.5723 32.2871C31.1712 32.5345 31.6465 32.873 31.998 33.3027C32.3496 33.7259 32.5254 34.2826 32.5254 34.9727C32.5254 35.4414 32.4212 35.8711 32.2129 36.2617C32.0046 36.6523 31.7051 36.9941 31.3145 37.2871C30.9238 37.5736 30.4551 37.7982 29.9082 37.9609C29.3678 38.1172 28.7591 38.1953 28.082 38.1953C27.099 38.1953 26.2656 38.0195 25.582 37.668C24.9049 37.3164 24.3906 36.8704 24.0391 36.3301C23.694 35.7832 23.5215 35.2233 23.5215 34.6504H26.1875C26.2005 35.0345 26.2982 35.3438 26.4805 35.5781C26.6693 35.8125 26.9069 35.9818 27.1934 36.0859C27.4863 36.1901 27.8021 36.2422 28.1406 36.2422C28.5052 36.2422 28.8079 36.1934 29.0488 36.0957C29.2897 35.9915 29.472 35.8548 29.5957 35.6855C29.7259 35.5098 29.791 35.3079 29.791 35.0801ZM37.3203 27.4336V38H34.498V27.4336H37.3203ZM34.3223 24.6797C34.3223 24.2695 34.4655 23.931 34.752 23.6641C35.0384 23.3971 35.4225 23.2637 35.9043 23.2637C36.3796 23.2637 36.7604 23.3971 37.0469 23.6641C37.3398 23.931 37.4863 24.2695 37.4863 24.6797C37.4863 25.0898 37.3398 25.4284 37.0469 25.6953C36.7604 25.9622 36.3796 26.0957 35.9043 26.0957C35.4225 26.0957 35.0384 25.9622 34.752 25.6953C34.4655 25.4284 34.3223 25.0898 34.3223 24.6797ZM42.3984 29.6895V38H39.5859V27.4336H42.2227L42.3984 29.6895ZM41.9883 32.3457H41.2266C41.2266 31.5645 41.3275 30.8613 41.5293 30.2363C41.7311 29.6048 42.0143 29.0677 42.3789 28.625C42.7435 28.1758 43.1764 27.834 43.6777 27.5996C44.1855 27.3587 44.752 27.2383 45.377 27.2383C45.8717 27.2383 46.3242 27.3099 46.7344 27.4531C47.1445 27.5964 47.4961 27.8242 47.7891 28.1367C48.0885 28.4492 48.3164 28.8626 48.4727 29.377C48.6354 29.8913 48.7168 30.5195 48.7168 31.2617V38H45.8848V31.252C45.8848 30.7832 45.8197 30.4186 45.6895 30.1582C45.5592 29.8978 45.3672 29.7155 45.1133 29.6113C44.8659 29.5007 44.5599 29.4453 44.1953 29.4453C43.8177 29.4453 43.4889 29.5202 43.209 29.6699C42.9355 29.8197 42.7077 30.028 42.5254 30.2949C42.3496 30.5553 42.2161 30.8613 42.125 31.2129C42.0339 31.5645 41.9883 31.9421 41.9883 32.3457ZM55.7188 38.1953C54.8984 38.1953 54.1628 38.0651 53.5117 37.8047C52.8607 37.5378 52.3073 37.1699 51.8516 36.7012C51.4023 36.2324 51.0573 35.6888 50.8164 35.0703C50.5755 34.4453 50.4551 33.7812 50.4551 33.0781V32.6875C50.4551 31.8867 50.569 31.1543 50.7969 30.4902C51.0247 29.8262 51.3503 29.25 51.7734 28.7617C52.2031 28.2734 52.724 27.8991 53.3359 27.6387C53.9479 27.3717 54.638 27.2383 55.4062 27.2383C56.1549 27.2383 56.819 27.362 57.3984 27.6094C57.9779 27.8568 58.4629 28.2083 58.8535 28.6641C59.2507 29.1198 59.5501 29.6667 59.752 30.3047C59.9538 30.9362 60.0547 31.6393 60.0547 32.4141V33.5859H51.6562V31.7109H57.291V31.4961C57.291 31.1055 57.2194 30.7572 57.0762 30.4512C56.9395 30.1387 56.7311 29.8913 56.4512 29.709C56.1712 29.5267 55.8132 29.4355 55.377 29.4355C55.0059 29.4355 54.6868 29.5169 54.4199 29.6797C54.153 29.8424 53.9349 30.0703 53.7656 30.3633C53.6029 30.6562 53.4792 31.0013 53.3945 31.3984C53.3164 31.7891 53.2773 32.2188 53.2773 32.6875V33.0781C53.2773 33.5013 53.3359 33.8919 53.4531 34.25C53.5768 34.6081 53.7493 34.9173 53.9707 35.1777C54.1986 35.4382 54.472 35.64 54.791 35.7832C55.1165 35.9264 55.4844 35.998 55.8945 35.998C56.4023 35.998 56.8743 35.9004 57.3105 35.7051C57.7533 35.5033 58.1341 35.2005 58.4531 34.7969L59.8203 36.2812C59.599 36.6003 59.2962 36.9062 58.9121 37.1992C58.5345 37.4922 58.0788 37.7331 57.5449 37.9219C57.0111 38.1042 56.4023 38.1953 55.7188 38.1953ZM67.3691 35.0801C67.3691 34.8783 67.3105 34.696 67.1934 34.5332C67.0762 34.3704 66.8581 34.2207 66.5391 34.084C66.2266 33.9408 65.7741 33.8105 65.1816 33.6934C64.6478 33.5762 64.1497 33.4297 63.6875 33.2539C63.2318 33.0716 62.8346 32.8535 62.4961 32.5996C62.1641 32.3457 61.9036 32.0462 61.7148 31.7012C61.526 31.3496 61.4316 30.9492 61.4316 30.5C61.4316 30.0573 61.526 29.6406 61.7148 29.25C61.9102 28.8594 62.1868 28.5143 62.5449 28.2148C62.9095 27.9089 63.3522 27.6712 63.873 27.502C64.4004 27.3262 64.9928 27.2383 65.6504 27.2383C66.5684 27.2383 67.3561 27.3848 68.0137 27.6777C68.6777 27.9707 69.1855 28.3743 69.5371 28.8887C69.8952 29.3965 70.0742 29.9759 70.0742 30.627H67.2617C67.2617 30.3535 67.2031 30.1094 67.0859 29.8945C66.9753 29.6732 66.7995 29.5007 66.5586 29.377C66.3242 29.2467 66.0182 29.1816 65.6406 29.1816C65.3281 29.1816 65.0579 29.237 64.8301 29.3477C64.6022 29.4518 64.4264 29.5951 64.3027 29.7773C64.1855 29.9531 64.127 30.1484 64.127 30.3633C64.127 30.526 64.1595 30.6725 64.2246 30.8027C64.2962 30.9264 64.4102 31.0404 64.5664 31.1445C64.7227 31.2487 64.9245 31.3464 65.1719 31.4375C65.4258 31.5221 65.7383 31.6003 66.1094 31.6719C66.8711 31.8281 67.5514 32.0332 68.1504 32.2871C68.7493 32.5345 69.2246 32.873 69.5762 33.3027C69.9277 33.7259 70.1035 34.2826 70.1035 34.9727C70.1035 35.4414 69.9993 35.8711 69.791 36.2617C69.5827 36.6523 69.2832 36.9941 68.8926 37.2871C68.502 37.5736 68.0332 37.7982 67.4863 37.9609C66.946 38.1172 66.3372 38.1953 65.6602 38.1953C64.6771 38.1953 63.8438 38.0195 63.1602 37.668C62.4831 37.3164 61.9688 36.8704 61.6172 36.3301C61.2721 35.7832 61.0996 35.2233 61.0996 34.6504H63.7656C63.7786 35.0345 63.8763 35.3438 64.0586 35.5781C64.2474 35.8125 64.485 35.9818 64.7715 36.0859C65.0645 36.1901 65.3802 36.2422 65.7188 36.2422C66.0833 36.2422 66.3861 36.1934 66.627 36.0957C66.8678 35.9915 67.0501 35.8548 67.1738 35.6855C67.304 35.5098 67.3691 35.3079 67.3691 35.0801ZM77.6426 35.0801C77.6426 34.8783 77.584 34.696 77.4668 34.5332C77.3496 34.3704 77.1315 34.2207 76.8125 34.084C76.5 33.9408 76.0475 33.8105 75.4551 33.6934C74.9212 33.5762 74.4232 33.4297 73.9609 33.2539C73.5052 33.0716 73.1081 32.8535 72.7695 32.5996C72.4375 32.3457 72.1771 32.0462 71.9883 31.7012C71.7995 31.3496 71.7051 30.9492 71.7051 30.5C71.7051 30.0573 71.7995 29.6406 71.9883 29.25C72.1836 28.8594 72.4603 28.5143 72.8184 28.2148C73.1829 27.9089 73.6257 27.6712 74.1465 27.502C74.6738 27.3262 75.2663 27.2383 75.9238 27.2383C76.8418 27.2383 77.6296 27.3848 78.2871 27.6777C78.9512 27.9707 79.459 28.3743 79.8105 28.8887C80.1686 29.3965 80.3477 29.9759 80.3477 30.627H77.5352C77.5352 30.3535 77.4766 30.1094 77.3594 29.8945C77.2487 29.6732 77.0729 29.5007 76.832 29.377C76.5977 29.2467 76.2917 29.1816 75.9141 29.1816C75.6016 29.1816 75.3314 29.237 75.1035 29.3477C74.8757 29.4518 74.6999 29.5951 74.5762 29.7773C74.459 29.9531 74.4004 30.1484 74.4004 30.3633C74.4004 30.526 74.4329 30.6725 74.498 30.8027C74.5697 30.9264 74.6836 31.0404 74.8398 31.1445C74.9961 31.2487 75.1979 31.3464 75.4453 31.4375C75.6992 31.5221 76.0117 31.6003 76.3828 31.6719C77.1445 31.8281 77.8249 32.0332 78.4238 32.2871C79.0228 32.5345 79.498 32.873 79.8496 33.3027C80.2012 33.7259 80.377 34.2826 80.377 34.9727C80.377 35.4414 80.2728 35.8711 80.0645 36.2617C79.8561 36.6523 79.5566 36.9941 79.166 37.2871C78.7754 37.5736 78.3066 37.7982 77.7598 37.9609C77.2194 38.1172 76.6107 38.1953 75.9336 38.1953C74.9505 38.1953 74.1172 38.0195 73.4336 37.668C72.7565 37.3164 72.2422 36.8704 71.8906 36.3301C71.5456 35.7832 71.373 35.2233 71.373 34.6504H74.0391C74.0521 35.0345 74.1497 35.3438 74.332 35.5781C74.5208 35.8125 74.7585 35.9818 75.0449 36.0859C75.3379 36.1901 75.6536 36.2422 75.9922 36.2422C76.3568 36.2422 76.6595 36.1934 76.9004 36.0957C77.1413 35.9915 77.3236 35.8548 77.4473 35.6855C77.5775 35.5098 77.6426 35.3079 77.6426 35.0801ZM93.1406 26.2129L89.2734 38H86.1582L91.4414 23.7812H93.4238L93.1406 26.2129ZM96.3535 38L92.4766 26.2129L92.1641 23.7812H94.166L99.4785 38H96.3535ZM96.1777 32.707V35.002H88.668V32.707H96.1777ZM103.307 35.2656L105.504 27.4336H107.291L106.715 30.5098L104.518 38H103.023L103.307 35.2656ZM102.193 27.4336L103.766 35.2559L103.912 38H102.154L99.4785 27.4336H102.193ZM109.303 35.1289L110.836 27.4336H113.561L110.885 38H109.137L109.303 35.1289ZM107.535 27.4336L109.723 35.207L110.025 38H108.521L106.324 30.5195L105.768 27.4336H107.535ZM120.68 35.6172V30.9102C120.68 30.5716 120.624 30.2819 120.514 30.041C120.403 29.7936 120.23 29.6016 119.996 29.4648C119.768 29.3281 119.472 29.2598 119.107 29.2598C118.795 29.2598 118.525 29.3151 118.297 29.4258C118.069 29.5299 117.893 29.6829 117.77 29.8848C117.646 30.0801 117.584 30.3112 117.584 30.5781H114.771C114.771 30.1289 114.876 29.7025 115.084 29.2988C115.292 28.8952 115.595 28.5404 115.992 28.2344C116.389 27.9219 116.861 27.6777 117.408 27.502C117.962 27.3262 118.58 27.2383 119.264 27.2383C120.084 27.2383 120.813 27.375 121.451 27.6484C122.089 27.9219 122.59 28.332 122.955 28.8789C123.326 29.4258 123.512 30.1094 123.512 30.9297V35.4512C123.512 36.0306 123.548 36.5059 123.619 36.877C123.691 37.2415 123.795 37.5605 123.932 37.834V38H121.09C120.953 37.7135 120.849 37.3555 120.777 36.9258C120.712 36.4896 120.68 36.0534 120.68 35.6172ZM121.051 31.5645L121.07 33.1562H119.498C119.127 33.1562 118.805 33.1986 118.531 33.2832C118.258 33.3678 118.033 33.4883 117.857 33.6445C117.682 33.7943 117.551 33.9701 117.467 34.1719C117.389 34.3737 117.35 34.5951 117.35 34.8359C117.35 35.0768 117.405 35.2949 117.516 35.4902C117.626 35.679 117.786 35.8288 117.994 35.9395C118.202 36.0436 118.447 36.0957 118.727 36.0957C119.15 36.0957 119.518 36.0111 119.83 35.8418C120.143 35.6725 120.383 35.4642 120.553 35.2168C120.729 34.9694 120.82 34.735 120.826 34.5137L121.568 35.7051C121.464 35.972 121.321 36.2487 121.139 36.5352C120.963 36.8216 120.738 37.0918 120.465 37.3457C120.191 37.5931 119.863 37.7982 119.479 37.9609C119.094 38.1172 118.639 38.1953 118.111 38.1953C117.441 38.1953 116.832 38.0618 116.285 37.7949C115.745 37.5215 115.315 37.1471 114.996 36.6719C114.684 36.1901 114.527 35.6432 114.527 35.0312C114.527 34.4779 114.632 33.9863 114.84 33.5566C115.048 33.127 115.354 32.7656 115.758 32.4727C116.168 32.1732 116.679 31.9486 117.291 31.7988C117.903 31.6426 118.613 31.5645 119.42 31.5645H121.051ZM128.492 29.7383V38H125.68V27.4336H128.326L128.492 29.7383ZM131.676 27.3652L131.627 29.9727C131.49 29.9531 131.324 29.9368 131.129 29.9238C130.94 29.9043 130.768 29.8945 130.611 29.8945C130.214 29.8945 129.869 29.9466 129.576 30.0508C129.29 30.1484 129.049 30.2949 128.854 30.4902C128.665 30.6855 128.521 30.9232 128.424 31.2031C128.333 31.4831 128.281 31.8021 128.268 32.1602L127.701 31.9844C127.701 31.3008 127.77 30.6725 127.906 30.0996C128.043 29.5202 128.242 29.0156 128.502 28.5859C128.769 28.1562 129.094 27.8242 129.479 27.5898C129.863 27.3555 130.302 27.2383 130.797 27.2383C130.953 27.2383 131.113 27.2513 131.275 27.2773C131.438 27.2969 131.572 27.3262 131.676 27.3652ZM139.049 35.6953V23H141.881V38H139.332L139.049 35.6953ZM132.369 32.8438V32.6387C132.369 31.8314 132.46 31.099 132.643 30.4414C132.825 29.7773 133.092 29.2077 133.443 28.7324C133.795 28.2572 134.228 27.8893 134.742 27.6289C135.257 27.3685 135.842 27.2383 136.5 27.2383C137.118 27.2383 137.659 27.3685 138.121 27.6289C138.59 27.8893 138.987 28.2604 139.312 28.7422C139.645 29.2174 139.911 29.7806 140.113 30.4316C140.315 31.0762 140.462 31.7826 140.553 32.5508V33C140.462 33.7357 140.315 34.4193 140.113 35.0508C139.911 35.6823 139.645 36.2357 139.312 36.7109C138.987 37.1797 138.59 37.5443 138.121 37.8047C137.652 38.0651 137.105 38.1953 136.48 38.1953C135.823 38.1953 135.237 38.0618 134.723 37.7949C134.215 37.528 133.785 37.1536 133.434 36.6719C133.089 36.1901 132.825 35.6237 132.643 34.9727C132.46 34.3216 132.369 33.612 132.369 32.8438ZM135.182 32.6387V32.8438C135.182 33.2799 135.214 33.6868 135.279 34.0645C135.351 34.4421 135.465 34.7773 135.621 35.0703C135.784 35.3568 135.992 35.5814 136.246 35.7441C136.507 35.9004 136.822 35.9785 137.193 35.9785C137.675 35.9785 138.072 35.8711 138.385 35.6562C138.697 35.4349 138.935 35.1322 139.098 34.748C139.267 34.3639 139.365 33.9212 139.391 33.4199V32.1406C139.371 31.7305 139.312 31.3626 139.215 31.0371C139.124 30.7051 138.987 30.4219 138.805 30.1875C138.629 29.9531 138.408 29.7708 138.141 29.6406C137.88 29.5104 137.571 29.4453 137.213 29.4453C136.848 29.4453 136.536 29.5299 136.275 29.6992C136.015 29.862 135.803 30.0866 135.641 30.373C135.484 30.6595 135.367 30.998 135.289 31.3887C135.217 31.7728 135.182 32.1895 135.182 32.6387Z" fill="#FFB533"/>
</svg>
