<svg width="77" height="26" viewBox="0 0 77 26" fill="none" xmlns="http://www.w3.org/2000/svg">
<rect width="77" height="26" rx="6" fill="#827E7E"/>
<path d="M15.666 12.2646H16.6777C17.1882 12.2601 17.5915 12.1279 17.8877 11.8682C18.1885 11.6084 18.3389 11.2324 18.3389 10.7402C18.3389 10.2663 18.2135 9.89941 17.9629 9.63965C17.7168 9.37533 17.3385 9.24316 16.8281 9.24316C16.3815 9.24316 16.0146 9.37305 15.7275 9.63281C15.4404 9.88802 15.2969 10.223 15.2969 10.6377H13.6357C13.6357 10.1273 13.7702 9.66243 14.0391 9.24316C14.3125 8.82389 14.6908 8.49805 15.1738 8.26562C15.6615 8.02865 16.2061 7.91016 16.8076 7.91016C17.8011 7.91016 18.5804 8.16081 19.1455 8.66211C19.7152 9.15885 20 9.85156 20 10.7402C20 11.1868 19.8564 11.6084 19.5693 12.0049C19.2868 12.3968 18.9199 12.693 18.4688 12.8936C19.0156 13.0804 19.4303 13.3743 19.7129 13.7754C20 14.1764 20.1436 14.6549 20.1436 15.2109C20.1436 16.1042 19.8359 16.8151 19.2207 17.3438C18.61 17.8724 17.8057 18.1367 16.8076 18.1367C15.8506 18.1367 15.0667 17.8815 14.4561 17.3711C13.8454 16.8607 13.54 16.1816 13.54 15.334H15.2012C15.2012 15.7715 15.347 16.127 15.6387 16.4004C15.9349 16.6738 16.3314 16.8105 16.8281 16.8105C17.3431 16.8105 17.7487 16.6738 18.0449 16.4004C18.3411 16.127 18.4893 15.7305 18.4893 15.2109C18.4893 14.6868 18.3343 14.2835 18.0244 14.001C17.7145 13.7184 17.2542 13.5771 16.6436 13.5771H15.666V12.2646ZM21.9688 18V8.04688H24.9082C25.7878 8.04688 26.5671 8.24284 27.2461 8.63477C27.9297 9.02669 28.4583 9.58268 28.832 10.3027C29.2057 11.0228 29.3926 11.8477 29.3926 12.7773V13.2764C29.3926 14.2197 29.2035 15.0492 28.8252 15.7646C28.4515 16.4801 27.916 17.0316 27.2188 17.4189C26.526 17.8063 25.7308 18 24.833 18H21.9688ZM23.6982 9.44141V16.6191H24.8262C25.7331 16.6191 26.4281 16.3366 26.9111 15.7715C27.3988 15.2018 27.6471 14.3861 27.6562 13.3242V12.7705C27.6562 11.6904 27.4215 10.8656 26.9521 10.2959C26.4827 9.72624 25.8014 9.44141 24.9082 9.44141H23.6982ZM40.3369 13.7822H36.3311V18H34.6016V8.04688H40.9248V9.44141H36.3311V12.4014H40.3369V13.7822ZM43.9053 18H42.2441V10.6035H43.9053V18ZM42.1416 8.68262C42.1416 8.42741 42.2214 8.21549 42.3809 8.04688C42.5449 7.87826 42.7773 7.79395 43.0781 7.79395C43.3789 7.79395 43.6113 7.87826 43.7754 8.04688C43.9395 8.21549 44.0215 8.42741 44.0215 8.68262C44.0215 8.93327 43.9395 9.1429 43.7754 9.31152C43.6113 9.47559 43.3789 9.55762 43.0781 9.55762C42.7773 9.55762 42.5449 9.47559 42.3809 9.31152C42.2214 9.1429 42.1416 8.93327 42.1416 8.68262ZM47.4873 18H45.8262V7.5H47.4873V18ZM52.5596 18.1367C51.5068 18.1367 50.6523 17.8063 49.9961 17.1455C49.3444 16.4801 49.0186 15.596 49.0186 14.4932V14.2881C49.0186 13.5498 49.1598 12.8913 49.4424 12.3125C49.7295 11.7292 50.1305 11.2757 50.6455 10.9521C51.1605 10.6286 51.7347 10.4668 52.3682 10.4668C53.3753 10.4668 54.1523 10.7881 54.6992 11.4307C55.2507 12.0732 55.5264 12.9824 55.5264 14.1582V14.8281H50.6934C50.7435 15.4388 50.9463 15.9219 51.3018 16.2773C51.6618 16.6328 52.113 16.8105 52.6553 16.8105C53.4163 16.8105 54.0361 16.5029 54.5146 15.8877L55.4102 16.7422C55.1139 17.1842 54.7174 17.5283 54.2207 17.7744C53.7285 18.016 53.1748 18.1367 52.5596 18.1367ZM52.3613 11.7998C51.9056 11.7998 51.5365 11.9593 51.2539 12.2783C50.9759 12.5973 50.7982 13.0417 50.7207 13.6113H53.8857V13.4883C53.8493 12.9323 53.7012 12.513 53.4414 12.2305C53.1816 11.9434 52.8216 11.7998 52.3613 11.7998ZM60.9678 15.9902C60.9678 15.694 60.8447 15.4684 60.5986 15.3135C60.3571 15.1585 59.9538 15.0218 59.3887 14.9033C58.8236 14.7848 58.3519 14.6344 57.9736 14.4521C57.1442 14.0511 56.7295 13.4701 56.7295 12.709C56.7295 12.071 56.9984 11.5378 57.5361 11.1094C58.0739 10.681 58.7575 10.4668 59.5869 10.4668C60.471 10.4668 61.1842 10.6855 61.7266 11.123C62.2734 11.5605 62.5469 12.1279 62.5469 12.8252H60.8857C60.8857 12.5062 60.7673 12.2419 60.5303 12.0322C60.2933 11.818 59.9788 11.7109 59.5869 11.7109C59.2223 11.7109 58.9238 11.7952 58.6914 11.9639C58.4635 12.1325 58.3496 12.3581 58.3496 12.6406C58.3496 12.8958 58.4567 13.0941 58.6709 13.2354C58.8851 13.3766 59.318 13.5202 59.9697 13.666C60.6214 13.8073 61.1318 13.9782 61.501 14.1787C61.8747 14.3747 62.1504 14.6117 62.3281 14.8896C62.5104 15.1676 62.6016 15.5049 62.6016 15.9014C62.6016 16.5667 62.3258 17.1068 61.7744 17.5215C61.223 17.9316 60.5007 18.1367 59.6074 18.1367C59.0013 18.1367 58.4613 18.0273 57.9873 17.8086C57.5133 17.5898 57.1442 17.2891 56.8799 16.9062C56.6156 16.5234 56.4834 16.111 56.4834 15.6689H58.0967C58.1195 16.0609 58.2676 16.3639 58.541 16.5781C58.8145 16.7878 59.1768 16.8926 59.6279 16.8926C60.0654 16.8926 60.3981 16.8105 60.626 16.6465C60.8538 16.4779 60.9678 16.2591 60.9678 15.9902Z" fill="white"/>
</svg>
