<svg width="52" height="26" viewBox="0 0 52 26" fill="none" xmlns="http://www.w3.org/2000/svg">
<rect width="52" height="26" rx="6" fill="#827E7E"/>
<path d="M14.6514 15.4023H10.4814L9.54492 18H8.19141L11.9922 8.04688H13.1406L16.9482 18H15.6016L14.6514 15.4023ZM10.8779 14.3223H14.2617L12.5664 9.66699L10.8779 14.3223ZM22.5742 17.2686C22.082 17.8473 21.3597 18.1367 20.4072 18.1367C19.6188 18.1367 19.0173 17.9089 18.6025 17.4531C18.1924 16.9928 17.985 16.3138 17.9805 15.416V10.6035H19.2451V15.3818C19.2451 16.5029 19.7008 17.0635 20.6123 17.0635C21.5785 17.0635 22.221 16.7035 22.54 15.9834V10.6035H23.8047V18H22.6016L22.5742 17.2686ZM25.4248 14.2402C25.4248 13.1055 25.6937 12.194 26.2314 11.5059C26.7692 10.8132 27.4733 10.4668 28.3438 10.4668C29.2096 10.4668 29.8955 10.763 30.4014 11.3555V7.5H31.666V18H30.5039L30.4424 17.207C29.9365 17.8268 29.2324 18.1367 28.3301 18.1367C27.4733 18.1367 26.7738 17.7858 26.2314 17.084C25.6937 16.3822 25.4248 15.4661 25.4248 14.3359V14.2402ZM26.6895 14.3838C26.6895 15.2223 26.8626 15.8786 27.209 16.3525C27.5553 16.8265 28.0339 17.0635 28.6445 17.0635C29.4466 17.0635 30.0322 16.7035 30.4014 15.9834V12.5859C30.0231 11.8887 29.4421 11.54 28.6582 11.54C28.0384 11.54 27.5553 11.7793 27.209 12.2578C26.8626 12.7363 26.6895 13.445 26.6895 14.3838ZM35.0088 18H33.7441V10.6035H35.0088V18ZM33.6416 8.6416C33.6416 8.43652 33.7031 8.26335 33.8262 8.12207C33.9538 7.98079 34.1406 7.91016 34.3867 7.91016C34.6328 7.91016 34.8197 7.98079 34.9473 8.12207C35.0749 8.26335 35.1387 8.43652 35.1387 8.6416C35.1387 8.84668 35.0749 9.01758 34.9473 9.1543C34.8197 9.29102 34.6328 9.35938 34.3867 9.35938C34.1406 9.35938 33.9538 9.29102 33.8262 9.1543C33.7031 9.01758 33.6416 8.84668 33.6416 8.6416ZM36.7041 14.2334C36.7041 13.5088 36.8454 12.8571 37.1279 12.2783C37.415 11.6995 37.8115 11.2529 38.3174 10.9385C38.8278 10.624 39.4089 10.4668 40.0605 10.4668C41.0677 10.4668 41.8812 10.8154 42.501 11.5127C43.1253 12.21 43.4375 13.1374 43.4375 14.2949V14.3838C43.4375 15.1038 43.2985 15.751 43.0205 16.3252C42.7471 16.8949 42.3529 17.3392 41.8379 17.6582C41.3275 17.9772 40.7396 18.1367 40.0742 18.1367C39.0716 18.1367 38.2581 17.7881 37.6338 17.0908C37.014 16.3936 36.7041 15.4707 36.7041 14.3223V14.2334ZM37.9756 14.3838C37.9756 15.2041 38.1647 15.8626 38.543 16.3594C38.9258 16.8561 39.4362 17.1045 40.0742 17.1045C40.7168 17.1045 41.2272 16.8538 41.6055 16.3525C41.9837 15.8467 42.1729 15.1403 42.1729 14.2334C42.1729 13.4222 41.9792 12.766 41.5918 12.2646C41.209 11.7588 40.6986 11.5059 40.0605 11.5059C39.4362 11.5059 38.9326 11.7542 38.5498 12.251C38.167 12.7477 37.9756 13.4587 37.9756 14.3838Z" fill="white"/>
</svg>
