<svg width="77" height="26" viewBox="0 0 77 26" fill="none" xmlns="http://www.w3.org/2000/svg">
<rect width="77" height="26" rx="6" fill="#827E7E"/>
<path d="M30.6064 14.7598C30.5062 15.8216 30.1143 16.651 29.4307 17.248C28.7471 17.8405 27.8379 18.1367 26.7031 18.1367C25.9102 18.1367 25.2106 17.9499 24.6045 17.5762C24.0029 17.1979 23.5381 16.6624 23.21 15.9697C22.8818 15.277 22.7109 14.4727 22.6973 13.5566V12.627C22.6973 11.6882 22.8636 10.861 23.1963 10.1455C23.529 9.43001 24.0052 8.87858 24.625 8.49121C25.2493 8.10384 25.9694 7.91016 26.7852 7.91016C27.8835 7.91016 28.7676 8.20866 29.4375 8.80566C30.1074 9.40267 30.4971 10.2458 30.6064 11.335H28.8838C28.8018 10.6195 28.5921 10.1045 28.2549 9.79004C27.9222 9.47103 27.4323 9.31152 26.7852 9.31152C26.0332 9.31152 25.4544 9.58724 25.0488 10.1387C24.6478 10.6855 24.4427 11.4899 24.4336 12.5518V13.4336C24.4336 14.5091 24.625 15.3294 25.0078 15.8945C25.3952 16.4596 25.9603 16.7422 26.7031 16.7422C27.3822 16.7422 27.8926 16.5895 28.2344 16.2842C28.5762 15.9788 28.7926 15.4707 28.8838 14.7598H30.6064ZM31.6865 14.2334C31.6865 13.5088 31.8301 12.8571 32.1172 12.2783C32.4043 11.695 32.8076 11.2484 33.3271 10.9385C33.8467 10.624 34.4437 10.4668 35.1182 10.4668C36.1162 10.4668 36.9251 10.7881 37.5449 11.4307C38.1693 12.0732 38.5065 12.9255 38.5566 13.9873L38.5635 14.377C38.5635 15.1061 38.4222 15.7578 38.1396 16.332C37.8617 16.9062 37.4606 17.3506 36.9365 17.665C36.417 17.9795 35.8154 18.1367 35.1318 18.1367C34.0882 18.1367 33.252 17.7904 32.623 17.0977C31.9987 16.4004 31.6865 15.473 31.6865 14.3154V14.2334ZM33.3477 14.377C33.3477 15.138 33.5049 15.735 33.8193 16.168C34.1338 16.5964 34.5713 16.8105 35.1318 16.8105C35.6924 16.8105 36.1276 16.5918 36.4375 16.1543C36.752 15.7168 36.9092 15.0765 36.9092 14.2334C36.9092 13.486 36.7474 12.8936 36.4238 12.4561C36.1048 12.0186 35.6696 11.7998 35.1182 11.7998C34.5758 11.7998 34.1452 12.0163 33.8262 12.4492C33.5072 12.8776 33.3477 13.5202 33.3477 14.377ZM39.6572 14.2471C39.6572 13.1077 39.9215 12.194 40.4502 11.5059C40.9788 10.8132 41.6875 10.4668 42.5762 10.4668C43.36 10.4668 43.9935 10.7402 44.4766 11.2871V7.5H46.1377V18H44.6338L44.5518 17.2344C44.055 17.8359 43.3919 18.1367 42.5625 18.1367C41.6966 18.1367 40.9948 17.7881 40.457 17.0908C39.9238 16.3936 39.6572 15.4456 39.6572 14.2471ZM41.3184 14.3906C41.3184 15.1426 41.4619 15.7305 41.749 16.1543C42.0407 16.5736 42.4531 16.7832 42.9863 16.7832C43.6654 16.7832 44.1621 16.4801 44.4766 15.874V12.7158C44.1712 12.1234 43.679 11.8271 43 11.8271C42.4622 11.8271 42.0475 12.0413 41.7559 12.4697C41.4642 12.8936 41.3184 13.5339 41.3184 14.3906ZM51.1279 18.1367C50.0752 18.1367 49.2207 17.8063 48.5645 17.1455C47.9128 16.4801 47.5869 15.596 47.5869 14.4932V14.2881C47.5869 13.5498 47.7282 12.8913 48.0107 12.3125C48.2979 11.7292 48.6989 11.2757 49.2139 10.9521C49.7288 10.6286 50.3031 10.4668 50.9365 10.4668C51.9437 10.4668 52.7207 10.7881 53.2676 11.4307C53.819 12.0732 54.0947 12.9824 54.0947 14.1582V14.8281H49.2617C49.3118 15.4388 49.5146 15.9219 49.8701 16.2773C50.2301 16.6328 50.6813 16.8105 51.2236 16.8105C51.9847 16.8105 52.6045 16.5029 53.083 15.8877L53.9785 16.7422C53.6823 17.1842 53.2858 17.5283 52.7891 17.7744C52.2969 18.016 51.7432 18.1367 51.1279 18.1367ZM50.9297 11.7998C50.474 11.7998 50.1048 11.9593 49.8223 12.2783C49.5443 12.5973 49.3665 13.0417 49.2891 13.6113H52.4541V13.4883C52.4176 12.9323 52.2695 12.513 52.0098 12.2305C51.75 11.9434 51.39 11.7998 50.9297 11.7998Z" fill="white"/>
</svg>
