<svg width="77" height="26" viewBox="0 0 77 26" fill="none" xmlns="http://www.w3.org/2000/svg">
<rect width="77" height="26" rx="6" fill="#827E7E"/>
<path d="M19.6406 16.708C19.2806 17.1774 18.7816 17.5329 18.1436 17.7744C17.5055 18.016 16.7809 18.1367 15.9697 18.1367C15.1357 18.1367 14.3975 17.9476 13.7549 17.5693C13.1123 17.1911 12.6156 16.651 12.2646 15.9492C11.9183 15.2428 11.7383 14.4202 11.7246 13.4814V12.7021C11.7246 11.1982 12.0846 10.0247 12.8047 9.18164C13.5247 8.33398 14.5296 7.91016 15.8193 7.91016C16.9268 7.91016 17.8063 8.18359 18.458 8.73047C19.1097 9.27734 19.5016 10.0658 19.6338 11.0957H17.9385C17.7471 9.89714 17.0521 9.29785 15.8535 9.29785C15.0788 9.29785 14.4886 9.57812 14.083 10.1387C13.682 10.6947 13.4746 11.5127 13.4609 12.5928V13.3584C13.4609 14.4339 13.6865 15.2702 14.1377 15.8672C14.5934 16.4596 15.2246 16.7559 16.0312 16.7559C16.9154 16.7559 17.5443 16.5553 17.918 16.1543V14.2061H15.8672V12.8936H19.6406V16.708ZM25.2529 12.1211C25.0342 12.0846 24.8086 12.0664 24.5762 12.0664C23.8151 12.0664 23.3024 12.3581 23.0381 12.9414V18H21.377V10.6035H22.9629L23.0039 11.4307C23.4049 10.7881 23.9609 10.4668 24.6719 10.4668C24.9089 10.4668 25.1048 10.4987 25.2598 10.5625L25.2529 12.1211ZM30.5166 18C30.4437 17.8587 30.3799 17.6286 30.3252 17.3096C29.7965 17.861 29.1494 18.1367 28.3838 18.1367C27.641 18.1367 27.0348 17.9248 26.5654 17.501C26.096 17.0771 25.8613 16.5531 25.8613 15.9287C25.8613 15.1403 26.153 14.5365 26.7363 14.1172C27.3242 13.6934 28.1628 13.4814 29.252 13.4814H30.2705V12.9961C30.2705 12.6133 30.1634 12.3079 29.9492 12.0801C29.735 11.8477 29.4092 11.7314 28.9717 11.7314C28.5934 11.7314 28.2835 11.8271 28.042 12.0186C27.8005 12.2054 27.6797 12.4447 27.6797 12.7363H26.0186C26.0186 12.3307 26.153 11.9525 26.4219 11.6016C26.6908 11.2461 27.0553 10.9681 27.5156 10.7676C27.9805 10.5671 28.4977 10.4668 29.0674 10.4668C29.9333 10.4668 30.6237 10.6855 31.1387 11.123C31.6536 11.556 31.918 12.1667 31.9316 12.9551V16.291C31.9316 16.9564 32.0251 17.4873 32.2119 17.8838V18H30.5166ZM28.6914 16.8037C29.0195 16.8037 29.3271 16.724 29.6143 16.5645C29.9059 16.4049 30.1247 16.1908 30.2705 15.9219V14.5273H29.375C28.7598 14.5273 28.2972 14.6344 27.9873 14.8486C27.6774 15.0628 27.5225 15.3659 27.5225 15.7578C27.5225 16.0768 27.6273 16.332 27.8369 16.5234C28.0511 16.7103 28.3359 16.8037 28.6914 16.8037ZM40.1484 14.377C40.1484 15.5208 39.8887 16.4346 39.3691 17.1182C38.8496 17.7972 38.1523 18.1367 37.2773 18.1367C36.4661 18.1367 35.8167 17.8701 35.3291 17.3369V20.8438H33.668V10.6035H35.1992L35.2676 11.3555C35.7552 10.763 36.4183 10.4668 37.2568 10.4668C38.1592 10.4668 38.8656 10.804 39.376 11.4785C39.891 12.1484 40.1484 13.0804 40.1484 14.2744V14.377ZM38.4941 14.2334C38.4941 13.4951 38.346 12.9095 38.0498 12.4766C37.7581 12.0436 37.3389 11.8271 36.792 11.8271C36.113 11.8271 35.6253 12.1074 35.3291 12.668V15.9492C35.6299 16.5234 36.1221 16.8105 36.8057 16.8105C37.3343 16.8105 37.7467 16.5986 38.043 16.1748C38.3438 15.7464 38.4941 15.0993 38.4941 14.2334ZM43.1973 11.4102C43.7396 10.7812 44.4255 10.4668 45.2549 10.4668C46.8317 10.4668 47.6315 11.3669 47.6543 13.167V18H45.9932V13.2285C45.9932 12.7181 45.8815 12.3581 45.6582 12.1484C45.4395 11.9342 45.1159 11.8271 44.6875 11.8271C44.0221 11.8271 43.5254 12.1234 43.1973 12.7158V18H41.5361V7.5H43.1973V11.4102ZM51.1064 18H49.4453V10.6035H51.1064V18ZM49.3428 8.68262C49.3428 8.42741 49.4225 8.21549 49.582 8.04688C49.7461 7.87826 49.9785 7.79395 50.2793 7.79395C50.5801 7.79395 50.8125 7.87826 50.9766 8.04688C51.1406 8.21549 51.2227 8.42741 51.2227 8.68262C51.2227 8.93327 51.1406 9.1429 50.9766 9.31152C50.8125 9.47559 50.5801 9.55762 50.2793 9.55762C49.9785 9.55762 49.7461 9.47559 49.582 9.31152C49.4225 9.1429 49.3428 8.93327 49.3428 8.68262ZM55.96 16.8105C56.3747 16.8105 56.7188 16.6898 56.9922 16.4482C57.2656 16.2067 57.4115 15.9082 57.4297 15.5527H58.9951C58.9769 16.013 58.8333 16.4437 58.5645 16.8447C58.2956 17.2412 57.931 17.5557 57.4707 17.7881C57.0104 18.0205 56.5137 18.1367 55.9805 18.1367C54.946 18.1367 54.1257 17.8018 53.5195 17.1318C52.9134 16.4619 52.6104 15.5368 52.6104 14.3564V14.1855C52.6104 13.0599 52.9111 12.1598 53.5127 11.4854C54.1143 10.8063 54.9346 10.4668 55.9736 10.4668C56.8532 10.4668 57.5687 10.7243 58.1201 11.2393C58.6761 11.7497 58.9678 12.4219 58.9951 13.2559H57.4297C57.4115 12.832 57.2656 12.4834 56.9922 12.21C56.7233 11.9365 56.3792 11.7998 55.96 11.7998C55.4222 11.7998 55.0075 11.9958 54.7158 12.3877C54.4242 12.7751 54.276 13.3652 54.2715 14.1582V14.4248C54.2715 15.2269 54.415 15.8262 54.7021 16.2227C54.9938 16.6146 55.4131 16.8105 55.96 16.8105ZM64.3955 15.9902C64.3955 15.694 64.2725 15.4684 64.0264 15.3135C63.7848 15.1585 63.3815 15.0218 62.8164 14.9033C62.2513 14.7848 61.7796 14.6344 61.4014 14.4521C60.5719 14.0511 60.1572 13.4701 60.1572 12.709C60.1572 12.071 60.4261 11.5378 60.9639 11.1094C61.5016 10.681 62.1852 10.4668 63.0146 10.4668C63.8988 10.4668 64.612 10.6855 65.1543 11.123C65.7012 11.5605 65.9746 12.1279 65.9746 12.8252H64.3135C64.3135 12.5062 64.195 12.2419 63.958 12.0322C63.721 11.818 63.4066 11.7109 63.0146 11.7109C62.6501 11.7109 62.3516 11.7952 62.1191 11.9639C61.8913 12.1325 61.7773 12.3581 61.7773 12.6406C61.7773 12.8958 61.8844 13.0941 62.0986 13.2354C62.3128 13.3766 62.7458 13.5202 63.3975 13.666C64.0492 13.8073 64.5596 13.9782 64.9287 14.1787C65.3024 14.3747 65.5781 14.6117 65.7559 14.8896C65.9382 15.1676 66.0293 15.5049 66.0293 15.9014C66.0293 16.5667 65.7536 17.1068 65.2021 17.5215C64.6507 17.9316 63.9284 18.1367 63.0352 18.1367C62.429 18.1367 61.889 18.0273 61.415 17.8086C60.9411 17.5898 60.5719 17.2891 60.3076 16.9062C60.0433 16.5234 59.9111 16.111 59.9111 15.6689H61.5244C61.5472 16.0609 61.6953 16.3639 61.9688 16.5781C62.2422 16.7878 62.6045 16.8926 63.0557 16.8926C63.4932 16.8926 63.8258 16.8105 64.0537 16.6465C64.2816 16.4779 64.3955 16.2591 64.3955 15.9902Z" fill="white"/>
</svg>
