<svg width="77" height="26" viewBox="0 0 77 26" fill="none" xmlns="http://www.w3.org/2000/svg">
<rect width="77" height="26" rx="6" fill="#827E7E"/>
<path d="M19.0586 14.3018V18H17.3291V8.04688H21.1367C22.2487 8.04688 23.1305 8.33626 23.7822 8.91504C24.4385 9.49382 24.7666 10.2594 24.7666 11.2119C24.7666 12.1872 24.4453 12.946 23.8027 13.4883C23.1647 14.0306 22.2692 14.3018 21.1162 14.3018H19.0586ZM19.0586 12.9141H21.1367C21.752 12.9141 22.2214 12.7705 22.5449 12.4834C22.8685 12.1917 23.0303 11.7725 23.0303 11.2256C23.0303 10.6878 22.8662 10.2594 22.5381 9.94043C22.21 9.61686 21.7588 9.45052 21.1846 9.44141H19.0586V12.9141ZM27.7607 11.4102C28.3031 10.7812 28.9889 10.4668 29.8184 10.4668C31.3952 10.4668 32.195 11.3669 32.2178 13.167V18H30.5566V13.2285C30.5566 12.7181 30.445 12.3581 30.2217 12.1484C30.0029 11.9342 29.6794 11.8271 29.251 11.8271C28.5856 11.8271 28.0889 12.1234 27.7607 12.7158V18H26.0996V7.5H27.7607V11.4102ZM33.5918 14.2334C33.5918 13.5088 33.7354 12.8571 34.0225 12.2783C34.3096 11.695 34.7129 11.2484 35.2324 10.9385C35.752 10.624 36.349 10.4668 37.0234 10.4668C38.0215 10.4668 38.8304 10.7881 39.4502 11.4307C40.0745 12.0732 40.4118 12.9255 40.4619 13.9873L40.4688 14.377C40.4688 15.1061 40.3275 15.7578 40.0449 16.332C39.7669 16.9062 39.3659 17.3506 38.8418 17.665C38.3223 17.9795 37.7207 18.1367 37.0371 18.1367C35.9935 18.1367 35.1572 17.7904 34.5283 17.0977C33.904 16.4004 33.5918 15.473 33.5918 14.3154V14.2334ZM35.2529 14.377C35.2529 15.138 35.4102 15.735 35.7246 16.168C36.0391 16.5964 36.4766 16.8105 37.0371 16.8105C37.5977 16.8105 38.0329 16.5918 38.3428 16.1543C38.6572 15.7168 38.8145 15.0765 38.8145 14.2334C38.8145 13.486 38.6527 12.8936 38.3291 12.4561C38.0101 12.0186 37.5749 11.7998 37.0234 11.7998C36.4811 11.7998 36.0505 12.0163 35.7314 12.4492C35.4124 12.8776 35.2529 13.5202 35.2529 14.377ZM43.9551 8.80566V10.6035H45.2607V11.834H43.9551V15.9629C43.9551 16.2454 44.0098 16.4505 44.1191 16.5781C44.2331 16.7012 44.4336 16.7627 44.7207 16.7627C44.9121 16.7627 45.1058 16.7399 45.3018 16.6943V17.9795C44.9235 18.0843 44.5589 18.1367 44.208 18.1367C42.932 18.1367 42.2939 17.4326 42.2939 16.0244V11.834H41.0771V10.6035H42.2939V8.80566H43.9551ZM46.0195 14.2334C46.0195 13.5088 46.1631 12.8571 46.4502 12.2783C46.7373 11.695 47.1406 11.2484 47.6602 10.9385C48.1797 10.624 48.7767 10.4668 49.4512 10.4668C50.4492 10.4668 51.2581 10.7881 51.8779 11.4307C52.5023 12.0732 52.8395 12.9255 52.8896 13.9873L52.8965 14.377C52.8965 15.1061 52.7552 15.7578 52.4727 16.332C52.1947 16.9062 51.7936 17.3506 51.2695 17.665C50.75 17.9795 50.1484 18.1367 49.4648 18.1367C48.4212 18.1367 47.585 17.7904 46.9561 17.0977C46.3317 16.4004 46.0195 15.473 46.0195 14.3154V14.2334ZM47.6807 14.377C47.6807 15.138 47.8379 15.735 48.1523 16.168C48.4668 16.5964 48.9043 16.8105 49.4648 16.8105C50.0254 16.8105 50.4606 16.5918 50.7705 16.1543C51.085 15.7168 51.2422 15.0765 51.2422 14.2334C51.2422 13.486 51.0804 12.8936 50.7568 12.4561C50.4378 12.0186 50.0026 11.7998 49.4512 11.7998C48.9089 11.7998 48.4782 12.0163 48.1592 12.4492C47.8402 12.8776 47.6807 13.5202 47.6807 14.377ZM58.4473 15.9902C58.4473 15.694 58.3242 15.4684 58.0781 15.3135C57.8366 15.1585 57.4333 15.0218 56.8682 14.9033C56.3031 14.7848 55.8314 14.6344 55.4531 14.4521C54.6237 14.0511 54.209 13.4701 54.209 12.709C54.209 12.071 54.4779 11.5378 55.0156 11.1094C55.5534 10.681 56.237 10.4668 57.0664 10.4668C57.9505 10.4668 58.6637 10.6855 59.2061 11.123C59.7529 11.5605 60.0264 12.1279 60.0264 12.8252H58.3652C58.3652 12.5062 58.2467 12.2419 58.0098 12.0322C57.7728 11.818 57.4583 11.7109 57.0664 11.7109C56.7018 11.7109 56.4033 11.7952 56.1709 11.9639C55.943 12.1325 55.8291 12.3581 55.8291 12.6406C55.8291 12.8958 55.9362 13.0941 56.1504 13.2354C56.3646 13.3766 56.7975 13.5202 57.4492 13.666C58.1009 13.8073 58.6113 13.9782 58.9805 14.1787C59.3542 14.3747 59.6299 14.6117 59.8076 14.8896C59.9899 15.1676 60.0811 15.5049 60.0811 15.9014C60.0811 16.5667 59.8053 17.1068 59.2539 17.5215C58.7025 17.9316 57.9801 18.1367 57.0869 18.1367C56.4808 18.1367 55.9408 18.0273 55.4668 17.8086C54.9928 17.5898 54.6237 17.2891 54.3594 16.9062C54.0951 16.5234 53.9629 16.111 53.9629 15.6689H55.5762C55.599 16.0609 55.7471 16.3639 56.0205 16.5781C56.2939 16.7878 56.6562 16.8926 57.1074 16.8926C57.5449 16.8926 57.8776 16.8105 58.1055 16.6465C58.3333 16.4779 58.4473 16.2591 58.4473 15.9902Z" fill="white"/>
</svg>
