<svg width="77" height="26" viewBox="0 0 77 26" fill="none" xmlns="http://www.w3.org/2000/svg">
<rect width="77" height="26" rx="6" fill="#827E7E"/>
<path d="M25.5186 15.833L28.0479 8.04688H29.9482L26.3662 18H24.6914L21.123 8.04688H23.0166L25.5186 15.833ZM32.6826 18H31.0215V10.6035H32.6826V18ZM30.9189 8.68262C30.9189 8.42741 30.9987 8.21549 31.1582 8.04688C31.3223 7.87826 31.5547 7.79395 31.8555 7.79395C32.1562 7.79395 32.3887 7.87826 32.5527 8.04688C32.7168 8.21549 32.7988 8.42741 32.7988 8.68262C32.7988 8.93327 32.7168 9.1429 32.5527 9.31152C32.3887 9.47559 32.1562 9.55762 31.8555 9.55762C31.5547 9.55762 31.3223 9.47559 31.1582 9.31152C30.9987 9.1429 30.9189 8.93327 30.9189 8.68262ZM34.1865 14.2471C34.1865 13.1077 34.4508 12.194 34.9795 11.5059C35.5081 10.8132 36.2168 10.4668 37.1055 10.4668C37.8893 10.4668 38.5228 10.7402 39.0059 11.2871V7.5H40.667V18H39.1631L39.0811 17.2344C38.5843 17.8359 37.9212 18.1367 37.0918 18.1367C36.2259 18.1367 35.5241 17.7881 34.9863 17.0908C34.4531 16.3936 34.1865 15.4456 34.1865 14.2471ZM35.8477 14.3906C35.8477 15.1426 35.9912 15.7305 36.2783 16.1543C36.57 16.5736 36.9824 16.7832 37.5156 16.7832C38.1947 16.7832 38.6914 16.4801 39.0059 15.874V12.7158C38.7005 12.1234 38.2083 11.8271 37.5293 11.8271C36.9915 11.8271 36.5768 12.0413 36.2852 12.4697C35.9935 12.8936 35.8477 13.5339 35.8477 14.3906ZM45.6572 18.1367C44.6045 18.1367 43.75 17.8063 43.0938 17.1455C42.4421 16.4801 42.1162 15.596 42.1162 14.4932V14.2881C42.1162 13.5498 42.2575 12.8913 42.54 12.3125C42.8271 11.7292 43.2282 11.2757 43.7432 10.9521C44.2581 10.6286 44.8324 10.4668 45.4658 10.4668C46.473 10.4668 47.25 10.7881 47.7969 11.4307C48.3483 12.0732 48.624 12.9824 48.624 14.1582V14.8281H43.791C43.8411 15.4388 44.0439 15.9219 44.3994 16.2773C44.7594 16.6328 45.2106 16.8105 45.7529 16.8105C46.514 16.8105 47.1338 16.5029 47.6123 15.8877L48.5078 16.7422C48.2116 17.1842 47.8151 17.5283 47.3184 17.7744C46.8262 18.016 46.2725 18.1367 45.6572 18.1367ZM45.459 11.7998C45.0033 11.7998 44.6341 11.9593 44.3516 12.2783C44.0736 12.5973 43.8958 13.0417 43.8184 13.6113H46.9834V13.4883C46.9469 12.9323 46.7988 12.513 46.5391 12.2305C46.2793 11.9434 45.9193 11.7998 45.459 11.7998ZM49.6084 14.2334C49.6084 13.5088 49.752 12.8571 50.0391 12.2783C50.3262 11.695 50.7295 11.2484 51.249 10.9385C51.7686 10.624 52.3656 10.4668 53.04 10.4668C54.0381 10.4668 54.847 10.7881 55.4668 11.4307C56.0911 12.0732 56.4284 12.9255 56.4785 13.9873L56.4854 14.377C56.4854 15.1061 56.3441 15.7578 56.0615 16.332C55.7835 16.9062 55.3825 17.3506 54.8584 17.665C54.3389 17.9795 53.7373 18.1367 53.0537 18.1367C52.0101 18.1367 51.1738 17.7904 50.5449 17.0977C49.9206 16.4004 49.6084 15.473 49.6084 14.3154V14.2334ZM51.2695 14.377C51.2695 15.138 51.4268 15.735 51.7412 16.168C52.0557 16.5964 52.4932 16.8105 53.0537 16.8105C53.6143 16.8105 54.0495 16.5918 54.3594 16.1543C54.6738 15.7168 54.8311 15.0765 54.8311 14.2334C54.8311 13.486 54.6693 12.8936 54.3457 12.4561C54.0267 12.0186 53.5915 11.7998 53.04 11.7998C52.4977 11.7998 52.0671 12.0163 51.748 12.4492C51.429 12.8776 51.2695 13.5202 51.2695 14.377Z" fill="white"/>
</svg>
