<svg width="110" height="26" viewBox="0 0 110 26" fill="none" xmlns="http://www.w3.org/2000/svg">
<rect width="110" height="26" rx="6" fill="#827E7E"/>
<path d="M14.8184 15.5391L16.3496 8.04688H18.0654L15.7686 18H14.1143L12.2207 10.7334L10.2861 18H8.625L6.32812 8.04688H8.04395L9.58887 15.5254L11.4893 8.04688H12.9385L14.8184 15.5391ZM22.208 18.1367C21.1553 18.1367 20.3008 17.8063 19.6445 17.1455C18.9928 16.4801 18.667 15.596 18.667 14.4932V14.2881C18.667 13.5498 18.8083 12.8913 19.0908 12.3125C19.3779 11.7292 19.779 11.2757 20.2939 10.9521C20.8089 10.6286 21.3831 10.4668 22.0166 10.4668C23.0238 10.4668 23.8008 10.7881 24.3477 11.4307C24.8991 12.0732 25.1748 12.9824 25.1748 14.1582V14.8281H20.3418C20.3919 15.4388 20.5947 15.9219 20.9502 16.2773C21.3102 16.6328 21.7614 16.8105 22.3037 16.8105C23.0648 16.8105 23.6846 16.5029 24.1631 15.8877L25.0586 16.7422C24.7624 17.1842 24.3659 17.5283 23.8691 17.7744C23.377 18.016 22.8232 18.1367 22.208 18.1367ZM22.0098 11.7998C21.554 11.7998 21.1849 11.9593 20.9023 12.2783C20.6243 12.5973 20.4466 13.0417 20.3691 13.6113H23.5342V13.4883C23.4977 12.9323 23.3496 12.513 23.0898 12.2305C22.8301 11.9434 22.4701 11.7998 22.0098 11.7998ZM32.9609 14.377C32.9609 15.5254 32.7035 16.4391 32.1885 17.1182C31.6781 17.7972 30.974 18.1367 30.0762 18.1367C29.2103 18.1367 28.5358 17.8245 28.0527 17.2002L27.9707 18H26.4668V7.5H28.1279V11.3145C28.6064 10.7493 29.2513 10.4668 30.0625 10.4668C30.9648 10.4668 31.6735 10.8018 32.1885 11.4717C32.7035 12.1416 32.9609 13.0781 32.9609 14.2812V14.377ZM31.2998 14.2334C31.2998 13.4313 31.1585 12.8298 30.876 12.4287C30.5934 12.0277 30.1833 11.8271 29.6455 11.8271C28.9255 11.8271 28.4196 12.1416 28.1279 12.7705V15.8193C28.4242 16.4619 28.9346 16.7832 29.6592 16.7832C30.1787 16.7832 30.5798 16.5895 30.8623 16.2021C31.1449 15.8148 31.2907 15.2292 31.2998 14.4453V14.2334ZM44.7871 9.44141H41.6836V18H39.9678V9.44141H36.8916V8.04688H44.7871V9.44141ZM48.5811 18.1367C47.5283 18.1367 46.6738 17.8063 46.0176 17.1455C45.3659 16.4801 45.04 15.596 45.04 14.4932V14.2881C45.04 13.5498 45.1813 12.8913 45.4639 12.3125C45.751 11.7292 46.152 11.2757 46.667 10.9521C47.182 10.6286 47.7562 10.4668 48.3896 10.4668C49.3968 10.4668 50.1738 10.7881 50.7207 11.4307C51.2721 12.0732 51.5479 12.9824 51.5479 14.1582V14.8281H46.7148C46.765 15.4388 46.9678 15.9219 47.3232 16.2773C47.6833 16.6328 48.1344 16.8105 48.6768 16.8105C49.4378 16.8105 50.0576 16.5029 50.5361 15.8877L51.4316 16.7422C51.1354 17.1842 50.7389 17.5283 50.2422 17.7744C49.75 18.016 49.1963 18.1367 48.5811 18.1367ZM48.3828 11.7998C47.9271 11.7998 47.5579 11.9593 47.2754 12.2783C46.9974 12.5973 46.8197 13.0417 46.7422 13.6113H49.9072V13.4883C49.8708 12.9323 49.7227 12.513 49.4629 12.2305C49.2031 11.9434 48.8431 11.7998 48.3828 11.7998ZM54.4053 10.6035L54.4531 11.376C54.9727 10.7699 55.6836 10.4668 56.5859 10.4668C57.5749 10.4668 58.2516 10.8451 58.6162 11.6016C59.154 10.8451 59.9105 10.4668 60.8857 10.4668C61.7015 10.4668 62.3076 10.6924 62.7041 11.1436C63.1051 11.5947 63.3102 12.2601 63.3193 13.1396V18H61.6582V13.1875C61.6582 12.7181 61.5557 12.374 61.3506 12.1553C61.1455 11.9365 60.806 11.8271 60.332 11.8271C59.9538 11.8271 59.6439 11.9297 59.4023 12.1348C59.1654 12.3353 58.999 12.5996 58.9033 12.9277L58.9102 18H57.249V13.1328C57.2262 12.2624 56.7819 11.8271 55.916 11.8271C55.2507 11.8271 54.779 12.0983 54.501 12.6406V18H52.8398V10.6035H54.4053ZM71.502 14.377C71.502 15.5208 71.2422 16.4346 70.7227 17.1182C70.2031 17.7972 69.5059 18.1367 68.6309 18.1367C67.8197 18.1367 67.1702 17.8701 66.6826 17.3369V20.8438H65.0215V10.6035H66.5527L66.6211 11.3555C67.1087 10.763 67.7718 10.4668 68.6104 10.4668C69.5127 10.4668 70.2191 10.804 70.7295 11.4785C71.2445 12.1484 71.502 13.0804 71.502 14.2744V14.377ZM69.8477 14.2334C69.8477 13.4951 69.6995 12.9095 69.4033 12.4766C69.1117 12.0436 68.6924 11.8271 68.1455 11.8271C67.4665 11.8271 66.9788 12.1074 66.6826 12.668V15.9492C66.9834 16.5234 67.4756 16.8105 68.1592 16.8105C68.6878 16.8105 69.1003 16.5986 69.3965 16.1748C69.6973 15.7464 69.8477 15.0993 69.8477 14.2334ZM74.6807 18H73.0195V7.5H74.6807V18ZM80.915 18C80.8421 17.8587 80.7783 17.6286 80.7236 17.3096C80.195 17.861 79.5479 18.1367 78.7822 18.1367C78.0394 18.1367 77.4333 17.9248 76.9639 17.501C76.4945 17.0771 76.2598 16.5531 76.2598 15.9287C76.2598 15.1403 76.5514 14.5365 77.1348 14.1172C77.7227 13.6934 78.5612 13.4814 79.6504 13.4814H80.6689V12.9961C80.6689 12.6133 80.5618 12.3079 80.3477 12.0801C80.1335 11.8477 79.8076 11.7314 79.3701 11.7314C78.9919 11.7314 78.682 11.8271 78.4404 12.0186C78.1989 12.2054 78.0781 12.4447 78.0781 12.7363H76.417C76.417 12.3307 76.5514 11.9525 76.8203 11.6016C77.0892 11.2461 77.4538 10.9681 77.9141 10.7676C78.3789 10.5671 78.8962 10.4668 79.4658 10.4668C80.3317 10.4668 81.0221 10.6855 81.5371 11.123C82.0521 11.556 82.3164 12.1667 82.3301 12.9551V16.291C82.3301 16.9564 82.4235 17.4873 82.6104 17.8838V18H80.915ZM79.0898 16.8037C79.418 16.8037 79.7256 16.724 80.0127 16.5645C80.3044 16.4049 80.5231 16.1908 80.6689 15.9219V14.5273H79.7734C79.1582 14.5273 78.6956 14.6344 78.3857 14.8486C78.0758 15.0628 77.9209 15.3659 77.9209 15.7578C77.9209 16.0768 78.0257 16.332 78.2354 16.5234C78.4495 16.7103 78.7344 16.8037 79.0898 16.8037ZM86.1514 8.80566V10.6035H87.457V11.834H86.1514V15.9629C86.1514 16.2454 86.2061 16.4505 86.3154 16.5781C86.4294 16.7012 86.6299 16.7627 86.917 16.7627C87.1084 16.7627 87.3021 16.7399 87.498 16.6943V17.9795C87.1198 18.0843 86.7552 18.1367 86.4043 18.1367C85.1283 18.1367 84.4902 17.4326 84.4902 16.0244V11.834H83.2734V10.6035H84.4902V8.80566H86.1514ZM91.9893 18.1367C90.9365 18.1367 90.082 17.8063 89.4258 17.1455C88.7741 16.4801 88.4482 15.596 88.4482 14.4932V14.2881C88.4482 13.5498 88.5895 12.8913 88.8721 12.3125C89.1592 11.7292 89.5602 11.2757 90.0752 10.9521C90.5902 10.6286 91.1644 10.4668 91.7979 10.4668C92.805 10.4668 93.582 10.7881 94.1289 11.4307C94.6803 12.0732 94.9561 12.9824 94.9561 14.1582V14.8281H90.123C90.1732 15.4388 90.376 15.9219 90.7314 16.2773C91.0915 16.6328 91.5426 16.8105 92.085 16.8105C92.846 16.8105 93.4658 16.5029 93.9443 15.8877L94.8398 16.7422C94.5436 17.1842 94.1471 17.5283 93.6504 17.7744C93.1582 18.016 92.6045 18.1367 91.9893 18.1367ZM91.791 11.7998C91.3353 11.7998 90.9661 11.9593 90.6836 12.2783C90.4056 12.5973 90.2279 13.0417 90.1504 13.6113H93.3154V13.4883C93.279 12.9323 93.1309 12.513 92.8711 12.2305C92.6113 11.9434 92.2513 11.7998 91.791 11.7998ZM100.397 15.9902C100.397 15.694 100.274 15.4684 100.028 15.3135C99.7868 15.1585 99.3835 15.0218 98.8184 14.9033C98.2533 14.7848 97.7816 14.6344 97.4033 14.4521C96.5739 14.0511 96.1592 13.4701 96.1592 12.709C96.1592 12.071 96.4281 11.5378 96.9658 11.1094C97.5036 10.681 98.1872 10.4668 99.0166 10.4668C99.9007 10.4668 100.614 10.6855 101.156 11.123C101.703 11.5605 101.977 12.1279 101.977 12.8252H100.315C100.315 12.5062 100.197 12.2419 99.96 12.0322C99.723 11.818 99.4085 11.7109 99.0166 11.7109C98.652 11.7109 98.3535 11.7952 98.1211 11.9639C97.8932 12.1325 97.7793 12.3581 97.7793 12.6406C97.7793 12.8958 97.8864 13.0941 98.1006 13.2354C98.3148 13.3766 98.7477 13.5202 99.3994 13.666C100.051 13.8073 100.562 13.9782 100.931 14.1787C101.304 14.3747 101.58 14.6117 101.758 14.8896C101.94 15.1676 102.031 15.5049 102.031 15.9014C102.031 16.5667 101.756 17.1068 101.204 17.5215C100.653 17.9316 99.9303 18.1367 99.0371 18.1367C98.431 18.1367 97.891 18.0273 97.417 17.8086C96.943 17.5898 96.5739 17.2891 96.3096 16.9062C96.0452 16.5234 95.9131 16.111 95.9131 15.6689H97.5264C97.5492 16.0609 97.6973 16.3639 97.9707 16.5781C98.2441 16.7878 98.6064 16.8926 99.0576 16.8926C99.4951 16.8926 99.8278 16.8105 100.056 16.6465C100.284 16.4779 100.397 16.2591 100.397 15.9902Z" fill="white"/>
</svg>
